<svg version="1.1" xmlns="http://www.w3.org/2000/svg" viewBox="0 0 280.35724285714286 173.92857142857133" width="560.7144857142857" height="347.85714285714266">
  <!-- svg-source:excalidraw -->
  
  <defs>
    <style class="style-fonts">
      
    </style>
    
  </defs>
  <g transform="translate(37.50000000000023 32.5) rotate(0 0.00004999999998744897 0.00004999999998744897)" stroke="none"><path fill="#868e96" d="M 1.57,-1.57 Q 1.57,-1.57 1.77,-1.27 1.98,-0.98 2.09,-0.64 2.20,-0.29 2.19,0.05 2.18,0.41 2.05,0.75 1.93,1.09 1.70,1.37 1.48,1.65 1.18,1.84 0.87,2.04 0.52,2.12 0.18,2.21 -0.17,2.18 -0.53,2.15 -0.86,2.01 -1.19,1.87 -1.46,1.63 -1.73,1.39 -1.90,1.07 -2.08,0.76 -2.15,0.41 -2.21,0.05 -2.17,-0.29 -2.12,-0.65 -1.96,-0.97 -1.80,-1.29 -1.54,-1.54 -1.29,-1.80 -0.97,-1.96 -0.65,-2.12 -0.29,-2.17 0.06,-2.21 0.41,-2.15 0.76,-2.08 1.07,-1.90 1.39,-1.73 1.63,-1.46 1.87,-1.19 2.01,-0.86 2.15,-0.53 2.18,-0.17 2.21,0.18 2.12,0.52 2.03,0.87 1.84,1.18 1.65,1.48 1.37,1.70 1.09,1.93 0.75,2.05 0.41,2.18 0.05,2.19 -0.30,2.20 -0.64,2.09 -0.98,1.98 -1.27,1.77 -1.57,1.56 -1.57,1.57 -1.57,1.57 -1.73,1.35 -1.90,1.14 -2.01,0.90 -2.12,0.66 -2.16,0.39 -2.21,0.13 -2.20,-0.13 -2.18,-0.40 -2.10,-0.65 -2.02,-0.91 -1.88,-1.14 -1.74,-1.36 -1.55,-1.55 -1.36,-1.74 -1.14,-1.88 -0.91,-2.02 -0.65,-2.10 -0.40,-2.18 -0.13,-2.20 0.13,-2.21 0.39,-2.16 0.66,-2.12 0.90,-2.01 1.14,-1.90 1.35,-1.73 1.57,-1.57 1.57,-1.57 L 1.57,-1.57 Z"></path></g><g transform="translate(234.64285714285734 43.57142857142844) rotate(0 0.00004999999998744897 0.00004999999998744897)" stroke="none"><path fill="#868e96" d="M 1.57,-1.57 Q 1.57,-1.57 1.77,-1.27 1.98,-0.98 2.09,-0.64 2.20,-0.29 2.19,0.05 2.18,0.41 2.05,0.75 1.93,1.09 1.70,1.37 1.48,1.65 1.18,1.84 0.87,2.04 0.52,2.12 0.18,2.21 -0.17,2.18 -0.53,2.15 -0.86,2.01 -1.19,1.87 -1.46,1.63 -1.73,1.39 -1.90,1.07 -2.08,0.76 -2.15,0.41 -2.21,0.05 -2.17,-0.29 -2.12,-0.65 -1.96,-0.97 -1.80,-1.29 -1.54,-1.54 -1.29,-1.80 -0.97,-1.96 -0.65,-2.12 -0.29,-2.17 0.06,-2.21 0.41,-2.15 0.76,-2.08 1.07,-1.90 1.39,-1.73 1.63,-1.46 1.87,-1.19 2.01,-0.86 2.15,-0.53 2.18,-0.17 2.21,0.18 2.12,0.52 2.03,0.87 1.84,1.18 1.65,1.48 1.37,1.70 1.09,1.93 0.75,2.05 0.41,2.18 0.05,2.19 -0.30,2.20 -0.64,2.09 -0.98,1.98 -1.27,1.77 -1.57,1.56 -1.57,1.57 -1.57,1.57 -1.73,1.35 -1.90,1.14 -2.01,0.90 -2.12,0.66 -2.16,0.39 -2.21,0.13 -2.20,-0.13 -2.18,-0.40 -2.10,-0.65 -2.02,-0.91 -1.88,-1.14 -1.74,-1.36 -1.55,-1.55 -1.36,-1.74 -1.14,-1.88 -0.91,-2.02 -0.65,-2.10 -0.40,-2.18 -0.13,-2.20 0.13,-2.21 0.39,-2.16 0.66,-2.12 0.90,-2.01 1.14,-1.90 1.35,-1.73 1.57,-1.57 1.57,-1.57 L 1.57,-1.57 Z"></path></g><g transform="translate(257.8571428571429 78.21428571428555) rotate(0 0.00004999999998744897 0.00004999999998744897)" stroke="none"><path fill="#868e96" d="M 1.57,-1.57 Q 1.57,-1.57 1.77,-1.27 1.98,-0.98 2.09,-0.64 2.20,-0.29 2.19,0.05 2.18,0.41 2.05,0.75 1.93,1.09 1.70,1.37 1.48,1.65 1.18,1.84 0.87,2.04 0.52,2.12 0.18,2.21 -0.17,2.18 -0.53,2.15 -0.86,2.01 -1.19,1.87 -1.46,1.63 -1.73,1.39 -1.90,1.07 -2.08,0.76 -2.15,0.41 -2.21,0.05 -2.17,-0.29 -2.12,-0.65 -1.96,-0.97 -1.80,-1.29 -1.54,-1.54 -1.29,-1.80 -0.97,-1.96 -0.65,-2.12 -0.29,-2.17 0.06,-2.21 0.41,-2.15 0.76,-2.08 1.07,-1.90 1.39,-1.73 1.63,-1.46 1.87,-1.19 2.01,-0.86 2.15,-0.53 2.18,-0.17 2.21,0.18 2.12,0.52 2.03,0.87 1.84,1.18 1.65,1.48 1.37,1.70 1.09,1.93 0.75,2.05 0.41,2.18 0.05,2.19 -0.30,2.20 -0.64,2.09 -0.98,1.98 -1.27,1.77 -1.57,1.56 -1.57,1.57 -1.57,1.57 -1.73,1.35 -1.90,1.14 -2.01,0.90 -2.12,0.66 -2.16,0.39 -2.21,0.13 -2.20,-0.13 -2.18,-0.40 -2.10,-0.65 -2.02,-0.91 -1.88,-1.14 -1.74,-1.36 -1.55,-1.55 -1.36,-1.74 -1.14,-1.88 -0.91,-2.02 -0.65,-2.10 -0.40,-2.18 -0.13,-2.20 0.13,-2.21 0.39,-2.16 0.66,-2.12 0.90,-2.01 1.14,-1.90 1.35,-1.73 1.57,-1.57 1.57,-1.57 L 1.57,-1.57 Z"></path></g><g transform="translate(240.00000000000023 50.35714285714266) rotate(0 5.357142857142776 8.928571428571445)" stroke="none"><path fill="#868e96" d="M 1.67,-0.97 Q 1.67,-0.97 4.47,3.99 7.28,8.96 8.64,11.27 10.00,13.58 11.04,15.29 12.08,17.00 12.18,17.24 12.28,17.48 12.30,17.74 12.32,18.01 12.25,18.26 12.19,18.51 12.04,18.73 11.90,18.95 11.69,19.11 11.49,19.27 11.24,19.36 10.99,19.45 10.73,19.45 10.47,19.45 10.22,19.37 9.97,19.29 9.76,19.14 9.55,18.98 9.40,18.77 9.25,18.55 9.18,18.30 9.10,18.05 9.11,17.79 9.12,17.53 9.22,17.28 9.31,17.04 9.48,16.83 9.64,16.63 9.87,16.50 10.09,16.36 10.34,16.30 10.60,16.24 10.86,16.26 11.12,16.29 11.36,16.39 11.60,16.50 11.79,16.68 11.98,16.86 12.11,17.09 12.24,17.31 12.28,17.57 12.33,17.83 12.29,18.09 12.25,18.35 12.13,18.58 12.01,18.81 11.82,19.00 11.64,19.18 11.40,19.29 11.16,19.41 10.90,19.44 10.64,19.47 10.39,19.42 10.13,19.36 9.90,19.23 9.68,19.10 9.51,18.90 9.33,18.71 9.33,18.71 9.33,18.71 8.27,17.01 7.20,15.32 5.71,13.03 4.21,10.74 1.27,5.86 -1.67,0.97 -1.76,0.76 -1.86,0.54 -1.89,0.31 -1.93,0.08 -1.91,-0.14 -1.90,-0.37 -1.82,-0.60 -1.75,-0.82 -1.63,-1.02 -1.50,-1.21 -1.33,-1.38 -1.17,-1.54 -0.97,-1.66 -0.76,-1.78 -0.54,-1.84 -0.31,-1.91 -0.08,-1.92 0.14,-1.93 0.37,-1.88 0.60,-1.84 0.81,-1.74 1.02,-1.64 1.21,-1.49 1.39,-1.34 1.53,-1.16 1.67,-0.97 1.67,-0.97 L 1.67,-0.97 Z"></path></g><g transform="translate(270.3571428571429 33.57142857142844) rotate(0 0.00004999999998744897 0.00004999999998744897)" stroke="none"><path fill="#868e96" d="M 1.57,-1.57 Q 1.57,-1.57 1.77,-1.27 1.98,-0.98 2.09,-0.64 2.20,-0.29 2.19,0.05 2.18,0.41 2.05,0.75 1.93,1.09 1.70,1.37 1.48,1.65 1.18,1.84 0.87,2.04 0.52,2.12 0.18,2.21 -0.17,2.18 -0.53,2.15 -0.86,2.01 -1.19,1.87 -1.46,1.63 -1.73,1.39 -1.90,1.07 -2.08,0.76 -2.15,0.41 -2.21,0.05 -2.17,-0.29 -2.12,-0.65 -1.96,-0.97 -1.80,-1.29 -1.54,-1.54 -1.29,-1.80 -0.97,-1.96 -0.65,-2.12 -0.29,-2.17 0.06,-2.21 0.41,-2.15 0.76,-2.08 1.07,-1.90 1.39,-1.73 1.63,-1.46 1.87,-1.19 2.01,-0.86 2.15,-0.53 2.18,-0.17 2.21,0.18 2.12,0.52 2.03,0.87 1.84,1.18 1.65,1.48 1.37,1.70 1.09,1.93 0.75,2.05 0.41,2.18 0.05,2.19 -0.30,2.20 -0.64,2.09 -0.98,1.98 -1.27,1.77 -1.57,1.56 -1.57,1.57 -1.57,1.57 -1.73,1.35 -1.90,1.14 -2.01,0.90 -2.12,0.66 -2.16,0.39 -2.21,0.13 -2.20,-0.13 -2.18,-0.40 -2.10,-0.65 -2.02,-0.91 -1.88,-1.14 -1.74,-1.36 -1.55,-1.55 -1.36,-1.74 -1.14,-1.88 -0.91,-2.02 -0.65,-2.10 -0.40,-2.18 -0.13,-2.20 0.13,-2.21 0.39,-2.16 0.66,-2.12 0.90,-2.01 1.14,-1.90 1.35,-1.73 1.57,-1.57 1.57,-1.57 L 1.57,-1.57 Z"></path></g><g transform="translate(243.57142857142867 38.92857142857133) rotate(0 8.928571428571445 -1.0714285714285552)" stroke="none"><path fill="#868e96" d="M -0.43,-2.16 Q -0.43,-2.16 3.69,-2.87 7.82,-3.57 10.14,-3.84 12.45,-4.11 15.08,-4.46 17.70,-4.81 18.01,-4.78 18.33,-4.75 18.62,-4.63 18.91,-4.50 19.15,-4.29 19.38,-4.08 19.54,-3.80 19.69,-3.52 19.75,-3.21 19.81,-2.90 19.77,-2.59 19.72,-2.27 19.58,-1.99 19.44,-1.70 19.22,-1.48 18.99,-1.26 18.71,-1.12 18.42,-0.98 18.11,-0.94 17.79,-0.89 17.48,-0.95 17.17,-1.02 16.90,-1.17 16.62,-1.33 16.41,-1.57 16.20,-1.80 16.07,-2.09 15.95,-2.39 15.92,-2.70 15.90,-3.02 15.98,-3.32 16.05,-3.63 16.23,-3.90 16.40,-4.16 16.65,-4.36 16.89,-4.56 17.19,-4.67 17.49,-4.78 17.81,-4.79 18.12,-4.79 18.43,-4.70 18.73,-4.60 18.99,-4.42 19.24,-4.23 19.43,-3.98 19.61,-3.72 19.70,-3.41 19.79,-3.11 19.78,-2.79 19.78,-2.48 19.66,-2.18 19.55,-1.88 19.36,-1.64 19.16,-1.39 18.89,-1.22 18.62,-1.05 18.31,-0.97 18.00,-0.90 18.01,-0.90 18.01,-0.90 15.50,-0.73 13.00,-0.56 10.80,-0.13 8.60,0.29 4.51,1.22 0.43,2.16 0.16,2.18 -0.09,2.20 -0.36,2.16 -0.62,2.11 -0.86,2.01 -1.11,1.90 -1.32,1.74 -1.53,1.58 -1.70,1.37 -1.87,1.17 -1.98,0.93 -2.09,0.69 -2.14,0.42 -2.20,0.16 -2.19,-0.09 -2.17,-0.36 -2.10,-0.61 -2.02,-0.87 -1.89,-1.10 -1.76,-1.33 -1.57,-1.52 -1.38,-1.71 -1.16,-1.85 -0.93,-1.99 -0.68,-2.08 -0.43,-2.16 -0.43,-2.16 L -0.43,-2.16 Z"></path></g><g transform="translate(263.2142857142858 65.71428571428555) rotate(0 2.321428571428669 -11.60714285714289)" stroke="none"><path fill="#868e96" d="M -2.18,-0.19 Q -2.18,-0.19 -1.86,-2.54 -1.54,-4.89 -0.83,-7.27 -0.11,-9.65 0.45,-11.46 1.03,-13.27 1.49,-15.18 1.96,-17.08 2.17,-18.19 2.37,-19.31 2.87,-21.47 3.36,-23.63 3.48,-23.94 3.60,-24.25 3.81,-24.50 4.02,-24.76 4.30,-24.93 4.58,-25.10 4.91,-25.17 5.23,-25.25 5.56,-25.21 5.88,-25.18 6.19,-25.04 6.49,-24.91 6.73,-24.68 6.97,-24.45 7.12,-24.16 7.28,-23.87 7.34,-23.55 7.39,-23.22 7.34,-22.90 7.29,-22.57 7.14,-22.28 6.98,-21.99 6.75,-21.76 6.51,-21.53 6.21,-21.39 5.91,-21.25 5.58,-21.21 5.25,-21.17 4.93,-21.24 4.61,-21.31 4.33,-21.48 4.04,-21.65 3.83,-21.90 3.61,-22.15 3.49,-22.45 3.36,-22.76 3.34,-23.09 3.32,-23.42 3.41,-23.74 3.50,-24.05 3.68,-24.33 3.86,-24.60 4.12,-24.80 4.39,-25.01 4.70,-25.11 5.01,-25.22 5.34,-25.22 5.67,-25.22 5.98,-25.12 6.30,-25.02 6.56,-24.82 6.82,-24.62 7.01,-24.35 7.20,-24.08 7.29,-23.76 7.38,-23.44 7.36,-23.11 7.35,-22.78 7.35,-22.78 7.35,-22.78 6.32,-19.56 5.29,-16.33 4.86,-14.26 4.44,-12.19 3.89,-10.46 3.34,-8.73 2.85,-6.63 2.36,-4.54 2.27,-2.17 2.18,0.19 2.13,0.44 2.07,0.70 1.96,0.94 1.84,1.18 1.68,1.38 1.51,1.59 1.29,1.75 1.08,1.90 0.84,2.01 0.59,2.11 0.33,2.15 0.07,2.19 -0.18,2.17 -0.45,2.14 -0.70,2.06 -0.95,1.97 -1.17,1.83 -1.39,1.69 -1.58,1.50 -1.76,1.30 -1.89,1.07 -2.02,0.84 -2.09,0.59 -2.17,0.33 -2.17,0.07 -2.18,-0.19 -2.18,-0.19 L -2.18,-0.19 Z"></path></g><g transform="translate(223.92857142857156 131.78571428571422) rotate(0 0.00004999999998744897 0.00004999999998744897)" stroke="none"><path fill="#868e96" d="M 1.57,-1.57 Q 1.57,-1.57 1.77,-1.27 1.98,-0.98 2.09,-0.64 2.20,-0.29 2.19,0.05 2.18,0.41 2.05,0.75 1.93,1.09 1.70,1.37 1.48,1.65 1.18,1.84 0.87,2.04 0.52,2.12 0.18,2.21 -0.17,2.18 -0.53,2.15 -0.86,2.01 -1.19,1.87 -1.46,1.63 -1.73,1.39 -1.90,1.07 -2.08,0.76 -2.15,0.41 -2.21,0.05 -2.17,-0.29 -2.12,-0.65 -1.96,-0.97 -1.80,-1.29 -1.54,-1.54 -1.29,-1.80 -0.97,-1.96 -0.65,-2.12 -0.29,-2.17 0.06,-2.21 0.41,-2.15 0.76,-2.08 1.07,-1.90 1.39,-1.73 1.63,-1.46 1.87,-1.19 2.01,-0.86 2.15,-0.53 2.18,-0.17 2.21,0.18 2.12,0.52 2.03,0.87 1.84,1.18 1.65,1.48 1.37,1.70 1.09,1.93 0.75,2.05 0.41,2.18 0.05,2.19 -0.30,2.20 -0.64,2.09 -0.98,1.98 -1.27,1.77 -1.57,1.56 -1.57,1.57 -1.57,1.57 -1.73,1.35 -1.90,1.14 -2.01,0.90 -2.12,0.66 -2.16,0.39 -2.21,0.13 -2.20,-0.13 -2.18,-0.40 -2.10,-0.65 -2.02,-0.91 -1.88,-1.14 -1.74,-1.36 -1.55,-1.55 -1.36,-1.74 -1.14,-1.88 -0.91,-2.02 -0.65,-2.10 -0.40,-2.18 -0.13,-2.20 0.13,-2.21 0.39,-2.16 0.66,-2.12 0.90,-2.01 1.14,-1.90 1.35,-1.73 1.57,-1.57 1.57,-1.57 L 1.57,-1.57 Z"></path></g><g transform="translate(256.07142857142867 84.64285714285711) rotate(0 -12.14285714285711 19.464285714285666)" stroke="none"><path fill="#868e96" d="M 1.54,0.97 Q 1.54,0.97 0.25,2.88 -1.03,4.80 -7.35,14.44 -13.68,24.08 -16.36,28.55 -19.04,33.02 -21.03,36.34 -23.03,39.66 -23.18,39.85 -23.33,40.03 -23.53,40.15 -23.73,40.27 -23.96,40.33 -24.19,40.38 -24.42,40.36 -24.66,40.33 -24.87,40.23 -25.09,40.14 -25.26,39.98 -25.43,39.82 -25.55,39.61 -25.66,39.40 -25.70,39.17 -25.74,38.94 -25.70,38.70 -25.67,38.47 -25.56,38.26 -25.45,38.05 -25.28,37.89 -25.11,37.72 -24.90,37.62 -24.68,37.52 -24.45,37.49 -24.21,37.47 -23.98,37.52 -23.75,37.56 -23.55,37.68 -23.35,37.80 -23.19,37.98 -23.04,38.16 -22.95,38.38 -22.86,38.60 -22.84,38.83 -22.83,39.07 -22.89,39.30 -22.95,39.53 -23.08,39.72 -23.21,39.92 -23.40,40.06 -23.59,40.21 -23.81,40.28 -24.03,40.36 -24.27,40.36 -24.50,40.36 -24.73,40.29 -24.95,40.22 -25.14,40.08 -25.33,39.93 -25.47,39.74 -25.60,39.55 -25.66,39.32 -25.73,39.09 -25.72,38.86 -25.71,38.62 -25.62,38.40 -25.54,38.18 -25.54,38.18 -25.54,38.18 -23.59,34.83 -21.64,31.48 -18.99,26.92 -16.34,22.35 -10.11,12.67 -3.89,2.99 -2.71,1.01 -1.54,-0.97 -1.40,-1.14 -1.26,-1.31 -1.09,-1.44 -0.91,-1.58 -0.71,-1.66 -0.50,-1.75 -0.29,-1.79 -0.07,-1.82 0.14,-1.80 0.36,-1.79 0.57,-1.72 0.78,-1.65 0.96,-1.53 1.15,-1.41 1.30,-1.25 1.46,-1.09 1.57,-0.90 1.68,-0.71 1.74,-0.50 1.80,-0.29 1.81,-0.07 1.82,0.14 1.77,0.36 1.73,0.57 1.63,0.77 1.54,0.97 1.54,0.97 L 1.54,0.97 Z"></path></g><g transform="translate(10 72.85714285714266) rotate(0 0.00004999999998744897 0.00004999999998744897)" stroke="none"><path fill="#868e96" d="M 1.57,-1.57 Q 1.57,-1.57 1.77,-1.27 1.98,-0.98 2.09,-0.64 2.20,-0.29 2.19,0.05 2.18,0.41 2.05,0.75 1.93,1.09 1.70,1.37 1.48,1.65 1.18,1.84 0.87,2.04 0.52,2.12 0.18,2.21 -0.17,2.18 -0.53,2.15 -0.86,2.01 -1.19,1.87 -1.46,1.63 -1.73,1.39 -1.90,1.07 -2.08,0.76 -2.15,0.41 -2.21,0.05 -2.17,-0.29 -2.12,-0.65 -1.96,-0.97 -1.80,-1.29 -1.54,-1.54 -1.29,-1.80 -0.97,-1.96 -0.65,-2.12 -0.29,-2.17 0.06,-2.21 0.41,-2.15 0.76,-2.08 1.07,-1.90 1.39,-1.73 1.63,-1.46 1.87,-1.19 2.01,-0.86 2.15,-0.53 2.18,-0.17 2.21,0.18 2.12,0.52 2.03,0.87 1.84,1.18 1.65,1.48 1.37,1.70 1.09,1.93 0.75,2.05 0.41,2.18 0.05,2.19 -0.30,2.20 -0.64,2.09 -0.98,1.98 -1.27,1.77 -1.57,1.56 -1.57,1.57 -1.57,1.57 -1.73,1.35 -1.90,1.14 -2.01,0.90 -2.12,0.66 -2.16,0.39 -2.21,0.13 -2.20,-0.13 -2.18,-0.40 -2.10,-0.65 -2.02,-0.91 -1.88,-1.14 -1.74,-1.36 -1.55,-1.55 -1.36,-1.74 -1.14,-1.88 -0.91,-2.02 -0.65,-2.10 -0.40,-2.18 -0.13,-2.20 0.13,-2.21 0.39,-2.16 0.66,-2.12 0.90,-2.01 1.14,-1.90 1.35,-1.73 1.57,-1.57 1.57,-1.57 L 1.57,-1.57 Z"></path></g><g transform="translate(95.22817339215953 45.277777172270135) rotate(0 0.00004999999998744897 0.00004999999998744897)" stroke="none"><path fill="#868e96" d="M 1.57,-1.57 Q 1.57,-1.57 1.77,-1.27 1.98,-0.98 2.09,-0.64 2.20,-0.29 2.19,0.05 2.18,0.41 2.05,0.75 1.93,1.09 1.70,1.37 1.48,1.65 1.18,1.84 0.87,2.04 0.52,2.12 0.18,2.21 -0.17,2.18 -0.53,2.15 -0.86,2.01 -1.19,1.87 -1.46,1.63 -1.73,1.39 -1.90,1.07 -2.08,0.76 -2.15,0.41 -2.21,0.05 -2.17,-0.29 -2.12,-0.65 -1.96,-0.97 -1.80,-1.29 -1.54,-1.54 -1.29,-1.80 -0.97,-1.96 -0.65,-2.12 -0.29,-2.17 0.06,-2.21 0.41,-2.15 0.76,-2.08 1.07,-1.90 1.39,-1.73 1.63,-1.46 1.87,-1.19 2.01,-0.86 2.15,-0.53 2.18,-0.17 2.21,0.18 2.12,0.52 2.03,0.87 1.84,1.18 1.65,1.48 1.37,1.70 1.09,1.93 0.75,2.05 0.41,2.18 0.05,2.19 -0.30,2.20 -0.64,2.09 -0.98,1.98 -1.27,1.77 -1.57,1.56 -1.57,1.57 -1.57,1.57 -1.73,1.35 -1.90,1.14 -2.01,0.90 -2.12,0.66 -2.16,0.39 -2.21,0.13 -2.20,-0.13 -2.18,-0.40 -2.10,-0.65 -2.02,-0.91 -1.88,-1.14 -1.74,-1.36 -1.55,-1.55 -1.36,-1.74 -1.14,-1.88 -0.91,-2.02 -0.65,-2.10 -0.40,-2.18 -0.13,-2.20 0.13,-2.21 0.39,-2.16 0.66,-2.12 0.90,-2.01 1.14,-1.90 1.35,-1.73 1.57,-1.57 1.57,-1.57 L 1.57,-1.57 Z"></path></g><g transform="translate(113.97817339215953 47.36111050560339) rotate(0 26.04166666666663 2.7083333333333712)" stroke="none"><path fill="#868e96" d="M 0,-1.96 Q 0,-1.96 1.79,-1.95 3.59,-1.94 17.63,-0.30 31.67,1.34 41.96,2.56 52.26,3.77 52.52,3.84 52.78,3.91 53.00,4.06 53.22,4.21 53.38,4.43 53.54,4.64 53.63,4.90 53.71,5.15 53.71,5.42 53.71,5.68 53.62,5.94 53.54,6.19 53.37,6.40 53.21,6.62 52.99,6.76 52.77,6.91 52.51,6.98 52.25,7.06 51.99,7.04 51.72,7.03 51.47,6.93 51.22,6.83 51.02,6.65 50.82,6.48 50.68,6.25 50.54,6.02 50.48,5.76 50.43,5.50 50.46,5.23 50.49,4.96 50.60,4.72 50.71,4.48 50.90,4.29 51.08,4.09 51.32,3.97 51.56,3.84 51.82,3.80 52.08,3.76 52.35,3.80 52.61,3.85 52.85,3.97 53.08,4.10 53.27,4.29 53.45,4.49 53.56,4.73 53.67,4.97 53.70,5.24 53.73,5.51 53.67,5.77 53.61,6.03 53.47,6.26 53.33,6.49 53.13,6.66 52.93,6.83 52.68,6.93 52.43,7.03 52.16,7.04 51.89,7.05 51.89,7.05 51.89,7.05 41.58,5.97 31.27,4.88 17.43,3.41 3.59,1.94 1.79,1.95 0,1.96 -0.23,1.94 -0.47,1.91 -0.69,1.82 -0.91,1.74 -1.11,1.60 -1.30,1.47 -1.46,1.29 -1.62,1.11 -1.73,0.90 -1.84,0.69 -1.89,0.46 -1.95,0.23 -1.95,-0.00 -1.95,-0.23 -1.89,-0.46 -1.84,-0.69 -1.73,-0.90 -1.62,-1.11 -1.46,-1.29 -1.30,-1.47 -1.11,-1.60 -0.91,-1.74 -0.69,-1.82 -0.47,-1.91 -0.23,-1.94 0.00,-1.96 0.00,-1.96 L 0,-1.96 Z"></path></g><g transform="translate(180.64484005882628 54.86111050560339) rotate(0 0.00004999999998744897 0.00004999999998744897)" stroke="none"><path fill="#868e96" d="M 1.57,-1.57 Q 1.57,-1.57 1.77,-1.27 1.98,-0.98 2.09,-0.64 2.20,-0.29 2.19,0.05 2.18,0.41 2.05,0.75 1.93,1.09 1.70,1.37 1.48,1.65 1.18,1.84 0.87,2.04 0.52,2.12 0.18,2.21 -0.17,2.18 -0.53,2.15 -0.86,2.01 -1.19,1.87 -1.46,1.63 -1.73,1.39 -1.90,1.07 -2.08,0.76 -2.15,0.41 -2.21,0.05 -2.17,-0.29 -2.12,-0.65 -1.96,-0.97 -1.80,-1.29 -1.54,-1.54 -1.29,-1.80 -0.97,-1.96 -0.65,-2.12 -0.29,-2.17 0.06,-2.21 0.41,-2.15 0.76,-2.08 1.07,-1.90 1.39,-1.73 1.63,-1.46 1.87,-1.19 2.01,-0.86 2.15,-0.53 2.18,-0.17 2.21,0.18 2.12,0.52 2.03,0.87 1.84,1.18 1.65,1.48 1.37,1.70 1.09,1.93 0.75,2.05 0.41,2.18 0.05,2.19 -0.30,2.20 -0.64,2.09 -0.98,1.98 -1.27,1.77 -1.57,1.56 -1.57,1.57 -1.57,1.57 -1.73,1.35 -1.90,1.14 -2.01,0.90 -2.12,0.66 -2.16,0.39 -2.21,0.13 -2.20,-0.13 -2.18,-0.40 -2.10,-0.65 -2.02,-0.91 -1.88,-1.14 -1.74,-1.36 -1.55,-1.55 -1.36,-1.74 -1.14,-1.88 -0.91,-2.02 -0.65,-2.10 -0.40,-2.18 -0.13,-2.20 0.13,-2.21 0.39,-2.16 0.66,-2.12 0.90,-2.01 1.14,-1.90 1.35,-1.73 1.57,-1.57 1.57,-1.57 L 1.57,-1.57 Z"></path></g><g transform="translate(176.47817339215953 68.61111050560339) rotate(0 -7.708333333333371 23.95833333333337)" stroke="none"><path fill="#868e96" d="M 1.90,0.61 Q 1.90,0.61 -2.61,14.35 -7.13,28.10 -10.47,38.26 -13.81,48.43 -13.94,48.67 -14.06,48.91 -14.26,49.10 -14.45,49.29 -14.70,49.41 -14.94,49.52 -15.21,49.56 -15.48,49.59 -15.75,49.54 -16.01,49.48 -16.25,49.34 -16.48,49.21 -16.66,49.00 -16.84,48.80 -16.94,48.55 -17.05,48.30 -17.07,48.02 -17.08,47.75 -17.01,47.49 -16.95,47.23 -16.80,47.00 -16.65,46.77 -16.43,46.61 -16.22,46.44 -15.96,46.35 -15.71,46.26 -15.43,46.25 -15.16,46.25 -14.90,46.33 -14.65,46.42 -14.43,46.58 -14.21,46.74 -14.05,46.96 -13.90,47.19 -13.82,47.45 -13.74,47.71 -13.76,47.98 -13.77,48.25 -13.86,48.50 -13.96,48.76 -14.13,48.97 -14.31,49.18 -14.54,49.32 -14.77,49.46 -15.03,49.53 -15.30,49.59 -15.57,49.56 -15.84,49.54 -16.09,49.43 -16.34,49.31 -16.54,49.13 -16.74,48.95 -16.87,48.71 -17.00,48.47 -17.04,48.20 -17.09,47.93 -17.05,47.67 -17.01,47.40 -17.01,47.40 -17.01,47.40 -13.80,37.19 -10.59,26.99 -6.24,13.19 -1.90,-0.61 -1.80,-0.83 -1.70,-1.04 -1.55,-1.23 -1.39,-1.42 -1.20,-1.57 -1.01,-1.71 -0.79,-1.81 -0.57,-1.91 -0.33,-1.95 -0.10,-1.99 0.13,-1.97 0.37,-1.96 0.60,-1.88 0.83,-1.81 1.04,-1.68 1.24,-1.56 1.41,-1.38 1.58,-1.21 1.70,-1.01 1.82,-0.80 1.89,-0.57 1.96,-0.34 1.98,-0.10 1.99,0.13 1.94,0.37 1.90,0.61 1.90,0.61 L 1.90,0.61 Z"></path></g><g transform="translate(156.47817339215953 129.8611105056034) rotate(0 0.00004999999998744897 0.00004999999998744897)" stroke="none"><path fill="#868e96" d="M 1.57,-1.57 Q 1.57,-1.57 1.77,-1.27 1.98,-0.98 2.09,-0.64 2.20,-0.29 2.19,0.05 2.18,0.41 2.05,0.75 1.93,1.09 1.70,1.37 1.48,1.65 1.18,1.84 0.87,2.04 0.52,2.12 0.18,2.21 -0.17,2.18 -0.53,2.15 -0.86,2.01 -1.19,1.87 -1.46,1.63 -1.73,1.39 -1.90,1.07 -2.08,0.76 -2.15,0.41 -2.21,0.05 -2.17,-0.29 -2.12,-0.65 -1.96,-0.97 -1.80,-1.29 -1.54,-1.54 -1.29,-1.80 -0.97,-1.96 -0.65,-2.12 -0.29,-2.17 0.06,-2.21 0.41,-2.15 0.76,-2.08 1.07,-1.90 1.39,-1.73 1.63,-1.46 1.87,-1.19 2.01,-0.86 2.15,-0.53 2.18,-0.17 2.21,0.18 2.12,0.52 2.03,0.87 1.84,1.18 1.65,1.48 1.37,1.70 1.09,1.93 0.75,2.05 0.41,2.18 0.05,2.19 -0.30,2.20 -0.64,2.09 -0.98,1.98 -1.27,1.77 -1.57,1.56 -1.57,1.57 -1.57,1.57 -1.73,1.35 -1.90,1.14 -2.01,0.90 -2.12,0.66 -2.16,0.39 -2.21,0.13 -2.20,-0.13 -2.18,-0.40 -2.10,-0.65 -2.02,-0.91 -1.88,-1.14 -1.74,-1.36 -1.55,-1.55 -1.36,-1.74 -1.14,-1.88 -0.91,-2.02 -0.65,-2.10 -0.40,-2.18 -0.13,-2.20 0.13,-2.21 0.39,-2.16 0.66,-2.12 0.90,-2.01 1.14,-1.90 1.35,-1.73 1.57,-1.57 1.57,-1.57 L 1.57,-1.57 Z"></path></g><g transform="translate(143.97817339215953 128.6111105056034) rotate(0 -33.75 -5.2083333333332575)" stroke="none"><path fill="#868e96" d="M -0.42,1.70 Q -0.42,1.70 -2.80,1.04 -5.18,0.39 -17.38,-1.56 -29.58,-3.53 -40.18,-5.10 -50.78,-6.67 -55.63,-7.34 -60.49,-8.02 -64.09,-8.52 -67.68,-9.02 -67.90,-9.09 -68.12,-9.15 -68.30,-9.28 -68.49,-9.42 -68.62,-9.60 -68.75,-9.79 -68.82,-10.00 -68.89,-10.22 -68.88,-10.45 -68.87,-10.67 -68.80,-10.89 -68.72,-11.10 -68.58,-11.28 -68.43,-11.46 -68.24,-11.58 -68.05,-11.70 -67.83,-11.76 -67.61,-11.81 -67.38,-11.79 -67.16,-11.77 -66.95,-11.69 -66.74,-11.60 -66.57,-11.44 -66.40,-11.29 -66.29,-11.10 -66.18,-10.90 -66.13,-10.68 -66.09,-10.45 -66.12,-10.23 -66.15,-10.00 -66.25,-9.80 -66.35,-9.59 -66.51,-9.43 -66.67,-9.27 -66.88,-9.17 -67.08,-9.07 -67.31,-9.04 -67.53,-9.01 -67.75,-9.05 -67.98,-9.09 -68.17,-9.20 -68.37,-9.32 -68.52,-9.48 -68.68,-9.65 -68.77,-9.86 -68.86,-10.07 -68.88,-10.30 -68.89,-10.52 -68.84,-10.74 -68.79,-10.96 -68.66,-11.16 -68.54,-11.35 -68.36,-11.49 -68.19,-11.63 -67.97,-11.71 -67.76,-11.79 -67.53,-11.80 -67.31,-11.80 -67.31,-11.80 -67.31,-11.80 -63.71,-11.34 -60.11,-10.87 -55.23,-10.24 -50.35,-9.61 -39.73,-8.10 -29.10,-6.59 -16.75,-4.68 -4.39,-2.78 -1.98,-2.24 0.42,-1.70 0.62,-1.63 0.82,-1.55 0.99,-1.43 1.17,-1.31 1.31,-1.15 1.45,-0.99 1.54,-0.80 1.64,-0.61 1.69,-0.41 1.74,-0.20 1.74,0.00 1.74,0.21 1.69,0.42 1.64,0.62 1.54,0.81 1.44,1.00 1.30,1.16 1.16,1.32 0.98,1.44 0.81,1.55 0.61,1.63 0.41,1.70 0.20,1.73 -0.00,1.75 -0.21,1.73 -0.42,1.70 -0.42,1.70 L -0.42,1.70 Z"></path></g><g transform="translate(66.89484005882605 118.61111050560339) rotate(0 0.00004999999998744897 0.00004999999998744897)" stroke="none"><path fill="#868e96" d="M 1.57,-1.57 Q 1.57,-1.57 1.77,-1.27 1.98,-0.98 2.09,-0.64 2.20,-0.29 2.19,0.05 2.18,0.41 2.05,0.75 1.93,1.09 1.70,1.37 1.48,1.65 1.18,1.84 0.87,2.04 0.52,2.12 0.18,2.21 -0.17,2.18 -0.53,2.15 -0.86,2.01 -1.19,1.87 -1.46,1.63 -1.73,1.39 -1.90,1.07 -2.08,0.76 -2.15,0.41 -2.21,0.05 -2.17,-0.29 -2.12,-0.65 -1.96,-0.97 -1.80,-1.29 -1.54,-1.54 -1.29,-1.80 -0.97,-1.96 -0.65,-2.12 -0.29,-2.17 0.06,-2.21 0.41,-2.15 0.76,-2.08 1.07,-1.90 1.39,-1.73 1.63,-1.46 1.87,-1.19 2.01,-0.86 2.15,-0.53 2.18,-0.17 2.21,0.18 2.12,0.52 2.03,0.87 1.84,1.18 1.65,1.48 1.37,1.70 1.09,1.93 0.75,2.05 0.41,2.18 0.05,2.19 -0.30,2.20 -0.64,2.09 -0.98,1.98 -1.27,1.77 -1.57,1.56 -1.57,1.57 -1.57,1.57 -1.73,1.35 -1.90,1.14 -2.01,0.90 -2.12,0.66 -2.16,0.39 -2.21,0.13 -2.20,-0.13 -2.18,-0.40 -2.10,-0.65 -2.02,-0.91 -1.88,-1.14 -1.74,-1.36 -1.55,-1.55 -1.36,-1.74 -1.14,-1.88 -0.91,-2.02 -0.65,-2.10 -0.40,-2.18 -0.13,-2.20 0.13,-2.21 0.39,-2.16 0.66,-2.12 0.90,-2.01 1.14,-1.90 1.35,-1.73 1.57,-1.57 1.57,-1.57 L 1.57,-1.57 Z"></path></g><g transform="translate(92.31150672549279 55.69444383893688) rotate(0 -8.333333333333371 22.083333333333258)" stroke="none"><path fill="#868e96" d="M 1.59,0.58 Q 1.59,0.58 0.23,4.16 -1.13,7.73 -2.82,11.79 -4.50,15.84 -7.14,22.34 -9.77,28.83 -10.89,32.04 -12.01,35.24 -12.98,37.94 -13.94,40.64 -14.65,42.63 -15.36,44.62 -15.47,44.81 -15.58,45.01 -15.74,45.16 -15.91,45.31 -16.11,45.40 -16.31,45.49 -16.53,45.51 -16.76,45.53 -16.97,45.48 -17.19,45.43 -17.38,45.32 -17.57,45.20 -17.71,45.03 -17.85,44.85 -17.93,44.65 -18.01,44.44 -18.02,44.22 -18.03,43.99 -17.96,43.78 -17.90,43.57 -17.77,43.38 -17.65,43.20 -17.47,43.07 -17.29,42.94 -17.08,42.87 -16.87,42.80 -16.64,42.80 -16.42,42.81 -16.21,42.88 -16.00,42.96 -15.82,43.09 -15.65,43.23 -15.53,43.42 -15.40,43.60 -15.35,43.82 -15.29,44.03 -15.31,44.25 -15.32,44.48 -15.41,44.68 -15.49,44.89 -15.64,45.06 -15.79,45.22 -15.98,45.34 -16.17,45.45 -16.39,45.49 -16.61,45.54 -16.83,45.51 -17.05,45.48 -17.25,45.39 -17.45,45.29 -17.61,45.13 -17.77,44.98 -17.87,44.78 -17.97,44.58 -18.00,44.36 -18.04,44.14 -18.00,43.92 -17.96,43.70 -17.96,43.70 -17.96,43.70 -17.26,41.71 -16.57,39.71 -15.63,37.02 -14.70,34.32 -13.59,31.03 -12.49,27.74 -9.90,21.22 -7.31,14.70 -5.72,10.67 -4.13,6.63 -2.86,3.02 -1.59,-0.58 -1.50,-0.76 -1.41,-0.95 -1.27,-1.10 -1.14,-1.26 -0.97,-1.37 -0.80,-1.49 -0.61,-1.57 -0.42,-1.64 -0.22,-1.67 -0.01,-1.70 0.18,-1.67 0.38,-1.65 0.58,-1.58 0.77,-1.51 0.94,-1.40 1.11,-1.28 1.25,-1.13 1.38,-0.98 1.48,-0.80 1.58,-0.62 1.63,-0.42 1.68,-0.22 1.68,-0.01 1.69,0.18 1.64,0.38 1.59,0.58 1.59,0.58 L 1.59,0.58 Z"></path></g><g transform="translate(80.71428571428578 107.85714285714266) rotate(0 43.571428571428555 -21.607142857142776)" stroke="none"><path fill="#868e96" d="M -0.84,-1.61 Q -0.84,-1.61 16.02,-10.38 32.89,-19.15 42.61,-24.59 52.34,-30.03 62.21,-34.22 72.09,-38.41 79.32,-41.48 86.56,-44.55 86.79,-44.61 87.02,-44.66 87.26,-44.64 87.49,-44.62 87.71,-44.53 87.93,-44.44 88.10,-44.28 88.28,-44.12 88.39,-43.91 88.51,-43.71 88.55,-43.48 88.60,-43.25 88.56,-43.01 88.53,-42.78 88.43,-42.57 88.32,-42.36 88.15,-42.19 87.99,-42.02 87.77,-41.92 87.56,-41.81 87.33,-41.78 87.10,-41.75 86.86,-41.80 86.63,-41.84 86.43,-41.96 86.22,-42.07 86.06,-42.25 85.91,-42.43 85.81,-42.64 85.72,-42.86 85.70,-43.10 85.68,-43.33 85.74,-43.56 85.80,-43.79 85.93,-43.99 86.05,-44.19 86.24,-44.33 86.42,-44.48 86.64,-44.56 86.87,-44.64 87.10,-44.65 87.34,-44.65 87.56,-44.58 87.79,-44.51 87.98,-44.38 88.17,-44.24 88.31,-44.05 88.45,-43.85 88.51,-43.63 88.58,-43.40 88.58,-43.17 88.57,-42.93 88.49,-42.71 88.41,-42.49 88.26,-42.31 88.11,-42.12 87.91,-42.00 87.71,-41.87 87.71,-41.87 87.71,-41.87 80.49,-38.75 73.28,-35.63 63.59,-31.45 53.90,-27.27 44.18,-21.72 34.46,-16.16 17.65,-7.27 0.84,1.61 0.64,1.69 0.43,1.77 0.21,1.80 -0.00,1.82 -0.21,1.80 -0.43,1.77 -0.64,1.69 -0.85,1.61 -1.03,1.49 -1.21,1.36 -1.35,1.20 -1.50,1.03 -1.60,0.84 -1.70,0.64 -1.76,0.43 -1.81,0.21 -1.81,-0.00 -1.81,-0.22 -1.76,-0.43 -1.70,-0.64 -1.60,-0.84 -1.50,-1.03 -1.35,-1.20 -1.21,-1.36 -1.03,-1.49 -0.84,-1.61 -0.84,-1.61 L -0.84,-1.61 Z"></path></g><g transform="translate(100.35714285714289 53.92857142857133) rotate(0 24.82142857142867 34.10714285714289)" stroke="none"><path fill="#868e96" d="M 1.41,-1.27 Q 1.41,-1.27 6.70,4.73 11.98,10.74 23.20,27.05 34.42,43.35 42.66,55.34 50.91,67.33 51.01,67.56 51.12,67.78 51.15,68.03 51.18,68.28 51.13,68.52 51.08,68.77 50.95,68.98 50.82,69.20 50.64,69.36 50.45,69.52 50.22,69.62 49.98,69.71 49.73,69.73 49.49,69.75 49.24,69.68 49.00,69.62 48.79,69.48 48.59,69.34 48.43,69.14 48.28,68.95 48.20,68.71 48.12,68.47 48.11,68.22 48.11,67.97 48.19,67.74 48.27,67.50 48.42,67.30 48.57,67.10 48.77,66.96 48.98,66.81 49.22,66.75 49.46,66.68 49.71,66.69 49.96,66.70 50.19,66.79 50.42,66.88 50.61,67.04 50.81,67.20 50.94,67.41 51.07,67.62 51.12,67.87 51.18,68.11 51.15,68.36 51.13,68.61 51.03,68.84 50.92,69.06 50.75,69.25 50.58,69.43 50.36,69.55 50.14,69.67 49.90,69.71 49.65,69.75 49.41,69.71 49.16,69.68 48.94,69.56 48.71,69.45 48.54,69.27 48.37,69.09 48.37,69.09 48.37,69.09 40.05,57.15 31.74,45.21 20.55,29.14 9.37,13.07 3.97,7.17 -1.41,1.27 -1.55,1.08 -1.68,0.89 -1.76,0.68 -1.84,0.46 -1.87,0.23 -1.90,0.01 -1.88,-0.21 -1.85,-0.44 -1.77,-0.66 -1.69,-0.87 -1.56,-1.06 -1.43,-1.25 -1.26,-1.40 -1.09,-1.56 -0.88,-1.67 -0.68,-1.77 -0.46,-1.83 -0.24,-1.89 -0.01,-1.89 0.21,-1.89 0.44,-1.84 0.66,-1.78 0.87,-1.68 1.07,-1.57 1.24,-1.42 1.42,-1.27 1.42,-1.27 L 1.41,-1.27 Z"></path></g><g transform="translate(139.64285714285734 18.92857142857133) rotate(0 -11.964285714285666 68.03571428571433)" stroke="none"><path fill="#e03131" d="M -0.38,1.60 Q -0.38,1.60 -2.52,1.05 -4.67,0.49 -7.46,0.04 -10.25,-0.39 -24.26,0.43 -38.27,1.26 -45.62,2.82 -52.97,4.38 -57.10,5.64 -61.23,6.90 -64.51,8.91 -67.79,10.93 -69.39,12.18 -70.99,13.43 -72.11,14.53 -73.24,15.63 -75.70,19.51 -78.16,23.38 -80.57,28.10 -82.99,32.83 -85.75,39.93 -88.51,47.04 -89.69,50.56 -90.87,54.09 -91.66,59.39 -92.45,64.69 -92.80,69.20 -93.14,73.71 -93.29,79.52 -93.44,85.32 -93.51,88.51 -93.57,91.70 -91.98,97.61 -90.39,103.51 -86.68,110.48 -82.97,117.45 -80.87,121.05 -78.77,124.66 -75.22,128.01 -71.67,131.36 -66.18,133.86 -60.68,136.36 -56.95,137.98 -53.22,139.60 -47.45,140.76 -41.67,141.93 -37.17,142.43 -32.66,142.93 -28.91,143.15 -25.16,143.36 -21.83,143.45 -18.49,143.54 -14.56,143.28 -10.63,143.01 -6.70,142.59 -2.77,142.17 0.44,141.29 3.67,140.41 7.06,139.03 10.45,137.65 13.32,136.24 16.19,134.84 20.01,132.23 23.84,129.62 26.75,127.76 29.65,125.91 34.62,121.88 39.59,117.85 43.06,114.99 46.53,112.14 48.27,110.44 50.02,108.75 51.68,107.01 53.34,105.26 54.51,103.65 55.67,102.03 57.52,99.29 59.36,96.55 60.98,94.24 62.60,91.93 64.00,89.93 65.40,87.93 66.13,85.79 66.85,83.66 67.48,80.61 68.10,77.57 68.57,72.00 69.04,66.44 69.04,61.54 69.04,56.64 66.81,49.27 64.58,41.90 62.01,36.52 59.44,31.15 54.91,25.14 50.38,19.12 45.81,14.43 41.24,9.73 37.57,6.51 33.90,3.30 30.05,0.95 26.20,-1.38 22.67,-2.88 19.13,-4.37 13.83,-5.29 8.53,-6.21 5.92,-6.62 3.31,-7.02 1.37,-7.29 -0.57,-7.55 -0.78,-7.62 -0.99,-7.69 -1.17,-7.83 -1.35,-7.96 -1.48,-8.15 -1.61,-8.33 -1.67,-8.55 -1.73,-8.76 -1.72,-8.99 -1.71,-9.21 -1.63,-9.42 -1.55,-9.63 -1.40,-9.80 -1.26,-9.97 -1.07,-10.09 -0.88,-10.21 -0.66,-10.26 -0.44,-10.31 -0.21,-10.29 0.00,-10.26 0.20,-10.17 0.41,-10.08 0.57,-9.93 0.74,-9.77 0.84,-9.57 0.95,-9.38 0.99,-9.16 1.03,-8.93 0.99,-8.71 0.96,-8.49 0.85,-8.29 0.75,-8.09 0.59,-7.94 0.43,-7.78 0.22,-7.68 0.02,-7.59 -0.19,-7.56 -0.42,-7.54 -0.64,-7.58 -0.86,-7.63 -1.05,-7.74 -1.24,-7.86 -1.39,-8.03 -1.54,-8.20 -1.62,-8.41 -1.71,-8.61 -1.72,-8.84 -1.73,-9.06 -1.67,-9.28 -1.62,-9.50 -1.49,-9.68 -1.37,-9.87 -1.19,-10.01 -1.01,-10.14 -0.80,-10.22 -0.59,-10.29 -0.36,-10.29 -0.14,-10.29 -0.14,-10.29 -0.14,-10.29 1.78,-9.96 3.71,-9.62 6.35,-9.21 8.98,-8.80 14.56,-7.79 20.14,-6.79 23.86,-5.21 27.57,-3.63 31.60,-1.15 35.63,1.32 39.38,4.61 43.13,7.90 47.81,12.72 52.48,17.54 57.15,23.78 61.81,30.01 64.45,35.57 67.09,41.14 69.38,48.87 71.67,56.60 71.67,61.63 71.67,66.66 71.18,72.38 70.68,78.10 70.01,81.32 69.34,84.53 68.46,86.98 67.58,89.42 66.18,91.43 64.77,93.45 63.17,95.74 61.57,98.04 59.70,100.83 57.83,103.62 56.54,105.35 55.24,107.08 53.54,108.86 51.84,110.64 50.02,112.40 48.20,114.16 44.72,117.03 41.25,119.89 36.16,124.00 31.07,128.12 28.19,129.96 25.32,131.79 21.33,134.50 17.34,137.20 14.39,138.64 11.44,140.08 7.90,141.51 4.35,142.95 0.93,143.86 -2.49,144.78 -6.47,145.21 -10.45,145.63 -14.51,145.90 -18.56,146.17 -21.94,146.08 -25.31,145.99 -29.13,145.77 -32.96,145.55 -37.58,145.02 -42.20,144.50 -48.23,143.26 -54.26,142.02 -58.02,140.38 -61.78,138.75 -67.62,136.02 -73.45,133.29 -77.25,129.65 -81.04,126.01 -83.17,122.35 -85.30,118.69 -89.13,111.45 -92.95,104.21 -94.59,97.94 -96.23,91.68 -96.17,88.47 -96.12,85.26 -95.97,79.38 -95.83,73.51 -95.48,68.90 -95.14,64.29 -94.31,58.76 -93.49,53.23 -92.30,49.63 -91.12,46.03 -88.33,38.78 -85.54,31.54 -83.10,26.67 -80.65,21.79 -77.97,17.57 -75.29,13.35 -73.97,12.32 -72.66,11.29 -70.94,9.95 -69.21,8.60 -65.64,6.43 -62.07,4.27 -57.81,2.94 -53.56,1.62 -46.00,0.00 -38.44,-1.62 -24.14,-2.48 -9.83,-3.35 -6.89,-2.94 -3.95,-2.54 -1.78,-2.07 0.38,-1.60 0.57,-1.54 0.75,-1.47 0.92,-1.35 1.08,-1.24 1.22,-1.09 1.35,-0.95 1.44,-0.77 1.54,-0.59 1.59,-0.40 1.64,-0.21 1.64,-0.01 1.64,0.18 1.59,0.38 1.55,0.57 1.46,0.75 1.36,0.92 1.23,1.07 1.10,1.22 0.94,1.34 0.78,1.45 0.59,1.53 0.40,1.60 0.21,1.62 0.01,1.65 -0.18,1.63 -0.38,1.60 -0.38,1.60 L -0.38,1.60 Z"></path></g><g transform="translate(60.00000000000023 111.42857142857133) rotate(0 -20.178571428571445 -15.35714285714289)" stroke="none"><path fill="#868e96" d="M -0.82,1.65 Q -0.82,1.65 -2.84,0.55 -4.87,-0.53 -15.40,-8.80 -25.93,-17.06 -30.34,-20.66 -34.76,-24.26 -36.60,-25.68 -38.45,-27.10 -39.87,-28.09 -41.30,-29.09 -41.48,-29.27 -41.66,-29.45 -41.77,-29.69 -41.87,-29.92 -41.90,-30.17 -41.93,-30.43 -41.88,-30.68 -41.83,-30.93 -41.70,-31.15 -41.57,-31.37 -41.37,-31.54 -41.18,-31.70 -40.94,-31.80 -40.70,-31.90 -40.45,-31.91 -40.19,-31.93 -39.94,-31.86 -39.70,-31.79 -39.48,-31.65 -39.27,-31.51 -39.12,-31.31 -38.96,-31.10 -38.88,-30.86 -38.79,-30.62 -38.79,-30.36 -38.79,-30.11 -38.87,-29.86 -38.95,-29.62 -39.10,-29.42 -39.26,-29.21 -39.47,-29.07 -39.68,-28.92 -39.92,-28.85 -40.17,-28.78 -40.43,-28.79 -40.68,-28.80 -40.92,-28.90 -41.16,-28.99 -41.36,-29.16 -41.55,-29.32 -41.69,-29.54 -41.82,-29.76 -41.88,-30.01 -41.93,-30.26 -41.91,-30.51 -41.88,-30.77 -41.77,-31.00 -41.67,-31.23 -41.49,-31.42 -41.32,-31.61 -41.09,-31.73 -40.87,-31.85 -40.61,-31.89 -40.36,-31.93 -40.11,-31.90 -39.86,-31.86 -39.63,-31.74 -39.40,-31.62 -39.40,-31.62 -39.40,-31.62 -38.05,-30.53 -36.69,-29.44 -34.77,-28.03 -32.85,-26.63 -28.41,-23.11 -23.96,-19.58 -13.65,-11.57 -3.34,-3.57 -1.25,-2.61 0.82,-1.65 1.01,-1.52 1.19,-1.40 1.34,-1.24 1.49,-1.07 1.60,-0.88 1.71,-0.68 1.76,-0.47 1.82,-0.25 1.83,-0.03 1.83,0.18 1.78,0.40 1.73,0.62 1.63,0.81 1.53,1.01 1.39,1.18 1.25,1.35 1.07,1.48 0.88,1.61 0.68,1.69 0.47,1.78 0.25,1.81 0.03,1.84 -0.18,1.82 -0.40,1.80 -0.61,1.72 -0.82,1.65 -0.82,1.65 L -0.82,1.65 Z"></path></g><g transform="translate(190.00000000000023 52.14285714285711) rotate(0 14.28571428571422 -2.5)" stroke="none"><path fill="#868e96" d="M -0.36,-1.81 Q -0.36,-1.81 3.24,-2.46 6.85,-3.10 12.82,-4.08 18.80,-5.06 21.54,-5.45 24.29,-5.85 26.31,-6.17 28.33,-6.48 28.57,-6.48 28.82,-6.48 29.05,-6.40 29.28,-6.32 29.47,-6.17 29.66,-6.02 29.80,-5.82 29.93,-5.62 30.00,-5.39 30.06,-5.15 30.05,-4.91 30.03,-4.67 29.94,-4.44 29.85,-4.21 29.69,-4.03 29.54,-3.84 29.33,-3.72 29.12,-3.60 28.88,-3.54 28.64,-3.49 28.40,-3.52 28.16,-3.55 27.94,-3.65 27.72,-3.75 27.54,-3.92 27.36,-4.09 27.25,-4.31 27.14,-4.52 27.10,-4.76 27.06,-5.00 27.10,-5.24 27.14,-5.48 27.26,-5.70 27.37,-5.91 27.55,-6.08 27.73,-6.24 27.95,-6.35 28.17,-6.45 28.41,-6.47 28.65,-6.50 28.89,-6.44 29.13,-6.39 29.34,-6.26 29.55,-6.14 29.70,-5.95 29.86,-5.76 29.95,-5.54 30.04,-5.31 30.05,-5.07 30.06,-4.83 29.99,-4.59 29.93,-4.36 29.79,-4.16 29.65,-3.96 29.46,-3.81 29.26,-3.66 29.03,-3.59 28.80,-3.51 28.80,-3.51 28.80,-3.51 26.79,-3.18 24.77,-2.85 22.05,-2.38 19.34,-1.91 13.43,-0.83 7.52,0.23 3.94,1.02 0.36,1.81 0.14,1.83 -0.08,1.84 -0.30,1.81 -0.52,1.77 -0.72,1.68 -0.93,1.59 -1.10,1.46 -1.28,1.32 -1.42,1.15 -1.56,0.98 -1.66,0.78 -1.75,0.57 -1.79,0.35 -1.84,0.14 -1.83,-0.08 -1.82,-0.30 -1.76,-0.51 -1.69,-0.73 -1.58,-0.92 -1.47,-1.11 -1.31,-1.27 -1.16,-1.43 -0.97,-1.55 -0.78,-1.67 -0.57,-1.74 -0.36,-1.81 -0.36,-1.81 L -0.36,-1.81 Z"></path></g><g transform="translate(167.8571428571429 130.71428571428555) rotate(0 22.142857142857224 0)" stroke="none"><path fill="#868e96" d="M 0,-1.80 Q 0,-1.80 3.59,-1.74 7.18,-1.67 9.74,-1.62 12.29,-1.57 20.46,-1.54 28.63,-1.50 32.72,-1.47 36.81,-1.45 38.96,-1.43 41.10,-1.41 42.69,-1.50 44.28,-1.58 44.53,-1.54 44.79,-1.50 45.02,-1.38 45.24,-1.26 45.42,-1.07 45.60,-0.89 45.70,-0.65 45.81,-0.42 45.84,-0.16 45.87,0.08 45.81,0.33 45.76,0.58 45.62,0.80 45.49,1.02 45.30,1.19 45.10,1.36 44.86,1.45 44.62,1.55 44.37,1.56 44.11,1.57 43.86,1.51 43.61,1.44 43.40,1.29 43.19,1.15 43.03,0.94 42.88,0.74 42.80,0.50 42.71,0.25 42.71,-0.00 42.71,-0.25 42.80,-0.50 42.88,-0.74 43.03,-0.94 43.19,-1.15 43.40,-1.29 43.61,-1.44 43.86,-1.51 44.11,-1.57 44.37,-1.56 44.62,-1.55 44.86,-1.45 45.10,-1.36 45.30,-1.19 45.49,-1.02 45.62,-0.80 45.76,-0.58 45.81,-0.33 45.87,-0.08 45.84,0.16 45.81,0.42 45.70,0.65 45.60,0.89 45.42,1.07 45.24,1.26 45.01,1.38 44.79,1.50 44.53,1.54 44.28,1.58 44.28,1.58 44.28,1.58 42.69,1.50 41.10,1.41 38.96,1.43 36.81,1.45 32.72,1.47 28.63,1.50 20.46,1.54 12.29,1.57 9.74,1.62 7.18,1.67 3.59,1.74 0,1.80 -0.21,1.78 -0.43,1.75 -0.63,1.67 -0.84,1.60 -1.01,1.47 -1.19,1.35 -1.34,1.19 -1.48,1.02 -1.58,0.83 -1.69,0.64 -1.74,0.42 -1.79,0.21 -1.79,-0.00 -1.79,-0.21 -1.74,-0.42 -1.69,-0.64 -1.58,-0.83 -1.48,-1.02 -1.34,-1.19 -1.19,-1.35 -1.01,-1.47 -0.84,-1.60 -0.63,-1.67 -0.43,-1.75 -0.21,-1.78 0.00,-1.80 0.00,-1.80 L 0,-1.80 Z"></path></g><g transform="translate(48.21428571428578 34.64285714285711) rotate(0 15.71428571428578 3.928571428571331)" stroke="none"><path fill="#868e96" d="M 0.49,-1.76 Q 0.49,-1.76 3.04,-0.97 5.58,-0.18 8.26,0.46 10.94,1.11 16.94,2.64 22.94,4.18 27.36,5.31 31.78,6.44 31.99,6.53 32.21,6.62 32.39,6.78 32.56,6.94 32.68,7.14 32.79,7.35 32.84,7.58 32.88,7.81 32.85,8.05 32.82,8.28 32.71,8.49 32.61,8.70 32.44,8.87 32.27,9.04 32.06,9.14 31.85,9.25 31.62,9.28 31.38,9.31 31.15,9.27 30.92,9.22 30.71,9.10 30.51,8.99 30.35,8.81 30.19,8.64 30.10,8.42 30.01,8.20 29.99,7.97 29.97,7.73 30.03,7.50 30.08,7.27 30.21,7.08 30.34,6.88 30.52,6.73 30.71,6.58 30.93,6.50 31.15,6.42 31.39,6.41 31.62,6.41 31.85,6.48 32.07,6.55 32.26,6.68 32.46,6.82 32.59,7.01 32.73,7.21 32.80,7.43 32.87,7.66 32.86,7.89 32.86,8.13 32.77,8.35 32.69,8.57 32.54,8.75 32.40,8.94 32.20,9.07 32.00,9.19 31.77,9.25 31.54,9.31 31.31,9.29 31.07,9.27 31.07,9.27 31.07,9.27 26.64,8.19 22.21,7.11 16.23,5.66 10.25,4.21 7.46,3.63 4.67,3.06 2.09,2.41 -0.49,1.76 -0.69,1.67 -0.89,1.59 -1.07,1.46 -1.25,1.32 -1.39,1.15 -1.53,0.99 -1.63,0.79 -1.72,0.59 -1.77,0.37 -1.82,0.16 -1.81,-0.05 -1.80,-0.27 -1.74,-0.48 -1.68,-0.70 -1.57,-0.89 -1.47,-1.08 -1.31,-1.24 -1.16,-1.40 -0.98,-1.52 -0.79,-1.64 -0.58,-1.71 -0.38,-1.78 -0.16,-1.80 0.05,-1.82 0.27,-1.79 0.49,-1.75 0.49,-1.76 L 0.49,-1.76 Z"></path></g></svg>