<svg version="1.1" xmlns="http://www.w3.org/2000/svg" viewBox="0 0 168.0645161290322 198.13119350220813" width="336.1290322580644" height="396.26238700441627">
  <!-- svg-source:excalidraw -->
  
  <defs>
    <style class="style-fonts">
      
    </style>
    
  </defs>
  <g transform="translate(78.24185914517943 44.91690778792258) rotate(0 0.00004999999998744897 0.00004999999998744897)" stroke="none"><path fill="#e03131" d="M 1.57,-1.57 Q 1.57,-1.57 1.77,-1.27 1.98,-0.98 2.09,-0.64 2.20,-0.29 2.19,0.05 2.18,0.41 2.05,0.75 1.93,1.09 1.70,1.37 1.48,1.65 1.18,1.84 0.87,2.04 0.52,2.12 0.18,2.21 -0.17,2.18 -0.53,2.15 -0.86,2.01 -1.19,1.87 -1.46,1.63 -1.73,1.39 -1.90,1.07 -2.08,0.76 -2.15,0.41 -2.21,0.05 -2.17,-0.29 -2.12,-0.65 -1.96,-0.97 -1.80,-1.29 -1.54,-1.54 -1.29,-1.80 -0.97,-1.96 -0.65,-2.12 -0.29,-2.17 0.06,-2.21 0.41,-2.15 0.76,-2.08 1.07,-1.90 1.39,-1.73 1.63,-1.46 1.87,-1.19 2.01,-0.86 2.15,-0.53 2.18,-0.17 2.21,0.18 2.12,0.52 2.03,0.87 1.84,1.18 1.65,1.48 1.37,1.70 1.09,1.93 0.75,2.05 0.41,2.18 0.05,2.19 -0.30,2.20 -0.64,2.09 -0.98,1.98 -1.27,1.77 -1.57,1.56 -1.57,1.57 -1.57,1.57 -1.73,1.35 -1.90,1.14 -2.01,0.90 -2.12,0.66 -2.16,0.39 -2.21,0.13 -2.20,-0.13 -2.18,-0.40 -2.10,-0.65 -2.02,-0.91 -1.88,-1.14 -1.74,-1.36 -1.55,-1.55 -1.36,-1.74 -1.14,-1.88 -0.91,-2.02 -0.65,-2.10 -0.40,-2.18 -0.13,-2.20 0.13,-2.21 0.39,-2.16 0.66,-2.12 0.90,-2.01 1.14,-1.90 1.35,-1.73 1.57,-1.57 1.57,-1.57 L 1.57,-1.57 Z"></path></g><g transform="translate(46.456144859464985 97.05976493077969) rotate(0 0.00004999999998744897 0.00005000000010113581)" stroke="none"><path fill="#e03131" d="M 1.57,-1.57 Q 1.57,-1.57 1.77,-1.27 1.98,-0.98 2.09,-0.64 2.20,-0.29 2.19,0.05 2.18,0.41 2.05,0.75 1.93,1.09 1.70,1.37 1.48,1.65 1.18,1.84 0.87,2.04 0.52,2.12 0.18,2.21 -0.17,2.18 -0.53,2.15 -0.86,2.01 -1.19,1.87 -1.46,1.63 -1.73,1.39 -1.90,1.07 -2.08,0.76 -2.15,0.41 -2.21,0.05 -2.17,-0.29 -2.12,-0.65 -1.96,-0.97 -1.80,-1.29 -1.54,-1.54 -1.29,-1.80 -0.97,-1.96 -0.65,-2.12 -0.29,-2.17 0.06,-2.21 0.41,-2.15 0.76,-2.08 1.07,-1.90 1.39,-1.73 1.63,-1.46 1.87,-1.19 2.01,-0.86 2.15,-0.53 2.18,-0.17 2.21,0.18 2.12,0.52 2.03,0.87 1.84,1.18 1.65,1.48 1.37,1.70 1.09,1.93 0.75,2.05 0.41,2.18 0.05,2.19 -0.30,2.20 -0.64,2.09 -0.98,1.98 -1.27,1.77 -1.57,1.56 -1.57,1.57 -1.57,1.57 -1.73,1.35 -1.90,1.14 -2.01,0.90 -2.12,0.66 -2.16,0.39 -2.21,0.13 -2.20,-0.13 -2.18,-0.40 -2.10,-0.65 -2.02,-0.91 -1.88,-1.14 -1.74,-1.36 -1.55,-1.55 -1.36,-1.74 -1.14,-1.88 -0.91,-2.02 -0.65,-2.10 -0.40,-2.18 -0.13,-2.20 0.13,-2.21 0.39,-2.16 0.66,-2.12 0.90,-2.01 1.14,-1.90 1.35,-1.73 1.57,-1.57 1.57,-1.57 L 1.57,-1.57 Z"></path></g><g transform="translate(116.0990020023221 96.70262207363703) rotate(0 0.00004999999998744897 0.00005000000010113581)" stroke="none"><path fill="#e03131" d="M 1.57,-1.57 Q 1.57,-1.57 1.77,-1.27 1.98,-0.98 2.09,-0.64 2.20,-0.29 2.19,0.05 2.18,0.41 2.05,0.75 1.93,1.09 1.70,1.37 1.48,1.65 1.18,1.84 0.87,2.04 0.52,2.12 0.18,2.21 -0.17,2.18 -0.53,2.15 -0.86,2.01 -1.19,1.87 -1.46,1.63 -1.73,1.39 -1.90,1.07 -2.08,0.76 -2.15,0.41 -2.21,0.05 -2.17,-0.29 -2.12,-0.65 -1.96,-0.97 -1.80,-1.29 -1.54,-1.54 -1.29,-1.80 -0.97,-1.96 -0.65,-2.12 -0.29,-2.17 0.06,-2.21 0.41,-2.15 0.76,-2.08 1.07,-1.90 1.39,-1.73 1.63,-1.46 1.87,-1.19 2.01,-0.86 2.15,-0.53 2.18,-0.17 2.21,0.18 2.12,0.52 2.03,0.87 1.84,1.18 1.65,1.48 1.37,1.70 1.09,1.93 0.75,2.05 0.41,2.18 0.05,2.19 -0.30,2.20 -0.64,2.09 -0.98,1.98 -1.27,1.77 -1.57,1.56 -1.57,1.57 -1.57,1.57 -1.73,1.35 -1.90,1.14 -2.01,0.90 -2.12,0.66 -2.16,0.39 -2.21,0.13 -2.20,-0.13 -2.18,-0.40 -2.10,-0.65 -2.02,-0.91 -1.88,-1.14 -1.74,-1.36 -1.55,-1.55 -1.36,-1.74 -1.14,-1.88 -0.91,-2.02 -0.65,-2.10 -0.40,-2.18 -0.13,-2.20 0.13,-2.21 0.39,-2.16 0.66,-2.12 0.90,-2.01 1.14,-1.90 1.35,-1.73 1.57,-1.57 1.57,-1.57 L 1.57,-1.57 Z"></path></g><g transform="translate(79.31328771660787 144.20262207363703) rotate(0 0.00004999999998744897 0.00005000000010113581)" stroke="none"><path fill="#e03131" d="M 1.57,-1.57 Q 1.57,-1.57 1.77,-1.27 1.98,-0.98 2.09,-0.64 2.20,-0.29 2.19,0.05 2.18,0.41 2.05,0.75 1.93,1.09 1.70,1.37 1.48,1.65 1.18,1.84 0.87,2.04 0.52,2.12 0.18,2.21 -0.17,2.18 -0.53,2.15 -0.86,2.01 -1.19,1.87 -1.46,1.63 -1.73,1.39 -1.90,1.07 -2.08,0.76 -2.15,0.41 -2.21,0.05 -2.17,-0.29 -2.12,-0.65 -1.96,-0.97 -1.80,-1.29 -1.54,-1.54 -1.29,-1.80 -0.97,-1.96 -0.65,-2.12 -0.29,-2.17 0.06,-2.21 0.41,-2.15 0.76,-2.08 1.07,-1.90 1.39,-1.73 1.63,-1.46 1.87,-1.19 2.01,-0.86 2.15,-0.53 2.18,-0.17 2.21,0.18 2.12,0.52 2.03,0.87 1.84,1.18 1.65,1.48 1.37,1.70 1.09,1.93 0.75,2.05 0.41,2.18 0.05,2.19 -0.30,2.20 -0.64,2.09 -0.98,1.98 -1.27,1.77 -1.57,1.56 -1.57,1.57 -1.57,1.57 -1.73,1.35 -1.90,1.14 -2.01,0.90 -2.12,0.66 -2.16,0.39 -2.21,0.13 -2.20,-0.13 -2.18,-0.40 -2.10,-0.65 -2.02,-0.91 -1.88,-1.14 -1.74,-1.36 -1.55,-1.55 -1.36,-1.74 -1.14,-1.88 -0.91,-2.02 -0.65,-2.10 -0.40,-2.18 -0.13,-2.20 0.13,-2.21 0.39,-2.16 0.66,-2.12 0.90,-2.01 1.14,-1.90 1.35,-1.73 1.57,-1.57 1.57,-1.57 L 1.57,-1.57 Z"></path></g><g transform="translate(78.5990020023221 155.98833635935125) rotate(0 1.6071428571428896 15.178571428571331)" stroke="none"><path fill="#e03131" d="M 2.11,-0.19 Q 2.11,-0.19 2.21,2.07 2.31,4.34 2.63,10.77 2.94,17.21 3.25,20.09 3.56,22.96 3.97,24.42 4.38,25.87 4.69,27.83 5.00,29.79 4.98,30.08 4.97,30.38 4.86,30.66 4.76,30.94 4.56,31.17 4.37,31.40 4.12,31.55 3.87,31.71 3.57,31.77 3.28,31.84 2.99,31.81 2.69,31.78 2.42,31.66 2.15,31.54 1.93,31.33 1.71,31.13 1.57,30.87 1.43,30.61 1.38,30.31 1.33,30.02 1.37,29.72 1.42,29.43 1.55,29.16 1.69,28.90 1.91,28.69 2.12,28.49 2.39,28.36 2.66,28.23 2.96,28.20 3.25,28.16 3.54,28.22 3.83,28.28 4.09,28.44 4.35,28.59 4.54,28.81 4.74,29.04 4.85,29.31 4.96,29.59 4.98,29.89 5.00,30.18 4.92,30.47 4.85,30.76 4.68,31.01 4.52,31.26 4.28,31.44 4.05,31.62 3.76,31.72 3.48,31.82 3.18,31.82 2.89,31.82 2.60,31.73 2.32,31.64 2.08,31.46 1.84,31.28 1.67,31.04 1.50,30.79 1.42,30.50 1.34,30.22 1.34,30.22 1.34,30.22 1.15,28.45 0.96,26.67 0.64,25.03 0.32,23.38 -0.10,20.40 -0.54,17.42 -1.01,11.06 -1.49,4.69 -1.80,2.44 -2.11,0.19 -2.10,-0.06 -2.10,-0.31 -2.03,-0.56 -1.96,-0.81 -1.83,-1.03 -1.71,-1.25 -1.53,-1.44 -1.36,-1.63 -1.14,-1.77 -0.93,-1.91 -0.68,-1.99 -0.44,-2.07 -0.19,-2.10 0.06,-2.12 0.31,-2.08 0.57,-2.04 0.80,-1.94 1.04,-1.85 1.25,-1.69 1.45,-1.54 1.62,-1.35 1.78,-1.15 1.89,-0.92 2.00,-0.69 2.06,-0.44 2.11,-0.19 2.11,-0.19 L 2.11,-0.19 Z"></path></g><g transform="translate(75.02757343089365 187.77405064506547) rotate(0 9.28571428571422 0.17857142857133113)" stroke="none"><path fill="#e03131" d="M 0,-2.03 Q 0,-2.03 3.28,-1.94 6.57,-1.84 11.51,-1.75 16.46,-1.66 16.77,-1.60 17.08,-1.54 17.35,-1.38 17.63,-1.23 17.84,-0.99 18.05,-0.75 18.18,-0.46 18.30,-0.17 18.33,0.14 18.35,0.45 18.27,0.76 18.20,1.07 18.02,1.33 17.85,1.60 17.61,1.80 17.36,2.00 17.06,2.10 16.76,2.21 16.45,2.22 16.13,2.23 15.83,2.13 15.52,2.04 15.27,1.85 15.01,1.67 14.83,1.41 14.64,1.15 14.55,0.85 14.46,0.55 14.47,0.23 14.48,-0.08 14.59,-0.37 14.70,-0.67 14.90,-0.92 15.09,-1.16 15.36,-1.33 15.63,-1.50 15.94,-1.58 16.25,-1.66 16.56,-1.63 16.88,-1.60 17.17,-1.48 17.46,-1.35 17.69,-1.14 17.93,-0.93 18.08,-0.65 18.24,-0.37 18.30,-0.06 18.36,0.24 18.31,0.55 18.27,0.87 18.13,1.15 17.99,1.44 17.76,1.66 17.54,1.88 17.25,2.02 16.97,2.16 16.65,2.20 16.34,2.25 16.34,2.25 16.34,2.25 11.45,2.04 6.57,1.84 3.28,1.94 0,2.03 -0.24,2.00 -0.48,1.98 -0.71,1.89 -0.94,1.80 -1.15,1.66 -1.35,1.52 -1.51,1.34 -1.67,1.15 -1.79,0.94 -1.90,0.72 -1.96,0.48 -2.02,0.24 -2.02,-0.00 -2.02,-0.24 -1.96,-0.48 -1.90,-0.72 -1.79,-0.94 -1.67,-1.15 -1.51,-1.34 -1.35,-1.52 -1.14,-1.66 -0.94,-1.80 -0.71,-1.89 -0.48,-1.98 -0.24,-2.00 0.00,-2.03 0.00,-2.03 L 0,-2.03 Z"></path></g><g transform="translate(82.17043057375076 137.77405064506547) rotate(0 10.714285714285666 -16.96428571428578)" stroke="none"><path fill="#e03131" d="M -1.77,-1.05 Q -1.77,-1.05 0.57,-4.80 2.91,-8.55 4.69,-10.99 6.46,-13.44 7.80,-15.63 9.14,-17.81 10.23,-19.94 11.32,-22.07 12.16,-23.60 13.01,-25.13 13.86,-26.75 14.71,-28.36 15.61,-29.71 16.50,-31.07 18.06,-32.94 19.62,-34.82 19.86,-35.01 20.11,-35.20 20.40,-35.31 20.70,-35.42 21.01,-35.42 21.32,-35.43 21.62,-35.33 21.92,-35.24 22.17,-35.05 22.43,-34.87 22.61,-34.61 22.79,-34.36 22.88,-34.06 22.97,-33.76 22.96,-33.44 22.95,-33.13 22.84,-32.84 22.73,-32.54 22.53,-32.30 22.33,-32.06 22.06,-31.89 21.80,-31.72 21.49,-31.65 21.19,-31.58 20.88,-31.61 20.56,-31.63 20.28,-31.76 19.99,-31.89 19.76,-32.10 19.53,-32.31 19.38,-32.58 19.22,-32.86 19.17,-33.17 19.11,-33.47 19.15,-33.78 19.20,-34.09 19.34,-34.37 19.48,-34.65 19.71,-34.87 19.93,-35.09 20.21,-35.23 20.49,-35.37 20.80,-35.41 21.12,-35.45 21.42,-35.38 21.73,-35.32 22.00,-35.17 22.27,-35.01 22.48,-34.78 22.69,-34.54 22.81,-34.25 22.93,-33.96 22.95,-33.65 22.98,-33.34 22.90,-33.03 22.82,-32.73 22.65,-32.47 22.48,-32.20 22.48,-32.21 22.48,-32.21 20.96,-30.56 19.43,-28.92 18.55,-27.84 17.67,-26.77 16.75,-25.10 15.84,-23.44 14.95,-22.08 14.06,-20.72 12.99,-18.45 11.91,-16.19 10.60,-13.84 9.28,-11.49 7.70,-9.07 6.11,-6.64 3.94,-2.79 1.77,1.05 1.62,1.25 1.46,1.44 1.27,1.60 1.07,1.75 0.85,1.86 0.62,1.96 0.38,2.01 0.13,2.05 -0.10,2.04 -0.35,2.03 -0.59,1.95 -0.83,1.88 -1.04,1.75 -1.25,1.63 -1.43,1.45 -1.61,1.28 -1.74,1.07 -1.87,0.85 -1.94,0.62 -2.02,0.38 -2.04,0.13 -2.05,-0.10 -2.01,-0.35 -1.97,-0.59 -1.87,-0.82 -1.77,-1.05 -1.77,-1.05 L -1.77,-1.05 Z"></path></g><g transform="translate(110.74185914517943 88.84547921649391) rotate(0 -12.5 -18.39285714285711)" stroke="none"><path fill="#868e96" d="M -1.44,1.30 Q -1.44,1.30 -4.15,-1.83 -6.86,-4.97 -8.37,-7.22 -9.87,-9.47 -11.43,-12.43 -12.99,-15.38 -13.82,-16.90 -14.64,-18.43 -15.42,-19.87 -16.21,-21.32 -17.44,-23.33 -18.68,-25.34 -20.04,-27.58 -21.40,-29.83 -22.25,-30.89 -23.11,-31.95 -24.62,-33.53 -26.14,-35.10 -26.34,-35.36 -26.54,-35.62 -26.64,-35.93 -26.75,-36.23 -26.75,-36.56 -26.75,-36.88 -26.65,-37.19 -26.55,-37.50 -26.36,-37.76 -26.16,-38.02 -25.89,-38.20 -25.63,-38.39 -25.31,-38.48 -25.00,-38.56 -24.68,-38.55 -24.35,-38.53 -24.05,-38.42 -23.75,-38.30 -23.50,-38.09 -23.25,-37.88 -23.08,-37.60 -22.91,-37.33 -22.84,-37.01 -22.77,-36.69 -22.80,-36.37 -22.83,-36.05 -22.97,-35.75 -23.10,-35.46 -23.32,-35.22 -23.55,-34.98 -23.83,-34.83 -24.12,-34.67 -24.44,-34.62 -24.76,-34.56 -25.08,-34.61 -25.40,-34.67 -25.69,-34.82 -25.97,-34.97 -26.20,-35.20 -26.42,-35.43 -26.56,-35.73 -26.70,-36.02 -26.74,-36.34 -26.78,-36.67 -26.71,-36.98 -26.64,-37.30 -26.47,-37.58 -26.31,-37.86 -26.06,-38.07 -25.82,-38.28 -25.52,-38.41 -25.22,-38.53 -24.89,-38.55 -24.57,-38.57 -24.25,-38.48 -23.94,-38.40 -23.67,-38.22 -23.40,-38.04 -23.40,-38.04 -23.40,-38.04 -21.82,-35.99 -20.24,-33.94 -19.50,-32.71 -18.76,-31.48 -17.34,-29.31 -15.92,-27.13 -14.48,-25.02 -13.04,-22.90 -12.35,-21.41 -11.66,-19.92 -10.96,-18.40 -10.25,-16.88 -8.70,-14.12 -7.16,-11.36 -5.69,-9.35 -4.22,-7.34 -1.38,-4.32 1.44,-1.30 1.58,-1.11 1.71,-0.91 1.80,-0.69 1.88,-0.48 1.91,-0.24 1.94,-0.01 1.92,0.21 1.89,0.45 1.81,0.67 1.73,0.89 1.60,1.08 1.46,1.28 1.29,1.43 1.11,1.59 0.91,1.70 0.70,1.81 0.47,1.87 0.24,1.93 0.01,1.93 -0.21,1.93 -0.44,1.88 -0.67,1.82 -0.88,1.71 -1.09,1.61 -1.27,1.45 -1.44,1.30 -1.44,1.30 L -1.44,1.30 Z"></path></g><g transform="translate(50.02757343089365 90.63119350220813) rotate(0 9.464285714285666 -17.857142857142776)" stroke="none"><path fill="#e03131" d="M -1.54,-1.11 Q -1.54,-1.11 -0.14,-2.91 1.25,-4.71 5.90,-13.78 10.56,-22.84 12.59,-26.73 14.61,-30.63 14.76,-30.83 14.91,-31.03 15.11,-31.17 15.31,-31.32 15.55,-31.39 15.79,-31.46 16.04,-31.45 16.29,-31.44 16.53,-31.35 16.76,-31.26 16.95,-31.10 17.15,-30.95 17.28,-30.73 17.41,-30.52 17.47,-30.28 17.53,-30.04 17.50,-29.79 17.48,-29.54 17.38,-29.31 17.28,-29.08 17.11,-28.90 16.94,-28.71 16.72,-28.59 16.51,-28.47 16.26,-28.43 16.01,-28.38 15.77,-28.42 15.52,-28.45 15.30,-28.57 15.07,-28.68 14.90,-28.86 14.72,-29.04 14.62,-29.26 14.51,-29.49 14.48,-29.73 14.44,-29.98 14.49,-30.23 14.54,-30.47 14.67,-30.69 14.79,-30.90 14.98,-31.07 15.17,-31.23 15.40,-31.33 15.63,-31.43 15.88,-31.45 16.13,-31.46 16.37,-31.40 16.61,-31.34 16.82,-31.20 17.03,-31.07 17.18,-30.87 17.34,-30.67 17.42,-30.44 17.51,-30.20 17.51,-29.95 17.51,-29.70 17.44,-29.46 17.36,-29.23 17.36,-29.23 17.36,-29.23 15.42,-25.30 13.47,-21.36 8.77,-12.02 4.08,-2.67 2.81,-0.77 1.54,1.11 1.38,1.28 1.23,1.45 1.04,1.58 0.85,1.70 0.63,1.78 0.41,1.86 0.18,1.88 -0.04,1.90 -0.26,1.87 -0.49,1.84 -0.70,1.75 -0.92,1.66 -1.10,1.53 -1.29,1.40 -1.44,1.22 -1.59,1.04 -1.69,0.84 -1.79,0.63 -1.84,0.41 -1.89,0.18 -1.89,-0.04 -1.88,-0.27 -1.82,-0.49 -1.76,-0.71 -1.65,-0.91 -1.54,-1.11 -1.54,-1.11 L -1.54,-1.11 Z"></path></g><g transform="translate(55.38471628803654 96.70262207363703) rotate(0 25 -0.7142857142857792)" stroke="none"><path fill="#868e96" d="M -0.10,-2.08 Q -0.10,-2.08 4.00,-2.19 8.12,-2.29 17.91,-2.30 27.70,-2.31 32.02,-2.50 36.33,-2.68 39.02,-2.74 41.70,-2.80 43.04,-2.95 44.39,-3.09 46.93,-3.18 49.48,-3.27 49.77,-3.22 50.07,-3.18 50.33,-3.04 50.60,-2.90 50.81,-2.69 51.02,-2.47 51.14,-2.20 51.27,-1.93 51.31,-1.63 51.34,-1.34 51.28,-1.04 51.22,-0.75 51.07,-0.49 50.92,-0.24 50.69,-0.04 50.46,0.15 50.19,0.26 49.91,0.37 49.61,0.39 49.31,0.41 49.02,0.33 48.73,0.26 48.49,0.09 48.24,-0.06 48.05,-0.30 47.87,-0.54 47.77,-0.82 47.67,-1.10 47.67,-1.40 47.67,-1.70 47.76,-1.98 47.85,-2.27 48.03,-2.51 48.21,-2.75 48.46,-2.92 48.70,-3.09 48.99,-3.17 49.28,-3.26 49.58,-3.24 49.87,-3.23 50.15,-3.12 50.43,-3.01 50.66,-2.82 50.89,-2.63 51.05,-2.37 51.21,-2.12 51.27,-1.83 51.34,-1.54 51.31,-1.24 51.28,-0.94 51.16,-0.67 51.04,-0.40 50.83,-0.18 50.63,0.03 50.37,0.18 50.10,0.32 49.81,0.37 49.51,0.42 49.51,0.42 49.51,0.42 47.01,0.39 44.50,0.36 43.16,0.31 41.82,0.25 39.17,0.40 36.51,0.54 32.12,0.84 27.73,1.14 18.02,1.30 8.30,1.47 4.20,1.77 0.10,2.08 -0.14,2.07 -0.39,2.05 -0.63,1.97 -0.87,1.89 -1.09,1.76 -1.30,1.63 -1.48,1.45 -1.65,1.27 -1.78,1.05 -1.91,0.83 -1.98,0.59 -2.06,0.35 -2.07,0.10 -2.08,-0.14 -2.03,-0.39 -1.98,-0.64 -1.88,-0.87 -1.77,-1.10 -1.62,-1.29 -1.46,-1.49 -1.26,-1.64 -1.06,-1.80 -0.83,-1.90 -0.60,-2.00 -0.35,-2.04 -0.10,-2.08 -0.10,-2.08 L -0.10,-2.08 Z"></path></g><g transform="translate(129.0322580645161 96.1290322580644) rotate(0 13.709677419354875 0)" stroke="none"><path fill="#e03131" d="M 0,-1.90 Q 0,-1.90 7.69,-1.82 15.39,-1.74 18.85,-1.68 22.30,-1.63 24.86,-1.58 27.41,-1.54 27.66,-1.50 27.91,-1.46 28.13,-1.34 28.35,-1.22 28.52,-1.04 28.69,-0.86 28.80,-0.63 28.90,-0.41 28.93,-0.16 28.96,0.08 28.90,0.32 28.85,0.57 28.72,0.78 28.59,0.99 28.40,1.16 28.21,1.32 27.98,1.41 27.75,1.50 27.50,1.52 27.25,1.53 27.01,1.46 26.77,1.40 26.56,1.26 26.35,1.12 26.20,0.92 26.05,0.72 25.97,0.48 25.89,0.24 25.89,-0.00 25.89,-0.25 25.97,-0.48 26.05,-0.72 26.20,-0.92 26.35,-1.12 26.56,-1.26 26.77,-1.40 27.01,-1.46 27.25,-1.53 27.50,-1.52 27.75,-1.50 27.98,-1.41 28.21,-1.32 28.40,-1.16 28.59,-0.99 28.72,-0.78 28.85,-0.57 28.90,-0.32 28.96,-0.08 28.93,0.16 28.90,0.41 28.80,0.64 28.69,0.86 28.52,1.04 28.35,1.22 28.13,1.34 27.91,1.46 27.66,1.50 27.41,1.54 27.41,1.54 27.41,1.54 24.86,1.58 22.30,1.63 18.85,1.68 15.39,1.74 7.69,1.82 0,1.90 -0.22,1.87 -0.45,1.85 -0.67,1.77 -0.88,1.68 -1.07,1.55 -1.26,1.42 -1.41,1.25 -1.56,1.08 -1.67,0.87 -1.78,0.67 -1.83,0.45 -1.89,0.22 -1.89,-0.00 -1.89,-0.22 -1.83,-0.45 -1.78,-0.67 -1.67,-0.87 -1.56,-1.08 -1.41,-1.25 -1.26,-1.42 -1.07,-1.55 -0.88,-1.68 -0.67,-1.77 -0.45,-1.85 -0.22,-1.87 0.00,-1.90 0.00,-1.90 L 0,-1.90 Z"></path></g><g transform="translate(158.0645161290322 88.38709677419365) rotate(0 0 8.709677419354875)" stroke="none"><path fill="#e03131" d="M 1.90,0 Q 1.90,0 1.82,2.22 1.74,4.45 1.68,8.17 1.63,11.90 1.58,14.66 1.54,17.41 1.50,17.66 1.46,17.91 1.34,18.13 1.22,18.35 1.04,18.52 0.86,18.69 0.63,18.80 0.41,18.90 0.16,18.93 -0.08,18.96 -0.32,18.90 -0.57,18.85 -0.78,18.72 -0.99,18.59 -1.16,18.40 -1.32,18.21 -1.41,17.98 -1.50,17.75 -1.52,17.50 -1.53,17.25 -1.46,17.01 -1.40,16.77 -1.26,16.56 -1.12,16.35 -0.92,16.20 -0.72,16.05 -0.48,15.97 -0.24,15.89 0.00,15.89 0.25,15.89 0.48,15.97 0.72,16.05 0.92,16.20 1.12,16.35 1.26,16.56 1.40,16.77 1.46,17.01 1.53,17.25 1.52,17.50 1.50,17.75 1.41,17.98 1.32,18.21 1.16,18.40 0.99,18.59 0.78,18.72 0.57,18.85 0.32,18.90 0.08,18.96 -0.16,18.93 -0.41,18.90 -0.64,18.80 -0.86,18.69 -1.04,18.52 -1.22,18.35 -1.34,18.13 -1.46,17.91 -1.50,17.66 -1.54,17.41 -1.54,17.41 -1.54,17.41 -1.58,14.66 -1.63,11.90 -1.68,8.17 -1.74,4.45 -1.82,2.22 -1.90,0 -1.87,-0.22 -1.85,-0.45 -1.77,-0.67 -1.68,-0.88 -1.55,-1.07 -1.42,-1.26 -1.25,-1.41 -1.08,-1.56 -0.87,-1.67 -0.67,-1.78 -0.45,-1.83 -0.22,-1.89 0.00,-1.89 0.22,-1.89 0.45,-1.83 0.67,-1.78 0.87,-1.67 1.08,-1.56 1.25,-1.41 1.42,-1.26 1.55,-1.07 1.68,-0.88 1.77,-0.67 1.85,-0.45 1.87,-0.22 1.90,0.00 1.90,0.00 L 1.90,0 Z"></path></g><g transform="translate(38.709677419354875 96.45161290322585) rotate(0 -13.709677419354875 -0.16129032258072584)" stroke="none"><path fill="#e03131" d="M -0.09,1.86 Q -0.09,1.86 -1.86,1.78 -3.62,1.69 -6.92,1.58 -10.23,1.46 -14.43,1.39 -18.63,1.32 -21.12,1.36 -23.62,1.40 -25.49,1.49 -27.36,1.58 -27.62,1.55 -27.87,1.52 -28.10,1.41 -28.33,1.29 -28.52,1.11 -28.70,0.93 -28.82,0.70 -28.93,0.47 -28.97,0.22 -29.00,-0.03 -28.96,-0.28 -28.91,-0.53 -28.79,-0.76 -28.66,-0.98 -28.47,-1.16 -28.28,-1.33 -28.04,-1.43 -27.81,-1.54 -27.55,-1.56 -27.30,-1.58 -27.05,-1.52 -26.80,-1.46 -26.58,-1.32 -26.36,-1.19 -26.20,-0.99 -26.03,-0.79 -25.94,-0.55 -25.85,-0.31 -25.85,-0.05 -25.84,0.20 -25.91,0.45 -25.98,0.69 -26.13,0.90 -26.28,1.11 -26.49,1.26 -26.70,1.42 -26.94,1.49 -27.19,1.57 -27.45,1.56 -27.70,1.56 -27.95,1.47 -28.19,1.38 -28.39,1.22 -28.59,1.07 -28.73,0.85 -28.87,0.63 -28.94,0.38 -29.00,0.13 -28.98,-0.11 -28.96,-0.37 -28.86,-0.61 -28.76,-0.84 -28.59,-1.04 -28.42,-1.23 -28.20,-1.36 -27.97,-1.48 -27.72,-1.53 -27.47,-1.58 -27.47,-1.58 -27.47,-1.58 -25.60,-1.62 -23.73,-1.66 -21.17,-1.78 -18.61,-1.91 -14.40,-1.95 -10.19,-1.99 -6.81,-2.03 -3.42,-2.06 -1.66,-1.96 0.09,-1.86 0.32,-1.82 0.54,-1.79 0.74,-1.69 0.95,-1.60 1.13,-1.47 1.31,-1.33 1.45,-1.15 1.59,-0.98 1.68,-0.77 1.78,-0.57 1.82,-0.34 1.86,-0.12 1.85,0.09 1.84,0.32 1.77,0.53 1.71,0.75 1.59,0.94 1.48,1.14 1.32,1.30 1.16,1.46 0.97,1.58 0.78,1.70 0.56,1.76 0.35,1.83 0.12,1.85 -0.09,1.86 -0.09,1.86 L -0.09,1.86 Z"></path></g><g transform="translate(10 86.45161290322585) rotate(0 0 9.677419354838776)" stroke="none"><path fill="#e03131" d="M 2.18,0 Q 2.18,0 2.07,3.24 1.95,6.49 1.86,9.72 1.78,12.96 1.84,14.42 1.90,15.89 1.99,17.62 2.07,19.35 2.02,19.68 1.96,20.01 1.80,20.31 1.65,20.61 1.40,20.84 1.16,21.07 0.85,21.21 0.55,21.35 0.22,21.39 -0.11,21.42 -0.44,21.35 -0.76,21.28 -1.05,21.10 -1.34,20.93 -1.56,20.68 -1.77,20.42 -1.90,20.11 -2.02,19.80 -2.04,19.46 -2.06,19.13 -1.97,18.80 -1.88,18.48 -1.69,18.20 -1.50,17.92 -1.23,17.72 -0.97,17.52 -0.65,17.41 -0.33,17.30 0.00,17.30 0.33,17.30 0.65,17.41 0.97,17.52 1.23,17.72 1.50,17.92 1.69,18.20 1.88,18.48 1.97,18.80 2.06,19.13 2.04,19.46 2.02,19.80 1.90,20.11 1.77,20.42 1.56,20.68 1.34,20.93 1.05,21.10 0.76,21.28 0.43,21.35 0.11,21.42 -0.22,21.39 -0.55,21.35 -0.86,21.21 -1.16,21.07 -1.40,20.84 -1.65,20.61 -1.80,20.31 -1.96,20.01 -2.02,19.68 -2.07,19.35 -2.07,19.35 -2.07,19.35 -1.99,17.62 -1.90,15.89 -1.84,14.42 -1.78,12.96 -1.86,9.72 -1.95,6.49 -2.07,3.24 -2.18,0 -2.15,-0.26 -2.12,-0.52 -2.02,-0.76 -1.93,-1.01 -1.78,-1.23 -1.63,-1.44 -1.43,-1.62 -1.24,-1.79 -1.00,-1.92 -0.77,-2.04 -0.51,-2.10 -0.26,-2.17 0.00,-2.17 0.26,-2.17 0.51,-2.10 0.77,-2.04 1.00,-1.92 1.24,-1.79 1.43,-1.62 1.63,-1.44 1.78,-1.23 1.93,-1.01 2.02,-0.76 2.12,-0.52 2.15,-0.26 2.18,0.00 2.18,0.00 L 2.18,0 Z"></path></g><g transform="translate(79.0322580645161 35.8064516129034) rotate(0 0 -12.096774193548413)" stroke="none"><path fill="#e03131" d="M -1.78,0 Q -1.78,0 -1.72,-2.13 -1.65,-4.26 -1.61,-6.74 -1.56,-9.23 -1.52,-11.95 -1.49,-14.68 -1.47,-17.41 -1.44,-20.15 -1.45,-22.17 -1.45,-24.19 -1.42,-24.42 -1.38,-24.65 -1.27,-24.86 -1.16,-25.07 -0.99,-25.23 -0.81,-25.40 -0.60,-25.50 -0.39,-25.59 -0.15,-25.62 0.07,-25.65 0.30,-25.60 0.54,-25.54 0.74,-25.42 0.94,-25.30 1.09,-25.12 1.25,-24.94 1.33,-24.72 1.42,-24.50 1.43,-24.27 1.45,-24.03 1.38,-23.80 1.32,-23.58 1.19,-23.38 1.05,-23.18 0.87,-23.04 0.68,-22.90 0.45,-22.82 0.23,-22.75 -0.00,-22.75 -0.23,-22.75 -0.46,-22.82 -0.68,-22.90 -0.87,-23.04 -1.05,-23.19 -1.19,-23.38 -1.32,-23.58 -1.38,-23.80 -1.45,-24.03 -1.43,-24.27 -1.42,-24.50 -1.33,-24.72 -1.25,-24.94 -1.09,-25.12 -0.94,-25.30 -0.74,-25.42 -0.53,-25.54 -0.30,-25.60 -0.07,-25.65 0.15,-25.62 0.39,-25.59 0.60,-25.50 0.81,-25.40 0.99,-25.23 1.16,-25.07 1.27,-24.86 1.38,-24.65 1.42,-24.42 1.45,-24.19 1.45,-24.19 1.45,-24.19 1.45,-22.17 1.44,-20.15 1.47,-17.41 1.49,-14.68 1.52,-11.95 1.56,-9.23 1.61,-6.74 1.65,-4.26 1.72,-2.13 1.78,0 1.75,0.21 1.73,0.42 1.65,0.62 1.58,0.82 1.45,1.00 1.33,1.18 1.17,1.32 1.01,1.46 0.82,1.56 0.63,1.66 0.42,1.72 0.21,1.77 -0.00,1.77 -0.21,1.77 -0.42,1.72 -0.63,1.66 -0.82,1.56 -1.01,1.46 -1.17,1.32 -1.33,1.18 -1.45,1.00 -1.58,0.82 -1.65,0.62 -1.73,0.42 -1.75,0.21 -1.78,-0.00 -1.78,-0.00 L -1.78,0 Z"></path></g><g transform="translate(70.9677419354839 11.612903225806576) rotate(0 9.677419354838662 -0.8064516129032882)" stroke="none"><path fill="#e03131" d="M 0,-1.99 Q 0,-1.99 3.24,-1.90 6.49,-1.81 9.46,-2.02 12.43,-2.22 15.75,-2.82 19.07,-3.41 19.36,-3.41 19.66,-3.41 19.94,-3.31 20.22,-3.22 20.45,-3.04 20.69,-2.85 20.85,-2.61 21.01,-2.36 21.09,-2.08 21.17,-1.79 21.15,-1.50 21.13,-1.20 21.02,-0.93 20.91,-0.65 20.72,-0.43 20.52,-0.21 20.27,-0.06 20.01,0.09 19.72,0.15 19.43,0.21 19.14,0.17 18.85,0.14 18.58,0.01 18.31,-0.10 18.10,-0.31 17.89,-0.51 17.75,-0.78 17.61,-1.04 17.57,-1.33 17.52,-1.62 17.57,-1.91 17.62,-2.20 17.76,-2.47 17.90,-2.73 18.12,-2.93 18.34,-3.13 18.61,-3.25 18.87,-3.37 19.17,-3.40 19.46,-3.43 19.75,-3.37 20.04,-3.30 20.29,-3.15 20.54,-2.99 20.73,-2.76 20.92,-2.54 21.03,-2.26 21.14,-1.99 21.15,-1.69 21.17,-1.40 21.08,-1.11 21.00,-0.83 20.83,-0.58 20.67,-0.34 20.43,-0.16 20.19,0.00 19.91,0.10 19.63,0.19 19.63,0.19 19.63,0.19 16.18,0.65 12.74,1.11 9.61,1.46 6.49,1.81 3.24,1.90 0,1.99 -0.23,1.96 -0.47,1.93 -0.70,1.85 -0.92,1.76 -1.12,1.63 -1.32,1.49 -1.48,1.31 -1.64,1.13 -1.75,0.92 -1.86,0.70 -1.92,0.47 -1.98,0.24 -1.98,-0.00 -1.98,-0.24 -1.92,-0.47 -1.86,-0.70 -1.75,-0.92 -1.64,-1.13 -1.48,-1.31 -1.32,-1.49 -1.12,-1.63 -0.92,-1.76 -0.70,-1.85 -0.47,-1.93 -0.23,-1.96 0.00,-1.99 0.00,-1.99 L 0,-1.99 Z"></path></g></svg>