<svg version="1.1" xmlns="http://www.w3.org/2000/svg" viewBox="0 0 38.69440165228389 64.14472456391218" width="38.69440165228389" height="64.14472456391218">
  <!-- svg-source:excalidraw -->
  
  <defs>
    <style class="style-fonts">
      
    </style>
    
  </defs>
  <g transform="translate(1.9687709100674056 28.180784936545933) rotate(279.021793461678 15.535714285714334 -0.5357142857143344)" stroke="none"><path fill="#868e96" d="M 0,-1.92 Q 0,-1.92 2.05,-1.85 4.10,-1.79 11.82,-2.03 19.54,-2.28 25.27,-2.46 31.00,-2.64 31.26,-2.60 31.51,-2.57 31.74,-2.46 31.97,-2.35 32.15,-2.18 32.33,-2.00 32.45,-1.77 32.56,-1.55 32.60,-1.29 32.64,-1.04 32.59,-0.79 32.55,-0.54 32.42,-0.32 32.30,-0.10 32.12,0.06 31.93,0.24 31.70,0.34 31.46,0.44 31.21,0.47 30.96,0.49 30.71,0.43 30.46,0.37 30.25,0.24 30.03,0.11 29.87,-0.08 29.71,-0.28 29.62,-0.51 29.53,-0.75 29.52,-1.01 29.51,-1.26 29.58,-1.50 29.65,-1.75 29.80,-1.95 29.94,-2.16 30.15,-2.31 30.35,-2.46 30.59,-2.54 30.84,-2.62 31.09,-2.62 31.34,-2.61 31.58,-2.53 31.82,-2.44 32.02,-2.29 32.22,-2.13 32.36,-1.92 32.50,-1.70 32.57,-1.46 32.63,-1.21 32.61,-0.96 32.59,-0.71 32.50,-0.47 32.40,-0.24 32.23,-0.05 32.07,0.14 31.85,0.26 31.63,0.39 31.38,0.44 31.13,0.49 31.13,0.49 31.13,0.49 25.40,0.77 19.67,1.04 11.89,1.42 4.10,1.79 2.05,1.85 0,1.92 -0.22,1.89 -0.45,1.86 -0.67,1.78 -0.89,1.70 -1.08,1.57 -1.27,1.43 -1.42,1.26 -1.58,1.09 -1.68,0.88 -1.79,0.68 -1.85,0.45 -1.90,0.23 -1.90,-0.00 -1.90,-0.23 -1.85,-0.45 -1.79,-0.68 -1.68,-0.88 -1.58,-1.09 -1.42,-1.26 -1.27,-1.43 -1.08,-1.57 -0.89,-1.70 -0.67,-1.78 -0.45,-1.86 -0.22,-1.89 0.00,-1.92 0.00,-1.92 L 0,-1.92 Z"></path></g><g transform="translate(19.347200826141943 2.0198102386113987) rotate(279.021793461678 0 9.46428571428578)" stroke="none"><path fill="#868e96" d="M 1.99,0 Q 1.99,0 1.90,5.44 1.81,10.88 1.74,14.90 1.67,18.92 1.63,19.19 1.59,19.46 1.46,19.70 1.33,19.94 1.13,20.13 0.94,20.31 0.69,20.43 0.44,20.54 0.17,20.57 -0.09,20.60 -0.35,20.54 -0.62,20.48 -0.85,20.34 -1.08,20.20 -1.26,20.00 -1.43,19.79 -1.53,19.54 -1.64,19.28 -1.65,19.01 -1.66,18.74 -1.59,18.48 -1.52,18.22 -1.37,17.99 -1.21,17.77 -1.00,17.60 -0.78,17.44 -0.52,17.35 -0.27,17.27 0.00,17.27 0.27,17.27 0.52,17.35 0.78,17.44 1.00,17.60 1.21,17.77 1.37,17.99 1.52,18.22 1.59,18.48 1.66,18.74 1.65,19.01 1.64,19.28 1.53,19.54 1.43,19.79 1.26,20.00 1.08,20.20 0.85,20.34 0.62,20.48 0.35,20.54 0.09,20.60 -0.17,20.57 -0.44,20.54 -0.69,20.43 -0.94,20.31 -1.14,20.13 -1.33,19.94 -1.46,19.70 -1.59,19.46 -1.63,19.19 -1.67,18.92 -1.67,18.92 -1.67,18.92 -1.74,14.90 -1.81,10.88 -1.90,5.44 -1.99,0 -1.96,-0.23 -1.93,-0.47 -1.85,-0.70 -1.76,-0.92 -1.63,-1.12 -1.49,-1.32 -1.31,-1.48 -1.13,-1.64 -0.92,-1.75 -0.70,-1.86 -0.47,-1.92 -0.24,-1.98 0.00,-1.98 0.24,-1.98 0.47,-1.92 0.70,-1.86 0.92,-1.75 1.13,-1.64 1.31,-1.48 1.49,-1.32 1.63,-1.12 1.76,-0.92 1.85,-0.70 1.94,-0.47 1.96,-0.23 1.99,0.00 1.99,0.00 L 1.99,0 Z"></path></g><g transform="translate(13.819325411977616 54.144624563911975) rotate(0 0.00004999999998744897 0.00005000000010113581)" stroke="none"><path fill="#868e96" d="M 1.57,-1.57 Q 1.57,-1.57 1.77,-1.27 1.98,-0.98 2.09,-0.64 2.20,-0.29 2.19,0.05 2.18,0.41 2.05,0.75 1.93,1.09 1.70,1.37 1.48,1.65 1.18,1.84 0.87,2.04 0.52,2.12 0.18,2.21 -0.17,2.18 -0.53,2.15 -0.86,2.01 -1.19,1.87 -1.46,1.63 -1.73,1.39 -1.90,1.07 -2.08,0.76 -2.15,0.41 -2.21,0.05 -2.17,-0.29 -2.12,-0.65 -1.96,-0.97 -1.80,-1.29 -1.54,-1.54 -1.29,-1.80 -0.97,-1.96 -0.65,-2.12 -0.29,-2.17 0.06,-2.21 0.41,-2.15 0.76,-2.08 1.07,-1.90 1.39,-1.73 1.63,-1.46 1.87,-1.19 2.01,-0.86 2.15,-0.53 2.18,-0.17 2.21,0.18 2.12,0.52 2.03,0.87 1.84,1.18 1.65,1.48 1.37,1.70 1.09,1.93 0.75,2.05 0.41,2.18 0.05,2.19 -0.30,2.20 -0.64,2.09 -0.98,1.98 -1.27,1.77 -1.57,1.56 -1.57,1.57 -1.57,1.57 -1.73,1.35 -1.90,1.14 -2.01,0.90 -2.12,0.66 -2.16,0.39 -2.21,0.13 -2.20,-0.13 -2.18,-0.40 -2.10,-0.65 -2.02,-0.91 -1.88,-1.14 -1.74,-1.36 -1.55,-1.55 -1.36,-1.74 -1.14,-1.88 -0.91,-2.02 -0.65,-2.10 -0.40,-2.18 -0.13,-2.20 0.13,-2.21 0.39,-2.16 0.66,-2.12 0.90,-2.01 1.14,-1.90 1.35,-1.73 1.57,-1.57 1.57,-1.57 L 1.57,-1.57 Z"></path></g></svg>