<svg version="1.1" xmlns="http://www.w3.org/2000/svg" viewBox="0 0 156.45161290322585 120.32258064516145" width="312.9032258064517" height="240.6451612903229">
  <!-- svg-source:excalidraw -->
  
  <defs>
    <style class="style-fonts">
      
    </style>
    
  </defs>
  <g transform="translate(67.41935483870975 44.193548387096826) rotate(0 -0.16129032258072584 14.193548387096826)" stroke="none"><path fill="#868e96" d="M 0.78,1.74 Q 0.78,1.74 -2.11,2.96 -5.02,4.18 -6.07,4.99 -7.11,5.79 -8.31,7.28 -9.52,8.77 -10.09,10.47 -10.67,12.16 -10.96,14.39 -11.25,16.62 -11.41,18.95 -11.56,21.28 -10.76,23.14 -9.96,25.00 -9.08,25.78 -8.21,26.57 -7.02,26.48 -5.83,26.39 -4.59,26.31 -3.35,26.24 -1.55,26.15 0.24,26.07 1.55,26.07 2.87,26.07 4.05,25.76 5.23,25.45 6.51,24.47 7.78,23.48 8.48,21.83 9.18,20.18 9.48,18.17 9.79,16.15 9.83,14.26 9.87,12.36 9.82,11.28 9.77,10.20 8.92,8.99 8.06,7.77 7.48,6.76 6.90,5.74 6.00,4.80 5.11,3.87 2.50,3.46 -0.10,3.05 -0.59,2.95 -1.07,2.86 -1.50,2.61 -1.93,2.36 -2.26,1.99 -2.58,1.62 -2.78,1.16 -2.97,0.71 -3.00,0.21 -3.04,-0.27 -2.92,-0.75 -2.79,-1.23 -2.52,-1.64 -2.25,-2.06 -1.86,-2.36 -1.48,-2.67 -1.01,-2.84 -0.55,-3.00 -0.05,-3.01 0.43,-3.02 0.91,-2.87 1.38,-2.72 1.78,-2.43 2.17,-2.14 2.46,-1.73 2.74,-1.33 2.89,-0.86 3.03,-0.38 3.01,0.10 2.99,0.60 2.82,1.06 2.64,1.52 2.33,1.91 2.02,2.29 1.60,2.55 1.18,2.81 0.70,2.93 0.22,3.04 -0.27,3.00 -0.76,2.95 -1.21,2.76 -1.66,2.56 -2.03,2.22 -2.39,1.89 -2.63,1.46 -2.87,1.02 -2.96,0.54 -3.05,0.05 -2.98,-0.43 -2.91,-0.92 -2.69,-1.36 -2.46,-1.80 -2.11,-2.15 -1.76,-2.49 -1.31,-2.71 -0.87,-2.92 -0.38,-2.99 0.10,-3.05 0.10,-3.05 0.10,-3.05 2.14,-2.74 4.18,-2.42 5.27,-2.27 6.37,-2.12 7.83,-1.30 9.30,-0.47 10.21,0.44 11.12,1.37 12.07,2.94 13.01,4.52 13.68,5.55 14.34,6.59 14.99,8.11 15.63,9.62 15.75,11.04 15.87,12.47 15.80,14.54 15.72,16.61 15.61,18.09 15.50,19.57 15.26,20.61 15.02,21.65 14.61,23.27 14.20,24.89 13.63,25.81 13.07,26.74 11.79,27.72 10.51,28.70 9.38,29.37 8.25,30.04 6.76,30.52 5.27,30.99 4.08,31.16 2.89,31.34 1.56,31.34 0.23,31.34 -1.57,31.25 -3.38,31.16 -5.39,30.94 -7.40,30.72 -8.82,30.21 -10.23,29.70 -11.01,28.95 -11.79,28.20 -12.21,27.15 -12.63,26.09 -13.57,23.67 -14.52,21.25 -14.44,18.76 -14.35,16.26 -14.07,13.68 -13.80,11.11 -13.04,8.91 -12.28,6.71 -10.77,4.71 -9.27,2.72 -7.87,1.86 -6.47,1.00 -3.63,-0.36 -0.78,-1.74 -0.56,-1.80 -0.34,-1.87 -0.11,-1.89 0.11,-1.90 0.33,-1.86 0.56,-1.82 0.77,-1.73 0.98,-1.63 1.16,-1.49 1.34,-1.35 1.49,-1.17 1.63,-0.99 1.72,-0.78 1.82,-0.57 1.86,-0.34 1.90,-0.11 1.89,0.11 1.87,0.34 1.81,0.56 1.74,0.78 1.62,0.97 1.50,1.17 1.34,1.33 1.17,1.50 0.98,1.62 0.78,1.74 0.78,1.74 L 0.78,1.74 Z"></path></g><g transform="translate(59.354838709677324 46.45161290322585) rotate(0 -24.677419354838662 -18.225806451612925)" stroke="none"><path fill="#868e96" d="M -1.29,1.29 Q -1.29,1.29 -4.30,-1.81 -7.31,-4.92 -19.33,-13.59 -31.34,-22.27 -36.75,-25.99 -42.16,-29.72 -46.16,-32.48 -50.17,-35.24 -50.34,-35.40 -50.51,-35.57 -50.62,-35.78 -50.73,-35.98 -50.77,-36.22 -50.81,-36.45 -50.77,-36.68 -50.73,-36.91 -50.62,-37.12 -50.51,-37.33 -50.34,-37.49 -50.17,-37.66 -49.95,-37.75 -49.74,-37.85 -49.50,-37.88 -49.27,-37.90 -49.04,-37.85 -48.81,-37.80 -48.61,-37.68 -48.40,-37.56 -48.25,-37.38 -48.10,-37.20 -48.01,-36.98 -47.93,-36.76 -47.91,-36.52 -47.90,-36.29 -47.96,-36.06 -48.03,-35.83 -48.16,-35.64 -48.29,-35.44 -48.48,-35.30 -48.67,-35.16 -48.89,-35.08 -49.12,-35.01 -49.35,-35.01 -49.59,-35.01 -49.81,-35.08 -50.04,-35.16 -50.22,-35.30 -50.41,-35.45 -50.54,-35.64 -50.67,-35.84 -50.74,-36.06 -50.80,-36.29 -50.79,-36.53 -50.77,-36.76 -50.69,-36.98 -50.60,-37.20 -50.44,-37.38 -50.29,-37.56 -50.09,-37.68 -49.89,-37.80 -49.66,-37.85 -49.43,-37.90 -49.19,-37.88 -48.96,-37.85 -48.74,-37.75 -48.53,-37.65 -48.53,-37.65 -48.53,-37.65 -44.49,-34.94 -40.45,-32.22 -34.97,-28.53 -29.49,-24.85 -17.21,-16.08 -4.92,-7.31 -1.81,-4.30 1.29,-1.29 1.42,-1.11 1.56,-0.94 1.65,-0.74 1.74,-0.54 1.78,-0.32 1.82,-0.11 1.81,0.10 1.79,0.32 1.73,0.53 1.66,0.75 1.55,0.93 1.43,1.12 1.28,1.28 1.12,1.43 0.93,1.55 0.75,1.66 0.53,1.73 0.32,1.79 0.10,1.81 -0.11,1.82 -0.32,1.78 -0.54,1.74 -0.74,1.65 -0.94,1.56 -1.11,1.42 -1.29,1.29 -1.29,1.29 L -1.29,1.29 Z"></path></g><g transform="translate(60.9677419354839 74.8387096774195) rotate(0 -20.9677419354839 17.741935483870975)" stroke="none"><path fill="#868e96" d="M 0.95,1.56 Q 0.95,1.56 -2.88,3.81 -6.72,6.07 -14.49,12.24 -22.27,18.41 -27.60,23.60 -32.94,28.78 -36.92,32.65 -40.91,36.52 -41.10,36.66 -41.30,36.79 -41.52,36.86 -41.75,36.93 -41.98,36.92 -42.22,36.91 -42.44,36.82 -42.66,36.74 -42.84,36.59 -43.03,36.44 -43.15,36.24 -43.28,36.04 -43.33,35.81 -43.38,35.58 -43.36,35.35 -43.34,35.11 -43.25,34.90 -43.15,34.68 -42.99,34.51 -42.83,34.33 -42.63,34.22 -42.42,34.11 -42.19,34.06 -41.96,34.02 -41.72,34.06 -41.49,34.09 -41.28,34.20 -41.07,34.30 -40.90,34.47 -40.74,34.64 -40.64,34.85 -40.53,35.07 -40.50,35.30 -40.47,35.53 -40.52,35.76 -40.57,36.00 -40.69,36.20 -40.80,36.40 -40.98,36.56 -41.16,36.72 -41.38,36.81 -41.59,36.90 -41.83,36.91 -42.06,36.93 -42.29,36.87 -42.52,36.81 -42.72,36.68 -42.92,36.55 -43.06,36.37 -43.21,36.18 -43.29,35.96 -43.37,35.74 -43.37,35.50 -43.37,35.27 -43.30,35.04 -43.23,34.82 -43.09,34.63 -42.95,34.44 -42.95,34.44 -42.95,34.44 -39.00,30.53 -35.05,26.62 -29.65,21.28 -24.25,15.94 -16.37,9.56 -8.48,3.19 -4.71,0.81 -0.95,-1.56 -0.75,-1.65 -0.55,-1.74 -0.33,-1.78 -0.11,-1.82 0.10,-1.81 0.32,-1.79 0.53,-1.73 0.74,-1.66 0.93,-1.55 1.12,-1.44 1.27,-1.28 1.43,-1.13 1.54,-0.94 1.66,-0.75 1.73,-0.54 1.79,-0.33 1.81,-0.11 1.82,0.10 1.78,0.32 1.74,0.53 1.65,0.73 1.56,0.93 1.43,1.11 1.29,1.28 1.12,1.42 0.95,1.56 0.95,1.56 L 0.95,1.56 Z"></path></g><g transform="translate(83.22580645161293 55.48387096774195) rotate(0 31.612903225806463 -4.0322580645161)" stroke="none"><path fill="#868e96" d="M -0.21,-1.89 Q -0.21,-1.89 17.23,-3.76 34.67,-5.63 42.80,-6.76 50.93,-7.90 56.96,-8.74 63.00,-9.59 63.25,-9.58 63.50,-9.58 63.73,-9.50 63.97,-9.41 64.16,-9.26 64.36,-9.10 64.50,-8.89 64.63,-8.68 64.70,-8.44 64.76,-8.20 64.74,-7.95 64.72,-7.70 64.63,-7.47 64.53,-7.24 64.37,-7.05 64.20,-6.87 63.98,-6.74 63.77,-6.62 63.52,-6.57 63.28,-6.52 63.03,-6.55 62.78,-6.58 62.56,-6.69 62.33,-6.80 62.15,-6.97 61.98,-7.15 61.86,-7.37 61.75,-7.59 61.71,-7.84 61.68,-8.09 61.72,-8.33 61.77,-8.58 61.89,-8.80 62.01,-9.01 62.19,-9.18 62.38,-9.35 62.60,-9.45 62.83,-9.55 63.08,-9.58 63.33,-9.60 63.57,-9.54 63.82,-9.48 64.03,-9.35 64.24,-9.22 64.40,-9.03 64.56,-8.83 64.65,-8.60 64.73,-8.37 64.74,-8.12 64.75,-7.87 64.68,-7.63 64.61,-7.39 64.47,-7.18 64.32,-6.98 64.12,-6.83 63.92,-6.68 63.68,-6.61 63.44,-6.53 63.45,-6.53 63.45,-6.53 57.43,-5.60 51.41,-4.67 43.23,-3.41 35.06,-2.15 17.63,-0.13 0.21,1.89 -0.01,1.89 -0.24,1.89 -0.47,1.83 -0.69,1.77 -0.89,1.66 -1.09,1.55 -1.26,1.40 -1.43,1.25 -1.56,1.06 -1.69,0.86 -1.77,0.65 -1.85,0.43 -1.88,0.21 -1.90,-0.01 -1.87,-0.24 -1.84,-0.47 -1.76,-0.68 -1.67,-0.90 -1.54,-1.09 -1.41,-1.27 -1.24,-1.42 -1.06,-1.57 -0.86,-1.68 -0.65,-1.78 -0.43,-1.84 -0.21,-1.89 -0.21,-1.89 L -0.21,-1.89 Z"></path></g></svg>