<svg version="1.1" xmlns="http://www.w3.org/2000/svg" viewBox="0 0 188.57142857142867 205.35714285714312" width="377.14285714285734" height="410.71428571428623">
  <!-- svg-source:excalidraw -->
  
  <defs>
    <style class="style-fonts">
      
    </style>
    
  </defs>
  <g transform="translate(88.57142857142912 52.142857142857565) rotate(0 0.00004999999998744897 0.00004999999998744897)" stroke="none"><path fill="#868e96" d="M 1.57,-1.57 Q 1.57,-1.57 1.77,-1.27 1.98,-0.98 2.09,-0.64 2.20,-0.29 2.19,0.05 2.18,0.41 2.05,0.75 1.93,1.09 1.70,1.37 1.48,1.65 1.18,1.84 0.87,2.04 0.52,2.12 0.18,2.21 -0.17,2.18 -0.53,2.15 -0.86,2.01 -1.19,1.87 -1.46,1.63 -1.73,1.39 -1.90,1.07 -2.08,0.76 -2.15,0.41 -2.21,0.05 -2.17,-0.29 -2.12,-0.65 -1.96,-0.97 -1.80,-1.29 -1.54,-1.54 -1.29,-1.80 -0.97,-1.96 -0.65,-2.12 -0.29,-2.17 0.06,-2.21 0.41,-2.15 0.76,-2.08 1.07,-1.90 1.39,-1.73 1.63,-1.46 1.87,-1.19 2.01,-0.86 2.15,-0.53 2.18,-0.17 2.21,0.18 2.12,0.52 2.03,0.87 1.84,1.18 1.65,1.48 1.37,1.70 1.09,1.93 0.75,2.05 0.41,2.18 0.05,2.19 -0.30,2.20 -0.64,2.09 -0.98,1.98 -1.27,1.77 -1.57,1.56 -1.57,1.57 -1.57,1.57 -1.73,1.35 -1.90,1.14 -2.01,0.90 -2.12,0.66 -2.16,0.39 -2.21,0.13 -2.20,-0.13 -2.18,-0.40 -2.10,-0.65 -2.02,-0.91 -1.88,-1.14 -1.74,-1.36 -1.55,-1.55 -1.36,-1.74 -1.14,-1.88 -0.91,-2.02 -0.65,-2.10 -0.40,-2.18 -0.13,-2.20 0.13,-2.21 0.39,-2.16 0.66,-2.12 0.90,-2.01 1.14,-1.90 1.35,-1.73 1.57,-1.57 1.57,-1.57 L 1.57,-1.57 Z"></path></g><g transform="translate(56.785714285714675 104.28571428571468) rotate(0 0.00004999999998744897 0.00005000000010113581)" stroke="none"><path fill="#868e96" d="M 1.57,-1.57 Q 1.57,-1.57 1.77,-1.27 1.98,-0.98 2.09,-0.64 2.20,-0.29 2.19,0.05 2.18,0.41 2.05,0.75 1.93,1.09 1.70,1.37 1.48,1.65 1.18,1.84 0.87,2.04 0.52,2.12 0.18,2.21 -0.17,2.18 -0.53,2.15 -0.86,2.01 -1.19,1.87 -1.46,1.63 -1.73,1.39 -1.90,1.07 -2.08,0.76 -2.15,0.41 -2.21,0.05 -2.17,-0.29 -2.12,-0.65 -1.96,-0.97 -1.80,-1.29 -1.54,-1.54 -1.29,-1.80 -0.97,-1.96 -0.65,-2.12 -0.29,-2.17 0.06,-2.21 0.41,-2.15 0.76,-2.08 1.07,-1.90 1.39,-1.73 1.63,-1.46 1.87,-1.19 2.01,-0.86 2.15,-0.53 2.18,-0.17 2.21,0.18 2.12,0.52 2.03,0.87 1.84,1.18 1.65,1.48 1.37,1.70 1.09,1.93 0.75,2.05 0.41,2.18 0.05,2.19 -0.30,2.20 -0.64,2.09 -0.98,1.98 -1.27,1.77 -1.57,1.56 -1.57,1.57 -1.57,1.57 -1.73,1.35 -1.90,1.14 -2.01,0.90 -2.12,0.66 -2.16,0.39 -2.21,0.13 -2.20,-0.13 -2.18,-0.40 -2.10,-0.65 -2.02,-0.91 -1.88,-1.14 -1.74,-1.36 -1.55,-1.55 -1.36,-1.74 -1.14,-1.88 -0.91,-2.02 -0.65,-2.10 -0.40,-2.18 -0.13,-2.20 0.13,-2.21 0.39,-2.16 0.66,-2.12 0.90,-2.01 1.14,-1.90 1.35,-1.73 1.57,-1.57 1.57,-1.57 L 1.57,-1.57 Z"></path></g><g transform="translate(126.42857142857179 103.92857142857201) rotate(0 0.00004999999998744897 0.00005000000010113581)" stroke="none"><path fill="#868e96" d="M 1.57,-1.57 Q 1.57,-1.57 1.77,-1.27 1.98,-0.98 2.09,-0.64 2.20,-0.29 2.19,0.05 2.18,0.41 2.05,0.75 1.93,1.09 1.70,1.37 1.48,1.65 1.18,1.84 0.87,2.04 0.52,2.12 0.18,2.21 -0.17,2.18 -0.53,2.15 -0.86,2.01 -1.19,1.87 -1.46,1.63 -1.73,1.39 -1.90,1.07 -2.08,0.76 -2.15,0.41 -2.21,0.05 -2.17,-0.29 -2.12,-0.65 -1.96,-0.97 -1.80,-1.29 -1.54,-1.54 -1.29,-1.80 -0.97,-1.96 -0.65,-2.12 -0.29,-2.17 0.06,-2.21 0.41,-2.15 0.76,-2.08 1.07,-1.90 1.39,-1.73 1.63,-1.46 1.87,-1.19 2.01,-0.86 2.15,-0.53 2.18,-0.17 2.21,0.18 2.12,0.52 2.03,0.87 1.84,1.18 1.65,1.48 1.37,1.70 1.09,1.93 0.75,2.05 0.41,2.18 0.05,2.19 -0.30,2.20 -0.64,2.09 -0.98,1.98 -1.27,1.77 -1.57,1.56 -1.57,1.57 -1.57,1.57 -1.73,1.35 -1.90,1.14 -2.01,0.90 -2.12,0.66 -2.16,0.39 -2.21,0.13 -2.20,-0.13 -2.18,-0.40 -2.10,-0.65 -2.02,-0.91 -1.88,-1.14 -1.74,-1.36 -1.55,-1.55 -1.36,-1.74 -1.14,-1.88 -0.91,-2.02 -0.65,-2.10 -0.40,-2.18 -0.13,-2.20 0.13,-2.21 0.39,-2.16 0.66,-2.12 0.90,-2.01 1.14,-1.90 1.35,-1.73 1.57,-1.57 1.57,-1.57 L 1.57,-1.57 Z"></path></g><g transform="translate(89.64285714285757 151.428571428572) rotate(0 0.00004999999998744897 0.00005000000010113581)" stroke="none"><path fill="#868e96" d="M 1.57,-1.57 Q 1.57,-1.57 1.77,-1.27 1.98,-0.98 2.09,-0.64 2.20,-0.29 2.19,0.05 2.18,0.41 2.05,0.75 1.93,1.09 1.70,1.37 1.48,1.65 1.18,1.84 0.87,2.04 0.52,2.12 0.18,2.21 -0.17,2.18 -0.53,2.15 -0.86,2.01 -1.19,1.87 -1.46,1.63 -1.73,1.39 -1.90,1.07 -2.08,0.76 -2.15,0.41 -2.21,0.05 -2.17,-0.29 -2.12,-0.65 -1.96,-0.97 -1.80,-1.29 -1.54,-1.54 -1.29,-1.80 -0.97,-1.96 -0.65,-2.12 -0.29,-2.17 0.06,-2.21 0.41,-2.15 0.76,-2.08 1.07,-1.90 1.39,-1.73 1.63,-1.46 1.87,-1.19 2.01,-0.86 2.15,-0.53 2.18,-0.17 2.21,0.18 2.12,0.52 2.03,0.87 1.84,1.18 1.65,1.48 1.37,1.70 1.09,1.93 0.75,2.05 0.41,2.18 0.05,2.19 -0.30,2.20 -0.64,2.09 -0.98,1.98 -1.27,1.77 -1.57,1.56 -1.57,1.57 -1.57,1.57 -1.73,1.35 -1.90,1.14 -2.01,0.90 -2.12,0.66 -2.16,0.39 -2.21,0.13 -2.20,-0.13 -2.18,-0.40 -2.10,-0.65 -2.02,-0.91 -1.88,-1.14 -1.74,-1.36 -1.55,-1.55 -1.36,-1.74 -1.14,-1.88 -0.91,-2.02 -0.65,-2.10 -0.40,-2.18 -0.13,-2.20 0.13,-2.21 0.39,-2.16 0.66,-2.12 0.90,-2.01 1.14,-1.90 1.35,-1.73 1.57,-1.57 1.57,-1.57 L 1.57,-1.57 Z"></path></g><g transform="translate(88.92857142857179 163.21428571428623) rotate(0 1.6071428571428896 15.178571428571331)" stroke="none"><path fill="#868e96" d="M 2.13,-0.19 Q 2.13,-0.19 2.23,2.07 2.32,4.34 2.64,10.77 2.95,17.21 3.26,20.08 3.57,22.96 3.98,24.42 4.39,25.87 4.74,28.00 5.09,30.13 5.08,30.44 5.06,30.74 4.95,31.03 4.84,31.31 4.65,31.55 4.45,31.79 4.19,31.95 3.93,32.11 3.63,32.18 3.33,32.24 3.02,32.21 2.72,32.18 2.44,32.06 2.16,31.93 1.94,31.72 1.71,31.51 1.56,31.24 1.42,30.97 1.37,30.67 1.31,30.37 1.36,30.07 1.41,29.76 1.55,29.49 1.69,29.22 1.91,29.01 2.13,28.79 2.41,28.66 2.69,28.53 2.99,28.49 3.30,28.46 3.60,28.52 3.90,28.58 4.16,28.74 4.42,28.90 4.62,29.13 4.82,29.36 4.94,29.64 5.06,29.93 5.08,30.23 5.10,30.54 5.02,30.84 4.94,31.13 4.77,31.39 4.60,31.64 4.35,31.83 4.11,32.02 3.82,32.12 3.53,32.22 3.23,32.22 2.92,32.23 2.63,32.13 2.34,32.03 2.09,31.85 1.84,31.67 1.67,31.42 1.50,31.16 1.41,30.87 1.33,30.57 1.33,30.57 1.33,30.57 1.14,28.62 0.95,26.67 0.64,25.03 0.32,23.38 -0.11,20.40 -0.55,17.43 -1.03,11.06 -1.50,4.69 -1.82,2.44 -2.13,0.19 -2.12,-0.06 -2.11,-0.32 -2.05,-0.57 -1.98,-0.82 -1.85,-1.04 -1.72,-1.27 -1.55,-1.45 -1.37,-1.64 -1.15,-1.78 -0.93,-1.92 -0.69,-2.01 -0.45,-2.09 -0.19,-2.11 0.06,-2.14 0.32,-2.10 0.57,-2.06 0.81,-1.96 1.05,-1.86 1.26,-1.71 1.46,-1.56 1.63,-1.36 1.80,-1.16 1.91,-0.93 2.02,-0.69 2.08,-0.44 2.13,-0.19 2.13,-0.19 L 2.13,-0.19 Z"></path></g><g transform="translate(85.35714285714334 195.00000000000045) rotate(0 9.28571428571422 0.17857142857133113)" stroke="none"><path fill="#868e96" d="M 0,-1.90 Q 0,-1.90 3.28,-1.82 6.57,-1.74 10.04,-1.58 13.51,-1.42 16.06,-1.30 18.61,-1.18 18.86,-1.13 19.10,-1.09 19.32,-0.96 19.54,-0.84 19.70,-0.65 19.87,-0.47 19.97,-0.24 20.07,-0.01 20.09,0.23 20.10,0.48 20.04,0.72 19.98,0.97 19.85,1.18 19.71,1.39 19.52,1.54 19.32,1.70 19.09,1.78 18.85,1.87 18.60,1.88 18.35,1.88 18.12,1.81 17.88,1.73 17.67,1.59 17.47,1.44 17.33,1.24 17.18,1.03 17.11,0.80 17.04,0.56 17.04,0.31 17.05,0.06 17.14,-0.17 17.22,-0.40 17.38,-0.60 17.54,-0.79 17.75,-0.92 17.96,-1.06 18.20,-1.12 18.45,-1.18 18.69,-1.16 18.94,-1.14 19.17,-1.04 19.40,-0.94 19.59,-0.77 19.77,-0.60 19.89,-0.38 20.02,-0.17 20.06,0.07 20.11,0.31 20.08,0.56 20.04,0.81 19.93,1.03 19.82,1.26 19.64,1.43 19.46,1.61 19.24,1.72 19.02,1.83 18.77,1.86 18.52,1.90 18.52,1.90 18.52,1.90 15.97,1.86 13.42,1.83 9.99,1.79 6.57,1.74 3.28,1.82 0,1.90 -0.22,1.87 -0.45,1.85 -0.67,1.77 -0.88,1.68 -1.07,1.55 -1.26,1.42 -1.41,1.25 -1.56,1.08 -1.67,0.87 -1.78,0.67 -1.83,0.45 -1.89,0.22 -1.89,-0.00 -1.89,-0.22 -1.83,-0.45 -1.78,-0.67 -1.67,-0.87 -1.56,-1.08 -1.41,-1.25 -1.26,-1.42 -1.07,-1.55 -0.88,-1.68 -0.67,-1.77 -0.45,-1.85 -0.22,-1.87 0.00,-1.90 0.00,-1.90 L 0,-1.90 Z"></path></g><g transform="translate(92.50000000000045 145.00000000000045) rotate(0 10.714285714285666 -16.96428571428578)" stroke="none"><path fill="#868e96" d="M -1.77,-1.05 Q -1.77,-1.05 0.57,-4.80 2.91,-8.55 4.69,-10.99 6.46,-13.44 7.80,-15.63 9.14,-17.81 10.23,-19.94 11.32,-22.07 12.16,-23.60 13.01,-25.13 13.86,-26.75 14.71,-28.36 15.61,-29.71 16.50,-31.07 17.15,-31.99 17.81,-32.91 18.82,-34.14 19.84,-35.37 20.11,-35.58 20.38,-35.80 20.71,-35.92 21.04,-36.03 21.38,-36.04 21.73,-36.05 22.06,-35.94 22.39,-35.84 22.67,-35.63 22.95,-35.43 23.15,-35.15 23.35,-34.86 23.45,-34.53 23.55,-34.20 23.54,-33.85 23.53,-33.50 23.41,-33.18 23.28,-32.85 23.06,-32.58 22.84,-32.31 22.55,-32.13 22.26,-31.95 21.92,-31.86 21.58,-31.78 21.23,-31.81 20.89,-31.85 20.57,-31.98 20.25,-32.12 20.00,-32.36 19.74,-32.59 19.57,-32.90 19.40,-33.20 19.34,-33.54 19.28,-33.88 19.33,-34.23 19.38,-34.57 19.53,-34.88 19.69,-35.19 19.94,-35.43 20.19,-35.68 20.50,-35.83 20.81,-35.98 21.15,-36.02 21.50,-36.07 21.84,-36.00 22.18,-35.93 22.48,-35.76 22.78,-35.59 23.01,-35.32 23.24,-35.06 23.38,-34.74 23.51,-34.42 23.54,-34.08 23.56,-33.73 23.47,-33.40 23.39,-33.06 23.20,-32.77 23.01,-32.48 23.01,-32.48 23.01,-32.48 21.22,-30.70 19.43,-28.92 18.55,-27.84 17.67,-26.77 16.75,-25.10 15.84,-23.44 14.95,-22.08 14.06,-20.72 12.99,-18.45 11.91,-16.19 10.60,-13.84 9.28,-11.49 7.70,-9.07 6.11,-6.64 3.94,-2.79 1.77,1.05 1.62,1.25 1.46,1.44 1.27,1.60 1.07,1.75 0.85,1.86 0.62,1.96 0.38,2.01 0.13,2.05 -0.10,2.04 -0.35,2.03 -0.59,1.95 -0.83,1.88 -1.04,1.75 -1.25,1.63 -1.43,1.45 -1.61,1.28 -1.74,1.07 -1.87,0.85 -1.94,0.62 -2.02,0.38 -2.04,0.13 -2.05,-0.10 -2.01,-0.35 -1.97,-0.59 -1.87,-0.82 -1.77,-1.05 -1.77,-1.05 L -1.77,-1.05 Z"></path></g><g transform="translate(121.07142857142912 96.0714285714289) rotate(0 -12.5 -18.39285714285711)" stroke="none"><path fill="#868e96" d="M -1.44,1.30 Q -1.44,1.30 -4.15,-1.83 -6.86,-4.97 -8.37,-7.22 -9.87,-9.47 -11.43,-12.43 -12.99,-15.38 -13.82,-16.90 -14.64,-18.43 -15.42,-19.87 -16.21,-21.32 -17.44,-23.33 -18.68,-25.34 -20.04,-27.58 -21.40,-29.83 -22.25,-30.89 -23.11,-31.95 -24.75,-33.62 -26.39,-35.29 -26.59,-35.55 -26.80,-35.81 -26.90,-36.12 -27.01,-36.44 -27.01,-36.77 -27.02,-37.10 -26.91,-37.41 -26.81,-37.73 -26.61,-37.99 -26.41,-38.26 -26.14,-38.44 -25.87,-38.63 -25.55,-38.72 -25.23,-38.81 -24.90,-38.80 -24.57,-38.78 -24.26,-38.66 -23.95,-38.54 -23.70,-38.33 -23.44,-38.12 -23.27,-37.83 -23.10,-37.55 -23.03,-37.23 -22.95,-36.91 -22.99,-36.58 -23.02,-36.25 -23.16,-35.95 -23.29,-35.64 -23.52,-35.40 -23.75,-35.16 -24.04,-35.00 -24.33,-34.85 -24.66,-34.79 -24.98,-34.73 -25.31,-34.79 -25.64,-34.84 -25.93,-34.99 -26.22,-35.14 -26.45,-35.38 -26.68,-35.62 -26.82,-35.92 -26.96,-36.22 -27.00,-36.55 -27.04,-36.88 -26.97,-37.20 -26.90,-37.53 -26.73,-37.81 -26.56,-38.10 -26.31,-38.31 -26.06,-38.53 -25.75,-38.65 -25.45,-38.78 -25.12,-38.80 -24.79,-38.82 -24.47,-38.73 -24.15,-38.64 -23.87,-38.46 -23.60,-38.28 -23.60,-38.28 -23.60,-38.28 -21.92,-36.11 -20.24,-33.94 -19.50,-32.71 -18.76,-31.48 -17.34,-29.31 -15.92,-27.13 -14.48,-25.02 -13.04,-22.90 -12.35,-21.41 -11.66,-19.92 -10.96,-18.40 -10.25,-16.88 -8.70,-14.12 -7.16,-11.36 -5.69,-9.35 -4.22,-7.34 -1.38,-4.32 1.44,-1.30 1.58,-1.11 1.71,-0.91 1.80,-0.69 1.88,-0.48 1.91,-0.24 1.94,-0.01 1.92,0.21 1.89,0.45 1.81,0.67 1.73,0.89 1.60,1.08 1.46,1.28 1.29,1.43 1.11,1.59 0.91,1.70 0.70,1.81 0.47,1.87 0.24,1.93 0.01,1.93 -0.21,1.93 -0.44,1.88 -0.67,1.82 -0.88,1.71 -1.09,1.61 -1.27,1.45 -1.44,1.30 -1.44,1.30 L -1.44,1.30 Z"></path></g><g transform="translate(60.357142857143344 97.85714285714312) rotate(0 9.464285714285666 -17.857142857142776)" stroke="none"><path fill="#868e96" d="M -1.54,-1.11 Q -1.54,-1.11 -0.14,-2.91 1.25,-4.71 5.90,-13.78 10.56,-22.84 14.05,-29.62 17.55,-36.41 17.69,-36.61 17.84,-36.81 18.05,-36.96 18.25,-37.10 18.49,-37.17 18.73,-37.24 18.98,-37.23 19.23,-37.22 19.46,-37.13 19.70,-37.05 19.89,-36.89 20.08,-36.73 20.22,-36.52 20.35,-36.31 20.41,-36.06 20.46,-35.82 20.44,-35.57 20.42,-35.32 20.32,-35.09 20.22,-34.87 20.05,-34.68 19.88,-34.50 19.66,-34.38 19.44,-34.26 19.20,-34.21 18.95,-34.17 18.70,-34.20 18.46,-34.24 18.23,-34.35 18.01,-34.46 17.84,-34.64 17.66,-34.82 17.55,-35.05 17.44,-35.27 17.41,-35.52 17.38,-35.77 17.43,-36.01 17.48,-36.26 17.60,-36.47 17.73,-36.69 17.92,-36.85 18.10,-37.02 18.34,-37.11 18.57,-37.21 18.81,-37.23 19.06,-37.25 19.31,-37.18 19.55,-37.12 19.76,-36.98 19.97,-36.85 20.12,-36.65 20.27,-36.46 20.36,-36.22 20.44,-35.99 20.45,-35.74 20.45,-35.49 20.38,-35.25 20.30,-35.01 20.30,-35.01 20.30,-35.01 16.88,-28.19 13.47,-21.36 8.77,-12.02 4.08,-2.67 2.81,-0.77 1.54,1.11 1.38,1.28 1.23,1.45 1.04,1.58 0.85,1.70 0.63,1.78 0.41,1.86 0.18,1.88 -0.04,1.90 -0.26,1.87 -0.49,1.84 -0.70,1.75 -0.92,1.66 -1.10,1.53 -1.29,1.40 -1.44,1.22 -1.59,1.04 -1.69,0.84 -1.79,0.63 -1.84,0.41 -1.89,0.18 -1.89,-0.04 -1.88,-0.27 -1.82,-0.49 -1.76,-0.71 -1.65,-0.91 -1.54,-1.11 -1.54,-1.11 L -1.54,-1.11 Z"></path></g><g transform="translate(65.71428571428623 103.92857142857201) rotate(0 25 -0.7142857142857792)" stroke="none"><path fill="#868e96" d="M -0.10,-2.10 Q -0.10,-2.10 4.00,-2.20 8.11,-2.30 17.91,-2.31 27.70,-2.32 32.02,-2.51 36.33,-2.69 39.02,-2.75 41.70,-2.81 43.04,-2.95 44.39,-3.10 47.18,-3.21 49.98,-3.33 50.28,-3.28 50.59,-3.24 50.86,-3.09 51.13,-2.95 51.35,-2.73 51.56,-2.51 51.69,-2.23 51.83,-1.95 51.86,-1.65 51.90,-1.34 51.84,-1.04 51.77,-0.74 51.62,-0.47 51.46,-0.20 51.23,-0.00 50.99,0.19 50.71,0.31 50.42,0.42 50.12,0.44 49.81,0.46 49.51,0.38 49.21,0.30 48.95,0.13 48.70,-0.03 48.51,-0.27 48.32,-0.51 48.22,-0.81 48.12,-1.10 48.11,-1.41 48.11,-1.71 48.21,-2.01 48.30,-2.30 48.49,-2.55 48.67,-2.79 48.92,-2.97 49.18,-3.15 49.47,-3.23 49.77,-3.32 50.08,-3.30 50.39,-3.29 50.67,-3.18 50.96,-3.07 51.20,-2.87 51.44,-2.67 51.60,-2.41 51.76,-2.15 51.83,-1.85 51.90,-1.55 51.87,-1.24 51.84,-0.93 51.71,-0.65 51.58,-0.37 51.37,-0.14 51.16,0.07 50.89,0.22 50.62,0.37 50.32,0.42 50.01,0.47 50.01,0.47 50.01,0.47 47.26,0.42 44.50,0.37 43.16,0.31 41.82,0.26 39.17,0.40 36.51,0.55 32.12,0.85 27.73,1.15 18.02,1.32 8.30,1.48 4.20,1.79 0.10,2.10 -0.14,2.09 -0.40,2.07 -0.64,1.99 -0.88,1.91 -1.10,1.78 -1.31,1.64 -1.49,1.46 -1.67,1.28 -1.80,1.06 -1.93,0.84 -2.00,0.60 -2.08,0.35 -2.09,0.10 -2.10,-0.14 -2.05,-0.39 -2.00,-0.64 -1.90,-0.88 -1.79,-1.11 -1.63,-1.31 -1.47,-1.50 -1.27,-1.66 -1.07,-1.81 -0.84,-1.92 -0.60,-2.02 -0.35,-2.06 -0.10,-2.10 -0.10,-2.10 L -0.10,-2.10 Z"></path></g><g transform="translate(89.28571428571468 42.85714285714289) rotate(0 0 -16.428571428571445)" stroke="none"><path fill="#e03131" d="M -1.82,0 Q -1.82,0 -1.75,-2.25 -1.68,-4.51 -1.63,-9.17 -1.58,-13.83 -1.54,-19.30 -1.51,-24.77 -1.48,-28.81 -1.45,-32.85 -1.41,-33.08 -1.38,-33.32 -1.27,-33.53 -1.16,-33.73 -0.98,-33.90 -0.81,-34.06 -0.60,-34.16 -0.39,-34.26 -0.15,-34.28 0.07,-34.31 0.30,-34.26 0.53,-34.21 0.74,-34.08 0.94,-33.96 1.09,-33.78 1.24,-33.60 1.33,-33.38 1.42,-33.17 1.43,-32.93 1.44,-32.69 1.38,-32.47 1.32,-32.24 1.19,-32.04 1.05,-31.85 0.87,-31.71 0.68,-31.56 0.45,-31.49 0.23,-31.41 -0.00,-31.41 -0.23,-31.41 -0.45,-31.49 -0.68,-31.56 -0.87,-31.71 -1.05,-31.85 -1.19,-32.04 -1.32,-32.24 -1.38,-32.47 -1.44,-32.69 -1.43,-32.93 -1.42,-33.17 -1.33,-33.38 -1.24,-33.60 -1.09,-33.78 -0.94,-33.96 -0.74,-34.09 -0.53,-34.21 -0.30,-34.26 -0.07,-34.31 0.15,-34.28 0.39,-34.26 0.60,-34.16 0.81,-34.06 0.98,-33.90 1.16,-33.73 1.27,-33.53 1.38,-33.32 1.41,-33.08 1.45,-32.85 1.45,-32.85 1.45,-32.85 1.48,-28.81 1.51,-24.77 1.54,-19.30 1.58,-13.83 1.63,-9.17 1.68,-4.51 1.75,-2.25 1.82,0 1.80,0.21 1.77,0.43 1.69,0.64 1.61,0.84 1.49,1.03 1.36,1.21 1.20,1.35 1.03,1.50 0.84,1.60 0.64,1.70 0.43,1.76 0.22,1.81 -0.00,1.81 -0.22,1.81 -0.43,1.76 -0.64,1.70 -0.84,1.60 -1.03,1.50 -1.20,1.35 -1.36,1.21 -1.49,1.03 -1.61,0.84 -1.69,0.64 -1.77,0.43 -1.80,0.21 -1.82,-0.00 -1.82,-0.00 L -1.82,0 Z"></path></g><g transform="translate(47.5 102.5) rotate(0 -18.75 0)" stroke="none"><path fill="#e03131" d="M 0,1.90 Q 0,1.90 -6.98,1.82 -13.96,1.74 -20.73,1.68 -27.49,1.63 -32.49,1.58 -37.5,1.54 -37.74,1.50 -37.99,1.46 -38.21,1.34 -38.43,1.22 -38.60,1.04 -38.77,0.86 -38.88,0.63 -38.98,0.41 -39.01,0.16 -39.04,-0.08 -38.98,-0.32 -38.93,-0.57 -38.80,-0.78 -38.67,-0.99 -38.48,-1.16 -38.29,-1.32 -38.06,-1.41 -37.83,-1.50 -37.58,-1.52 -37.33,-1.53 -37.09,-1.46 -36.85,-1.40 -36.64,-1.26 -36.43,-1.12 -36.28,-0.92 -36.13,-0.72 -36.05,-0.48 -35.97,-0.24 -35.97,0.00 -35.97,0.25 -36.05,0.48 -36.13,0.72 -36.28,0.92 -36.43,1.12 -36.64,1.26 -36.85,1.40 -37.09,1.46 -37.33,1.53 -37.58,1.52 -37.83,1.50 -38.06,1.41 -38.29,1.32 -38.48,1.16 -38.67,0.99 -38.80,0.78 -38.93,0.57 -38.98,0.32 -39.04,0.08 -39.01,-0.16 -38.98,-0.41 -38.88,-0.64 -38.77,-0.86 -38.60,-1.04 -38.43,-1.22 -38.21,-1.34 -37.99,-1.46 -37.74,-1.50 -37.49,-1.54 -37.49,-1.54 -37.5,-1.54 -32.49,-1.58 -27.49,-1.63 -20.73,-1.68 -13.96,-1.74 -6.98,-1.82 0,-1.90 0.22,-1.87 0.45,-1.85 0.67,-1.77 0.88,-1.68 1.07,-1.55 1.26,-1.42 1.41,-1.25 1.56,-1.08 1.67,-0.87 1.78,-0.67 1.83,-0.45 1.89,-0.22 1.89,0.00 1.89,0.22 1.83,0.45 1.78,0.67 1.67,0.87 1.56,1.08 1.41,1.25 1.26,1.42 1.07,1.55 0.88,1.68 0.67,1.77 0.45,1.85 0.22,1.87 -0.00,1.90 -0.00,1.90 L 0,1.90 Z"></path></g><g transform="translate(137.8571428571429 101.78571428571422) rotate(0 20.35714285714289 2.5)" stroke="none"><path fill="#e03131" d="M 0.19,-1.89 Q 0.19,-1.89 9.12,-0.89 18.04,0.10 24.63,1.07 31.22,2.04 36.07,2.75 40.92,3.47 41.16,3.54 41.40,3.61 41.60,3.76 41.80,3.91 41.95,4.11 42.09,4.31 42.17,4.55 42.24,4.79 42.23,5.04 42.22,5.29 42.14,5.52 42.05,5.76 41.90,5.95 41.74,6.15 41.53,6.28 41.32,6.41 41.07,6.47 40.83,6.53 40.58,6.51 40.33,6.49 40.10,6.39 39.88,6.29 39.69,6.13 39.50,5.96 39.38,5.74 39.26,5.52 39.21,5.28 39.17,5.03 39.20,4.79 39.23,4.54 39.35,4.32 39.46,4.09 39.63,3.92 39.81,3.74 40.03,3.63 40.26,3.52 40.51,3.49 40.75,3.45 41.00,3.50 41.24,3.55 41.46,3.67 41.68,3.79 41.85,3.98 42.01,4.17 42.11,4.40 42.21,4.63 42.23,4.87 42.25,5.12 42.19,5.37 42.13,5.61 41.99,5.82 41.86,6.03 41.66,6.18 41.47,6.34 41.23,6.43 41.00,6.51 40.75,6.52 40.50,6.52 40.50,6.52 40.50,6.52 35.64,5.90 30.78,5.27 24.23,4.43 17.68,3.58 8.74,2.74 -0.19,1.89 -0.42,1.84 -0.64,1.79 -0.84,1.69 -1.05,1.58 -1.23,1.43 -1.40,1.28 -1.53,1.10 -1.67,0.91 -1.75,0.70 -1.84,0.48 -1.87,0.26 -1.90,0.03 -1.88,-0.19 -1.85,-0.42 -1.78,-0.63 -1.70,-0.85 -1.57,-1.04 -1.44,-1.23 -1.28,-1.39 -1.11,-1.55 -0.90,-1.66 -0.70,-1.77 -0.48,-1.82 -0.26,-1.88 -0.03,-1.89 0.19,-1.89 0.19,-1.89 L 0.19,-1.89 Z"></path></g></svg>