<svg version="1.1" xmlns="http://www.w3.org/2000/svg" viewBox="0 0 280.35724285714286 132.5" width="560.7144857142857" height="265">
  <!-- svg-source:excalidraw -->
  
  <defs>
    <style class="style-fonts">
      
    </style>
    
  </defs>
  <g transform="translate(37.50000000000023 10.714285714285552) rotate(0 0.00004999999998744897 0.00004999999998744897)" stroke="none"><path fill="#868e96" d="M 1.57,-1.57 Q 1.57,-1.57 1.77,-1.27 1.98,-0.98 2.09,-0.64 2.20,-0.29 2.19,0.05 2.18,0.41 2.05,0.75 1.93,1.09 1.70,1.37 1.48,1.65 1.18,1.84 0.87,2.04 0.52,2.12 0.18,2.21 -0.17,2.18 -0.53,2.15 -0.86,2.01 -1.19,1.87 -1.46,1.63 -1.73,1.39 -1.90,1.07 -2.08,0.76 -2.15,0.41 -2.21,0.05 -2.17,-0.29 -2.12,-0.65 -1.96,-0.97 -1.80,-1.29 -1.54,-1.54 -1.29,-1.80 -0.97,-1.96 -0.65,-2.12 -0.29,-2.17 0.06,-2.21 0.41,-2.15 0.76,-2.08 1.07,-1.90 1.39,-1.73 1.63,-1.46 1.87,-1.19 2.01,-0.86 2.15,-0.53 2.18,-0.17 2.21,0.18 2.12,0.52 2.03,0.87 1.84,1.18 1.65,1.48 1.37,1.70 1.09,1.93 0.75,2.05 0.41,2.18 0.05,2.19 -0.30,2.20 -0.64,2.09 -0.98,1.98 -1.27,1.77 -1.57,1.56 -1.57,1.57 -1.57,1.57 -1.73,1.35 -1.90,1.14 -2.01,0.90 -2.12,0.66 -2.16,0.39 -2.21,0.13 -2.20,-0.13 -2.18,-0.40 -2.10,-0.65 -2.02,-0.91 -1.88,-1.14 -1.74,-1.36 -1.55,-1.55 -1.36,-1.74 -1.14,-1.88 -0.91,-2.02 -0.65,-2.10 -0.40,-2.18 -0.13,-2.20 0.13,-2.21 0.39,-2.16 0.66,-2.12 0.90,-2.01 1.14,-1.90 1.35,-1.73 1.57,-1.57 1.57,-1.57 L 1.57,-1.57 Z"></path></g><g transform="translate(234.64285714285734 21.785714285713993) rotate(0 0.00004999999998744897 0.00004999999998744897)" stroke="none"><path fill="#868e96" d="M 1.57,-1.57 Q 1.57,-1.57 1.77,-1.27 1.98,-0.98 2.09,-0.64 2.20,-0.29 2.19,0.05 2.18,0.41 2.05,0.75 1.93,1.09 1.70,1.37 1.48,1.65 1.18,1.84 0.87,2.04 0.52,2.12 0.18,2.21 -0.17,2.18 -0.53,2.15 -0.86,2.01 -1.19,1.87 -1.46,1.63 -1.73,1.39 -1.90,1.07 -2.08,0.76 -2.15,0.41 -2.21,0.05 -2.17,-0.29 -2.12,-0.65 -1.96,-0.97 -1.80,-1.29 -1.54,-1.54 -1.29,-1.80 -0.97,-1.96 -0.65,-2.12 -0.29,-2.17 0.06,-2.21 0.41,-2.15 0.76,-2.08 1.07,-1.90 1.39,-1.73 1.63,-1.46 1.87,-1.19 2.01,-0.86 2.15,-0.53 2.18,-0.17 2.21,0.18 2.12,0.52 2.03,0.87 1.84,1.18 1.65,1.48 1.37,1.70 1.09,1.93 0.75,2.05 0.41,2.18 0.05,2.19 -0.30,2.20 -0.64,2.09 -0.98,1.98 -1.27,1.77 -1.57,1.56 -1.57,1.57 -1.57,1.57 -1.73,1.35 -1.90,1.14 -2.01,0.90 -2.12,0.66 -2.16,0.39 -2.21,0.13 -2.20,-0.13 -2.18,-0.40 -2.10,-0.65 -2.02,-0.91 -1.88,-1.14 -1.74,-1.36 -1.55,-1.55 -1.36,-1.74 -1.14,-1.88 -0.91,-2.02 -0.65,-2.10 -0.40,-2.18 -0.13,-2.20 0.13,-2.21 0.39,-2.16 0.66,-2.12 0.90,-2.01 1.14,-1.90 1.35,-1.73 1.57,-1.57 1.57,-1.57 L 1.57,-1.57 Z"></path></g><g transform="translate(257.8571428571429 56.428571428571104) rotate(0 0.00004999999998744897 0.00004999999998744897)" stroke="none"><path fill="#868e96" d="M 1.57,-1.57 Q 1.57,-1.57 1.77,-1.27 1.98,-0.98 2.09,-0.64 2.20,-0.29 2.19,0.05 2.18,0.41 2.05,0.75 1.93,1.09 1.70,1.37 1.48,1.65 1.18,1.84 0.87,2.04 0.52,2.12 0.18,2.21 -0.17,2.18 -0.53,2.15 -0.86,2.01 -1.19,1.87 -1.46,1.63 -1.73,1.39 -1.90,1.07 -2.08,0.76 -2.15,0.41 -2.21,0.05 -2.17,-0.29 -2.12,-0.65 -1.96,-0.97 -1.80,-1.29 -1.54,-1.54 -1.29,-1.80 -0.97,-1.96 -0.65,-2.12 -0.29,-2.17 0.06,-2.21 0.41,-2.15 0.76,-2.08 1.07,-1.90 1.39,-1.73 1.63,-1.46 1.87,-1.19 2.01,-0.86 2.15,-0.53 2.18,-0.17 2.21,0.18 2.12,0.52 2.03,0.87 1.84,1.18 1.65,1.48 1.37,1.70 1.09,1.93 0.75,2.05 0.41,2.18 0.05,2.19 -0.30,2.20 -0.64,2.09 -0.98,1.98 -1.27,1.77 -1.57,1.56 -1.57,1.57 -1.57,1.57 -1.73,1.35 -1.90,1.14 -2.01,0.90 -2.12,0.66 -2.16,0.39 -2.21,0.13 -2.20,-0.13 -2.18,-0.40 -2.10,-0.65 -2.02,-0.91 -1.88,-1.14 -1.74,-1.36 -1.55,-1.55 -1.36,-1.74 -1.14,-1.88 -0.91,-2.02 -0.65,-2.10 -0.40,-2.18 -0.13,-2.20 0.13,-2.21 0.39,-2.16 0.66,-2.12 0.90,-2.01 1.14,-1.90 1.35,-1.73 1.57,-1.57 1.57,-1.57 L 1.57,-1.57 Z"></path></g><g transform="translate(240.00000000000023 28.571428571428214) rotate(0 5.357142857142776 8.928571428571445)" stroke="none"><path fill="#868e96" d="M 1.67,-0.97 Q 1.67,-0.97 4.47,3.99 7.28,8.96 8.64,11.27 10.00,13.58 11.04,15.29 12.08,17.00 12.18,17.24 12.28,17.48 12.30,17.74 12.32,18.01 12.25,18.26 12.19,18.51 12.04,18.73 11.90,18.95 11.69,19.11 11.49,19.27 11.24,19.36 10.99,19.45 10.73,19.45 10.47,19.45 10.22,19.37 9.97,19.29 9.76,19.14 9.55,18.98 9.40,18.77 9.25,18.55 9.18,18.30 9.10,18.05 9.11,17.79 9.12,17.53 9.22,17.28 9.31,17.04 9.48,16.83 9.64,16.63 9.87,16.50 10.09,16.36 10.34,16.30 10.60,16.24 10.86,16.26 11.12,16.29 11.36,16.39 11.60,16.50 11.79,16.68 11.98,16.86 12.11,17.09 12.24,17.31 12.28,17.57 12.33,17.83 12.29,18.09 12.25,18.35 12.13,18.58 12.01,18.81 11.82,19.00 11.64,19.18 11.40,19.29 11.16,19.41 10.90,19.44 10.64,19.47 10.39,19.42 10.13,19.36 9.90,19.23 9.68,19.10 9.51,18.90 9.33,18.71 9.33,18.71 9.33,18.71 8.27,17.01 7.20,15.32 5.71,13.03 4.21,10.74 1.27,5.86 -1.67,0.97 -1.76,0.76 -1.86,0.54 -1.89,0.31 -1.93,0.08 -1.91,-0.14 -1.90,-0.37 -1.82,-0.60 -1.75,-0.82 -1.63,-1.02 -1.50,-1.21 -1.33,-1.38 -1.17,-1.54 -0.97,-1.66 -0.76,-1.78 -0.54,-1.84 -0.31,-1.91 -0.08,-1.92 0.14,-1.93 0.37,-1.88 0.60,-1.84 0.81,-1.74 1.02,-1.64 1.21,-1.49 1.39,-1.34 1.53,-1.16 1.67,-0.97 1.67,-0.97 L 1.67,-0.97 Z"></path></g><g transform="translate(270.3571428571429 11.785714285713993) rotate(0 0.00004999999998744897 0.00004999999998744897)" stroke="none"><path fill="#868e96" d="M 1.57,-1.57 Q 1.57,-1.57 1.77,-1.27 1.98,-0.98 2.09,-0.64 2.20,-0.29 2.19,0.05 2.18,0.41 2.05,0.75 1.93,1.09 1.70,1.37 1.48,1.65 1.18,1.84 0.87,2.04 0.52,2.12 0.18,2.21 -0.17,2.18 -0.53,2.15 -0.86,2.01 -1.19,1.87 -1.46,1.63 -1.73,1.39 -1.90,1.07 -2.08,0.76 -2.15,0.41 -2.21,0.05 -2.17,-0.29 -2.12,-0.65 -1.96,-0.97 -1.80,-1.29 -1.54,-1.54 -1.29,-1.80 -0.97,-1.96 -0.65,-2.12 -0.29,-2.17 0.06,-2.21 0.41,-2.15 0.76,-2.08 1.07,-1.90 1.39,-1.73 1.63,-1.46 1.87,-1.19 2.01,-0.86 2.15,-0.53 2.18,-0.17 2.21,0.18 2.12,0.52 2.03,0.87 1.84,1.18 1.65,1.48 1.37,1.70 1.09,1.93 0.75,2.05 0.41,2.18 0.05,2.19 -0.30,2.20 -0.64,2.09 -0.98,1.98 -1.27,1.77 -1.57,1.56 -1.57,1.57 -1.57,1.57 -1.73,1.35 -1.90,1.14 -2.01,0.90 -2.12,0.66 -2.16,0.39 -2.21,0.13 -2.20,-0.13 -2.18,-0.40 -2.10,-0.65 -2.02,-0.91 -1.88,-1.14 -1.74,-1.36 -1.55,-1.55 -1.36,-1.74 -1.14,-1.88 -0.91,-2.02 -0.65,-2.10 -0.40,-2.18 -0.13,-2.20 0.13,-2.21 0.39,-2.16 0.66,-2.12 0.90,-2.01 1.14,-1.90 1.35,-1.73 1.57,-1.57 1.57,-1.57 L 1.57,-1.57 Z"></path></g><g transform="translate(243.57142857142867 17.142857142856883) rotate(0 8.928571428571445 -1.0714285714285552)" stroke="none"><path fill="#868e96" d="M -0.43,-2.16 Q -0.43,-2.16 3.69,-2.87 7.82,-3.57 10.14,-3.84 12.45,-4.11 15.08,-4.46 17.70,-4.81 18.01,-4.78 18.33,-4.75 18.62,-4.63 18.91,-4.50 19.15,-4.29 19.38,-4.08 19.54,-3.80 19.69,-3.52 19.75,-3.21 19.81,-2.90 19.77,-2.59 19.72,-2.27 19.58,-1.99 19.44,-1.70 19.22,-1.48 18.99,-1.26 18.71,-1.12 18.42,-0.98 18.11,-0.94 17.79,-0.89 17.48,-0.95 17.17,-1.02 16.90,-1.17 16.62,-1.33 16.41,-1.57 16.20,-1.80 16.07,-2.09 15.95,-2.39 15.92,-2.70 15.90,-3.02 15.98,-3.32 16.05,-3.63 16.23,-3.90 16.40,-4.16 16.65,-4.36 16.89,-4.56 17.19,-4.67 17.49,-4.78 17.81,-4.79 18.12,-4.79 18.43,-4.70 18.73,-4.60 18.99,-4.42 19.24,-4.23 19.43,-3.98 19.61,-3.72 19.70,-3.41 19.79,-3.11 19.78,-2.79 19.78,-2.48 19.66,-2.18 19.55,-1.88 19.36,-1.64 19.16,-1.39 18.89,-1.22 18.62,-1.05 18.31,-0.97 18.00,-0.90 18.01,-0.90 18.01,-0.90 15.50,-0.73 13.00,-0.56 10.80,-0.13 8.60,0.29 4.51,1.22 0.43,2.16 0.16,2.18 -0.09,2.20 -0.36,2.16 -0.62,2.11 -0.86,2.01 -1.11,1.90 -1.32,1.74 -1.53,1.58 -1.70,1.37 -1.87,1.17 -1.98,0.93 -2.09,0.69 -2.14,0.42 -2.20,0.16 -2.19,-0.09 -2.17,-0.36 -2.10,-0.61 -2.02,-0.87 -1.89,-1.10 -1.76,-1.33 -1.57,-1.52 -1.38,-1.71 -1.16,-1.85 -0.93,-1.99 -0.68,-2.08 -0.43,-2.16 -0.43,-2.16 L -0.43,-2.16 Z"></path></g><g transform="translate(263.2142857142858 43.928571428571104) rotate(0 2.321428571428669 -11.60714285714289)" stroke="none"><path fill="#868e96" d="M -2.18,-0.19 Q -2.18,-0.19 -1.86,-2.54 -1.54,-4.89 -0.83,-7.27 -0.11,-9.65 0.45,-11.46 1.03,-13.27 1.49,-15.18 1.96,-17.08 2.17,-18.19 2.37,-19.31 2.87,-21.47 3.36,-23.63 3.48,-23.94 3.60,-24.25 3.81,-24.50 4.02,-24.76 4.30,-24.93 4.58,-25.10 4.91,-25.17 5.23,-25.25 5.56,-25.21 5.88,-25.18 6.19,-25.04 6.49,-24.91 6.73,-24.68 6.97,-24.45 7.12,-24.16 7.28,-23.87 7.34,-23.55 7.39,-23.22 7.34,-22.90 7.29,-22.57 7.14,-22.28 6.98,-21.99 6.75,-21.76 6.51,-21.53 6.21,-21.39 5.91,-21.25 5.58,-21.21 5.25,-21.17 4.93,-21.24 4.61,-21.31 4.33,-21.48 4.04,-21.65 3.83,-21.90 3.61,-22.15 3.49,-22.45 3.36,-22.76 3.34,-23.09 3.32,-23.42 3.41,-23.74 3.50,-24.05 3.68,-24.33 3.86,-24.60 4.12,-24.80 4.39,-25.01 4.70,-25.11 5.01,-25.22 5.34,-25.22 5.67,-25.22 5.98,-25.12 6.30,-25.02 6.56,-24.82 6.82,-24.62 7.01,-24.35 7.20,-24.08 7.29,-23.76 7.38,-23.44 7.36,-23.11 7.35,-22.78 7.35,-22.78 7.35,-22.78 6.32,-19.56 5.29,-16.33 4.86,-14.26 4.44,-12.19 3.89,-10.46 3.34,-8.73 2.85,-6.63 2.36,-4.54 2.27,-2.17 2.18,0.19 2.13,0.44 2.07,0.70 1.96,0.94 1.84,1.18 1.68,1.38 1.51,1.59 1.29,1.75 1.08,1.90 0.84,2.01 0.59,2.11 0.33,2.15 0.07,2.19 -0.18,2.17 -0.45,2.14 -0.70,2.06 -0.95,1.97 -1.17,1.83 -1.39,1.69 -1.58,1.50 -1.76,1.30 -1.89,1.07 -2.02,0.84 -2.09,0.59 -2.17,0.33 -2.17,0.07 -2.18,-0.19 -2.18,-0.19 L -2.18,-0.19 Z"></path></g><g transform="translate(223.92857142857156 109.99999999999977) rotate(0 0.00004999999998744897 0.00004999999998744897)" stroke="none"><path fill="#868e96" d="M 1.57,-1.57 Q 1.57,-1.57 1.77,-1.27 1.98,-0.98 2.09,-0.64 2.20,-0.29 2.19,0.05 2.18,0.41 2.05,0.75 1.93,1.09 1.70,1.37 1.48,1.65 1.18,1.84 0.87,2.04 0.52,2.12 0.18,2.21 -0.17,2.18 -0.53,2.15 -0.86,2.01 -1.19,1.87 -1.46,1.63 -1.73,1.39 -1.90,1.07 -2.08,0.76 -2.15,0.41 -2.21,0.05 -2.17,-0.29 -2.12,-0.65 -1.96,-0.97 -1.80,-1.29 -1.54,-1.54 -1.29,-1.80 -0.97,-1.96 -0.65,-2.12 -0.29,-2.17 0.06,-2.21 0.41,-2.15 0.76,-2.08 1.07,-1.90 1.39,-1.73 1.63,-1.46 1.87,-1.19 2.01,-0.86 2.15,-0.53 2.18,-0.17 2.21,0.18 2.12,0.52 2.03,0.87 1.84,1.18 1.65,1.48 1.37,1.70 1.09,1.93 0.75,2.05 0.41,2.18 0.05,2.19 -0.30,2.20 -0.64,2.09 -0.98,1.98 -1.27,1.77 -1.57,1.56 -1.57,1.57 -1.57,1.57 -1.73,1.35 -1.90,1.14 -2.01,0.90 -2.12,0.66 -2.16,0.39 -2.21,0.13 -2.20,-0.13 -2.18,-0.40 -2.10,-0.65 -2.02,-0.91 -1.88,-1.14 -1.74,-1.36 -1.55,-1.55 -1.36,-1.74 -1.14,-1.88 -0.91,-2.02 -0.65,-2.10 -0.40,-2.18 -0.13,-2.20 0.13,-2.21 0.39,-2.16 0.66,-2.12 0.90,-2.01 1.14,-1.90 1.35,-1.73 1.57,-1.57 1.57,-1.57 L 1.57,-1.57 Z"></path></g><g transform="translate(256.07142857142867 62.85714285714266) rotate(0 -12.14285714285711 19.464285714285666)" stroke="none"><path fill="#868e96" d="M 1.54,0.97 Q 1.54,0.97 0.25,2.88 -1.03,4.80 -7.35,14.44 -13.68,24.08 -16.36,28.55 -19.04,33.02 -21.03,36.34 -23.03,39.66 -23.18,39.85 -23.33,40.03 -23.53,40.15 -23.73,40.27 -23.96,40.33 -24.19,40.38 -24.42,40.36 -24.66,40.33 -24.87,40.23 -25.09,40.14 -25.26,39.98 -25.43,39.82 -25.55,39.61 -25.66,39.40 -25.70,39.17 -25.74,38.94 -25.70,38.70 -25.67,38.47 -25.56,38.26 -25.45,38.05 -25.28,37.89 -25.11,37.72 -24.90,37.62 -24.68,37.52 -24.45,37.49 -24.21,37.47 -23.98,37.52 -23.75,37.56 -23.55,37.68 -23.35,37.80 -23.19,37.98 -23.04,38.16 -22.95,38.38 -22.86,38.60 -22.84,38.83 -22.83,39.07 -22.89,39.30 -22.95,39.53 -23.08,39.72 -23.21,39.92 -23.40,40.06 -23.59,40.21 -23.81,40.28 -24.03,40.36 -24.27,40.36 -24.50,40.36 -24.73,40.29 -24.95,40.22 -25.14,40.08 -25.33,39.93 -25.47,39.74 -25.60,39.55 -25.66,39.32 -25.73,39.09 -25.72,38.86 -25.71,38.62 -25.62,38.40 -25.54,38.18 -25.54,38.18 -25.54,38.18 -23.59,34.83 -21.64,31.48 -18.99,26.92 -16.34,22.35 -10.11,12.67 -3.89,2.99 -2.71,1.01 -1.54,-0.97 -1.40,-1.14 -1.26,-1.31 -1.09,-1.44 -0.91,-1.58 -0.71,-1.66 -0.50,-1.75 -0.29,-1.79 -0.07,-1.82 0.14,-1.80 0.36,-1.79 0.57,-1.72 0.78,-1.65 0.96,-1.53 1.15,-1.41 1.30,-1.25 1.46,-1.09 1.57,-0.90 1.68,-0.71 1.74,-0.50 1.80,-0.29 1.81,-0.07 1.82,0.14 1.77,0.36 1.73,0.57 1.63,0.77 1.54,0.97 1.54,0.97 L 1.54,0.97 Z"></path></g><g transform="translate(10 51.071428571428214) rotate(0 0.00004999999998744897 0.00004999999998744897)" stroke="none"><path fill="#868e96" d="M 1.57,-1.57 Q 1.57,-1.57 1.77,-1.27 1.98,-0.98 2.09,-0.64 2.20,-0.29 2.19,0.05 2.18,0.41 2.05,0.75 1.93,1.09 1.70,1.37 1.48,1.65 1.18,1.84 0.87,2.04 0.52,2.12 0.18,2.21 -0.17,2.18 -0.53,2.15 -0.86,2.01 -1.19,1.87 -1.46,1.63 -1.73,1.39 -1.90,1.07 -2.08,0.76 -2.15,0.41 -2.21,0.05 -2.17,-0.29 -2.12,-0.65 -1.96,-0.97 -1.80,-1.29 -1.54,-1.54 -1.29,-1.80 -0.97,-1.96 -0.65,-2.12 -0.29,-2.17 0.06,-2.21 0.41,-2.15 0.76,-2.08 1.07,-1.90 1.39,-1.73 1.63,-1.46 1.87,-1.19 2.01,-0.86 2.15,-0.53 2.18,-0.17 2.21,0.18 2.12,0.52 2.03,0.87 1.84,1.18 1.65,1.48 1.37,1.70 1.09,1.93 0.75,2.05 0.41,2.18 0.05,2.19 -0.30,2.20 -0.64,2.09 -0.98,1.98 -1.27,1.77 -1.57,1.56 -1.57,1.57 -1.57,1.57 -1.73,1.35 -1.90,1.14 -2.01,0.90 -2.12,0.66 -2.16,0.39 -2.21,0.13 -2.20,-0.13 -2.18,-0.40 -2.10,-0.65 -2.02,-0.91 -1.88,-1.14 -1.74,-1.36 -1.55,-1.55 -1.36,-1.74 -1.14,-1.88 -0.91,-2.02 -0.65,-2.10 -0.40,-2.18 -0.13,-2.20 0.13,-2.21 0.39,-2.16 0.66,-2.12 0.90,-2.01 1.14,-1.90 1.35,-1.73 1.57,-1.57 1.57,-1.57 L 1.57,-1.57 Z"></path></g><g transform="translate(60.00000000000023 89.64285714285688) rotate(0 -20.178571428571445 -15.35714285714289)" stroke="none"><path fill="#868e96" d="M -0.82,1.65 Q -0.82,1.65 -2.84,0.55 -4.87,-0.53 -15.40,-8.80 -25.93,-17.06 -30.34,-20.66 -34.76,-24.26 -36.60,-25.68 -38.45,-27.10 -39.87,-28.09 -41.30,-29.09 -41.48,-29.27 -41.66,-29.45 -41.77,-29.69 -41.87,-29.92 -41.90,-30.17 -41.93,-30.43 -41.88,-30.68 -41.83,-30.93 -41.70,-31.15 -41.57,-31.37 -41.37,-31.54 -41.18,-31.70 -40.94,-31.80 -40.70,-31.90 -40.45,-31.91 -40.19,-31.93 -39.94,-31.86 -39.70,-31.79 -39.48,-31.65 -39.27,-31.51 -39.12,-31.31 -38.96,-31.10 -38.88,-30.86 -38.79,-30.62 -38.79,-30.36 -38.79,-30.11 -38.87,-29.86 -38.95,-29.62 -39.10,-29.42 -39.26,-29.21 -39.47,-29.07 -39.68,-28.92 -39.92,-28.85 -40.17,-28.78 -40.43,-28.79 -40.68,-28.80 -40.92,-28.90 -41.16,-28.99 -41.36,-29.16 -41.55,-29.32 -41.69,-29.54 -41.82,-29.76 -41.88,-30.01 -41.93,-30.26 -41.91,-30.51 -41.88,-30.77 -41.77,-31.00 -41.67,-31.23 -41.49,-31.42 -41.32,-31.61 -41.09,-31.73 -40.87,-31.85 -40.61,-31.89 -40.36,-31.93 -40.11,-31.90 -39.86,-31.86 -39.63,-31.74 -39.40,-31.62 -39.40,-31.62 -39.40,-31.62 -38.05,-30.53 -36.69,-29.44 -34.77,-28.03 -32.85,-26.63 -28.41,-23.11 -23.96,-19.58 -13.65,-11.57 -3.34,-3.57 -1.25,-2.61 0.82,-1.65 1.01,-1.52 1.19,-1.40 1.34,-1.24 1.49,-1.07 1.60,-0.88 1.71,-0.68 1.76,-0.47 1.82,-0.25 1.83,-0.03 1.83,0.18 1.78,0.40 1.73,0.62 1.63,0.81 1.53,1.01 1.39,1.18 1.25,1.35 1.07,1.48 0.88,1.61 0.68,1.69 0.47,1.78 0.25,1.81 0.03,1.84 -0.18,1.82 -0.40,1.80 -0.61,1.72 -0.82,1.65 -0.82,1.65 L -0.82,1.65 Z"></path></g><g transform="translate(190.00000000000023 30.357142857142662) rotate(0 14.28571428571422 -2.5)" stroke="none"><path fill="#868e96" d="M -0.36,-1.81 Q -0.36,-1.81 3.24,-2.46 6.85,-3.10 12.82,-4.08 18.80,-5.06 21.54,-5.45 24.29,-5.85 26.31,-6.17 28.33,-6.48 28.57,-6.48 28.82,-6.48 29.05,-6.40 29.28,-6.32 29.47,-6.17 29.66,-6.02 29.80,-5.82 29.93,-5.62 30.00,-5.39 30.06,-5.15 30.05,-4.91 30.03,-4.67 29.94,-4.44 29.85,-4.21 29.69,-4.03 29.54,-3.84 29.33,-3.72 29.12,-3.60 28.88,-3.54 28.64,-3.49 28.40,-3.52 28.16,-3.55 27.94,-3.65 27.72,-3.75 27.54,-3.92 27.36,-4.09 27.25,-4.31 27.14,-4.52 27.10,-4.76 27.06,-5.00 27.10,-5.24 27.14,-5.48 27.26,-5.70 27.37,-5.91 27.55,-6.08 27.73,-6.24 27.95,-6.35 28.17,-6.45 28.41,-6.47 28.65,-6.50 28.89,-6.44 29.13,-6.39 29.34,-6.26 29.55,-6.14 29.70,-5.95 29.86,-5.76 29.95,-5.54 30.04,-5.31 30.05,-5.07 30.06,-4.83 29.99,-4.59 29.93,-4.36 29.79,-4.16 29.65,-3.96 29.46,-3.81 29.26,-3.66 29.03,-3.59 28.80,-3.51 28.80,-3.51 28.80,-3.51 26.79,-3.18 24.77,-2.85 22.05,-2.38 19.34,-1.91 13.43,-0.83 7.52,0.23 3.94,1.02 0.36,1.81 0.14,1.83 -0.08,1.84 -0.30,1.81 -0.52,1.77 -0.72,1.68 -0.93,1.59 -1.10,1.46 -1.28,1.32 -1.42,1.15 -1.56,0.98 -1.66,0.78 -1.75,0.57 -1.79,0.35 -1.84,0.14 -1.83,-0.08 -1.82,-0.30 -1.76,-0.51 -1.69,-0.73 -1.58,-0.92 -1.47,-1.11 -1.31,-1.27 -1.16,-1.43 -0.97,-1.55 -0.78,-1.67 -0.57,-1.74 -0.36,-1.81 -0.36,-1.81 L -0.36,-1.81 Z"></path></g><g transform="translate(167.8571428571429 108.9285714285711) rotate(0 22.142857142857224 0)" stroke="none"><path fill="#868e96" d="M 0,-1.80 Q 0,-1.80 3.59,-1.74 7.18,-1.67 9.74,-1.62 12.29,-1.57 20.46,-1.54 28.63,-1.50 32.72,-1.47 36.81,-1.45 38.96,-1.43 41.10,-1.41 42.69,-1.50 44.28,-1.58 44.53,-1.54 44.79,-1.50 45.02,-1.38 45.24,-1.26 45.42,-1.07 45.60,-0.89 45.70,-0.65 45.81,-0.42 45.84,-0.16 45.87,0.08 45.81,0.33 45.76,0.58 45.62,0.80 45.49,1.02 45.30,1.19 45.10,1.36 44.86,1.45 44.62,1.55 44.37,1.56 44.11,1.57 43.86,1.51 43.61,1.44 43.40,1.29 43.19,1.15 43.03,0.94 42.88,0.74 42.80,0.50 42.71,0.25 42.71,-0.00 42.71,-0.25 42.80,-0.50 42.88,-0.74 43.03,-0.94 43.19,-1.15 43.40,-1.29 43.61,-1.44 43.86,-1.51 44.11,-1.57 44.37,-1.56 44.62,-1.55 44.86,-1.45 45.10,-1.36 45.30,-1.19 45.49,-1.02 45.62,-0.80 45.76,-0.58 45.81,-0.33 45.87,-0.08 45.84,0.16 45.81,0.42 45.70,0.65 45.60,0.89 45.42,1.07 45.24,1.26 45.01,1.38 44.79,1.50 44.53,1.54 44.28,1.58 44.28,1.58 44.28,1.58 42.69,1.50 41.10,1.41 38.96,1.43 36.81,1.45 32.72,1.47 28.63,1.50 20.46,1.54 12.29,1.57 9.74,1.62 7.18,1.67 3.59,1.74 0,1.80 -0.21,1.78 -0.43,1.75 -0.63,1.67 -0.84,1.60 -1.01,1.47 -1.19,1.35 -1.34,1.19 -1.48,1.02 -1.58,0.83 -1.69,0.64 -1.74,0.42 -1.79,0.21 -1.79,-0.00 -1.79,-0.21 -1.74,-0.42 -1.69,-0.64 -1.58,-0.83 -1.48,-1.02 -1.34,-1.19 -1.19,-1.35 -1.01,-1.47 -0.84,-1.60 -0.63,-1.67 -0.43,-1.75 -0.21,-1.78 0.00,-1.80 0.00,-1.80 L 0,-1.80 Z"></path></g><g transform="translate(48.21428571428578 12.857142857142662) rotate(0 15.71428571428578 3.928571428571331)" stroke="none"><path fill="#868e96" d="M 0.49,-1.76 Q 0.49,-1.76 3.04,-0.97 5.58,-0.18 8.26,0.46 10.94,1.11 16.94,2.64 22.94,4.18 27.36,5.31 31.78,6.44 31.99,6.53 32.21,6.62 32.39,6.78 32.56,6.94 32.68,7.14 32.79,7.35 32.84,7.58 32.88,7.81 32.85,8.05 32.82,8.28 32.71,8.49 32.61,8.70 32.44,8.87 32.27,9.04 32.06,9.14 31.85,9.25 31.62,9.28 31.38,9.31 31.15,9.27 30.92,9.22 30.71,9.10 30.51,8.99 30.35,8.81 30.19,8.64 30.10,8.42 30.01,8.20 29.99,7.97 29.97,7.73 30.03,7.50 30.08,7.27 30.21,7.08 30.34,6.88 30.52,6.73 30.71,6.58 30.93,6.50 31.15,6.42 31.39,6.41 31.62,6.41 31.85,6.48 32.07,6.55 32.26,6.68 32.46,6.82 32.59,7.01 32.73,7.21 32.80,7.43 32.87,7.66 32.86,7.89 32.86,8.13 32.77,8.35 32.69,8.57 32.54,8.75 32.40,8.94 32.20,9.07 32.00,9.19 31.77,9.25 31.54,9.31 31.31,9.29 31.07,9.27 31.07,9.27 31.07,9.27 26.64,8.19 22.21,7.11 16.23,5.66 10.25,4.21 7.46,3.63 4.67,3.06 2.09,2.41 -0.49,1.76 -0.69,1.67 -0.89,1.59 -1.07,1.46 -1.25,1.32 -1.39,1.15 -1.53,0.99 -1.63,0.79 -1.72,0.59 -1.77,0.37 -1.82,0.16 -1.81,-0.05 -1.80,-0.27 -1.74,-0.48 -1.68,-0.70 -1.57,-0.89 -1.47,-1.08 -1.31,-1.24 -1.16,-1.40 -0.98,-1.52 -0.79,-1.64 -0.58,-1.71 -0.38,-1.78 -0.16,-1.80 0.05,-1.82 0.27,-1.79 0.49,-1.75 0.49,-1.76 L 0.49,-1.76 Z"></path></g><g transform="translate(185.35714285714266 19.64285714285711) rotate(0 2.321428571428555 11.60714285714289)" stroke="none"><path fill="#868e96" d="M 1.88,-0.29 Q 1.88,-0.29 2.52,4.33 3.16,8.97 4.01,12.94 4.86,16.91 5.50,19.89 6.14,22.86 6.16,23.11 6.17,23.36 6.11,23.60 6.04,23.85 5.91,24.05 5.77,24.26 5.57,24.41 5.37,24.57 5.14,24.65 4.90,24.73 4.65,24.73 4.40,24.73 4.16,24.66 3.93,24.58 3.73,24.43 3.53,24.28 3.38,24.08 3.24,23.87 3.17,23.63 3.10,23.39 3.12,23.14 3.13,22.89 3.22,22.66 3.31,22.42 3.47,22.23 3.63,22.04 3.84,21.91 4.05,21.78 4.30,21.72 4.54,21.67 4.79,21.69 5.04,21.72 5.27,21.82 5.49,21.92 5.68,22.09 5.86,22.26 5.98,22.48 6.10,22.70 6.14,22.95 6.18,23.20 6.14,23.44 6.11,23.69 5.99,23.91 5.87,24.13 5.70,24.31 5.52,24.48 5.29,24.59 5.06,24.69 4.82,24.72 4.57,24.75 4.32,24.70 4.08,24.65 3.86,24.52 3.65,24.39 3.49,24.21 3.32,24.02 3.23,23.79 3.13,23.55 3.13,23.55 3.13,23.55 2.41,20.59 1.69,17.64 0.70,13.57 -0.28,9.50 -1.08,4.90 -1.88,0.29 -1.89,0.06 -1.89,-0.16 -1.85,-0.39 -1.80,-0.61 -1.70,-0.82 -1.60,-1.03 -1.45,-1.20 -1.31,-1.38 -1.12,-1.52 -0.94,-1.65 -0.73,-1.74 -0.51,-1.83 -0.29,-1.87 -0.06,-1.90 0.16,-1.88 0.39,-1.86 0.61,-1.79 0.82,-1.71 1.02,-1.59 1.21,-1.46 1.37,-1.30 1.53,-1.13 1.64,-0.93 1.75,-0.73 1.82,-0.51 1.88,-0.29 1.88,-0.29 L 1.88,-0.29 Z"></path></g><g transform="translate(166.42857142857133 100) rotate(0 -0.3571428571428896 11.25)" stroke="none"><path fill="#868e96" d="M 2.02,0 Q 2.02,0 2.04,1.64 2.05,3.28 2.11,4.49 2.17,5.70 1.85,10.57 1.53,15.44 1.29,19.01 1.06,22.57 1.00,22.85 0.94,23.13 0.79,23.38 0.65,23.63 0.43,23.82 0.22,24.01 -0.04,24.12 -0.31,24.23 -0.59,24.25 -0.88,24.27 -1.16,24.19 -1.44,24.12 -1.68,23.96 -1.92,23.80 -2.09,23.57 -2.27,23.35 -2.37,23.07 -2.46,22.80 -2.46,22.52 -2.47,22.23 -2.38,21.95 -2.29,21.68 -2.12,21.45 -1.95,21.22 -1.71,21.05 -1.47,20.89 -1.20,20.81 -0.92,20.73 -0.63,20.74 -0.35,20.75 -0.08,20.86 0.18,20.96 0.40,21.14 0.62,21.33 0.77,21.57 0.93,21.82 0.99,22.10 1.06,22.38 1.03,22.66 1.00,22.95 0.88,23.21 0.76,23.48 0.57,23.69 0.37,23.90 0.12,24.04 -0.12,24.17 -0.41,24.22 -0.69,24.27 -0.97,24.23 -1.26,24.19 -1.51,24.05 -1.77,23.92 -1.97,23.72 -2.17,23.51 -2.29,23.25 -2.42,22.99 -2.45,22.70 -2.49,22.42 -2.49,22.42 -2.49,22.42 -2.42,18.85 -2.35,15.28 -2.26,10.49 -2.17,5.70 -2.11,4.49 -2.05,3.28 -2.04,1.64 -2.02,0 -1.99,-0.24 -1.97,-0.48 -1.88,-0.71 -1.79,-0.94 -1.65,-1.14 -1.51,-1.34 -1.33,-1.50 -1.15,-1.66 -0.93,-1.78 -0.71,-1.89 -0.48,-1.95 -0.24,-2.01 0.00,-2.01 0.24,-2.01 0.48,-1.95 0.71,-1.89 0.93,-1.78 1.15,-1.66 1.33,-1.50 1.51,-1.34 1.65,-1.14 1.79,-0.94 1.88,-0.71 1.97,-0.48 1.99,-0.24 2.02,0.00 2.02,0.00 L 2.02,0 Z"></path></g><g transform="translate(53.92857142857133 100) rotate(0 7.321428571428555 -9.642857142857224)" stroke="none"><path fill="#868e96" d="M -1.59,-1.20 Q -1.59,-1.20 2.69,-6.69 6.97,-12.18 10.13,-16.24 13.30,-20.30 13.50,-20.48 13.69,-20.67 13.94,-20.78 14.19,-20.90 14.46,-20.93 14.73,-20.96 14.99,-20.90 15.26,-20.84 15.49,-20.70 15.72,-20.56 15.90,-20.35 16.08,-20.15 16.18,-19.90 16.28,-19.64 16.29,-19.37 16.31,-19.10 16.24,-18.84 16.16,-18.58 16.01,-18.35 15.86,-18.13 15.64,-17.96 15.43,-17.80 15.17,-17.71 14.91,-17.62 14.64,-17.62 14.37,-17.62 14.11,-17.71 13.85,-17.80 13.64,-17.96 13.42,-18.13 13.27,-18.35 13.11,-18.57 13.04,-18.84 12.97,-19.10 12.98,-19.37 13.00,-19.64 13.10,-19.89 13.20,-20.15 13.37,-20.35 13.55,-20.56 13.78,-20.70 14.02,-20.84 14.28,-20.90 14.55,-20.96 14.82,-20.93 15.09,-20.90 15.33,-20.79 15.58,-20.67 15.78,-20.48 15.97,-20.30 16.10,-20.06 16.23,-19.82 16.27,-19.55 16.32,-19.28 16.27,-19.01 16.23,-18.74 16.10,-18.50 15.98,-18.26 15.98,-18.26 15.98,-18.27 12.92,-14.13 9.86,-9.99 5.72,-4.39 1.59,1.20 1.42,1.38 1.25,1.55 1.05,1.68 0.84,1.80 0.61,1.88 0.38,1.95 0.14,1.97 -0.09,1.99 -0.32,1.95 -0.56,1.91 -0.78,1.82 -1.00,1.72 -1.19,1.57 -1.39,1.43 -1.54,1.24 -1.69,1.05 -1.79,0.84 -1.89,0.62 -1.94,0.38 -1.99,0.15 -1.98,-0.08 -1.97,-0.33 -1.90,-0.56 -1.83,-0.79 -1.71,-1.00 -1.59,-1.20 -1.59,-1.20 L -1.59,-1.20 Z"></path></g><g transform="translate(78.21428571428555 30.35714285714289) rotate(0 2.678571428571445 -10.178571428571445)" stroke="none"><path fill="#868e96" d="M -1.88,-0.60 Q -1.88,-0.60 -0.56,-4.38 0.75,-8.15 1.41,-10.99 2.08,-13.84 2.84,-17.31 3.59,-20.77 3.71,-21.04 3.82,-21.31 4.01,-21.53 4.21,-21.75 4.46,-21.90 4.71,-22.05 5.00,-22.10 5.29,-22.16 5.58,-22.12 5.87,-22.09 6.13,-21.96 6.39,-21.83 6.60,-21.63 6.81,-21.42 6.94,-21.16 7.08,-20.90 7.12,-20.61 7.16,-20.32 7.11,-20.03 7.06,-19.74 6.91,-19.49 6.77,-19.23 6.56,-19.03 6.34,-18.84 6.07,-18.72 5.80,-18.60 5.51,-18.57 5.22,-18.55 4.94,-18.62 4.65,-18.68 4.40,-18.84 4.16,-18.99 3.97,-19.22 3.78,-19.45 3.68,-19.72 3.58,-20.00 3.57,-20.29 3.56,-20.58 3.64,-20.86 3.72,-21.14 3.89,-21.38 4.06,-21.62 4.30,-21.79 4.53,-21.97 4.81,-22.05 5.09,-22.14 5.38,-22.14 5.68,-22.13 5.95,-22.03 6.23,-21.94 6.46,-21.75 6.69,-21.57 6.85,-21.33 7.01,-21.08 7.08,-20.80 7.15,-20.51 7.13,-20.22 7.11,-19.93 7.11,-19.93 7.11,-19.93 6.23,-16.54 5.34,-13.15 4.76,-10.09 4.17,-7.04 3.02,-3.21 1.88,0.60 1.77,0.82 1.67,1.04 1.53,1.22 1.38,1.41 1.19,1.55 1.00,1.70 0.78,1.79 0.56,1.89 0.33,1.93 0.09,1.97 -0.14,1.95 -0.37,1.93 -0.60,1.86 -0.83,1.79 -1.03,1.66 -1.23,1.54 -1.40,1.37 -1.56,1.20 -1.69,0.99 -1.81,0.79 -1.87,0.56 -1.94,0.33 -1.95,0.09 -1.97,-0.14 -1.92,-0.37 -1.88,-0.60 -1.88,-0.60 L -1.88,-0.60 Z"></path></g></svg>