<svg version="1.1" xmlns="http://www.w3.org/2000/svg" viewBox="0 0 209.0322580645161 124.03225806451587" width="418.0645161290322" height="248.06451612903174">
  <!-- svg-source:excalidraw -->
  
  <defs>
    <style class="style-fonts">
      
    </style>
    
  </defs>
  <g transform="translate(78.38709677419365 46.2903225806449) rotate(0 0.00004999999998744897 0.00004999999998744897)" stroke="none"><path fill="#868e96" d="M 1.57,-1.57 Q 1.57,-1.57 1.77,-1.27 1.98,-0.98 2.09,-0.64 2.20,-0.29 2.19,0.05 2.18,0.41 2.05,0.75 1.93,1.09 1.70,1.37 1.48,1.65 1.18,1.84 0.87,2.04 0.52,2.12 0.18,2.21 -0.17,2.18 -0.53,2.15 -0.86,2.01 -1.19,1.87 -1.46,1.63 -1.73,1.39 -1.90,1.07 -2.08,0.76 -2.15,0.41 -2.21,0.05 -2.17,-0.29 -2.12,-0.65 -1.96,-0.97 -1.80,-1.29 -1.54,-1.54 -1.29,-1.80 -0.97,-1.96 -0.65,-2.12 -0.29,-2.17 0.06,-2.21 0.41,-2.15 0.76,-2.08 1.07,-1.90 1.39,-1.73 1.63,-1.46 1.87,-1.19 2.01,-0.86 2.15,-0.53 2.18,-0.17 2.21,0.18 2.12,0.52 2.03,0.87 1.84,1.18 1.65,1.48 1.37,1.70 1.09,1.93 0.75,2.05 0.41,2.18 0.05,2.19 -0.30,2.20 -0.64,2.09 -0.98,1.98 -1.27,1.77 -1.57,1.56 -1.57,1.57 -1.57,1.57 -1.73,1.35 -1.90,1.14 -2.01,0.90 -2.12,0.66 -2.16,0.39 -2.21,0.13 -2.20,-0.13 -2.18,-0.40 -2.10,-0.65 -2.02,-0.91 -1.88,-1.14 -1.74,-1.36 -1.55,-1.55 -1.36,-1.74 -1.14,-1.88 -0.91,-2.02 -0.65,-2.10 -0.40,-2.18 -0.13,-2.20 0.13,-2.21 0.39,-2.16 0.66,-2.12 0.90,-2.01 1.14,-1.90 1.35,-1.73 1.57,-1.57 1.57,-1.57 L 1.57,-1.57 Z"></path></g><g transform="translate(82.58064516129025 49.51612903225782) rotate(0 3.2258064516129252 2.580645161290363)" stroke="none"><path fill="#868e96" d="M 1.30,-1.62 Q 1.30,-1.62 3.09,-0.06 4.88,1.49 6.26,2.58 7.63,3.67 7.84,3.90 8.04,4.13 8.16,4.41 8.29,4.69 8.31,5.00 8.34,5.31 8.26,5.60 8.19,5.90 8.03,6.16 7.86,6.42 7.62,6.61 7.38,6.81 7.10,6.91 6.81,7.02 6.50,7.03 6.19,7.04 5.90,6.95 5.61,6.86 5.36,6.68 5.11,6.50 4.93,6.25 4.75,6.00 4.66,5.71 4.57,5.42 4.58,5.11 4.58,4.80 4.69,4.51 4.79,4.23 4.98,3.99 5.18,3.75 5.43,3.58 5.69,3.42 5.99,3.34 6.29,3.27 6.59,3.29 6.90,3.31 7.18,3.43 7.46,3.56 7.69,3.76 7.92,3.96 8.07,4.23 8.23,4.50 8.28,4.80 8.34,5.10 8.30,5.41 8.26,5.71 8.13,5.98 7.99,6.26 7.77,6.48 7.56,6.69 7.28,6.83 7.01,6.97 6.70,7.01 6.40,7.05 6.10,7.00 5.80,6.94 5.53,6.79 5.26,6.64 5.26,6.64 5.26,6.64 3.90,5.53 2.53,4.43 0.61,3.03 -1.30,1.62 -1.47,1.44 -1.65,1.26 -1.78,1.05 -1.91,0.83 -1.98,0.59 -2.05,0.35 -2.06,0.10 -2.08,-0.14 -2.03,-0.39 -1.98,-0.64 -1.87,-0.86 -1.77,-1.09 -1.61,-1.29 -1.45,-1.48 -1.26,-1.64 -1.06,-1.79 -0.83,-1.89 -0.60,-1.99 -0.35,-2.04 -0.10,-2.08 0.14,-2.06 0.39,-2.04 0.63,-1.97 0.87,-1.89 1.08,-1.76 1.30,-1.62 1.30,-1.62 L 1.30,-1.62 Z"></path></g><g transform="translate(67.0967741935483 36.61290322580635) rotate(0 3.5483870967741495 2.419354838709637)" stroke="none"><path fill="#868e96" d="M 1.26,-1.89 Q 1.26,-1.89 2.64,-0.95 4.02,-0.00 6.22,1.45 8.43,2.91 8.70,3.17 8.97,3.43 9.15,3.77 9.32,4.11 9.38,4.48 9.44,4.86 9.37,5.23 9.31,5.60 9.13,5.94 8.95,6.27 8.67,6.53 8.39,6.79 8.04,6.94 7.70,7.10 7.32,7.14 6.94,7.17 6.57,7.09 6.20,7.00 5.88,6.81 5.56,6.61 5.31,6.32 5.07,6.02 4.93,5.67 4.80,5.32 4.78,4.94 4.76,4.56 4.87,4.19 4.97,3.83 5.19,3.52 5.40,3.21 5.71,2.98 6.01,2.75 6.37,2.63 6.73,2.52 7.11,2.52 7.49,2.52 7.85,2.65 8.21,2.77 8.51,3.00 8.81,3.24 9.02,3.55 9.23,3.87 9.33,4.24 9.43,4.60 9.40,4.98 9.38,5.36 9.23,5.71 9.09,6.06 8.84,6.35 8.59,6.64 8.27,6.83 7.94,7.02 7.57,7.10 7.20,7.18 6.82,7.13 6.44,7.09 6.10,6.92 5.76,6.76 5.76,6.76 5.76,6.76 3.65,5.24 1.54,3.71 0.13,2.80 -1.26,1.89 -1.47,1.71 -1.67,1.53 -1.83,1.31 -1.99,1.09 -2.10,0.83 -2.20,0.58 -2.23,0.30 -2.27,0.03 -2.24,-0.23 -2.21,-0.50 -2.12,-0.76 -2.03,-1.02 -1.88,-1.25 -1.72,-1.48 -1.52,-1.66 -1.32,-1.85 -1.08,-1.98 -0.84,-2.11 -0.57,-2.18 -0.31,-2.25 -0.03,-2.26 0.23,-2.26 0.50,-2.20 0.77,-2.14 1.01,-2.01 1.26,-1.89 1.26,-1.89 L 1.26,-1.89 Z"></path></g><g transform="translate(50.8064016129033 77.58059516129015) rotate(0 0.00004999999998744897 0.00004999999998744897)" stroke="none"><path fill="#868e96" d="M 1.57,-1.57 Q 1.57,-1.57 1.77,-1.27 1.98,-0.98 2.09,-0.64 2.20,-0.29 2.19,0.05 2.18,0.41 2.05,0.75 1.93,1.09 1.70,1.37 1.48,1.65 1.18,1.84 0.87,2.04 0.52,2.12 0.18,2.21 -0.17,2.18 -0.53,2.15 -0.86,2.01 -1.19,1.87 -1.46,1.63 -1.73,1.39 -1.90,1.07 -2.08,0.76 -2.15,0.41 -2.21,0.05 -2.17,-0.29 -2.12,-0.65 -1.96,-0.97 -1.80,-1.29 -1.54,-1.54 -1.29,-1.80 -0.97,-1.96 -0.65,-2.12 -0.29,-2.17 0.06,-2.21 0.41,-2.15 0.76,-2.08 1.07,-1.90 1.39,-1.73 1.63,-1.46 1.87,-1.19 2.01,-0.86 2.15,-0.53 2.18,-0.17 2.21,0.18 2.12,0.52 2.03,0.87 1.84,1.18 1.65,1.48 1.37,1.70 1.09,1.93 0.75,2.05 0.41,2.18 0.05,2.19 -0.30,2.20 -0.64,2.09 -0.98,1.98 -1.27,1.77 -1.57,1.56 -1.57,1.57 -1.57,1.57 -1.73,1.35 -1.90,1.14 -2.01,0.90 -2.12,0.66 -2.16,0.39 -2.21,0.13 -2.20,-0.13 -2.18,-0.40 -2.10,-0.65 -2.02,-0.91 -1.88,-1.14 -1.74,-1.36 -1.55,-1.55 -1.36,-1.74 -1.14,-1.88 -0.91,-2.02 -0.65,-2.10 -0.40,-2.18 -0.13,-2.20 0.13,-2.21 0.39,-2.16 0.66,-2.12 0.90,-2.01 1.14,-1.90 1.35,-1.73 1.57,-1.57 1.57,-1.57 L 1.57,-1.57 Z"></path></g><g transform="translate(65.9676919354838 90.80640161290353) rotate(0 0.00004999999998744897 0.00005000000010113581)" stroke="none"><path fill="#868e96" d="M 1.57,-1.57 Q 1.57,-1.57 1.77,-1.27 1.98,-0.98 2.09,-0.64 2.20,-0.29 2.19,0.05 2.18,0.41 2.05,0.75 1.93,1.09 1.70,1.37 1.48,1.65 1.18,1.84 0.87,2.04 0.52,2.12 0.18,2.21 -0.17,2.18 -0.53,2.15 -0.86,2.01 -1.19,1.87 -1.46,1.63 -1.73,1.39 -1.90,1.07 -2.08,0.76 -2.15,0.41 -2.21,0.05 -2.17,-0.29 -2.12,-0.65 -1.96,-0.97 -1.80,-1.29 -1.54,-1.54 -1.29,-1.80 -0.97,-1.96 -0.65,-2.12 -0.29,-2.17 0.06,-2.21 0.41,-2.15 0.76,-2.08 1.07,-1.90 1.39,-1.73 1.63,-1.46 1.87,-1.19 2.01,-0.86 2.15,-0.53 2.18,-0.17 2.21,0.18 2.12,0.52 2.03,0.87 1.84,1.18 1.65,1.48 1.37,1.70 1.09,1.93 0.75,2.05 0.41,2.18 0.05,2.19 -0.30,2.20 -0.64,2.09 -0.98,1.98 -1.27,1.77 -1.57,1.56 -1.57,1.57 -1.57,1.57 -1.73,1.35 -1.90,1.14 -2.01,0.90 -2.12,0.66 -2.16,0.39 -2.21,0.13 -2.20,-0.13 -2.18,-0.40 -2.10,-0.65 -2.02,-0.91 -1.88,-1.14 -1.74,-1.36 -1.55,-1.55 -1.36,-1.74 -1.14,-1.88 -0.91,-2.02 -0.65,-2.10 -0.40,-2.18 -0.13,-2.20 0.13,-2.21 0.39,-2.16 0.66,-2.12 0.90,-2.01 1.14,-1.90 1.35,-1.73 1.57,-1.57 1.57,-1.57 L 1.57,-1.57 Z"></path></g><g transform="translate(54.9999499999999 80.8064016129033) rotate(0 3.2258064516129252 2.580645161290363)" stroke="none"><path fill="#868e96" d="M 1.35,-1.69 Q 1.35,-1.69 4.04,0.36 6.72,2.43 6.97,2.70 7.22,2.98 7.36,3.32 7.51,3.66 7.54,4.03 7.57,4.41 7.49,4.77 7.40,5.13 7.20,5.44 7.00,5.76 6.71,5.99 6.42,6.22 6.07,6.35 5.72,6.48 5.35,6.49 4.98,6.50 4.62,6.40 4.26,6.29 3.96,6.07 3.66,5.85 3.44,5.55 3.22,5.25 3.11,4.90 3.00,4.54 3.01,4.17 3.02,3.80 3.15,3.45 3.28,3.10 3.51,2.81 3.74,2.51 4.05,2.31 4.37,2.11 4.73,2.02 5.09,1.93 5.46,1.96 5.83,1.99 6.17,2.14 6.52,2.28 6.79,2.53 7.07,2.78 7.26,3.10 7.44,3.43 7.51,3.79 7.58,4.16 7.53,4.53 7.48,4.89 7.32,5.23 7.15,5.56 6.89,5.83 6.63,6.09 6.29,6.26 5.96,6.42 5.59,6.47 5.22,6.52 4.86,6.45 4.49,6.39 4.17,6.20 3.84,6.02 3.84,6.02 3.84,6.02 1.24,3.86 -1.35,1.69 -1.54,1.50 -1.72,1.32 -1.85,1.09 -1.98,0.87 -2.06,0.62 -2.14,0.36 -2.15,0.10 -2.16,-0.15 -2.11,-0.41 -2.06,-0.66 -1.95,-0.90 -1.84,-1.14 -1.68,-1.34 -1.52,-1.55 -1.31,-1.71 -1.10,-1.87 -0.86,-1.97 -0.62,-2.08 -0.36,-2.12 -0.10,-2.16 0.15,-2.15 0.41,-2.13 0.66,-2.05 0.91,-1.97 1.13,-1.83 1.35,-1.69 1.35,-1.69 L 1.35,-1.69 Z"></path></g><g transform="translate(39.5160790322584 67.9031758064516) rotate(0 3.5483870967741495 2.419354838709637)" stroke="none"><path fill="#868e96" d="M 1.26,-1.90 Q 1.26,-1.90 2.64,-0.95 4.02,-0.01 5.84,1.17 7.66,2.35 7.93,2.61 8.21,2.88 8.39,3.22 8.56,3.56 8.62,3.94 8.68,4.32 8.61,4.69 8.55,5.07 8.37,5.41 8.18,5.74 7.90,6.01 7.62,6.27 7.27,6.42 6.92,6.58 6.54,6.62 6.16,6.66 5.79,6.57 5.42,6.49 5.09,6.29 4.76,6.08 4.52,5.79 4.27,5.50 4.13,5.14 4.00,4.78 3.98,4.40 3.96,4.02 4.07,3.65 4.17,3.28 4.39,2.97 4.61,2.65 4.92,2.42 5.22,2.19 5.59,2.07 5.95,1.96 6.33,1.96 6.72,1.96 7.08,2.09 7.44,2.21 7.74,2.45 8.05,2.68 8.26,3.00 8.47,3.32 8.57,3.69 8.67,4.06 8.64,4.44 8.62,4.83 8.47,5.18 8.33,5.53 8.08,5.82 7.83,6.11 7.50,6.31 7.17,6.50 6.79,6.58 6.42,6.66 6.04,6.61 5.66,6.57 5.31,6.41 4.97,6.24 4.97,6.24 4.97,6.24 3.25,4.98 1.53,3.72 0.13,2.81 -1.26,1.90 -1.47,1.72 -1.68,1.54 -1.84,1.31 -2.00,1.09 -2.10,0.83 -2.20,0.58 -2.24,0.30 -2.28,0.03 -2.25,-0.23 -2.22,-0.51 -2.13,-0.77 -2.03,-1.02 -1.88,-1.25 -1.73,-1.48 -1.53,-1.67 -1.32,-1.85 -1.08,-1.99 -0.84,-2.12 -0.57,-2.19 -0.31,-2.26 -0.03,-2.26 0.23,-2.27 0.50,-2.21 0.77,-2.14 1.02,-2.02 1.26,-1.90 1.26,-1.90 L 1.26,-1.90 Z"></path></g><g transform="translate(63.225756451613506 32.58059516128992) rotate(90.0000000000004 0.00004999999998744897 0.00004999999998744897)" stroke="none"><path fill="#868e96" d="M 1.57,-1.57 Q 1.57,-1.57 1.77,-1.27 1.98,-0.98 2.09,-0.64 2.20,-0.29 2.19,0.05 2.18,0.41 2.05,0.75 1.93,1.09 1.70,1.37 1.48,1.65 1.18,1.84 0.87,2.04 0.52,2.12 0.18,2.21 -0.17,2.18 -0.53,2.15 -0.86,2.01 -1.19,1.87 -1.46,1.63 -1.73,1.39 -1.90,1.07 -2.08,0.76 -2.15,0.41 -2.21,0.05 -2.17,-0.29 -2.12,-0.65 -1.96,-0.97 -1.80,-1.29 -1.54,-1.54 -1.29,-1.80 -0.97,-1.96 -0.65,-2.12 -0.29,-2.17 0.06,-2.21 0.41,-2.15 0.76,-2.08 1.07,-1.90 1.39,-1.73 1.63,-1.46 1.87,-1.19 2.01,-0.86 2.15,-0.53 2.18,-0.17 2.21,0.18 2.12,0.52 2.03,0.87 1.84,1.18 1.65,1.48 1.37,1.70 1.09,1.93 0.75,2.05 0.41,2.18 0.05,2.19 -0.30,2.20 -0.64,2.09 -0.98,1.98 -1.27,1.77 -1.57,1.56 -1.57,1.57 -1.57,1.57 -1.73,1.35 -1.90,1.14 -2.01,0.90 -2.12,0.66 -2.16,0.39 -2.21,0.13 -2.20,-0.13 -2.18,-0.40 -2.10,-0.65 -2.02,-0.91 -1.88,-1.14 -1.74,-1.36 -1.55,-1.55 -1.36,-1.74 -1.14,-1.88 -0.91,-2.02 -0.65,-2.10 -0.40,-2.18 -0.13,-2.20 0.13,-2.21 0.39,-2.16 0.66,-2.12 0.90,-2.01 1.14,-1.90 1.35,-1.73 1.57,-1.57 1.57,-1.57 L 1.57,-1.57 Z"></path></g><g transform="translate(48.70962741935432 48.064466129031416) rotate(90.0000000000004 0.00004999999998744897 0.00004999999998744897)" stroke="none"><path fill="#868e96" d="M 1.57,-1.57 Q 1.57,-1.57 1.77,-1.27 1.98,-0.98 2.09,-0.64 2.20,-0.29 2.19,0.05 2.18,0.41 2.05,0.75 1.93,1.09 1.70,1.37 1.48,1.65 1.18,1.84 0.87,2.04 0.52,2.12 0.18,2.21 -0.17,2.18 -0.53,2.15 -0.86,2.01 -1.19,1.87 -1.46,1.63 -1.73,1.39 -1.90,1.07 -2.08,0.76 -2.15,0.41 -2.21,0.05 -2.17,-0.29 -2.12,-0.65 -1.96,-0.97 -1.80,-1.29 -1.54,-1.54 -1.29,-1.80 -0.97,-1.96 -0.65,-2.12 -0.29,-2.17 0.06,-2.21 0.41,-2.15 0.76,-2.08 1.07,-1.90 1.39,-1.73 1.63,-1.46 1.87,-1.19 2.01,-0.86 2.15,-0.53 2.18,-0.17 2.21,0.18 2.12,0.52 2.03,0.87 1.84,1.18 1.65,1.48 1.37,1.70 1.09,1.93 0.75,2.05 0.41,2.18 0.05,2.19 -0.30,2.20 -0.64,2.09 -0.98,1.98 -1.27,1.77 -1.57,1.56 -1.57,1.57 -1.57,1.57 -1.73,1.35 -1.90,1.14 -2.01,0.90 -2.12,0.66 -2.16,0.39 -2.21,0.13 -2.20,-0.13 -2.18,-0.40 -2.10,-0.65 -2.02,-0.91 -1.88,-1.14 -1.74,-1.36 -1.55,-1.55 -1.36,-1.74 -1.14,-1.88 -0.91,-2.02 -0.65,-2.10 -0.40,-2.18 -0.13,-2.20 0.13,-2.21 0.39,-2.16 0.66,-2.12 0.90,-2.01 1.14,-1.90 1.35,-1.73 1.57,-1.57 1.57,-1.57 L 1.57,-1.57 Z"></path></g><g transform="translate(35.48382096774117 63.2257564516126) rotate(90.0000000000004 0.00004999999998744897 0.00004999999998744897)" stroke="none"><path fill="#868e96" d="M 1.57,-1.57 Q 1.57,-1.57 1.77,-1.27 1.98,-0.98 2.09,-0.64 2.20,-0.29 2.19,0.05 2.18,0.41 2.05,0.75 1.93,1.09 1.70,1.37 1.48,1.65 1.18,1.84 0.87,2.04 0.52,2.12 0.18,2.21 -0.17,2.18 -0.53,2.15 -0.86,2.01 -1.19,1.87 -1.46,1.63 -1.73,1.39 -1.90,1.07 -2.08,0.76 -2.15,0.41 -2.21,0.05 -2.17,-0.29 -2.12,-0.65 -1.96,-0.97 -1.80,-1.29 -1.54,-1.54 -1.29,-1.80 -0.97,-1.96 -0.65,-2.12 -0.29,-2.17 0.06,-2.21 0.41,-2.15 0.76,-2.08 1.07,-1.90 1.39,-1.73 1.63,-1.46 1.87,-1.19 2.01,-0.86 2.15,-0.53 2.18,-0.17 2.21,0.18 2.12,0.52 2.03,0.87 1.84,1.18 1.65,1.48 1.37,1.70 1.09,1.93 0.75,2.05 0.41,2.18 0.05,2.19 -0.30,2.20 -0.64,2.09 -0.98,1.98 -1.27,1.77 -1.57,1.56 -1.57,1.57 -1.57,1.57 -1.73,1.35 -1.90,1.14 -2.01,0.90 -2.12,0.66 -2.16,0.39 -2.21,0.13 -2.20,-0.13 -2.18,-0.40 -2.10,-0.65 -2.02,-0.91 -1.88,-1.14 -1.74,-1.36 -1.55,-1.55 -1.36,-1.74 -1.14,-1.88 -0.91,-2.02 -0.65,-2.10 -0.40,-2.18 -0.13,-2.20 0.13,-2.21 0.39,-2.16 0.66,-2.12 0.90,-2.01 1.14,-1.90 1.35,-1.73 1.57,-1.57 1.57,-1.57 L 1.57,-1.57 Z"></path></g><g transform="translate(39.677469354838195 52.9031758064516) rotate(90.0000000000004 3.2258064516129252 2.580645161290363)" stroke="none"><path fill="#868e96" d="M 1.35,-1.69 Q 1.35,-1.69 4.04,0.36 6.72,2.43 6.97,2.70 7.22,2.98 7.36,3.32 7.51,3.66 7.54,4.03 7.57,4.41 7.49,4.77 7.40,5.13 7.20,5.44 7.00,5.76 6.71,5.99 6.42,6.22 6.07,6.35 5.72,6.48 5.35,6.49 4.98,6.50 4.62,6.40 4.26,6.29 3.96,6.07 3.66,5.85 3.44,5.55 3.22,5.25 3.11,4.90 3.00,4.54 3.01,4.17 3.02,3.80 3.15,3.45 3.28,3.10 3.51,2.81 3.74,2.51 4.05,2.31 4.37,2.11 4.73,2.02 5.09,1.93 5.46,1.96 5.83,1.99 6.17,2.14 6.52,2.28 6.79,2.53 7.07,2.78 7.26,3.10 7.44,3.43 7.51,3.79 7.58,4.16 7.53,4.53 7.48,4.89 7.32,5.23 7.15,5.56 6.89,5.83 6.63,6.09 6.29,6.26 5.96,6.42 5.59,6.47 5.22,6.52 4.86,6.45 4.49,6.39 4.17,6.20 3.84,6.02 3.84,6.02 3.84,6.02 1.24,3.86 -1.35,1.69 -1.54,1.50 -1.72,1.32 -1.85,1.09 -1.98,0.87 -2.06,0.62 -2.14,0.36 -2.15,0.10 -2.16,-0.15 -2.11,-0.41 -2.06,-0.66 -1.95,-0.90 -1.84,-1.14 -1.68,-1.34 -1.52,-1.55 -1.31,-1.71 -1.10,-1.87 -0.86,-1.97 -0.62,-2.08 -0.36,-2.12 -0.10,-2.16 0.15,-2.15 0.41,-2.13 0.66,-2.05 0.91,-1.97 1.13,-1.83 1.35,-1.69 1.35,-1.69 L 1.35,-1.69 Z"></path></g><g transform="translate(52.096824193547945 37.258014516128924) rotate(90.0000000000004 3.5483870967741495 2.419354838709637)" stroke="none"><path fill="#868e96" d="M 1.26,-1.90 Q 1.26,-1.90 2.64,-0.95 4.02,-0.01 5.84,1.17 7.66,2.35 7.93,2.61 8.21,2.88 8.39,3.22 8.56,3.56 8.62,3.94 8.68,4.32 8.61,4.69 8.55,5.07 8.37,5.41 8.18,5.74 7.90,6.01 7.62,6.27 7.27,6.42 6.92,6.58 6.54,6.62 6.16,6.66 5.79,6.57 5.42,6.49 5.09,6.29 4.76,6.08 4.52,5.79 4.27,5.50 4.13,5.14 4.00,4.78 3.98,4.40 3.96,4.02 4.07,3.65 4.17,3.28 4.39,2.97 4.61,2.65 4.92,2.42 5.22,2.19 5.59,2.07 5.95,1.96 6.33,1.96 6.72,1.96 7.08,2.09 7.44,2.21 7.74,2.45 8.05,2.68 8.26,3.00 8.47,3.32 8.57,3.69 8.67,4.06 8.64,4.44 8.62,4.83 8.47,5.18 8.33,5.53 8.08,5.82 7.83,6.11 7.50,6.31 7.17,6.50 6.79,6.58 6.42,6.66 6.04,6.61 5.66,6.57 5.31,6.41 4.97,6.24 4.97,6.24 4.97,6.24 3.25,4.98 1.53,3.72 0.13,2.81 -1.26,1.90 -1.47,1.72 -1.68,1.54 -1.84,1.31 -2.00,1.09 -2.10,0.83 -2.20,0.58 -2.24,0.30 -2.28,0.03 -2.25,-0.23 -2.22,-0.51 -2.13,-0.77 -2.03,-1.02 -1.88,-1.25 -1.73,-1.48 -1.53,-1.67 -1.32,-1.85 -1.08,-1.99 -0.84,-2.12 -0.57,-2.19 -0.31,-2.26 -0.03,-2.26 0.23,-2.27 0.50,-2.21 0.77,-2.14 1.02,-2.02 1.26,-1.90 1.26,-1.90 L 1.26,-1.90 Z"></path></g><g transform="translate(93.87091774193573 59.67736935483845) rotate(90.0000000000004 0.00004999999998744897 0.00004999999998744897)" stroke="none"><path fill="#868e96" d="M 1.57,-1.57 Q 1.57,-1.57 1.77,-1.27 1.98,-0.98 2.09,-0.64 2.20,-0.29 2.19,0.05 2.18,0.41 2.05,0.75 1.93,1.09 1.70,1.37 1.48,1.65 1.18,1.84 0.87,2.04 0.52,2.12 0.18,2.21 -0.17,2.18 -0.53,2.15 -0.86,2.01 -1.19,1.87 -1.46,1.63 -1.73,1.39 -1.90,1.07 -2.08,0.76 -2.15,0.41 -2.21,0.05 -2.17,-0.29 -2.12,-0.65 -1.96,-0.97 -1.80,-1.29 -1.54,-1.54 -1.29,-1.80 -0.97,-1.96 -0.65,-2.12 -0.29,-2.17 0.06,-2.21 0.41,-2.15 0.76,-2.08 1.07,-1.90 1.39,-1.73 1.63,-1.46 1.87,-1.19 2.01,-0.86 2.15,-0.53 2.18,-0.17 2.21,0.18 2.12,0.52 2.03,0.87 1.84,1.18 1.65,1.48 1.37,1.70 1.09,1.93 0.75,2.05 0.41,2.18 0.05,2.19 -0.30,2.20 -0.64,2.09 -0.98,1.98 -1.27,1.77 -1.57,1.56 -1.57,1.57 -1.57,1.57 -1.73,1.35 -1.90,1.14 -2.01,0.90 -2.12,0.66 -2.16,0.39 -2.21,0.13 -2.20,-0.13 -2.18,-0.40 -2.10,-0.65 -2.02,-0.91 -1.88,-1.14 -1.74,-1.36 -1.55,-1.55 -1.36,-1.74 -1.14,-1.88 -0.91,-2.02 -0.65,-2.10 -0.40,-2.18 -0.13,-2.20 0.13,-2.21 0.39,-2.16 0.66,-2.12 0.90,-2.01 1.14,-1.90 1.35,-1.73 1.57,-1.57 1.57,-1.57 L 1.57,-1.57 Z"></path></g><g transform="translate(79.35478870967677 75.16124032257994) rotate(90.0000000000004 0.00004999999998744897 0.00004999999998744897)" stroke="none"><path fill="#868e96" d="M 1.57,-1.57 Q 1.57,-1.57 1.77,-1.27 1.98,-0.98 2.09,-0.64 2.20,-0.29 2.19,0.05 2.18,0.41 2.05,0.75 1.93,1.09 1.70,1.37 1.48,1.65 1.18,1.84 0.87,2.04 0.52,2.12 0.18,2.21 -0.17,2.18 -0.53,2.15 -0.86,2.01 -1.19,1.87 -1.46,1.63 -1.73,1.39 -1.90,1.07 -2.08,0.76 -2.15,0.41 -2.21,0.05 -2.17,-0.29 -2.12,-0.65 -1.96,-0.97 -1.80,-1.29 -1.54,-1.54 -1.29,-1.80 -0.97,-1.96 -0.65,-2.12 -0.29,-2.17 0.06,-2.21 0.41,-2.15 0.76,-2.08 1.07,-1.90 1.39,-1.73 1.63,-1.46 1.87,-1.19 2.01,-0.86 2.15,-0.53 2.18,-0.17 2.21,0.18 2.12,0.52 2.03,0.87 1.84,1.18 1.65,1.48 1.37,1.70 1.09,1.93 0.75,2.05 0.41,2.18 0.05,2.19 -0.30,2.20 -0.64,2.09 -0.98,1.98 -1.27,1.77 -1.57,1.56 -1.57,1.57 -1.57,1.57 -1.73,1.35 -1.90,1.14 -2.01,0.90 -2.12,0.66 -2.16,0.39 -2.21,0.13 -2.20,-0.13 -2.18,-0.40 -2.10,-0.65 -2.02,-0.91 -1.88,-1.14 -1.74,-1.36 -1.55,-1.55 -1.36,-1.74 -1.14,-1.88 -0.91,-2.02 -0.65,-2.10 -0.40,-2.18 -0.13,-2.20 0.13,-2.21 0.39,-2.16 0.66,-2.12 0.90,-2.01 1.14,-1.90 1.35,-1.73 1.57,-1.57 1.57,-1.57 L 1.57,-1.57 Z"></path></g><g transform="translate(66.12898225806362 90.32253064516067) rotate(90.0000000000004 0.00004999999998744897 0.00005000000010113581)" stroke="none"><path fill="#868e96" d="M 1.57,-1.57 Q 1.57,-1.57 1.77,-1.27 1.98,-0.98 2.09,-0.64 2.20,-0.29 2.19,0.05 2.18,0.41 2.05,0.75 1.93,1.09 1.70,1.37 1.48,1.65 1.18,1.84 0.87,2.04 0.52,2.12 0.18,2.21 -0.17,2.18 -0.53,2.15 -0.86,2.01 -1.19,1.87 -1.46,1.63 -1.73,1.39 -1.90,1.07 -2.08,0.76 -2.15,0.41 -2.21,0.05 -2.17,-0.29 -2.12,-0.65 -1.96,-0.97 -1.80,-1.29 -1.54,-1.54 -1.29,-1.80 -0.97,-1.96 -0.65,-2.12 -0.29,-2.17 0.06,-2.21 0.41,-2.15 0.76,-2.08 1.07,-1.90 1.39,-1.73 1.63,-1.46 1.87,-1.19 2.01,-0.86 2.15,-0.53 2.18,-0.17 2.21,0.18 2.12,0.52 2.03,0.87 1.84,1.18 1.65,1.48 1.37,1.70 1.09,1.93 0.75,2.05 0.41,2.18 0.05,2.19 -0.30,2.20 -0.64,2.09 -0.98,1.98 -1.27,1.77 -1.57,1.56 -1.57,1.57 -1.57,1.57 -1.73,1.35 -1.90,1.14 -2.01,0.90 -2.12,0.66 -2.16,0.39 -2.21,0.13 -2.20,-0.13 -2.18,-0.40 -2.10,-0.65 -2.02,-0.91 -1.88,-1.14 -1.74,-1.36 -1.55,-1.55 -1.36,-1.74 -1.14,-1.88 -0.91,-2.02 -0.65,-2.10 -0.40,-2.18 -0.13,-2.20 0.13,-2.21 0.39,-2.16 0.66,-2.12 0.90,-2.01 1.14,-1.90 1.35,-1.73 1.57,-1.57 1.57,-1.57 L 1.57,-1.57 Z"></path></g><g transform="translate(70.32263064516042 79.9999499999999) rotate(90.0000000000004 3.2258064516129252 2.580645161290363)" stroke="none"><path fill="#868e96" d="M 1.35,-1.69 Q 1.35,-1.69 4.04,0.36 6.72,2.43 6.97,2.70 7.22,2.98 7.36,3.32 7.51,3.66 7.54,4.03 7.57,4.41 7.49,4.77 7.40,5.13 7.20,5.44 7.00,5.76 6.71,5.99 6.42,6.22 6.07,6.35 5.72,6.48 5.35,6.49 4.98,6.50 4.62,6.40 4.26,6.29 3.96,6.07 3.66,5.85 3.44,5.55 3.22,5.25 3.11,4.90 3.00,4.54 3.01,4.17 3.02,3.80 3.15,3.45 3.28,3.10 3.51,2.81 3.74,2.51 4.05,2.31 4.37,2.11 4.73,2.02 5.09,1.93 5.46,1.96 5.83,1.99 6.17,2.14 6.52,2.28 6.79,2.53 7.07,2.78 7.26,3.10 7.44,3.43 7.51,3.79 7.58,4.16 7.53,4.53 7.48,4.89 7.32,5.23 7.15,5.56 6.89,5.83 6.63,6.09 6.29,6.26 5.96,6.42 5.59,6.47 5.22,6.52 4.86,6.45 4.49,6.39 4.17,6.20 3.84,6.02 3.84,6.02 3.84,6.02 1.24,3.86 -1.35,1.69 -1.54,1.50 -1.72,1.32 -1.85,1.09 -1.98,0.87 -2.06,0.62 -2.14,0.36 -2.15,0.10 -2.16,-0.15 -2.11,-0.41 -2.06,-0.66 -1.95,-0.90 -1.84,-1.14 -1.68,-1.34 -1.52,-1.55 -1.31,-1.71 -1.10,-1.87 -0.86,-1.97 -0.62,-2.08 -0.36,-2.12 -0.10,-2.16 0.15,-2.15 0.41,-2.13 0.66,-2.05 0.91,-1.97 1.13,-1.83 1.35,-1.69 1.35,-1.69 L 1.35,-1.69 Z"></path></g><g transform="translate(83.06456612903162 64.9999499999999) rotate(90.0000000000004 3.5483870967741495 2.419354838709637)" stroke="none"><path fill="#868e96" d="M 1.26,-1.90 Q 1.26,-1.90 2.64,-0.95 4.02,-0.01 5.84,1.17 7.66,2.35 7.93,2.61 8.21,2.88 8.39,3.22 8.56,3.56 8.62,3.94 8.68,4.32 8.61,4.69 8.55,5.07 8.37,5.41 8.18,5.74 7.90,6.01 7.62,6.27 7.27,6.42 6.92,6.58 6.54,6.62 6.16,6.66 5.79,6.57 5.42,6.49 5.09,6.29 4.76,6.08 4.52,5.79 4.27,5.50 4.13,5.14 4.00,4.78 3.98,4.40 3.96,4.02 4.07,3.65 4.17,3.28 4.39,2.97 4.61,2.65 4.92,2.42 5.22,2.19 5.59,2.07 5.95,1.96 6.33,1.96 6.72,1.96 7.08,2.09 7.44,2.21 7.74,2.45 8.05,2.68 8.26,3.00 8.47,3.32 8.57,3.69 8.67,4.06 8.64,4.44 8.62,4.83 8.47,5.18 8.33,5.53 8.08,5.82 7.83,6.11 7.50,6.31 7.17,6.50 6.79,6.58 6.42,6.66 6.04,6.61 5.66,6.57 5.31,6.41 4.97,6.24 4.97,6.24 4.97,6.24 3.25,4.98 1.53,3.72 0.13,2.81 -1.26,1.90 -1.47,1.72 -1.68,1.54 -1.84,1.31 -2.00,1.09 -2.10,0.83 -2.20,0.58 -2.24,0.30 -2.28,0.03 -2.25,-0.23 -2.22,-0.51 -2.13,-0.77 -2.03,-1.02 -1.88,-1.25 -1.73,-1.48 -1.53,-1.67 -1.32,-1.85 -1.08,-1.99 -0.84,-2.12 -0.57,-2.19 -0.31,-2.26 -0.03,-2.26 0.23,-2.27 0.50,-2.21 0.77,-2.14 1.02,-2.02 1.26,-1.90 1.26,-1.90 L 1.26,-1.90 Z"></path></g><g transform="translate(53.225806451612925 52.0967741935483) rotate(0 10.9677419354839 9.677419354838662)" stroke="none"><path fill="#868e96" d="M 1.13,-1.48 Q 1.13,-1.48 3.50,0.43 5.87,2.34 8.46,4.59 11.05,6.83 14.30,9.95 17.55,13.07 19.09,14.58 20.63,16.09 21.84,17.13 23.05,18.17 23.21,18.38 23.37,18.59 23.46,18.84 23.54,19.09 23.54,19.35 23.54,19.62 23.45,19.87 23.37,20.12 23.21,20.33 23.05,20.54 22.83,20.68 22.61,20.83 22.36,20.90 22.10,20.97 21.84,20.96 21.58,20.94 21.33,20.84 21.09,20.75 20.89,20.57 20.69,20.40 20.55,20.18 20.41,19.95 20.36,19.69 20.30,19.43 20.33,19.17 20.36,18.91 20.47,18.67 20.58,18.43 20.76,18.24 20.95,18.05 21.18,17.93 21.41,17.80 21.67,17.76 21.93,17.72 22.19,17.76 22.45,17.81 22.69,17.93 22.92,18.05 23.10,18.25 23.28,18.44 23.39,18.68 23.50,18.92 23.53,19.18 23.56,19.44 23.50,19.70 23.44,19.96 23.31,20.18 23.17,20.41 22.97,20.58 22.77,20.75 22.52,20.85 22.28,20.94 22.01,20.96 21.75,20.97 21.50,20.90 21.24,20.83 21.02,20.68 20.81,20.53 20.81,20.53 20.81,20.53 19.71,19.38 18.61,18.22 17.03,16.76 15.45,15.29 12.22,12.30 8.99,9.30 6.38,7.18 3.77,5.07 1.31,3.27 -1.13,1.48 -1.30,1.32 -1.46,1.16 -1.57,0.97 -1.69,0.78 -1.76,0.56 -1.83,0.35 -1.85,0.12 -1.86,-0.09 -1.82,-0.31 -1.78,-0.54 -1.69,-0.74 -1.60,-0.95 -1.47,-1.13 -1.33,-1.31 -1.15,-1.45 -0.98,-1.59 -0.77,-1.68 -0.57,-1.77 -0.35,-1.82 -0.12,-1.86 0.09,-1.85 0.32,-1.84 0.53,-1.77 0.75,-1.71 0.94,-1.59 1.13,-1.48 1.13,-1.48 L 1.13,-1.48 Z"></path></g><g transform="translate(29.0322580645161 61.77419354838685) rotate(0 -8.709677419354875 0)" stroke="none"><path fill="#868e96" d="M 0,1.99 Q 0,1.99 -4.54,1.89 -9.08,1.80 -11.48,1.74 -13.87,1.67 -15.64,1.70 -17.41,1.73 -17.69,1.68 -17.97,1.64 -18.22,1.51 -18.46,1.38 -18.66,1.17 -18.85,0.97 -18.97,0.71 -19.09,0.46 -19.12,0.18 -19.15,-0.09 -19.09,-0.36 -19.03,-0.64 -18.88,-0.88 -18.74,-1.12 -18.52,-1.30 -18.31,-1.48 -18.05,-1.59 -17.79,-1.69 -17.51,-1.70 -17.23,-1.72 -16.96,-1.64 -16.69,-1.57 -16.45,-1.41 -16.22,-1.25 -16.05,-1.03 -15.88,-0.81 -15.79,-0.54 -15.70,-0.28 -15.70,0.00 -15.70,0.28 -15.79,0.54 -15.88,0.81 -16.05,1.03 -16.22,1.25 -16.45,1.41 -16.69,1.57 -16.96,1.64 -17.23,1.72 -17.51,1.70 -17.79,1.69 -18.05,1.58 -18.31,1.48 -18.52,1.30 -18.74,1.12 -18.88,0.88 -19.03,0.64 -19.09,0.36 -19.15,0.09 -19.12,-0.18 -19.09,-0.46 -18.97,-0.71 -18.85,-0.97 -18.66,-1.17 -18.46,-1.38 -18.22,-1.51 -17.97,-1.64 -17.69,-1.68 -17.41,-1.73 -17.41,-1.73 -17.41,-1.73 -15.64,-1.70 -13.87,-1.67 -11.48,-1.74 -9.08,-1.80 -4.54,-1.89 0,-1.99 0.23,-1.96 0.47,-1.93 0.70,-1.84 0.92,-1.76 1.12,-1.62 1.31,-1.48 1.47,-1.31 1.63,-1.13 1.74,-0.91 1.86,-0.70 1.91,-0.47 1.97,-0.23 1.97,0.00 1.97,0.24 1.91,0.47 1.86,0.70 1.74,0.91 1.63,1.13 1.47,1.31 1.31,1.48 1.12,1.62 0.92,1.76 0.70,1.84 0.47,1.93 0.23,1.96 -0.00,1.99 -0.00,1.99 L 0,1.99 Z"></path></g><g transform="translate(10 57.90322580645147) rotate(0 0 4.0322580645161)" stroke="none"><path fill="#868e96" d="M 2.09,0 Q 2.09,0 1.98,2.31 1.88,4.63 1.90,6.35 1.91,8.06 1.86,8.37 1.81,8.67 1.67,8.95 1.52,9.22 1.30,9.43 1.07,9.65 0.79,9.78 0.51,9.91 0.20,9.94 -0.10,9.97 -0.40,9.91 -0.70,9.84 -0.97,9.68 -1.24,9.52 -1.44,9.28 -1.64,9.05 -1.75,8.76 -1.87,8.47 -1.88,8.16 -1.90,7.85 -1.82,7.55 -1.73,7.25 -1.56,7.00 -1.39,6.74 -1.14,6.55 -0.89,6.37 -0.60,6.27 -0.30,6.17 0.00,6.17 0.31,6.17 0.60,6.27 0.89,6.37 1.14,6.55 1.39,6.74 1.56,7.00 1.74,7.25 1.82,7.55 1.90,7.85 1.88,8.16 1.87,8.47 1.75,8.76 1.64,9.05 1.44,9.28 1.24,9.52 0.97,9.68 0.70,9.84 0.40,9.91 0.10,9.97 -0.20,9.94 -0.51,9.91 -0.79,9.78 -1.07,9.65 -1.30,9.43 -1.52,9.22 -1.67,8.95 -1.81,8.67 -1.86,8.37 -1.91,8.06 -1.91,8.06 -1.91,8.06 -1.90,6.35 -1.88,4.63 -1.98,2.31 -2.09,0 -2.06,-0.25 -2.03,-0.50 -1.94,-0.73 -1.85,-0.97 -1.71,-1.18 -1.56,-1.38 -1.37,-1.55 -1.18,-1.72 -0.96,-1.84 -0.74,-1.95 -0.49,-2.01 -0.25,-2.07 0.00,-2.07 0.25,-2.07 0.49,-2.01 0.74,-1.95 0.96,-1.84 1.18,-1.72 1.37,-1.55 1.56,-1.38 1.71,-1.18 1.85,-0.97 1.94,-0.73 2.03,-0.50 2.06,-0.25 2.09,0.00 2.09,0.00 L 2.09,0 Z"></path></g><g transform="translate(61.612903225806576 25.322580645161224) rotate(0 -0.322580645161338 -5.645161290322676)" stroke="none"><path fill="#e03131" d="M -1.99,0.11 Q -1.99,0.11 -2.08,-3.13 -2.18,-6.38 -2.25,-8.79 -2.32,-11.19 -2.29,-11.46 -2.26,-11.73 -2.15,-11.98 -2.03,-12.22 -1.85,-12.42 -1.66,-12.62 -1.42,-12.75 -1.18,-12.88 -0.91,-12.92 -0.64,-12.96 -0.38,-12.92 -0.11,-12.88 0.12,-12.75 0.36,-12.63 0.55,-12.43 0.74,-12.23 0.85,-11.99 0.97,-11.74 1.00,-11.47 1.03,-11.20 0.97,-10.93 0.91,-10.67 0.77,-10.43 0.63,-10.20 0.43,-10.03 0.22,-9.85 -0.02,-9.75 -0.27,-9.65 -0.55,-9.63 -0.82,-9.62 -1.08,-9.69 -1.34,-9.76 -1.57,-9.91 -1.79,-10.06 -1.96,-10.28 -2.12,-10.49 -2.21,-10.75 -2.30,-11.01 -2.30,-11.28 -2.30,-11.55 -2.21,-11.81 -2.13,-12.07 -1.96,-12.28 -1.80,-12.50 -1.57,-12.65 -1.35,-12.81 -1.09,-12.88 -0.83,-12.95 -0.55,-12.94 -0.28,-12.93 -0.03,-12.83 0.21,-12.73 0.42,-12.55 0.63,-12.38 0.77,-12.14 0.91,-11.91 0.97,-11.65 1.03,-11.38 1.03,-11.38 1.03,-11.38 1.23,-8.99 1.44,-6.59 1.71,-3.35 1.99,-0.11 1.97,0.12 1.96,0.36 1.89,0.59 1.81,0.82 1.69,1.03 1.56,1.23 1.39,1.40 1.22,1.57 1.02,1.70 0.81,1.82 0.58,1.89 0.35,1.96 0.11,1.98 -0.12,1.99 -0.36,1.94 -0.60,1.90 -0.82,1.80 -1.03,1.70 -1.22,1.55 -1.41,1.40 -1.56,1.21 -1.71,1.02 -1.81,0.80 -1.90,0.58 -1.95,0.35 -1.99,0.11 -1.99,0.11 L -1.99,0.11 Z"></path></g><g transform="translate(100.32258064516122 59.1935483870966) rotate(0 6.290322580645125 0)" stroke="none"><path fill="#868e96" d="M 0,-2.33 Q 0,-2.33 2.22,-2.20 4.45,-2.07 6.30,-2.20 8.15,-2.34 10.36,-2.39 12.58,-2.45 12.97,-2.38 13.36,-2.32 13.71,-2.13 14.06,-1.95 14.33,-1.66 14.61,-1.37 14.77,-1.01 14.94,-0.65 14.98,-0.26 15.03,0.13 14.94,0.52 14.85,0.90 14.65,1.24 14.45,1.58 14.14,1.84 13.84,2.10 13.47,2.24 13.10,2.39 12.71,2.41 12.31,2.43 11.93,2.33 11.55,2.22 11.22,2.00 10.89,1.78 10.65,1.46 10.41,1.14 10.28,0.77 10.15,0.39 10.15,-0.00 10.15,-0.39 10.28,-0.77 10.41,-1.14 10.65,-1.46 10.89,-1.78 11.22,-2.00 11.55,-2.22 11.93,-2.33 12.31,-2.43 12.71,-2.41 13.10,-2.39 13.47,-2.24 13.84,-2.10 14.14,-1.84 14.45,-1.58 14.65,-1.24 14.85,-0.90 14.94,-0.51 15.03,-0.13 14.98,0.26 14.94,0.65 14.77,1.01 14.61,1.37 14.33,1.66 14.06,1.95 13.71,2.13 13.36,2.32 12.97,2.38 12.57,2.45 12.58,2.45 12.58,2.45 10.36,2.39 8.15,2.34 6.30,2.20 4.45,2.07 2.22,2.20 0,2.33 -0.27,2.30 -0.55,2.27 -0.82,2.17 -1.08,2.07 -1.31,1.91 -1.55,1.75 -1.73,1.54 -1.92,1.32 -2.05,1.07 -2.18,0.82 -2.25,0.55 -2.32,0.28 -2.32,-0.00 -2.32,-0.28 -2.25,-0.55 -2.18,-0.82 -2.05,-1.07 -1.92,-1.32 -1.73,-1.54 -1.55,-1.75 -1.31,-1.91 -1.08,-2.07 -0.82,-2.17 -0.55,-2.27 -0.27,-2.30 0.00,-2.33 0.00,-2.33 L 0,-2.33 Z"></path></g><g transform="translate(64.8387096774195 96.29032258064512) rotate(0 0.8064516129031745 8.225806451612925)" stroke="none"><path fill="#868e96" d="M 1.97,-0.13 Q 1.97,-0.13 2.16,3.85 2.35,7.85 2.58,10.24 2.82,12.64 3.06,14.44 3.31,16.23 3.30,16.51 3.29,16.79 3.19,17.05 3.09,17.31 2.91,17.52 2.74,17.74 2.50,17.88 2.27,18.03 2.00,18.09 1.73,18.16 1.45,18.13 1.18,18.11 0.92,17.99 0.67,17.88 0.46,17.69 0.26,17.51 0.13,17.26 -0.00,17.02 -0.05,16.75 -0.10,16.47 -0.06,16.20 -0.01,15.92 0.10,15.68 0.23,15.43 0.43,15.24 0.62,15.04 0.87,14.92 1.12,14.80 1.40,14.77 1.67,14.73 1.95,14.79 2.22,14.84 2.46,14.98 2.70,15.12 2.88,15.33 3.06,15.54 3.17,15.80 3.28,16.05 3.30,16.33 3.31,16.61 3.24,16.87 3.17,17.14 3.02,17.37 2.87,17.61 2.65,17.78 2.43,17.95 2.17,18.04 1.91,18.13 1.63,18.14 1.36,18.14 1.09,18.06 0.83,17.97 0.61,17.81 0.38,17.64 0.22,17.42 0.06,17.19 -0.00,16.92 -0.08,16.66 -0.08,16.66 -0.08,16.66 -0.29,14.85 -0.49,13.05 -0.86,10.57 -1.24,8.10 -1.60,4.11 -1.97,0.13 -1.96,-0.10 -1.95,-0.33 -1.88,-0.56 -1.81,-0.79 -1.69,-1.00 -1.57,-1.20 -1.40,-1.37 -1.23,-1.54 -1.03,-1.67 -0.82,-1.79 -0.60,-1.87 -0.37,-1.94 -0.13,-1.96 0.10,-1.97 0.33,-1.93 0.57,-1.89 0.79,-1.80 1.00,-1.70 1.19,-1.55 1.38,-1.41 1.53,-1.22 1.68,-1.04 1.78,-0.82 1.88,-0.60 1.93,-0.37 1.97,-0.13 1.97,-0.13 L 1.97,-0.13 Z"></path></g><g transform="translate(60.322580645161224 113.38709677419342) rotate(0 6.451612903225737 0.3225806451612243)" stroke="none"><path fill="#868e96" d="M 0.21,-1.99 Q 0.21,-1.99 1.97,-1.80 3.73,-1.60 6.35,-1.44 8.96,-1.27 10.96,-1.18 12.95,-1.09 13.23,-1.04 13.50,-0.98 13.75,-0.84 13.99,-0.70 14.18,-0.49 14.37,-0.28 14.48,-0.03 14.59,0.22 14.61,0.50 14.63,0.79 14.56,1.06 14.50,1.33 14.34,1.57 14.19,1.81 13.97,1.98 13.75,2.16 13.49,2.25 13.22,2.35 12.94,2.36 12.66,2.37 12.39,2.28 12.12,2.20 11.89,2.03 11.66,1.87 11.50,1.64 11.34,1.41 11.25,1.14 11.17,0.87 11.18,0.59 11.19,0.31 11.29,0.04 11.38,-0.21 11.56,-0.43 11.74,-0.65 11.98,-0.80 12.21,-0.95 12.49,-1.02 12.76,-1.09 13.04,-1.06 13.32,-1.04 13.58,-0.93 13.84,-0.81 14.05,-0.63 14.26,-0.44 14.40,-0.19 14.53,0.04 14.59,0.32 14.64,0.60 14.60,0.88 14.56,1.16 14.44,1.41 14.31,1.66 14.11,1.86 13.91,2.06 13.66,2.18 13.41,2.31 13.13,2.34 12.85,2.38 12.85,2.38 12.85,2.38 10.85,2.36 8.86,2.33 6.09,2.34 3.31,2.34 1.55,2.17 -0.21,1.99 -0.44,1.94 -0.68,1.88 -0.89,1.77 -1.11,1.66 -1.29,1.51 -1.48,1.35 -1.62,1.15 -1.76,0.96 -1.85,0.73 -1.94,0.51 -1.97,0.27 -2.00,0.03 -1.98,-0.20 -1.95,-0.44 -1.87,-0.67 -1.79,-0.90 -1.65,-1.10 -1.52,-1.30 -1.34,-1.47 -1.16,-1.63 -0.95,-1.74 -0.74,-1.86 -0.50,-1.92 -0.27,-1.98 -0.03,-1.99 0.21,-1.99 0.21,-1.99 L 0.21,-1.99 Z"></path></g><g transform="translate(162.7419354838712 42.2580645161288) rotate(0 0.00004999999998744897 0.00004999999998744897)" stroke="none"><path fill="#868e96" d="M 1.57,-1.57 Q 1.57,-1.57 1.77,-1.27 1.98,-0.98 2.09,-0.64 2.20,-0.29 2.19,0.05 2.18,0.41 2.05,0.75 1.93,1.09 1.70,1.37 1.48,1.65 1.18,1.84 0.87,2.04 0.52,2.12 0.18,2.21 -0.17,2.18 -0.53,2.15 -0.86,2.01 -1.19,1.87 -1.46,1.63 -1.73,1.39 -1.90,1.07 -2.08,0.76 -2.15,0.41 -2.21,0.05 -2.17,-0.29 -2.12,-0.65 -1.96,-0.97 -1.80,-1.29 -1.54,-1.54 -1.29,-1.80 -0.97,-1.96 -0.65,-2.12 -0.29,-2.17 0.06,-2.21 0.41,-2.15 0.76,-2.08 1.07,-1.90 1.39,-1.73 1.63,-1.46 1.87,-1.19 2.01,-0.86 2.15,-0.53 2.18,-0.17 2.21,0.18 2.12,0.52 2.03,0.87 1.84,1.18 1.65,1.48 1.37,1.70 1.09,1.93 0.75,2.05 0.41,2.18 0.05,2.19 -0.30,2.20 -0.64,2.09 -0.98,1.98 -1.27,1.77 -1.57,1.56 -1.57,1.57 -1.57,1.57 -1.73,1.35 -1.90,1.14 -2.01,0.90 -2.12,0.66 -2.16,0.39 -2.21,0.13 -2.20,-0.13 -2.18,-0.40 -2.10,-0.65 -2.02,-0.91 -1.88,-1.14 -1.74,-1.36 -1.55,-1.55 -1.36,-1.74 -1.14,-1.88 -0.91,-2.02 -0.65,-2.10 -0.40,-2.18 -0.13,-2.20 0.13,-2.21 0.39,-2.16 0.66,-2.12 0.90,-2.01 1.14,-1.90 1.35,-1.73 1.57,-1.57 1.57,-1.57 L 1.57,-1.57 Z"></path></g><g transform="translate(166.9354838709678 45.48387096774195) rotate(0 3.2258064516129252 2.580645161290363)" stroke="none"><path fill="#868e96" d="M 1.35,-1.69 Q 1.35,-1.69 4.04,0.36 6.72,2.43 6.97,2.70 7.22,2.98 7.36,3.32 7.51,3.66 7.54,4.03 7.57,4.41 7.49,4.77 7.40,5.13 7.20,5.44 7.00,5.76 6.71,5.99 6.42,6.22 6.07,6.35 5.72,6.48 5.35,6.49 4.98,6.50 4.62,6.40 4.26,6.29 3.96,6.07 3.66,5.85 3.44,5.55 3.22,5.25 3.11,4.90 3.00,4.54 3.01,4.17 3.02,3.80 3.15,3.45 3.28,3.10 3.51,2.81 3.74,2.51 4.05,2.31 4.37,2.11 4.73,2.02 5.09,1.93 5.46,1.96 5.83,1.99 6.17,2.14 6.52,2.28 6.79,2.53 7.07,2.78 7.26,3.10 7.44,3.43 7.51,3.79 7.58,4.16 7.53,4.53 7.48,4.89 7.32,5.23 7.15,5.56 6.89,5.83 6.63,6.09 6.29,6.26 5.96,6.42 5.59,6.47 5.22,6.52 4.86,6.45 4.49,6.39 4.17,6.20 3.84,6.02 3.84,6.02 3.84,6.02 1.24,3.86 -1.35,1.69 -1.54,1.50 -1.72,1.32 -1.85,1.09 -1.98,0.87 -2.06,0.62 -2.14,0.36 -2.15,0.10 -2.16,-0.15 -2.11,-0.41 -2.06,-0.66 -1.95,-0.90 -1.84,-1.14 -1.68,-1.34 -1.52,-1.55 -1.31,-1.71 -1.10,-1.87 -0.86,-1.97 -0.62,-2.08 -0.36,-2.12 -0.10,-2.16 0.15,-2.15 0.41,-2.13 0.66,-2.05 0.91,-1.97 1.13,-1.83 1.35,-1.69 1.35,-1.69 L 1.35,-1.69 Z"></path></g><g transform="translate(151.45161290322585 32.580645161290704) rotate(0 3.5483870967741495 2.419354838709637)" stroke="none"><path fill="#868e96" d="M 1.26,-1.90 Q 1.26,-1.90 2.64,-0.95 4.02,-0.01 5.84,1.17 7.66,2.35 7.93,2.61 8.21,2.88 8.39,3.22 8.56,3.56 8.62,3.94 8.68,4.32 8.61,4.69 8.55,5.07 8.37,5.41 8.18,5.74 7.90,6.01 7.62,6.27 7.27,6.42 6.92,6.58 6.54,6.62 6.16,6.66 5.79,6.57 5.42,6.49 5.09,6.29 4.76,6.08 4.52,5.79 4.27,5.50 4.13,5.14 4.00,4.78 3.98,4.40 3.96,4.02 4.07,3.65 4.17,3.28 4.39,2.97 4.61,2.65 4.92,2.42 5.22,2.19 5.59,2.07 5.95,1.96 6.33,1.96 6.72,1.96 7.08,2.09 7.44,2.21 7.74,2.45 8.05,2.68 8.26,3.00 8.47,3.32 8.57,3.69 8.67,4.06 8.64,4.44 8.62,4.83 8.47,5.18 8.33,5.53 8.08,5.82 7.83,6.11 7.50,6.31 7.17,6.50 6.79,6.58 6.42,6.66 6.04,6.61 5.66,6.57 5.31,6.41 4.97,6.24 4.97,6.24 4.97,6.24 3.25,4.98 1.53,3.72 0.13,2.81 -1.26,1.90 -1.47,1.72 -1.68,1.54 -1.84,1.31 -2.00,1.09 -2.10,0.83 -2.20,0.58 -2.24,0.30 -2.28,0.03 -2.25,-0.23 -2.22,-0.51 -2.13,-0.77 -2.03,-1.02 -1.88,-1.25 -1.73,-1.48 -1.53,-1.67 -1.32,-1.85 -1.08,-1.99 -0.84,-2.12 -0.57,-2.19 -0.31,-2.26 -0.03,-2.26 0.23,-2.27 0.50,-2.21 0.77,-2.14 1.02,-2.02 1.26,-1.90 1.26,-1.90 L 1.26,-1.90 Z"></path></g><g transform="translate(135.16124032258085 73.54833709677405) rotate(0 0.00004999999998744897 0.00004999999998744897)" stroke="none"><path fill="#868e96" d="M 1.57,-1.57 Q 1.57,-1.57 1.77,-1.27 1.98,-0.98 2.09,-0.64 2.20,-0.29 2.19,0.05 2.18,0.41 2.05,0.75 1.93,1.09 1.70,1.37 1.48,1.65 1.18,1.84 0.87,2.04 0.52,2.12 0.18,2.21 -0.17,2.18 -0.53,2.15 -0.86,2.01 -1.19,1.87 -1.46,1.63 -1.73,1.39 -1.90,1.07 -2.08,0.76 -2.15,0.41 -2.21,0.05 -2.17,-0.29 -2.12,-0.65 -1.96,-0.97 -1.80,-1.29 -1.54,-1.54 -1.29,-1.80 -0.97,-1.96 -0.65,-2.12 -0.29,-2.17 0.06,-2.21 0.41,-2.15 0.76,-2.08 1.07,-1.90 1.39,-1.73 1.63,-1.46 1.87,-1.19 2.01,-0.86 2.15,-0.53 2.18,-0.17 2.21,0.18 2.12,0.52 2.03,0.87 1.84,1.18 1.65,1.48 1.37,1.70 1.09,1.93 0.75,2.05 0.41,2.18 0.05,2.19 -0.30,2.20 -0.64,2.09 -0.98,1.98 -1.27,1.77 -1.57,1.56 -1.57,1.57 -1.57,1.57 -1.73,1.35 -1.90,1.14 -2.01,0.90 -2.12,0.66 -2.16,0.39 -2.21,0.13 -2.20,-0.13 -2.18,-0.40 -2.10,-0.65 -2.02,-0.91 -1.88,-1.14 -1.74,-1.36 -1.55,-1.55 -1.36,-1.74 -1.14,-1.88 -0.91,-2.02 -0.65,-2.10 -0.40,-2.18 -0.13,-2.20 0.13,-2.21 0.39,-2.16 0.66,-2.12 0.90,-2.01 1.14,-1.90 1.35,-1.73 1.57,-1.57 1.57,-1.57 L 1.57,-1.57 Z"></path></g><g transform="translate(150.32253064516135 86.7741435483872) rotate(0 0.00004999999998744897 0.00004999999998744897)" stroke="none"><path fill="#868e96" d="M 1.57,-1.57 Q 1.57,-1.57 1.77,-1.27 1.98,-0.98 2.09,-0.64 2.20,-0.29 2.19,0.05 2.18,0.41 2.05,0.75 1.93,1.09 1.70,1.37 1.48,1.65 1.18,1.84 0.87,2.04 0.52,2.12 0.18,2.21 -0.17,2.18 -0.53,2.15 -0.86,2.01 -1.19,1.87 -1.46,1.63 -1.73,1.39 -1.90,1.07 -2.08,0.76 -2.15,0.41 -2.21,0.05 -2.17,-0.29 -2.12,-0.65 -1.96,-0.97 -1.80,-1.29 -1.54,-1.54 -1.29,-1.80 -0.97,-1.96 -0.65,-2.12 -0.29,-2.17 0.06,-2.21 0.41,-2.15 0.76,-2.08 1.07,-1.90 1.39,-1.73 1.63,-1.46 1.87,-1.19 2.01,-0.86 2.15,-0.53 2.18,-0.17 2.21,0.18 2.12,0.52 2.03,0.87 1.84,1.18 1.65,1.48 1.37,1.70 1.09,1.93 0.75,2.05 0.41,2.18 0.05,2.19 -0.30,2.20 -0.64,2.09 -0.98,1.98 -1.27,1.77 -1.57,1.56 -1.57,1.57 -1.57,1.57 -1.73,1.35 -1.90,1.14 -2.01,0.90 -2.12,0.66 -2.16,0.39 -2.21,0.13 -2.20,-0.13 -2.18,-0.40 -2.10,-0.65 -2.02,-0.91 -1.88,-1.14 -1.74,-1.36 -1.55,-1.55 -1.36,-1.74 -1.14,-1.88 -0.91,-2.02 -0.65,-2.10 -0.40,-2.18 -0.13,-2.20 0.13,-2.21 0.39,-2.16 0.66,-2.12 0.90,-2.01 1.14,-1.90 1.35,-1.73 1.57,-1.57 1.57,-1.57 L 1.57,-1.57 Z"></path></g><g transform="translate(139.35478870967745 76.77414354838766) rotate(0 3.2258064516129252 2.580645161290363)" stroke="none"><path fill="#868e96" d="M 1.35,-1.69 Q 1.35,-1.69 4.04,0.36 6.72,2.43 6.97,2.70 7.22,2.98 7.36,3.32 7.51,3.66 7.54,4.03 7.57,4.41 7.49,4.77 7.40,5.13 7.20,5.44 7.00,5.76 6.71,5.99 6.42,6.22 6.07,6.35 5.72,6.48 5.35,6.49 4.98,6.50 4.62,6.40 4.26,6.29 3.96,6.07 3.66,5.85 3.44,5.55 3.22,5.25 3.11,4.90 3.00,4.54 3.01,4.17 3.02,3.80 3.15,3.45 3.28,3.10 3.51,2.81 3.74,2.51 4.05,2.31 4.37,2.11 4.73,2.02 5.09,1.93 5.46,1.96 5.83,1.99 6.17,2.14 6.52,2.28 6.79,2.53 7.07,2.78 7.26,3.10 7.44,3.43 7.51,3.79 7.58,4.16 7.53,4.53 7.48,4.89 7.32,5.23 7.15,5.56 6.89,5.83 6.63,6.09 6.29,6.26 5.96,6.42 5.59,6.47 5.22,6.52 4.86,6.45 4.49,6.39 4.17,6.20 3.84,6.02 3.84,6.02 3.84,6.02 1.24,3.86 -1.35,1.69 -1.54,1.50 -1.72,1.32 -1.85,1.09 -1.98,0.87 -2.06,0.62 -2.14,0.36 -2.15,0.10 -2.16,-0.15 -2.11,-0.41 -2.06,-0.66 -1.95,-0.90 -1.84,-1.14 -1.68,-1.34 -1.52,-1.55 -1.31,-1.71 -1.10,-1.87 -0.86,-1.97 -0.62,-2.08 -0.36,-2.12 -0.10,-2.16 0.15,-2.15 0.41,-2.13 0.66,-2.05 0.91,-1.97 1.13,-1.83 1.35,-1.69 1.35,-1.69 L 1.35,-1.69 Z"></path></g><g transform="translate(123.87091774193595 63.870917741935955) rotate(0 3.5483870967741495 2.419354838709637)" stroke="none"><path fill="#868e96" d="M 1.26,-1.90 Q 1.26,-1.90 2.64,-0.95 4.02,-0.01 5.84,1.17 7.66,2.35 7.93,2.61 8.21,2.88 8.39,3.22 8.56,3.56 8.62,3.94 8.68,4.32 8.61,4.69 8.55,5.07 8.37,5.41 8.18,5.74 7.90,6.01 7.62,6.27 7.27,6.42 6.92,6.58 6.54,6.62 6.16,6.66 5.79,6.57 5.42,6.49 5.09,6.29 4.76,6.08 4.52,5.79 4.27,5.50 4.13,5.14 4.00,4.78 3.98,4.40 3.96,4.02 4.07,3.65 4.17,3.28 4.39,2.97 4.61,2.65 4.92,2.42 5.22,2.19 5.59,2.07 5.95,1.96 6.33,1.96 6.72,1.96 7.08,2.09 7.44,2.21 7.74,2.45 8.05,2.68 8.26,3.00 8.47,3.32 8.57,3.69 8.67,4.06 8.64,4.44 8.62,4.83 8.47,5.18 8.33,5.53 8.08,5.82 7.83,6.11 7.50,6.31 7.17,6.50 6.79,6.58 6.42,6.66 6.04,6.61 5.66,6.57 5.31,6.41 4.97,6.24 4.97,6.24 4.97,6.24 3.25,4.98 1.53,3.72 0.13,2.81 -1.26,1.90 -1.47,1.72 -1.68,1.54 -1.84,1.31 -2.00,1.09 -2.10,0.83 -2.20,0.58 -2.24,0.30 -2.28,0.03 -2.25,-0.23 -2.22,-0.51 -2.13,-0.77 -2.03,-1.02 -1.88,-1.25 -1.73,-1.48 -1.53,-1.67 -1.32,-1.85 -1.08,-1.99 -0.84,-2.12 -0.57,-2.19 -0.31,-2.26 -0.03,-2.26 0.23,-2.27 0.50,-2.21 0.77,-2.14 1.02,-2.02 1.26,-1.90 1.26,-1.90 L 1.26,-1.90 Z"></path></g><g transform="translate(147.58059516129106 28.54833709677405) rotate(90.0000000000004 0.00004999999998744897 0.00004999999998744897)" stroke="none"><path fill="#868e96" d="M 1.57,-1.57 Q 1.57,-1.57 1.77,-1.27 1.98,-0.98 2.09,-0.64 2.20,-0.29 2.19,0.05 2.18,0.41 2.05,0.75 1.93,1.09 1.70,1.37 1.48,1.65 1.18,1.84 0.87,2.04 0.52,2.12 0.18,2.21 -0.17,2.18 -0.53,2.15 -0.86,2.01 -1.19,1.87 -1.46,1.63 -1.73,1.39 -1.90,1.07 -2.08,0.76 -2.15,0.41 -2.21,0.05 -2.17,-0.29 -2.12,-0.65 -1.96,-0.97 -1.80,-1.29 -1.54,-1.54 -1.29,-1.80 -0.97,-1.96 -0.65,-2.12 -0.29,-2.17 0.06,-2.21 0.41,-2.15 0.76,-2.08 1.07,-1.90 1.39,-1.73 1.63,-1.46 1.87,-1.19 2.01,-0.86 2.15,-0.53 2.18,-0.17 2.21,0.18 2.12,0.52 2.03,0.87 1.84,1.18 1.65,1.48 1.37,1.70 1.09,1.93 0.75,2.05 0.41,2.18 0.05,2.19 -0.30,2.20 -0.64,2.09 -0.98,1.98 -1.27,1.77 -1.57,1.56 -1.57,1.57 -1.57,1.57 -1.73,1.35 -1.90,1.14 -2.01,0.90 -2.12,0.66 -2.16,0.39 -2.21,0.13 -2.20,-0.13 -2.18,-0.40 -2.10,-0.65 -2.02,-0.91 -1.88,-1.14 -1.74,-1.36 -1.55,-1.55 -1.36,-1.74 -1.14,-1.88 -0.91,-2.02 -0.65,-2.10 -0.40,-2.18 -0.13,-2.20 0.13,-2.21 0.39,-2.16 0.66,-2.12 0.90,-2.01 1.14,-1.90 1.35,-1.73 1.57,-1.57 1.57,-1.57 L 1.57,-1.57 Z"></path></g><g transform="translate(133.06446612903164 44.032208064515544) rotate(90.0000000000004 0.00004999999998744897 0.00004999999998744897)" stroke="none"><path fill="#868e96" d="M 1.57,-1.57 Q 1.57,-1.57 1.77,-1.27 1.98,-0.98 2.09,-0.64 2.20,-0.29 2.19,0.05 2.18,0.41 2.05,0.75 1.93,1.09 1.70,1.37 1.48,1.65 1.18,1.84 0.87,2.04 0.52,2.12 0.18,2.21 -0.17,2.18 -0.53,2.15 -0.86,2.01 -1.19,1.87 -1.46,1.63 -1.73,1.39 -1.90,1.07 -2.08,0.76 -2.15,0.41 -2.21,0.05 -2.17,-0.29 -2.12,-0.65 -1.96,-0.97 -1.80,-1.29 -1.54,-1.54 -1.29,-1.80 -0.97,-1.96 -0.65,-2.12 -0.29,-2.17 0.06,-2.21 0.41,-2.15 0.76,-2.08 1.07,-1.90 1.39,-1.73 1.63,-1.46 1.87,-1.19 2.01,-0.86 2.15,-0.53 2.18,-0.17 2.21,0.18 2.12,0.52 2.03,0.87 1.84,1.18 1.65,1.48 1.37,1.70 1.09,1.93 0.75,2.05 0.41,2.18 0.05,2.19 -0.30,2.20 -0.64,2.09 -0.98,1.98 -1.27,1.77 -1.57,1.56 -1.57,1.57 -1.57,1.57 -1.73,1.35 -1.90,1.14 -2.01,0.90 -2.12,0.66 -2.16,0.39 -2.21,0.13 -2.20,-0.13 -2.18,-0.40 -2.10,-0.65 -2.02,-0.91 -1.88,-1.14 -1.74,-1.36 -1.55,-1.55 -1.36,-1.74 -1.14,-1.88 -0.91,-2.02 -0.65,-2.10 -0.40,-2.18 -0.13,-2.20 0.13,-2.21 0.39,-2.16 0.66,-2.12 0.90,-2.01 1.14,-1.90 1.35,-1.73 1.57,-1.57 1.57,-1.57 L 1.57,-1.57 Z"></path></g><g transform="translate(119.83865967741895 59.19349838709695) rotate(90.0000000000004 0.00004999999998744897 0.00004999999998744897)" stroke="none"><path fill="#868e96" d="M 1.57,-1.57 Q 1.57,-1.57 1.77,-1.27 1.98,-0.98 2.09,-0.64 2.20,-0.29 2.19,0.05 2.18,0.41 2.05,0.75 1.93,1.09 1.70,1.37 1.48,1.65 1.18,1.84 0.87,2.04 0.52,2.12 0.18,2.21 -0.17,2.18 -0.53,2.15 -0.86,2.01 -1.19,1.87 -1.46,1.63 -1.73,1.39 -1.90,1.07 -2.08,0.76 -2.15,0.41 -2.21,0.05 -2.17,-0.29 -2.12,-0.65 -1.96,-0.97 -1.80,-1.29 -1.54,-1.54 -1.29,-1.80 -0.97,-1.96 -0.65,-2.12 -0.29,-2.17 0.06,-2.21 0.41,-2.15 0.76,-2.08 1.07,-1.90 1.39,-1.73 1.63,-1.46 1.87,-1.19 2.01,-0.86 2.15,-0.53 2.18,-0.17 2.21,0.18 2.12,0.52 2.03,0.87 1.84,1.18 1.65,1.48 1.37,1.70 1.09,1.93 0.75,2.05 0.41,2.18 0.05,2.19 -0.30,2.20 -0.64,2.09 -0.98,1.98 -1.27,1.77 -1.57,1.56 -1.57,1.57 -1.57,1.57 -1.73,1.35 -1.90,1.14 -2.01,0.90 -2.12,0.66 -2.16,0.39 -2.21,0.13 -2.20,-0.13 -2.18,-0.40 -2.10,-0.65 -2.02,-0.91 -1.88,-1.14 -1.74,-1.36 -1.55,-1.55 -1.36,-1.74 -1.14,-1.88 -0.91,-2.02 -0.65,-2.10 -0.40,-2.18 -0.13,-2.20 0.13,-2.21 0.39,-2.16 0.66,-2.12 0.90,-2.01 1.14,-1.90 1.35,-1.73 1.57,-1.57 1.57,-1.57 L 1.57,-1.57 Z"></path></g><g transform="translate(124.03230806451575 48.870917741935955) rotate(90.0000000000004 3.2258064516129252 2.580645161290363)" stroke="none"><path fill="#868e96" d="M 1.35,-1.69 Q 1.35,-1.69 4.04,0.36 6.72,2.43 6.97,2.70 7.22,2.98 7.36,3.32 7.51,3.66 7.54,4.03 7.57,4.41 7.49,4.77 7.40,5.13 7.20,5.44 7.00,5.76 6.71,5.99 6.42,6.22 6.07,6.35 5.72,6.48 5.35,6.49 4.98,6.50 4.62,6.40 4.26,6.29 3.96,6.07 3.66,5.85 3.44,5.55 3.22,5.25 3.11,4.90 3.00,4.54 3.01,4.17 3.02,3.80 3.15,3.45 3.28,3.10 3.51,2.81 3.74,2.51 4.05,2.31 4.37,2.11 4.73,2.02 5.09,1.93 5.46,1.96 5.83,1.99 6.17,2.14 6.52,2.28 6.79,2.53 7.07,2.78 7.26,3.10 7.44,3.43 7.51,3.79 7.58,4.16 7.53,4.53 7.48,4.89 7.32,5.23 7.15,5.56 6.89,5.83 6.63,6.09 6.29,6.26 5.96,6.42 5.59,6.47 5.22,6.52 4.86,6.45 4.49,6.39 4.17,6.20 3.84,6.02 3.84,6.02 3.84,6.02 1.24,3.86 -1.35,1.69 -1.54,1.50 -1.72,1.32 -1.85,1.09 -1.98,0.87 -2.06,0.62 -2.14,0.36 -2.15,0.10 -2.16,-0.15 -2.11,-0.41 -2.06,-0.66 -1.95,-0.90 -1.84,-1.14 -1.68,-1.34 -1.52,-1.55 -1.31,-1.71 -1.10,-1.87 -0.86,-1.97 -0.62,-2.08 -0.36,-2.12 -0.10,-2.16 0.15,-2.15 0.41,-2.13 0.66,-2.05 0.91,-1.97 1.13,-1.83 1.35,-1.69 1.35,-1.69 L 1.35,-1.69 Z"></path></g><g transform="translate(136.4516629032255 33.22575645161305) rotate(90.0000000000004 3.5483870967741495 2.419354838709637)" stroke="none"><path fill="#868e96" d="M 1.26,-1.90 Q 1.26,-1.90 2.64,-0.95 4.02,-0.01 5.84,1.17 7.66,2.35 7.93,2.61 8.21,2.88 8.39,3.22 8.56,3.56 8.62,3.94 8.68,4.32 8.61,4.69 8.55,5.07 8.37,5.41 8.18,5.74 7.90,6.01 7.62,6.27 7.27,6.42 6.92,6.58 6.54,6.62 6.16,6.66 5.79,6.57 5.42,6.49 5.09,6.29 4.76,6.08 4.52,5.79 4.27,5.50 4.13,5.14 4.00,4.78 3.98,4.40 3.96,4.02 4.07,3.65 4.17,3.28 4.39,2.97 4.61,2.65 4.92,2.42 5.22,2.19 5.59,2.07 5.95,1.96 6.33,1.96 6.72,1.96 7.08,2.09 7.44,2.21 7.74,2.45 8.05,2.68 8.26,3.00 8.47,3.32 8.57,3.69 8.67,4.06 8.64,4.44 8.62,4.83 8.47,5.18 8.33,5.53 8.08,5.82 7.83,6.11 7.50,6.31 7.17,6.50 6.79,6.58 6.42,6.66 6.04,6.61 5.66,6.57 5.31,6.41 4.97,6.24 4.97,6.24 4.97,6.24 3.25,4.98 1.53,3.72 0.13,2.81 -1.26,1.90 -1.47,1.72 -1.68,1.54 -1.84,1.31 -2.00,1.09 -2.10,0.83 -2.20,0.58 -2.24,0.30 -2.28,0.03 -2.25,-0.23 -2.22,-0.51 -2.13,-0.77 -2.03,-1.02 -1.88,-1.25 -1.73,-1.48 -1.53,-1.67 -1.32,-1.85 -1.08,-1.99 -0.84,-2.12 -0.57,-2.19 -0.31,-2.26 -0.03,-2.26 0.23,-2.27 0.50,-2.21 0.77,-2.14 1.02,-2.02 1.26,-1.90 1.26,-1.90 L 1.26,-1.90 Z"></path></g><g transform="translate(178.22575645161305 55.64511129032235) rotate(90.0000000000004 0.00004999999998744897 0.00004999999998744897)" stroke="none"><path fill="#868e96" d="M 1.57,-1.57 Q 1.57,-1.57 1.77,-1.27 1.98,-0.98 2.09,-0.64 2.20,-0.29 2.19,0.05 2.18,0.41 2.05,0.75 1.93,1.09 1.70,1.37 1.48,1.65 1.18,1.84 0.87,2.04 0.52,2.12 0.18,2.21 -0.17,2.18 -0.53,2.15 -0.86,2.01 -1.19,1.87 -1.46,1.63 -1.73,1.39 -1.90,1.07 -2.08,0.76 -2.15,0.41 -2.21,0.05 -2.17,-0.29 -2.12,-0.65 -1.96,-0.97 -1.80,-1.29 -1.54,-1.54 -1.29,-1.80 -0.97,-1.96 -0.65,-2.12 -0.29,-2.17 0.06,-2.21 0.41,-2.15 0.76,-2.08 1.07,-1.90 1.39,-1.73 1.63,-1.46 1.87,-1.19 2.01,-0.86 2.15,-0.53 2.18,-0.17 2.21,0.18 2.12,0.52 2.03,0.87 1.84,1.18 1.65,1.48 1.37,1.70 1.09,1.93 0.75,2.05 0.41,2.18 0.05,2.19 -0.30,2.20 -0.64,2.09 -0.98,1.98 -1.27,1.77 -1.57,1.56 -1.57,1.57 -1.57,1.57 -1.73,1.35 -1.90,1.14 -2.01,0.90 -2.12,0.66 -2.16,0.39 -2.21,0.13 -2.20,-0.13 -2.18,-0.40 -2.10,-0.65 -2.02,-0.91 -1.88,-1.14 -1.74,-1.36 -1.55,-1.55 -1.36,-1.74 -1.14,-1.88 -0.91,-2.02 -0.65,-2.10 -0.40,-2.18 -0.13,-2.20 0.13,-2.21 0.39,-2.16 0.66,-2.12 0.90,-2.01 1.14,-1.90 1.35,-1.73 1.57,-1.57 1.57,-1.57 L 1.57,-1.57 Z"></path></g><g transform="translate(163.70962741935455 71.12898225806384) rotate(90.0000000000004 0.00004999999998744897 0.00004999999998744897)" stroke="none"><path fill="#868e96" d="M 1.57,-1.57 Q 1.57,-1.57 1.77,-1.27 1.98,-0.98 2.09,-0.64 2.20,-0.29 2.19,0.05 2.18,0.41 2.05,0.75 1.93,1.09 1.70,1.37 1.48,1.65 1.18,1.84 0.87,2.04 0.52,2.12 0.18,2.21 -0.17,2.18 -0.53,2.15 -0.86,2.01 -1.19,1.87 -1.46,1.63 -1.73,1.39 -1.90,1.07 -2.08,0.76 -2.15,0.41 -2.21,0.05 -2.17,-0.29 -2.12,-0.65 -1.96,-0.97 -1.80,-1.29 -1.54,-1.54 -1.29,-1.80 -0.97,-1.96 -0.65,-2.12 -0.29,-2.17 0.06,-2.21 0.41,-2.15 0.76,-2.08 1.07,-1.90 1.39,-1.73 1.63,-1.46 1.87,-1.19 2.01,-0.86 2.15,-0.53 2.18,-0.17 2.21,0.18 2.12,0.52 2.03,0.87 1.84,1.18 1.65,1.48 1.37,1.70 1.09,1.93 0.75,2.05 0.41,2.18 0.05,2.19 -0.30,2.20 -0.64,2.09 -0.98,1.98 -1.27,1.77 -1.57,1.56 -1.57,1.57 -1.57,1.57 -1.73,1.35 -1.90,1.14 -2.01,0.90 -2.12,0.66 -2.16,0.39 -2.21,0.13 -2.20,-0.13 -2.18,-0.40 -2.10,-0.65 -2.02,-0.91 -1.88,-1.14 -1.74,-1.36 -1.55,-1.55 -1.36,-1.74 -1.14,-1.88 -0.91,-2.02 -0.65,-2.10 -0.40,-2.18 -0.13,-2.20 0.13,-2.21 0.39,-2.16 0.66,-2.12 0.90,-2.01 1.14,-1.90 1.35,-1.73 1.57,-1.57 1.57,-1.57 L 1.57,-1.57 Z"></path></g><g transform="translate(150.48382096774094 86.2902725806448) rotate(90.0000000000004 0.00004999999998744897 0.00004999999998744897)" stroke="none"><path fill="#868e96" d="M 1.57,-1.57 Q 1.57,-1.57 1.77,-1.27 1.98,-0.98 2.09,-0.64 2.20,-0.29 2.19,0.05 2.18,0.41 2.05,0.75 1.93,1.09 1.70,1.37 1.48,1.65 1.18,1.84 0.87,2.04 0.52,2.12 0.18,2.21 -0.17,2.18 -0.53,2.15 -0.86,2.01 -1.19,1.87 -1.46,1.63 -1.73,1.39 -1.90,1.07 -2.08,0.76 -2.15,0.41 -2.21,0.05 -2.17,-0.29 -2.12,-0.65 -1.96,-0.97 -1.80,-1.29 -1.54,-1.54 -1.29,-1.80 -0.97,-1.96 -0.65,-2.12 -0.29,-2.17 0.06,-2.21 0.41,-2.15 0.76,-2.08 1.07,-1.90 1.39,-1.73 1.63,-1.46 1.87,-1.19 2.01,-0.86 2.15,-0.53 2.18,-0.17 2.21,0.18 2.12,0.52 2.03,0.87 1.84,1.18 1.65,1.48 1.37,1.70 1.09,1.93 0.75,2.05 0.41,2.18 0.05,2.19 -0.30,2.20 -0.64,2.09 -0.98,1.98 -1.27,1.77 -1.57,1.56 -1.57,1.57 -1.57,1.57 -1.73,1.35 -1.90,1.14 -2.01,0.90 -2.12,0.66 -2.16,0.39 -2.21,0.13 -2.20,-0.13 -2.18,-0.40 -2.10,-0.65 -2.02,-0.91 -1.88,-1.14 -1.74,-1.36 -1.55,-1.55 -1.36,-1.74 -1.14,-1.88 -0.91,-2.02 -0.65,-2.10 -0.40,-2.18 -0.13,-2.20 0.13,-2.21 0.39,-2.16 0.66,-2.12 0.90,-2.01 1.14,-1.90 1.35,-1.73 1.57,-1.57 1.57,-1.57 L 1.57,-1.57 Z"></path></g><g transform="translate(154.67746935483774 75.96769193548425) rotate(90.0000000000004 3.2258064516129252 2.580645161290363)" stroke="none"><path fill="#868e96" d="M 1.35,-1.69 Q 1.35,-1.69 4.04,0.36 6.72,2.43 6.97,2.70 7.22,2.98 7.36,3.32 7.51,3.66 7.54,4.03 7.57,4.41 7.49,4.77 7.40,5.13 7.20,5.44 7.00,5.76 6.71,5.99 6.42,6.22 6.07,6.35 5.72,6.48 5.35,6.49 4.98,6.50 4.62,6.40 4.26,6.29 3.96,6.07 3.66,5.85 3.44,5.55 3.22,5.25 3.11,4.90 3.00,4.54 3.01,4.17 3.02,3.80 3.15,3.45 3.28,3.10 3.51,2.81 3.74,2.51 4.05,2.31 4.37,2.11 4.73,2.02 5.09,1.93 5.46,1.96 5.83,1.99 6.17,2.14 6.52,2.28 6.79,2.53 7.07,2.78 7.26,3.10 7.44,3.43 7.51,3.79 7.58,4.16 7.53,4.53 7.48,4.89 7.32,5.23 7.15,5.56 6.89,5.83 6.63,6.09 6.29,6.26 5.96,6.42 5.59,6.47 5.22,6.52 4.86,6.45 4.49,6.39 4.17,6.20 3.84,6.02 3.84,6.02 3.84,6.02 1.24,3.86 -1.35,1.69 -1.54,1.50 -1.72,1.32 -1.85,1.09 -1.98,0.87 -2.06,0.62 -2.14,0.36 -2.15,0.10 -2.16,-0.15 -2.11,-0.41 -2.06,-0.66 -1.95,-0.90 -1.84,-1.14 -1.68,-1.34 -1.52,-1.55 -1.31,-1.71 -1.10,-1.87 -0.86,-1.97 -0.62,-2.08 -0.36,-2.12 -0.10,-2.16 0.15,-2.15 0.41,-2.13 0.66,-2.05 0.91,-1.97 1.13,-1.83 1.35,-1.69 1.35,-1.69 L 1.35,-1.69 Z"></path></g><g transform="translate(167.41940483870894 60.967691935484254) rotate(90.0000000000004 3.5483870967741495 2.419354838709637)" stroke="none"><path fill="#868e96" d="M 1.26,-1.90 Q 1.26,-1.90 2.64,-0.95 4.02,-0.01 5.84,1.17 7.66,2.35 7.93,2.61 8.21,2.88 8.39,3.22 8.56,3.56 8.62,3.94 8.68,4.32 8.61,4.69 8.55,5.07 8.37,5.41 8.18,5.74 7.90,6.01 7.62,6.27 7.27,6.42 6.92,6.58 6.54,6.62 6.16,6.66 5.79,6.57 5.42,6.49 5.09,6.29 4.76,6.08 4.52,5.79 4.27,5.50 4.13,5.14 4.00,4.78 3.98,4.40 3.96,4.02 4.07,3.65 4.17,3.28 4.39,2.97 4.61,2.65 4.92,2.42 5.22,2.19 5.59,2.07 5.95,1.96 6.33,1.96 6.72,1.96 7.08,2.09 7.44,2.21 7.74,2.45 8.05,2.68 8.26,3.00 8.47,3.32 8.57,3.69 8.67,4.06 8.64,4.44 8.62,4.83 8.47,5.18 8.33,5.53 8.08,5.82 7.83,6.11 7.50,6.31 7.17,6.50 6.79,6.58 6.42,6.66 6.04,6.61 5.66,6.57 5.31,6.41 4.97,6.24 4.97,6.24 4.97,6.24 3.25,4.98 1.53,3.72 0.13,2.81 -1.26,1.90 -1.47,1.72 -1.68,1.54 -1.84,1.31 -2.00,1.09 -2.10,0.83 -2.20,0.58 -2.24,0.30 -2.28,0.03 -2.25,-0.23 -2.22,-0.51 -2.13,-0.77 -2.03,-1.02 -1.88,-1.25 -1.73,-1.48 -1.53,-1.67 -1.32,-1.85 -1.08,-1.99 -0.84,-2.12 -0.57,-2.19 -0.31,-2.26 -0.03,-2.26 0.23,-2.27 0.50,-2.21 0.77,-2.14 1.02,-2.02 1.26,-1.90 1.26,-1.90 L 1.26,-1.90 Z"></path></g><g transform="translate(137.5806451612907 48.0645161290322) rotate(0 10.9677419354839 9.677419354838662)" stroke="none"><path fill="#868e96" d="M 1.17,-1.52 Q 1.17,-1.52 3.53,0.39 5.89,2.31 8.48,4.56 11.07,6.81 14.32,9.93 17.56,13.06 19.87,15.10 22.17,17.13 22.34,17.36 22.51,17.59 22.61,17.86 22.70,18.13 22.70,18.42 22.70,18.71 22.60,18.98 22.51,19.25 22.34,19.48 22.16,19.70 21.93,19.86 21.69,20.02 21.41,20.10 21.14,20.18 20.85,20.16 20.56,20.14 20.30,20.04 20.03,19.93 19.82,19.75 19.60,19.56 19.45,19.31 19.30,19.07 19.24,18.79 19.18,18.51 19.21,18.22 19.24,17.94 19.37,17.68 19.49,17.42 19.68,17.21 19.88,17.00 20.13,16.87 20.39,16.74 20.67,16.69 20.95,16.65 21.24,16.69 21.52,16.74 21.77,16.87 22.02,17.01 22.22,17.22 22.42,17.43 22.54,17.69 22.66,17.95 22.69,18.23 22.72,18.52 22.65,18.80 22.59,19.08 22.44,19.32 22.30,19.57 22.08,19.75 21.86,19.94 21.59,20.04 21.33,20.15 21.04,20.16 20.75,20.18 20.48,20.10 20.20,20.02 19.97,19.86 19.73,19.70 19.73,19.70 19.73,19.70 17.58,17.50 15.43,15.31 12.20,12.31 8.97,9.32 6.36,7.21 3.75,5.10 1.29,3.31 -1.17,1.52 -1.33,1.35 -1.50,1.19 -1.62,1.00 -1.74,0.80 -1.81,0.58 -1.88,0.36 -1.90,0.13 -1.91,-0.09 -1.87,-0.32 -1.83,-0.55 -1.74,-0.76 -1.65,-0.97 -1.51,-1.16 -1.36,-1.34 -1.18,-1.48 -1.00,-1.63 -0.79,-1.73 -0.58,-1.82 -0.35,-1.87 -0.13,-1.91 0.09,-1.90 0.32,-1.89 0.55,-1.82 0.77,-1.75 0.97,-1.63 1.17,-1.52 1.17,-1.52 L 1.17,-1.52 Z"></path></g><g transform="translate(145.9677419354839 21.290322580645352) rotate(0 -0.322580645161338 -5.645161290322676)" stroke="none"><path fill="#e03131" d="M -2.14,0.12 Q -2.14,0.12 -2.44,-4.50 -2.74,-9.12 -2.70,-9.48 -2.66,-9.83 -2.51,-10.16 -2.36,-10.49 -2.12,-10.75 -1.87,-11.01 -1.55,-11.18 -1.24,-11.35 -0.88,-11.41 -0.53,-11.46 -0.18,-11.41 0.17,-11.35 0.49,-11.18 0.80,-11.02 1.05,-10.76 1.30,-10.50 1.45,-10.17 1.60,-9.85 1.64,-9.49 1.68,-9.13 1.61,-8.78 1.53,-8.43 1.35,-8.12 1.16,-7.81 0.89,-7.58 0.62,-7.35 0.28,-7.21 -0.04,-7.08 -0.40,-7.06 -0.76,-7.04 -1.10,-7.13 -1.45,-7.23 -1.75,-7.43 -2.05,-7.63 -2.26,-7.92 -2.48,-8.20 -2.60,-8.54 -2.71,-8.88 -2.71,-9.24 -2.71,-9.60 -2.60,-9.94 -2.49,-10.28 -2.27,-10.57 -2.05,-10.85 -1.76,-11.05 -1.46,-11.26 -1.12,-11.35 -0.77,-11.45 -0.41,-11.43 -0.05,-11.41 0.27,-11.28 0.61,-11.15 0.88,-10.92 1.15,-10.69 1.34,-10.38 1.53,-10.07 1.60,-9.72 1.68,-9.37 1.68,-9.37 1.68,-9.37 1.91,-4.74 2.14,-0.12 2.12,0.13 2.10,0.39 2.02,0.63 1.95,0.88 1.81,1.10 1.68,1.32 1.49,1.50 1.31,1.69 1.09,1.82 0.87,1.95 0.62,2.03 0.37,2.10 0.12,2.12 -0.13,2.13 -0.39,2.09 -0.64,2.04 -0.87,1.93 -1.11,1.83 -1.31,1.67 -1.52,1.51 -1.67,1.30 -1.83,1.10 -1.94,0.86 -2.04,0.63 -2.09,0.37 -2.14,0.12 -2.14,0.12 L -2.14,0.12 Z"></path></g><g transform="translate(184.677419354839 55.1612903225805) rotate(0 6.290322580645125 0)" stroke="none"><path fill="#868e96" d="M 0,-2.33 Q 0,-2.33 2.22,-2.20 4.45,-2.06 6.30,-2.20 8.15,-2.34 9.96,-2.39 11.78,-2.44 12.17,-2.38 12.56,-2.32 12.91,-2.13 13.26,-1.94 13.53,-1.66 13.80,-1.37 13.97,-1.01 14.14,-0.65 14.18,-0.26 14.22,0.13 14.14,0.51 14.05,0.90 13.85,1.24 13.64,1.58 13.34,1.84 13.04,2.09 12.67,2.24 12.30,2.39 11.91,2.41 11.51,2.43 11.13,2.32 10.75,2.22 10.42,2.00 10.09,1.77 9.85,1.46 9.61,1.14 9.49,0.77 9.36,0.39 9.36,-0.00 9.36,-0.39 9.49,-0.77 9.61,-1.14 9.85,-1.46 10.09,-1.77 10.42,-2.00 10.75,-2.22 11.13,-2.32 11.51,-2.43 11.91,-2.41 12.30,-2.39 12.67,-2.24 13.04,-2.09 13.34,-1.84 13.64,-1.58 13.85,-1.24 14.05,-0.90 14.14,-0.51 14.22,-0.13 14.18,0.26 14.14,0.65 13.97,1.01 13.80,1.37 13.53,1.66 13.26,1.94 12.91,2.13 12.56,2.32 12.17,2.38 11.78,2.44 11.78,2.44 11.78,2.44 9.96,2.39 8.15,2.34 6.30,2.20 4.45,2.06 2.22,2.20 0,2.33 -0.27,2.30 -0.55,2.26 -0.82,2.16 -1.08,2.06 -1.31,1.90 -1.54,1.74 -1.73,1.53 -1.92,1.32 -2.05,1.07 -2.18,0.82 -2.25,0.55 -2.31,0.28 -2.31,-0.00 -2.31,-0.28 -2.25,-0.55 -2.18,-0.82 -2.05,-1.07 -1.92,-1.32 -1.73,-1.53 -1.54,-1.74 -1.31,-1.90 -1.08,-2.06 -0.82,-2.16 -0.55,-2.26 -0.27,-2.30 0.00,-2.33 0.00,-2.33 L 0,-2.33 Z"></path></g><g transform="translate(149.19354838709705 92.25806451612902) rotate(0 0.8064516129031745 8.225806451612925)" stroke="none"><path fill="#e03131" d="M 2.06,-0.14 Q 2.06,-0.14 2.24,3.85 2.42,7.84 2.93,11.25 3.45,14.66 3.43,14.99 3.42,15.32 3.30,15.63 3.18,15.94 2.97,16.20 2.76,16.45 2.48,16.63 2.20,16.80 1.88,16.88 1.56,16.95 1.23,16.92 0.90,16.89 0.60,16.76 0.30,16.63 0.05,16.40 -0.18,16.18 -0.34,15.89 -0.50,15.60 -0.56,15.27 -0.62,14.95 -0.57,14.62 -0.52,14.29 -0.37,14.00 -0.22,13.70 0.01,13.47 0.24,13.24 0.54,13.10 0.84,12.95 1.17,12.91 1.50,12.87 1.82,12.94 2.14,13.01 2.43,13.17 2.72,13.34 2.93,13.59 3.15,13.83 3.28,14.14 3.41,14.45 3.43,14.78 3.45,15.11 3.37,15.43 3.29,15.75 3.10,16.02 2.92,16.30 2.66,16.50 2.40,16.71 2.09,16.82 1.78,16.93 1.45,16.93 1.12,16.94 0.80,16.84 0.49,16.74 0.22,16.54 -0.04,16.34 -0.22,16.07 -0.41,15.80 -0.51,15.49 -0.60,15.17 -0.60,15.17 -0.60,15.17 -0.95,11.63 -1.31,8.10 -1.69,4.12 -2.06,0.14 -2.05,-0.10 -2.04,-0.35 -1.97,-0.59 -1.89,-0.83 -1.77,-1.04 -1.64,-1.26 -1.46,-1.44 -1.29,-1.62 -1.08,-1.75 -0.86,-1.88 -0.63,-1.96 -0.39,-2.03 -0.14,-2.05 0.10,-2.07 0.35,-2.02 0.59,-1.98 0.82,-1.88 1.05,-1.78 1.25,-1.63 1.45,-1.48 1.60,-1.28 1.76,-1.08 1.87,-0.86 1.97,-0.63 2.02,-0.38 2.06,-0.14 2.06,-0.14 L 2.06,-0.14 Z"></path></g><g transform="translate(198.70967741935465 50.48387096774172) rotate(0 0.16129032258072584 4.51612903225805)" stroke="none"><path fill="#868e96" d="M 2.04,-0.07 Q 2.04,-0.07 2.04,2.52 2.03,5.12 2.08,7.04 2.13,8.96 2.09,9.25 2.05,9.54 1.92,9.81 1.80,10.07 1.59,10.28 1.39,10.49 1.12,10.62 0.86,10.75 0.57,10.79 0.28,10.84 0.00,10.78 -0.28,10.73 -0.54,10.59 -0.79,10.45 -0.99,10.23 -1.19,10.01 -1.31,9.75 -1.42,9.48 -1.45,9.19 -1.48,8.90 -1.41,8.61 -1.34,8.33 -1.19,8.08 -1.03,7.83 -0.80,7.65 -0.58,7.46 -0.30,7.36 -0.03,7.25 0.25,7.24 0.55,7.23 0.83,7.32 1.11,7.40 1.35,7.57 1.59,7.74 1.76,7.97 1.93,8.21 2.02,8.49 2.11,8.77 2.10,9.06 2.10,9.35 2.00,9.63 1.90,9.90 1.72,10.13 1.54,10.36 1.29,10.52 1.05,10.68 0.76,10.76 0.48,10.83 0.19,10.81 -0.09,10.79 -0.36,10.67 -0.63,10.56 -0.85,10.37 -1.07,10.17 -1.22,9.92 -1.37,9.67 -1.42,9.38 -1.48,9.09 -1.48,9.09 -1.48,9.09 -1.57,7.17 -1.66,5.25 -1.85,2.66 -2.04,0.07 -2.02,-0.17 -2.00,-0.41 -1.92,-0.65 -1.84,-0.88 -1.71,-1.09 -1.58,-1.30 -1.40,-1.47 -1.22,-1.64 -1.00,-1.76 -0.79,-1.88 -0.55,-1.95 -0.31,-2.02 -0.07,-2.03 0.17,-2.04 0.41,-1.99 0.65,-1.94 0.88,-1.83 1.10,-1.72 1.29,-1.57 1.48,-1.41 1.63,-1.21 1.78,-1.01 1.87,-0.78 1.97,-0.56 2.01,-0.31 2.04,-0.07 2.04,-0.07 L 2.04,-0.07 Z"></path></g></svg>