<svg version="1.1" xmlns="http://www.w3.org/2000/svg" viewBox="0 0 289.5454545454545 125.60361912523194" width="579.090909090909" height="251.2072382504639">
  <!-- svg-source:excalidraw -->
  
  <defs>
    <style class="style-fonts">
      
    </style>
    
  </defs>
  <g transform="translate(77.41691566981899 49.152006222005866) rotate(0 0.00004999999998744897 0.00004999999998744897)" stroke="none"><path fill="#868e96" d="M 1.57,-1.57 Q 1.57,-1.57 1.77,-1.27 1.98,-0.98 2.09,-0.64 2.20,-0.29 2.19,0.05 2.18,0.41 2.05,0.75 1.93,1.09 1.70,1.37 1.48,1.65 1.18,1.84 0.87,2.04 0.52,2.12 0.18,2.21 -0.17,2.18 -0.53,2.15 -0.86,2.01 -1.19,1.87 -1.46,1.63 -1.73,1.39 -1.90,1.07 -2.08,0.76 -2.15,0.41 -2.21,0.05 -2.17,-0.29 -2.12,-0.65 -1.96,-0.97 -1.80,-1.29 -1.54,-1.54 -1.29,-1.80 -0.97,-1.96 -0.65,-2.12 -0.29,-2.17 0.06,-2.21 0.41,-2.15 0.76,-2.08 1.07,-1.90 1.39,-1.73 1.63,-1.46 1.87,-1.19 2.01,-0.86 2.15,-0.53 2.18,-0.17 2.21,0.18 2.12,0.52 2.03,0.87 1.84,1.18 1.65,1.48 1.37,1.70 1.09,1.93 0.75,2.05 0.41,2.18 0.05,2.19 -0.30,2.20 -0.64,2.09 -0.98,1.98 -1.27,1.77 -1.57,1.56 -1.57,1.57 -1.57,1.57 -1.73,1.35 -1.90,1.14 -2.01,0.90 -2.12,0.66 -2.16,0.39 -2.21,0.13 -2.20,-0.13 -2.18,-0.40 -2.10,-0.65 -2.02,-0.91 -1.88,-1.14 -1.74,-1.36 -1.55,-1.55 -1.36,-1.74 -1.14,-1.88 -0.91,-2.02 -0.65,-2.10 -0.40,-2.18 -0.13,-2.20 0.13,-2.21 0.39,-2.16 0.66,-2.12 0.90,-2.01 1.14,-1.90 1.35,-1.73 1.57,-1.57 1.57,-1.57 L 1.57,-1.57 Z"></path></g><g transform="translate(92.57820599239949 62.37781267361879) rotate(0 0.00004999999998744897 0.00004999999998744897)" stroke="none"><path fill="#868e96" d="M 1.57,-1.57 Q 1.57,-1.57 1.77,-1.27 1.98,-0.98 2.09,-0.64 2.20,-0.29 2.19,0.05 2.18,0.41 2.05,0.75 1.93,1.09 1.70,1.37 1.48,1.65 1.18,1.84 0.87,2.04 0.52,2.12 0.18,2.21 -0.17,2.18 -0.53,2.15 -0.86,2.01 -1.19,1.87 -1.46,1.63 -1.73,1.39 -1.90,1.07 -2.08,0.76 -2.15,0.41 -2.21,0.05 -2.17,-0.29 -2.12,-0.65 -1.96,-0.97 -1.80,-1.29 -1.54,-1.54 -1.29,-1.80 -0.97,-1.96 -0.65,-2.12 -0.29,-2.17 0.06,-2.21 0.41,-2.15 0.76,-2.08 1.07,-1.90 1.39,-1.73 1.63,-1.46 1.87,-1.19 2.01,-0.86 2.15,-0.53 2.18,-0.17 2.21,0.18 2.12,0.52 2.03,0.87 1.84,1.18 1.65,1.48 1.37,1.70 1.09,1.93 0.75,2.05 0.41,2.18 0.05,2.19 -0.30,2.20 -0.64,2.09 -0.98,1.98 -1.27,1.77 -1.57,1.56 -1.57,1.57 -1.57,1.57 -1.73,1.35 -1.90,1.14 -2.01,0.90 -2.12,0.66 -2.16,0.39 -2.21,0.13 -2.20,-0.13 -2.18,-0.40 -2.10,-0.65 -2.02,-0.91 -1.88,-1.14 -1.74,-1.36 -1.55,-1.55 -1.36,-1.74 -1.14,-1.88 -0.91,-2.02 -0.65,-2.10 -0.40,-2.18 -0.13,-2.20 0.13,-2.21 0.39,-2.16 0.66,-2.12 0.90,-2.01 1.14,-1.90 1.35,-1.73 1.57,-1.57 1.57,-1.57 L 1.57,-1.57 Z"></path></g><g transform="translate(81.61046405691559 52.37781267361879) rotate(0 3.2258064516129252 2.580645161290363)" stroke="none"><path fill="#868e96" d="M 1.35,-1.69 Q 1.35,-1.69 4.04,0.36 6.72,2.43 6.97,2.70 7.22,2.98 7.36,3.32 7.51,3.66 7.54,4.03 7.57,4.41 7.49,4.77 7.40,5.13 7.20,5.44 7.00,5.76 6.71,5.99 6.42,6.22 6.07,6.35 5.72,6.48 5.35,6.49 4.98,6.50 4.62,6.40 4.26,6.29 3.96,6.07 3.66,5.85 3.44,5.55 3.22,5.25 3.11,4.90 3.00,4.54 3.01,4.17 3.02,3.80 3.15,3.45 3.28,3.10 3.51,2.81 3.74,2.51 4.05,2.31 4.37,2.11 4.73,2.02 5.09,1.93 5.46,1.96 5.83,1.99 6.17,2.14 6.52,2.28 6.79,2.53 7.07,2.78 7.26,3.10 7.44,3.43 7.51,3.79 7.58,4.16 7.53,4.53 7.48,4.89 7.32,5.23 7.15,5.56 6.89,5.83 6.63,6.09 6.29,6.26 5.96,6.42 5.59,6.47 5.22,6.52 4.86,6.45 4.49,6.39 4.17,6.20 3.84,6.02 3.84,6.02 3.84,6.02 1.24,3.86 -1.35,1.69 -1.54,1.50 -1.72,1.32 -1.85,1.09 -1.98,0.87 -2.06,0.62 -2.14,0.36 -2.15,0.10 -2.16,-0.15 -2.11,-0.41 -2.06,-0.66 -1.95,-0.90 -1.84,-1.14 -1.68,-1.34 -1.52,-1.55 -1.31,-1.71 -1.10,-1.87 -0.86,-1.97 -0.62,-2.08 -0.36,-2.12 -0.10,-2.16 0.15,-2.15 0.41,-2.13 0.66,-2.05 0.91,-1.97 1.13,-1.83 1.35,-1.69 1.35,-1.69 L 1.35,-1.69 Z"></path></g><g transform="translate(66.12659308917364 39.47458686716732) rotate(0 3.5483870967741495 2.419354838709637)" stroke="none"><path fill="#868e96" d="M 1.26,-1.90 Q 1.26,-1.90 2.64,-0.95 4.02,-0.01 5.84,1.17 7.66,2.35 7.93,2.61 8.21,2.88 8.39,3.22 8.56,3.56 8.62,3.94 8.68,4.32 8.61,4.69 8.55,5.07 8.37,5.41 8.18,5.74 7.90,6.01 7.62,6.27 7.27,6.42 6.92,6.58 6.54,6.62 6.16,6.66 5.79,6.57 5.42,6.49 5.09,6.29 4.76,6.08 4.52,5.79 4.27,5.50 4.13,5.14 4.00,4.78 3.98,4.40 3.96,4.02 4.07,3.65 4.17,3.28 4.39,2.97 4.61,2.65 4.92,2.42 5.22,2.19 5.59,2.07 5.95,1.96 6.33,1.96 6.72,1.96 7.08,2.09 7.44,2.21 7.74,2.45 8.05,2.68 8.26,3.00 8.47,3.32 8.57,3.69 8.67,4.06 8.64,4.44 8.62,4.83 8.47,5.18 8.33,5.53 8.08,5.82 7.83,6.11 7.50,6.31 7.17,6.50 6.79,6.58 6.42,6.66 6.04,6.61 5.66,6.57 5.31,6.41 4.97,6.24 4.97,6.24 4.97,6.24 3.25,4.98 1.53,3.72 0.13,2.81 -1.26,1.90 -1.47,1.72 -1.68,1.54 -1.84,1.31 -2.00,1.09 -2.10,0.83 -2.20,0.58 -2.24,0.30 -2.28,0.03 -2.25,-0.23 -2.22,-0.51 -2.13,-0.77 -2.03,-1.02 -1.88,-1.25 -1.73,-1.48 -1.53,-1.67 -1.32,-1.85 -1.08,-1.99 -0.84,-2.12 -0.57,-2.19 -0.31,-2.26 -0.03,-2.26 0.23,-2.27 0.50,-2.21 0.77,-2.14 1.02,-2.02 1.26,-1.90 1.26,-1.90 L 1.26,-1.90 Z"></path></g><g transform="translate(34.35234954078669 65.92614977039307) rotate(0 0.00004999999998744897 0.00004999999998744897)" stroke="none"><path fill="#868e96" d="M 1.57,-1.57 Q 1.57,-1.57 1.77,-1.27 1.98,-0.98 2.09,-0.64 2.20,-0.29 2.19,0.05 2.18,0.41 2.05,0.75 1.93,1.09 1.70,1.37 1.48,1.65 1.18,1.84 0.87,2.04 0.52,2.12 0.18,2.21 -0.17,2.18 -0.53,2.15 -0.86,2.01 -1.19,1.87 -1.46,1.63 -1.73,1.39 -1.90,1.07 -2.08,0.76 -2.15,0.41 -2.21,0.05 -2.17,-0.29 -2.12,-0.65 -1.96,-0.97 -1.80,-1.29 -1.54,-1.54 -1.29,-1.80 -0.97,-1.96 -0.65,-2.12 -0.29,-2.17 0.06,-2.21 0.41,-2.15 0.76,-2.08 1.07,-1.90 1.39,-1.73 1.63,-1.46 1.87,-1.19 2.01,-0.86 2.15,-0.53 2.18,-0.17 2.21,0.18 2.12,0.52 2.03,0.87 1.84,1.18 1.65,1.48 1.37,1.70 1.09,1.93 0.75,2.05 0.41,2.18 0.05,2.19 -0.30,2.20 -0.64,2.09 -0.98,1.98 -1.27,1.77 -1.57,1.56 -1.57,1.57 -1.57,1.57 -1.73,1.35 -1.90,1.14 -2.01,0.90 -2.12,0.66 -2.16,0.39 -2.21,0.13 -2.20,-0.13 -2.18,-0.40 -2.10,-0.65 -2.02,-0.91 -1.88,-1.14 -1.74,-1.36 -1.55,-1.55 -1.36,-1.74 -1.14,-1.88 -0.91,-2.02 -0.65,-2.10 -0.40,-2.18 -0.13,-2.20 0.13,-2.21 0.39,-2.16 0.66,-2.12 0.90,-2.01 1.14,-1.90 1.35,-1.73 1.57,-1.57 1.57,-1.57 L 1.57,-1.57 Z"></path></g><g transform="translate(49.83622050852864 80.44227880265112) rotate(0 0.00004999999998744897 0.00004999999998744897)" stroke="none"><path fill="#868e96" d="M 1.57,-1.57 Q 1.57,-1.57 1.77,-1.27 1.98,-0.98 2.09,-0.64 2.20,-0.29 2.19,0.05 2.18,0.41 2.05,0.75 1.93,1.09 1.70,1.37 1.48,1.65 1.18,1.84 0.87,2.04 0.52,2.12 0.18,2.21 -0.17,2.18 -0.53,2.15 -0.86,2.01 -1.19,1.87 -1.46,1.63 -1.73,1.39 -1.90,1.07 -2.08,0.76 -2.15,0.41 -2.21,0.05 -2.17,-0.29 -2.12,-0.65 -1.96,-0.97 -1.80,-1.29 -1.54,-1.54 -1.29,-1.80 -0.97,-1.96 -0.65,-2.12 -0.29,-2.17 0.06,-2.21 0.41,-2.15 0.76,-2.08 1.07,-1.90 1.39,-1.73 1.63,-1.46 1.87,-1.19 2.01,-0.86 2.15,-0.53 2.18,-0.17 2.21,0.18 2.12,0.52 2.03,0.87 1.84,1.18 1.65,1.48 1.37,1.70 1.09,1.93 0.75,2.05 0.41,2.18 0.05,2.19 -0.30,2.20 -0.64,2.09 -0.98,1.98 -1.27,1.77 -1.57,1.56 -1.57,1.57 -1.57,1.57 -1.73,1.35 -1.90,1.14 -2.01,0.90 -2.12,0.66 -2.16,0.39 -2.21,0.13 -2.20,-0.13 -2.18,-0.40 -2.10,-0.65 -2.02,-0.91 -1.88,-1.14 -1.74,-1.36 -1.55,-1.55 -1.36,-1.74 -1.14,-1.88 -0.91,-2.02 -0.65,-2.10 -0.40,-2.18 -0.13,-2.20 0.13,-2.21 0.39,-2.16 0.66,-2.12 0.90,-2.01 1.14,-1.90 1.35,-1.73 1.57,-1.57 1.57,-1.57 L 1.57,-1.57 Z"></path></g><g transform="translate(64.99751083110914 93.6680852542645) rotate(0 0.00004999999998744897 0.00005000000010113581)" stroke="none"><path fill="#868e96" d="M 1.57,-1.57 Q 1.57,-1.57 1.77,-1.27 1.98,-0.98 2.09,-0.64 2.20,-0.29 2.19,0.05 2.18,0.41 2.05,0.75 1.93,1.09 1.70,1.37 1.48,1.65 1.18,1.84 0.87,2.04 0.52,2.12 0.18,2.21 -0.17,2.18 -0.53,2.15 -0.86,2.01 -1.19,1.87 -1.46,1.63 -1.73,1.39 -1.90,1.07 -2.08,0.76 -2.15,0.41 -2.21,0.05 -2.17,-0.29 -2.12,-0.65 -1.96,-0.97 -1.80,-1.29 -1.54,-1.54 -1.29,-1.80 -0.97,-1.96 -0.65,-2.12 -0.29,-2.17 0.06,-2.21 0.41,-2.15 0.76,-2.08 1.07,-1.90 1.39,-1.73 1.63,-1.46 1.87,-1.19 2.01,-0.86 2.15,-0.53 2.18,-0.17 2.21,0.18 2.12,0.52 2.03,0.87 1.84,1.18 1.65,1.48 1.37,1.70 1.09,1.93 0.75,2.05 0.41,2.18 0.05,2.19 -0.30,2.20 -0.64,2.09 -0.98,1.98 -1.27,1.77 -1.57,1.56 -1.57,1.57 -1.57,1.57 -1.73,1.35 -1.90,1.14 -2.01,0.90 -2.12,0.66 -2.16,0.39 -2.21,0.13 -2.20,-0.13 -2.18,-0.40 -2.10,-0.65 -2.02,-0.91 -1.88,-1.14 -1.74,-1.36 -1.55,-1.55 -1.36,-1.74 -1.14,-1.88 -0.91,-2.02 -0.65,-2.10 -0.40,-2.18 -0.13,-2.20 0.13,-2.21 0.39,-2.16 0.66,-2.12 0.90,-2.01 1.14,-1.90 1.35,-1.73 1.57,-1.57 1.57,-1.57 L 1.57,-1.57 Z"></path></g><g transform="translate(54.02976889562524 83.66808525426427) rotate(0 3.2258064516129252 2.580645161290363)" stroke="none"><path fill="#868e96" d="M 1.35,-1.69 Q 1.35,-1.69 4.04,0.36 6.72,2.43 6.97,2.70 7.22,2.98 7.36,3.32 7.51,3.66 7.54,4.03 7.57,4.41 7.49,4.77 7.40,5.13 7.20,5.44 7.00,5.76 6.71,5.99 6.42,6.22 6.07,6.35 5.72,6.48 5.35,6.49 4.98,6.50 4.62,6.40 4.26,6.29 3.96,6.07 3.66,5.85 3.44,5.55 3.22,5.25 3.11,4.90 3.00,4.54 3.01,4.17 3.02,3.80 3.15,3.45 3.28,3.10 3.51,2.81 3.74,2.51 4.05,2.31 4.37,2.11 4.73,2.02 5.09,1.93 5.46,1.96 5.83,1.99 6.17,2.14 6.52,2.28 6.79,2.53 7.07,2.78 7.26,3.10 7.44,3.43 7.51,3.79 7.58,4.16 7.53,4.53 7.48,4.89 7.32,5.23 7.15,5.56 6.89,5.83 6.63,6.09 6.29,6.26 5.96,6.42 5.59,6.47 5.22,6.52 4.86,6.45 4.49,6.39 4.17,6.20 3.84,6.02 3.84,6.02 3.84,6.02 1.24,3.86 -1.35,1.69 -1.54,1.50 -1.72,1.32 -1.85,1.09 -1.98,0.87 -2.06,0.62 -2.14,0.36 -2.15,0.10 -2.16,-0.15 -2.11,-0.41 -2.06,-0.66 -1.95,-0.90 -1.84,-1.14 -1.68,-1.34 -1.52,-1.55 -1.31,-1.71 -1.10,-1.87 -0.86,-1.97 -0.62,-2.08 -0.36,-2.12 -0.10,-2.16 0.15,-2.15 0.41,-2.13 0.66,-2.05 0.91,-1.97 1.13,-1.83 1.35,-1.69 1.35,-1.69 L 1.35,-1.69 Z"></path></g><g transform="translate(38.54589792788374 70.76485944781257) rotate(0 3.5483870967741495 2.419354838709637)" stroke="none"><path fill="#868e96" d="M 1.26,-1.90 Q 1.26,-1.90 2.64,-0.95 4.02,-0.01 5.84,1.17 7.66,2.35 7.93,2.61 8.21,2.88 8.39,3.22 8.56,3.56 8.62,3.94 8.68,4.32 8.61,4.69 8.55,5.07 8.37,5.41 8.18,5.74 7.90,6.01 7.62,6.27 7.27,6.42 6.92,6.58 6.54,6.62 6.16,6.66 5.79,6.57 5.42,6.49 5.09,6.29 4.76,6.08 4.52,5.79 4.27,5.50 4.13,5.14 4.00,4.78 3.98,4.40 3.96,4.02 4.07,3.65 4.17,3.28 4.39,2.97 4.61,2.65 4.92,2.42 5.22,2.19 5.59,2.07 5.95,1.96 6.33,1.96 6.72,1.96 7.08,2.09 7.44,2.21 7.74,2.45 8.05,2.68 8.26,3.00 8.47,3.32 8.57,3.69 8.67,4.06 8.64,4.44 8.62,4.83 8.47,5.18 8.33,5.53 8.08,5.82 7.83,6.11 7.50,6.31 7.17,6.50 6.79,6.58 6.42,6.66 6.04,6.61 5.66,6.57 5.31,6.41 4.97,6.24 4.97,6.24 4.97,6.24 3.25,4.98 1.53,3.72 0.13,2.81 -1.26,1.90 -1.47,1.72 -1.68,1.54 -1.84,1.31 -2.00,1.09 -2.10,0.83 -2.20,0.58 -2.24,0.30 -2.28,0.03 -2.25,-0.23 -2.22,-0.51 -2.13,-0.77 -2.03,-1.02 -1.88,-1.25 -1.73,-1.48 -1.53,-1.67 -1.32,-1.85 -1.08,-1.99 -0.84,-2.12 -0.57,-2.19 -0.31,-2.26 -0.03,-2.26 0.23,-2.27 0.50,-2.21 0.77,-2.14 1.02,-2.02 1.26,-1.90 1.26,-1.90 L 1.26,-1.90 Z"></path></g><g transform="translate(62.255575347238846 35.44227880265089) rotate(90.0000000000004 0.00004999999998744897 0.00004999999998744897)" stroke="none"><path fill="#868e96" d="M 1.57,-1.57 Q 1.57,-1.57 1.77,-1.27 1.98,-0.98 2.09,-0.64 2.20,-0.29 2.19,0.05 2.18,0.41 2.05,0.75 1.93,1.09 1.70,1.37 1.48,1.65 1.18,1.84 0.87,2.04 0.52,2.12 0.18,2.21 -0.17,2.18 -0.53,2.15 -0.86,2.01 -1.19,1.87 -1.46,1.63 -1.73,1.39 -1.90,1.07 -2.08,0.76 -2.15,0.41 -2.21,0.05 -2.17,-0.29 -2.12,-0.65 -1.96,-0.97 -1.80,-1.29 -1.54,-1.54 -1.29,-1.80 -0.97,-1.96 -0.65,-2.12 -0.29,-2.17 0.06,-2.21 0.41,-2.15 0.76,-2.08 1.07,-1.90 1.39,-1.73 1.63,-1.46 1.87,-1.19 2.01,-0.86 2.15,-0.53 2.18,-0.17 2.21,0.18 2.12,0.52 2.03,0.87 1.84,1.18 1.65,1.48 1.37,1.70 1.09,1.93 0.75,2.05 0.41,2.18 0.05,2.19 -0.30,2.20 -0.64,2.09 -0.98,1.98 -1.27,1.77 -1.57,1.56 -1.57,1.57 -1.57,1.57 -1.73,1.35 -1.90,1.14 -2.01,0.90 -2.12,0.66 -2.16,0.39 -2.21,0.13 -2.20,-0.13 -2.18,-0.40 -2.10,-0.65 -2.02,-0.91 -1.88,-1.14 -1.74,-1.36 -1.55,-1.55 -1.36,-1.74 -1.14,-1.88 -0.91,-2.02 -0.65,-2.10 -0.40,-2.18 -0.13,-2.20 0.13,-2.21 0.39,-2.16 0.66,-2.12 0.90,-2.01 1.14,-1.90 1.35,-1.73 1.57,-1.57 1.57,-1.57 L 1.57,-1.57 Z"></path></g><g transform="translate(47.73944631497966 50.926149770392385) rotate(90.0000000000004 0.00004999999998744897 0.00004999999998744897)" stroke="none"><path fill="#868e96" d="M 1.57,-1.57 Q 1.57,-1.57 1.77,-1.27 1.98,-0.98 2.09,-0.64 2.20,-0.29 2.19,0.05 2.18,0.41 2.05,0.75 1.93,1.09 1.70,1.37 1.48,1.65 1.18,1.84 0.87,2.04 0.52,2.12 0.18,2.21 -0.17,2.18 -0.53,2.15 -0.86,2.01 -1.19,1.87 -1.46,1.63 -1.73,1.39 -1.90,1.07 -2.08,0.76 -2.15,0.41 -2.21,0.05 -2.17,-0.29 -2.12,-0.65 -1.96,-0.97 -1.80,-1.29 -1.54,-1.54 -1.29,-1.80 -0.97,-1.96 -0.65,-2.12 -0.29,-2.17 0.06,-2.21 0.41,-2.15 0.76,-2.08 1.07,-1.90 1.39,-1.73 1.63,-1.46 1.87,-1.19 2.01,-0.86 2.15,-0.53 2.18,-0.17 2.21,0.18 2.12,0.52 2.03,0.87 1.84,1.18 1.65,1.48 1.37,1.70 1.09,1.93 0.75,2.05 0.41,2.18 0.05,2.19 -0.30,2.20 -0.64,2.09 -0.98,1.98 -1.27,1.77 -1.57,1.56 -1.57,1.57 -1.57,1.57 -1.73,1.35 -1.90,1.14 -2.01,0.90 -2.12,0.66 -2.16,0.39 -2.21,0.13 -2.20,-0.13 -2.18,-0.40 -2.10,-0.65 -2.02,-0.91 -1.88,-1.14 -1.74,-1.36 -1.55,-1.55 -1.36,-1.74 -1.14,-1.88 -0.91,-2.02 -0.65,-2.10 -0.40,-2.18 -0.13,-2.20 0.13,-2.21 0.39,-2.16 0.66,-2.12 0.90,-2.01 1.14,-1.90 1.35,-1.73 1.57,-1.57 1.57,-1.57 L 1.57,-1.57 Z"></path></g><g transform="translate(34.51363986336651 66.08744009297357) rotate(90.0000000000004 0.00004999999998744897 0.00004999999998744897)" stroke="none"><path fill="#868e96" d="M 1.57,-1.57 Q 1.57,-1.57 1.77,-1.27 1.98,-0.98 2.09,-0.64 2.20,-0.29 2.19,0.05 2.18,0.41 2.05,0.75 1.93,1.09 1.70,1.37 1.48,1.65 1.18,1.84 0.87,2.04 0.52,2.12 0.18,2.21 -0.17,2.18 -0.53,2.15 -0.86,2.01 -1.19,1.87 -1.46,1.63 -1.73,1.39 -1.90,1.07 -2.08,0.76 -2.15,0.41 -2.21,0.05 -2.17,-0.29 -2.12,-0.65 -1.96,-0.97 -1.80,-1.29 -1.54,-1.54 -1.29,-1.80 -0.97,-1.96 -0.65,-2.12 -0.29,-2.17 0.06,-2.21 0.41,-2.15 0.76,-2.08 1.07,-1.90 1.39,-1.73 1.63,-1.46 1.87,-1.19 2.01,-0.86 2.15,-0.53 2.18,-0.17 2.21,0.18 2.12,0.52 2.03,0.87 1.84,1.18 1.65,1.48 1.37,1.70 1.09,1.93 0.75,2.05 0.41,2.18 0.05,2.19 -0.30,2.20 -0.64,2.09 -0.98,1.98 -1.27,1.77 -1.57,1.56 -1.57,1.57 -1.57,1.57 -1.73,1.35 -1.90,1.14 -2.01,0.90 -2.12,0.66 -2.16,0.39 -2.21,0.13 -2.20,-0.13 -2.18,-0.40 -2.10,-0.65 -2.02,-0.91 -1.88,-1.14 -1.74,-1.36 -1.55,-1.55 -1.36,-1.74 -1.14,-1.88 -0.91,-2.02 -0.65,-2.10 -0.40,-2.18 -0.13,-2.20 0.13,-2.21 0.39,-2.16 0.66,-2.12 0.90,-2.01 1.14,-1.90 1.35,-1.73 1.57,-1.57 1.57,-1.57 L 1.57,-1.57 Z"></path></g><g transform="translate(38.707288250463534 55.76485944781257) rotate(90.0000000000004 3.2258064516129252 2.580645161290363)" stroke="none"><path fill="#868e96" d="M 1.35,-1.69 Q 1.35,-1.69 4.04,0.36 6.72,2.43 6.97,2.70 7.22,2.98 7.36,3.32 7.51,3.66 7.54,4.03 7.57,4.41 7.49,4.77 7.40,5.13 7.20,5.44 7.00,5.76 6.71,5.99 6.42,6.22 6.07,6.35 5.72,6.48 5.35,6.49 4.98,6.50 4.62,6.40 4.26,6.29 3.96,6.07 3.66,5.85 3.44,5.55 3.22,5.25 3.11,4.90 3.00,4.54 3.01,4.17 3.02,3.80 3.15,3.45 3.28,3.10 3.51,2.81 3.74,2.51 4.05,2.31 4.37,2.11 4.73,2.02 5.09,1.93 5.46,1.96 5.83,1.99 6.17,2.14 6.52,2.28 6.79,2.53 7.07,2.78 7.26,3.10 7.44,3.43 7.51,3.79 7.58,4.16 7.53,4.53 7.48,4.89 7.32,5.23 7.15,5.56 6.89,5.83 6.63,6.09 6.29,6.26 5.96,6.42 5.59,6.47 5.22,6.52 4.86,6.45 4.49,6.39 4.17,6.20 3.84,6.02 3.84,6.02 3.84,6.02 1.24,3.86 -1.35,1.69 -1.54,1.50 -1.72,1.32 -1.85,1.09 -1.98,0.87 -2.06,0.62 -2.14,0.36 -2.15,0.10 -2.16,-0.15 -2.11,-0.41 -2.06,-0.66 -1.95,-0.90 -1.84,-1.14 -1.68,-1.34 -1.52,-1.55 -1.31,-1.71 -1.10,-1.87 -0.86,-1.97 -0.62,-2.08 -0.36,-2.12 -0.10,-2.16 0.15,-2.15 0.41,-2.13 0.66,-2.05 0.91,-1.97 1.13,-1.83 1.35,-1.69 1.35,-1.69 L 1.35,-1.69 Z"></path></g><g transform="translate(51.44922373433451 40.76485944781234) rotate(90.0000000000004 3.5483870967741495 2.419354838709637)" stroke="none"><path fill="#868e96" d="M 1.26,-1.90 Q 1.26,-1.90 2.64,-0.95 4.02,-0.01 5.84,1.17 7.66,2.35 7.93,2.61 8.21,2.88 8.39,3.22 8.56,3.56 8.62,3.94 8.68,4.32 8.61,4.69 8.55,5.07 8.37,5.41 8.18,5.74 7.90,6.01 7.62,6.27 7.27,6.42 6.92,6.58 6.54,6.62 6.16,6.66 5.79,6.57 5.42,6.49 5.09,6.29 4.76,6.08 4.52,5.79 4.27,5.50 4.13,5.14 4.00,4.78 3.98,4.40 3.96,4.02 4.07,3.65 4.17,3.28 4.39,2.97 4.61,2.65 4.92,2.42 5.22,2.19 5.59,2.07 5.95,1.96 6.33,1.96 6.72,1.96 7.08,2.09 7.44,2.21 7.74,2.45 8.05,2.68 8.26,3.00 8.47,3.32 8.57,3.69 8.67,4.06 8.64,4.44 8.62,4.83 8.47,5.18 8.33,5.53 8.08,5.82 7.83,6.11 7.50,6.31 7.17,6.50 6.79,6.58 6.42,6.66 6.04,6.61 5.66,6.57 5.31,6.41 4.97,6.24 4.97,6.24 4.97,6.24 3.25,4.98 1.53,3.72 0.13,2.81 -1.26,1.90 -1.47,1.72 -1.68,1.54 -1.84,1.31 -2.00,1.09 -2.10,0.83 -2.20,0.58 -2.24,0.30 -2.28,0.03 -2.25,-0.23 -2.22,-0.51 -2.13,-0.77 -2.03,-1.02 -1.88,-1.25 -1.73,-1.48 -1.53,-1.67 -1.32,-1.85 -1.08,-1.99 -0.84,-2.12 -0.57,-2.19 -0.31,-2.26 -0.03,-2.26 0.23,-2.27 0.50,-2.21 0.77,-2.14 1.02,-2.02 1.26,-1.90 1.26,-1.90 L 1.26,-1.90 Z"></path></g><g transform="translate(92.90073663756107 62.539052996199416) rotate(90.0000000000004 0.00004999999998744897 0.00004999999998744897)" stroke="none"><path fill="#868e96" d="M 1.57,-1.57 Q 1.57,-1.57 1.77,-1.27 1.98,-0.98 2.09,-0.64 2.20,-0.29 2.19,0.05 2.18,0.41 2.05,0.75 1.93,1.09 1.70,1.37 1.48,1.65 1.18,1.84 0.87,2.04 0.52,2.12 0.18,2.21 -0.17,2.18 -0.53,2.15 -0.86,2.01 -1.19,1.87 -1.46,1.63 -1.73,1.39 -1.90,1.07 -2.08,0.76 -2.15,0.41 -2.21,0.05 -2.17,-0.29 -2.12,-0.65 -1.96,-0.97 -1.80,-1.29 -1.54,-1.54 -1.29,-1.80 -0.97,-1.96 -0.65,-2.12 -0.29,-2.17 0.06,-2.21 0.41,-2.15 0.76,-2.08 1.07,-1.90 1.39,-1.73 1.63,-1.46 1.87,-1.19 2.01,-0.86 2.15,-0.53 2.18,-0.17 2.21,0.18 2.12,0.52 2.03,0.87 1.84,1.18 1.65,1.48 1.37,1.70 1.09,1.93 0.75,2.05 0.41,2.18 0.05,2.19 -0.30,2.20 -0.64,2.09 -0.98,1.98 -1.27,1.77 -1.57,1.56 -1.57,1.57 -1.57,1.57 -1.73,1.35 -1.90,1.14 -2.01,0.90 -2.12,0.66 -2.16,0.39 -2.21,0.13 -2.20,-0.13 -2.18,-0.40 -2.10,-0.65 -2.02,-0.91 -1.88,-1.14 -1.74,-1.36 -1.55,-1.55 -1.36,-1.74 -1.14,-1.88 -0.91,-2.02 -0.65,-2.10 -0.40,-2.18 -0.13,-2.20 0.13,-2.21 0.39,-2.16 0.66,-2.12 0.90,-2.01 1.14,-1.90 1.35,-1.73 1.57,-1.57 1.57,-1.57 L 1.57,-1.57 Z"></path></g><g transform="translate(78.38460760530211 78.02292396394091) rotate(90.0000000000004 0.00004999999998744897 0.00004999999998744897)" stroke="none"><path fill="#868e96" d="M 1.57,-1.57 Q 1.57,-1.57 1.77,-1.27 1.98,-0.98 2.09,-0.64 2.20,-0.29 2.19,0.05 2.18,0.41 2.05,0.75 1.93,1.09 1.70,1.37 1.48,1.65 1.18,1.84 0.87,2.04 0.52,2.12 0.18,2.21 -0.17,2.18 -0.53,2.15 -0.86,2.01 -1.19,1.87 -1.46,1.63 -1.73,1.39 -1.90,1.07 -2.08,0.76 -2.15,0.41 -2.21,0.05 -2.17,-0.29 -2.12,-0.65 -1.96,-0.97 -1.80,-1.29 -1.54,-1.54 -1.29,-1.80 -0.97,-1.96 -0.65,-2.12 -0.29,-2.17 0.06,-2.21 0.41,-2.15 0.76,-2.08 1.07,-1.90 1.39,-1.73 1.63,-1.46 1.87,-1.19 2.01,-0.86 2.15,-0.53 2.18,-0.17 2.21,0.18 2.12,0.52 2.03,0.87 1.84,1.18 1.65,1.48 1.37,1.70 1.09,1.93 0.75,2.05 0.41,2.18 0.05,2.19 -0.30,2.20 -0.64,2.09 -0.98,1.98 -1.27,1.77 -1.57,1.56 -1.57,1.57 -1.57,1.57 -1.73,1.35 -1.90,1.14 -2.01,0.90 -2.12,0.66 -2.16,0.39 -2.21,0.13 -2.20,-0.13 -2.18,-0.40 -2.10,-0.65 -2.02,-0.91 -1.88,-1.14 -1.74,-1.36 -1.55,-1.55 -1.36,-1.74 -1.14,-1.88 -0.91,-2.02 -0.65,-2.10 -0.40,-2.18 -0.13,-2.20 0.13,-2.21 0.39,-2.16 0.66,-2.12 0.90,-2.01 1.14,-1.90 1.35,-1.73 1.57,-1.57 1.57,-1.57 L 1.57,-1.57 Z"></path></g><g transform="translate(65.15880115368896 93.18421428652164) rotate(90.0000000000004 0.00004999999998744897 0.00005000000010113581)" stroke="none"><path fill="#868e96" d="M 1.57,-1.57 Q 1.57,-1.57 1.77,-1.27 1.98,-0.98 2.09,-0.64 2.20,-0.29 2.19,0.05 2.18,0.41 2.05,0.75 1.93,1.09 1.70,1.37 1.48,1.65 1.18,1.84 0.87,2.04 0.52,2.12 0.18,2.21 -0.17,2.18 -0.53,2.15 -0.86,2.01 -1.19,1.87 -1.46,1.63 -1.73,1.39 -1.90,1.07 -2.08,0.76 -2.15,0.41 -2.21,0.05 -2.17,-0.29 -2.12,-0.65 -1.96,-0.97 -1.80,-1.29 -1.54,-1.54 -1.29,-1.80 -0.97,-1.96 -0.65,-2.12 -0.29,-2.17 0.06,-2.21 0.41,-2.15 0.76,-2.08 1.07,-1.90 1.39,-1.73 1.63,-1.46 1.87,-1.19 2.01,-0.86 2.15,-0.53 2.18,-0.17 2.21,0.18 2.12,0.52 2.03,0.87 1.84,1.18 1.65,1.48 1.37,1.70 1.09,1.93 0.75,2.05 0.41,2.18 0.05,2.19 -0.30,2.20 -0.64,2.09 -0.98,1.98 -1.27,1.77 -1.57,1.56 -1.57,1.57 -1.57,1.57 -1.73,1.35 -1.90,1.14 -2.01,0.90 -2.12,0.66 -2.16,0.39 -2.21,0.13 -2.20,-0.13 -2.18,-0.40 -2.10,-0.65 -2.02,-0.91 -1.88,-1.14 -1.74,-1.36 -1.55,-1.55 -1.36,-1.74 -1.14,-1.88 -0.91,-2.02 -0.65,-2.10 -0.40,-2.18 -0.13,-2.20 0.13,-2.21 0.39,-2.16 0.66,-2.12 0.90,-2.01 1.14,-1.90 1.35,-1.73 1.57,-1.57 1.57,-1.57 L 1.57,-1.57 Z"></path></g><g transform="translate(69.35244954078576 82.86163364136087) rotate(90.0000000000004 3.2258064516129252 2.580645161290363)" stroke="none"><path fill="#868e96" d="M 1.35,-1.69 Q 1.35,-1.69 4.04,0.36 6.72,2.43 6.97,2.70 7.22,2.98 7.36,3.32 7.51,3.66 7.54,4.03 7.57,4.41 7.49,4.77 7.40,5.13 7.20,5.44 7.00,5.76 6.71,5.99 6.42,6.22 6.07,6.35 5.72,6.48 5.35,6.49 4.98,6.50 4.62,6.40 4.26,6.29 3.96,6.07 3.66,5.85 3.44,5.55 3.22,5.25 3.11,4.90 3.00,4.54 3.01,4.17 3.02,3.80 3.15,3.45 3.28,3.10 3.51,2.81 3.74,2.51 4.05,2.31 4.37,2.11 4.73,2.02 5.09,1.93 5.46,1.96 5.83,1.99 6.17,2.14 6.52,2.28 6.79,2.53 7.07,2.78 7.26,3.10 7.44,3.43 7.51,3.79 7.58,4.16 7.53,4.53 7.48,4.89 7.32,5.23 7.15,5.56 6.89,5.83 6.63,6.09 6.29,6.26 5.96,6.42 5.59,6.47 5.22,6.52 4.86,6.45 4.49,6.39 4.17,6.20 3.84,6.02 3.84,6.02 3.84,6.02 1.24,3.86 -1.35,1.69 -1.54,1.50 -1.72,1.32 -1.85,1.09 -1.98,0.87 -2.06,0.62 -2.14,0.36 -2.15,0.10 -2.16,-0.15 -2.11,-0.41 -2.06,-0.66 -1.95,-0.90 -1.84,-1.14 -1.68,-1.34 -1.52,-1.55 -1.31,-1.71 -1.10,-1.87 -0.86,-1.97 -0.62,-2.08 -0.36,-2.12 -0.10,-2.16 0.15,-2.15 0.41,-2.13 0.66,-2.05 0.91,-1.97 1.13,-1.83 1.35,-1.69 1.35,-1.69 L 1.35,-1.69 Z"></path></g><g transform="translate(82.09438502465696 67.86163364136087) rotate(90.0000000000004 3.5483870967741495 2.419354838709637)" stroke="none"><path fill="#868e96" d="M 1.26,-1.90 Q 1.26,-1.90 2.64,-0.95 4.02,-0.01 5.84,1.17 7.66,2.35 7.93,2.61 8.21,2.88 8.39,3.22 8.56,3.56 8.62,3.94 8.68,4.32 8.61,4.69 8.55,5.07 8.37,5.41 8.18,5.74 7.90,6.01 7.62,6.27 7.27,6.42 6.92,6.58 6.54,6.62 6.16,6.66 5.79,6.57 5.42,6.49 5.09,6.29 4.76,6.08 4.52,5.79 4.27,5.50 4.13,5.14 4.00,4.78 3.98,4.40 3.96,4.02 4.07,3.65 4.17,3.28 4.39,2.97 4.61,2.65 4.92,2.42 5.22,2.19 5.59,2.07 5.95,1.96 6.33,1.96 6.72,1.96 7.08,2.09 7.44,2.21 7.74,2.45 8.05,2.68 8.26,3.00 8.47,3.32 8.57,3.69 8.67,4.06 8.64,4.44 8.62,4.83 8.47,5.18 8.33,5.53 8.08,5.82 7.83,6.11 7.50,6.31 7.17,6.50 6.79,6.58 6.42,6.66 6.04,6.61 5.66,6.57 5.31,6.41 4.97,6.24 4.97,6.24 4.97,6.24 3.25,4.98 1.53,3.72 0.13,2.81 -1.26,1.90 -1.47,1.72 -1.68,1.54 -1.84,1.31 -2.00,1.09 -2.10,0.83 -2.20,0.58 -2.24,0.30 -2.28,0.03 -2.25,-0.23 -2.22,-0.51 -2.13,-0.77 -2.03,-1.02 -1.88,-1.25 -1.73,-1.48 -1.53,-1.67 -1.32,-1.85 -1.08,-1.99 -0.84,-2.12 -0.57,-2.19 -0.31,-2.26 -0.03,-2.26 0.23,-2.27 0.50,-2.21 0.77,-2.14 1.02,-2.02 1.26,-1.90 1.26,-1.90 L 1.26,-1.90 Z"></path></g><g transform="translate(52.255625347238265 54.95845783490927) rotate(0 10.9677419354839 9.677419354838662)" stroke="none"><path fill="#868e96" d="M 1.17,-1.52 Q 1.17,-1.52 3.53,0.39 5.89,2.31 8.48,4.56 11.07,6.81 14.32,9.93 17.56,13.06 19.87,15.10 22.17,17.13 22.34,17.36 22.51,17.59 22.61,17.86 22.70,18.13 22.70,18.42 22.70,18.71 22.60,18.98 22.51,19.25 22.34,19.48 22.16,19.70 21.93,19.86 21.69,20.02 21.41,20.10 21.14,20.18 20.85,20.16 20.56,20.14 20.30,20.04 20.03,19.93 19.82,19.75 19.60,19.56 19.45,19.31 19.30,19.07 19.24,18.79 19.18,18.51 19.21,18.22 19.24,17.94 19.37,17.68 19.49,17.42 19.68,17.21 19.88,17.00 20.13,16.87 20.39,16.74 20.67,16.69 20.95,16.65 21.24,16.69 21.52,16.74 21.77,16.87 22.02,17.01 22.22,17.22 22.42,17.43 22.54,17.69 22.66,17.95 22.69,18.23 22.72,18.52 22.65,18.80 22.59,19.08 22.44,19.32 22.30,19.57 22.08,19.75 21.86,19.94 21.59,20.04 21.33,20.15 21.04,20.16 20.75,20.18 20.48,20.10 20.20,20.02 19.97,19.86 19.73,19.70 19.73,19.70 19.73,19.70 17.58,17.50 15.43,15.31 12.20,12.31 8.97,9.32 6.36,7.21 3.75,5.10 1.29,3.31 -1.17,1.52 -1.33,1.35 -1.50,1.19 -1.62,1.00 -1.74,0.80 -1.81,0.58 -1.88,0.36 -1.90,0.13 -1.91,-0.09 -1.87,-0.32 -1.83,-0.55 -1.74,-0.76 -1.65,-0.97 -1.51,-1.16 -1.36,-1.34 -1.18,-1.48 -1.00,-1.63 -0.79,-1.73 -0.58,-1.82 -0.35,-1.87 -0.13,-1.91 0.09,-1.90 0.32,-1.89 0.55,-1.82 0.77,-1.75 0.97,-1.63 1.17,-1.52 1.17,-1.52 L 1.17,-1.52 Z"></path></g><g transform="translate(99.35239954078656 62.05523202845757) rotate(0 6.290322580645125 0)" stroke="none"><path fill="#868e96" d="M 0,-2.33 Q 0,-2.33 2.22,-2.20 4.45,-2.06 6.30,-2.20 8.15,-2.34 9.96,-2.39 11.78,-2.44 12.17,-2.38 12.56,-2.32 12.91,-2.13 13.26,-1.94 13.53,-1.66 13.80,-1.37 13.97,-1.01 14.14,-0.65 14.18,-0.26 14.22,0.13 14.14,0.51 14.05,0.90 13.85,1.24 13.64,1.58 13.34,1.84 13.04,2.09 12.67,2.24 12.30,2.39 11.91,2.41 11.51,2.43 11.13,2.32 10.75,2.22 10.42,2.00 10.09,1.77 9.85,1.46 9.61,1.14 9.49,0.77 9.36,0.39 9.36,-0.00 9.36,-0.39 9.49,-0.77 9.61,-1.14 9.85,-1.46 10.09,-1.77 10.42,-2.00 10.75,-2.22 11.13,-2.32 11.51,-2.43 11.91,-2.41 12.30,-2.39 12.67,-2.24 13.04,-2.09 13.34,-1.84 13.64,-1.58 13.85,-1.24 14.05,-0.90 14.14,-0.51 14.22,-0.13 14.18,0.26 14.14,0.65 13.97,1.01 13.80,1.37 13.53,1.66 13.26,1.94 12.91,2.13 12.56,2.32 12.17,2.38 11.78,2.44 11.78,2.44 11.78,2.44 9.96,2.39 8.15,2.34 6.30,2.20 4.45,2.06 2.22,2.20 0,2.33 -0.27,2.30 -0.55,2.26 -0.82,2.16 -1.08,2.06 -1.31,1.90 -1.54,1.74 -1.73,1.53 -1.92,1.32 -2.05,1.07 -2.18,0.82 -2.25,0.55 -2.31,0.28 -2.31,-0.00 -2.31,-0.28 -2.25,-0.55 -2.18,-0.82 -2.05,-1.07 -1.92,-1.32 -1.73,-1.53 -1.54,-1.74 -1.31,-1.90 -1.08,-2.06 -0.82,-2.16 -0.55,-2.26 -0.27,-2.30 0.00,-2.33 0.00,-2.33 L 0,-2.33 Z"></path></g><g transform="translate(61.51515613902711 28.63880974106769) rotate(0 -0.322580645161338 -5.645161290322676)" stroke="none"><path fill="#e03131" d="M -2.14,0.12 Q -2.14,0.12 -2.44,-4.50 -2.74,-9.12 -2.70,-9.48 -2.66,-9.83 -2.51,-10.16 -2.36,-10.49 -2.12,-10.75 -1.87,-11.01 -1.55,-11.18 -1.24,-11.35 -0.88,-11.41 -0.53,-11.46 -0.18,-11.41 0.17,-11.35 0.49,-11.18 0.80,-11.02 1.05,-10.76 1.30,-10.50 1.45,-10.17 1.60,-9.85 1.64,-9.49 1.68,-9.13 1.61,-8.78 1.53,-8.43 1.35,-8.12 1.16,-7.81 0.89,-7.58 0.62,-7.35 0.28,-7.21 -0.04,-7.08 -0.40,-7.06 -0.76,-7.04 -1.10,-7.13 -1.45,-7.23 -1.75,-7.43 -2.05,-7.63 -2.26,-7.92 -2.48,-8.20 -2.60,-8.54 -2.71,-8.88 -2.71,-9.24 -2.71,-9.60 -2.60,-9.94 -2.49,-10.28 -2.27,-10.57 -2.05,-10.85 -1.76,-11.05 -1.46,-11.26 -1.12,-11.35 -0.77,-11.45 -0.41,-11.43 -0.05,-11.41 0.27,-11.28 0.61,-11.15 0.88,-10.92 1.15,-10.69 1.34,-10.38 1.53,-10.07 1.60,-9.72 1.68,-9.37 1.68,-9.37 1.68,-9.37 1.91,-4.74 2.14,-0.12 2.12,0.13 2.10,0.39 2.02,0.63 1.95,0.88 1.81,1.10 1.68,1.32 1.49,1.50 1.31,1.69 1.09,1.82 0.87,1.95 0.62,2.03 0.37,2.10 0.12,2.12 -0.13,2.13 -0.39,2.09 -0.64,2.04 -0.87,1.93 -1.11,1.83 -1.31,1.67 -1.52,1.51 -1.67,1.30 -1.83,1.10 -1.94,0.86 -2.04,0.63 -2.09,0.37 -2.14,0.12 -2.14,0.12 L -2.14,0.12 Z"></path></g><g transform="translate(28.06207696014144 64.63587718974782) rotate(0 -8.709677419354875 0)" stroke="none"><path fill="#868e96" d="M 0,2.07 Q 0,2.07 -4.54,1.97 -9.08,1.87 -12.50,1.95 -15.91,2.04 -16.24,1.99 -16.56,1.93 -16.86,1.78 -17.15,1.62 -17.38,1.38 -17.60,1.14 -17.74,0.84 -17.88,0.54 -17.92,0.21 -17.95,-0.11 -17.88,-0.43 -17.81,-0.75 -17.64,-1.04 -17.47,-1.32 -17.22,-1.53 -16.96,-1.75 -16.66,-1.87 -16.35,-1.99 -16.02,-2.01 -15.69,-2.03 -15.37,-1.94 -15.05,-1.85 -14.78,-1.67 -14.50,-1.48 -14.30,-1.22 -14.10,-0.95 -14.00,-0.64 -13.89,-0.33 -13.89,0.00 -13.89,0.33 -14.00,0.64 -14.10,0.95 -14.30,1.22 -14.50,1.48 -14.78,1.67 -15.05,1.85 -15.37,1.94 -15.69,2.03 -16.02,2.01 -16.35,1.99 -16.66,1.87 -16.96,1.75 -17.22,1.53 -17.47,1.32 -17.64,1.04 -17.81,0.75 -17.88,0.43 -17.95,0.11 -17.92,-0.21 -17.88,-0.54 -17.74,-0.84 -17.60,-1.14 -17.38,-1.38 -17.15,-1.62 -16.85,-1.78 -16.56,-1.93 -16.24,-1.99 -15.91,-2.04 -15.91,-2.04 -15.91,-2.04 -12.50,-1.95 -9.08,-1.87 -4.54,-1.97 0,-2.07 0.24,-2.04 0.49,-2.01 0.73,-1.92 0.96,-1.83 1.17,-1.69 1.37,-1.55 1.54,-1.36 1.70,-1.17 1.82,-0.95 1.94,-0.73 2.00,-0.49 2.06,-0.25 2.06,0.00 2.06,0.25 2.00,0.49 1.94,0.73 1.82,0.95 1.70,1.17 1.54,1.36 1.37,1.55 1.17,1.69 0.96,1.83 0.73,1.92 0.49,2.01 0.24,2.04 -0.00,2.07 -0.00,2.07 L 0,2.07 Z"></path></g><g transform="translate(64.51368986336729 99.1520062220061) rotate(0 0.8064516129031745 8.225806451612925)" stroke="none"><path fill="#868e96" d="M 2.06,-0.14 Q 2.06,-0.14 2.24,3.85 2.42,7.84 2.93,11.25 3.45,14.66 3.43,14.99 3.42,15.32 3.30,15.63 3.18,15.94 2.97,16.20 2.76,16.45 2.48,16.63 2.20,16.80 1.88,16.88 1.56,16.95 1.23,16.92 0.90,16.89 0.60,16.76 0.30,16.63 0.05,16.40 -0.18,16.18 -0.34,15.89 -0.50,15.60 -0.56,15.27 -0.62,14.95 -0.57,14.62 -0.52,14.29 -0.37,14.00 -0.22,13.70 0.01,13.47 0.24,13.24 0.54,13.10 0.84,12.95 1.17,12.91 1.50,12.87 1.82,12.94 2.14,13.01 2.43,13.17 2.72,13.34 2.93,13.59 3.15,13.83 3.28,14.14 3.41,14.45 3.43,14.78 3.45,15.11 3.37,15.43 3.29,15.75 3.10,16.02 2.92,16.30 2.66,16.50 2.40,16.71 2.09,16.82 1.78,16.93 1.45,16.93 1.12,16.94 0.80,16.84 0.49,16.74 0.22,16.54 -0.04,16.34 -0.22,16.07 -0.41,15.80 -0.51,15.49 -0.60,15.17 -0.60,15.17 -0.60,15.17 -0.95,11.63 -1.31,8.10 -1.69,4.12 -2.06,0.14 -2.05,-0.10 -2.04,-0.35 -1.97,-0.59 -1.89,-0.83 -1.77,-1.04 -1.64,-1.26 -1.46,-1.44 -1.29,-1.62 -1.08,-1.75 -0.86,-1.88 -0.63,-1.96 -0.39,-2.03 -0.14,-2.05 0.10,-2.07 0.35,-2.02 0.59,-1.98 0.82,-1.88 1.05,-1.78 1.25,-1.63 1.45,-1.48 1.60,-1.28 1.76,-1.08 1.87,-0.86 1.97,-0.63 2.02,-0.38 2.06,-0.14 2.06,-0.14 L 2.06,-0.14 Z"></path></g><g transform="translate(160.9017595307921 45.66715542522002) rotate(0 0.00004999999998744897 0.00004999999998744897)" stroke="none"><path fill="#868e96" d="M 1.57,-1.57 Q 1.57,-1.57 1.77,-1.27 1.98,-0.98 2.09,-0.64 2.20,-0.29 2.19,0.05 2.18,0.41 2.05,0.75 1.93,1.09 1.70,1.37 1.48,1.65 1.18,1.84 0.87,2.04 0.52,2.12 0.18,2.21 -0.17,2.18 -0.53,2.15 -0.86,2.01 -1.19,1.87 -1.46,1.63 -1.73,1.39 -1.90,1.07 -2.08,0.76 -2.15,0.41 -2.21,0.05 -2.17,-0.29 -2.12,-0.65 -1.96,-0.97 -1.80,-1.29 -1.54,-1.54 -1.29,-1.80 -0.97,-1.96 -0.65,-2.12 -0.29,-2.17 0.06,-2.21 0.41,-2.15 0.76,-2.08 1.07,-1.90 1.39,-1.73 1.63,-1.46 1.87,-1.19 2.01,-0.86 2.15,-0.53 2.18,-0.17 2.21,0.18 2.12,0.52 2.03,0.87 1.84,1.18 1.65,1.48 1.37,1.70 1.09,1.93 0.75,2.05 0.41,2.18 0.05,2.19 -0.30,2.20 -0.64,2.09 -0.98,1.98 -1.27,1.77 -1.57,1.56 -1.57,1.57 -1.57,1.57 -1.73,1.35 -1.90,1.14 -2.01,0.90 -2.12,0.66 -2.16,0.39 -2.21,0.13 -2.20,-0.13 -2.18,-0.40 -2.10,-0.65 -2.02,-0.91 -1.88,-1.14 -1.74,-1.36 -1.55,-1.55 -1.36,-1.74 -1.14,-1.88 -0.91,-2.02 -0.65,-2.10 -0.40,-2.18 -0.13,-2.20 0.13,-2.21 0.39,-2.16 0.66,-2.12 0.90,-2.01 1.14,-1.90 1.35,-1.73 1.57,-1.57 1.57,-1.57 L 1.57,-1.57 Z"></path></g><g transform="translate(176.0630498533726 58.892961876832715) rotate(0 0.00004999999998744897 0.00004999999998744897)" stroke="none"><path fill="#868e96" d="M 1.57,-1.57 Q 1.57,-1.57 1.77,-1.27 1.98,-0.98 2.09,-0.64 2.20,-0.29 2.19,0.05 2.18,0.41 2.05,0.75 1.93,1.09 1.70,1.37 1.48,1.65 1.18,1.84 0.87,2.04 0.52,2.12 0.18,2.21 -0.17,2.18 -0.53,2.15 -0.86,2.01 -1.19,1.87 -1.46,1.63 -1.73,1.39 -1.90,1.07 -2.08,0.76 -2.15,0.41 -2.21,0.05 -2.17,-0.29 -2.12,-0.65 -1.96,-0.97 -1.80,-1.29 -1.54,-1.54 -1.29,-1.80 -0.97,-1.96 -0.65,-2.12 -0.29,-2.17 0.06,-2.21 0.41,-2.15 0.76,-2.08 1.07,-1.90 1.39,-1.73 1.63,-1.46 1.87,-1.19 2.01,-0.86 2.15,-0.53 2.18,-0.17 2.21,0.18 2.12,0.52 2.03,0.87 1.84,1.18 1.65,1.48 1.37,1.70 1.09,1.93 0.75,2.05 0.41,2.18 0.05,2.19 -0.30,2.20 -0.64,2.09 -0.98,1.98 -1.27,1.77 -1.57,1.56 -1.57,1.57 -1.57,1.57 -1.73,1.35 -1.90,1.14 -2.01,0.90 -2.12,0.66 -2.16,0.39 -2.21,0.13 -2.20,-0.13 -2.18,-0.40 -2.10,-0.65 -2.02,-0.91 -1.88,-1.14 -1.74,-1.36 -1.55,-1.55 -1.36,-1.74 -1.14,-1.88 -0.91,-2.02 -0.65,-2.10 -0.40,-2.18 -0.13,-2.20 0.13,-2.21 0.39,-2.16 0.66,-2.12 0.90,-2.01 1.14,-1.90 1.35,-1.73 1.57,-1.57 1.57,-1.57 L 1.57,-1.57 Z"></path></g><g transform="translate(165.0953079178887 48.892961876832715) rotate(0 3.2258064516129252 2.580645161290363)" stroke="none"><path fill="#868e96" d="M 1.35,-1.69 Q 1.35,-1.69 4.04,0.36 6.72,2.43 6.97,2.70 7.22,2.98 7.36,3.32 7.51,3.66 7.54,4.03 7.57,4.41 7.49,4.77 7.40,5.13 7.20,5.44 7.00,5.76 6.71,5.99 6.42,6.22 6.07,6.35 5.72,6.48 5.35,6.49 4.98,6.50 4.62,6.40 4.26,6.29 3.96,6.07 3.66,5.85 3.44,5.55 3.22,5.25 3.11,4.90 3.00,4.54 3.01,4.17 3.02,3.80 3.15,3.45 3.28,3.10 3.51,2.81 3.74,2.51 4.05,2.31 4.37,2.11 4.73,2.02 5.09,1.93 5.46,1.96 5.83,1.99 6.17,2.14 6.52,2.28 6.79,2.53 7.07,2.78 7.26,3.10 7.44,3.43 7.51,3.79 7.58,4.16 7.53,4.53 7.48,4.89 7.32,5.23 7.15,5.56 6.89,5.83 6.63,6.09 6.29,6.26 5.96,6.42 5.59,6.47 5.22,6.52 4.86,6.45 4.49,6.39 4.17,6.20 3.84,6.02 3.84,6.02 3.84,6.02 1.24,3.86 -1.35,1.69 -1.54,1.50 -1.72,1.32 -1.85,1.09 -1.98,0.87 -2.06,0.62 -2.14,0.36 -2.15,0.10 -2.16,-0.15 -2.11,-0.41 -2.06,-0.66 -1.95,-0.90 -1.84,-1.14 -1.68,-1.34 -1.52,-1.55 -1.31,-1.71 -1.10,-1.87 -0.86,-1.97 -0.62,-2.08 -0.36,-2.12 -0.10,-2.16 0.15,-2.15 0.41,-2.13 0.66,-2.05 0.91,-1.97 1.13,-1.83 1.35,-1.69 1.35,-1.69 L 1.35,-1.69 Z"></path></g><g transform="translate(149.61143695014675 35.989736070381014) rotate(0 3.5483870967741495 2.419354838709637)" stroke="none"><path fill="#868e96" d="M 1.26,-1.90 Q 1.26,-1.90 2.64,-0.95 4.02,-0.01 5.84,1.17 7.66,2.35 7.93,2.61 8.21,2.88 8.39,3.22 8.56,3.56 8.62,3.94 8.68,4.32 8.61,4.69 8.55,5.07 8.37,5.41 8.18,5.74 7.90,6.01 7.62,6.27 7.27,6.42 6.92,6.58 6.54,6.62 6.16,6.66 5.79,6.57 5.42,6.49 5.09,6.29 4.76,6.08 4.52,5.79 4.27,5.50 4.13,5.14 4.00,4.78 3.98,4.40 3.96,4.02 4.07,3.65 4.17,3.28 4.39,2.97 4.61,2.65 4.92,2.42 5.22,2.19 5.59,2.07 5.95,1.96 6.33,1.96 6.72,1.96 7.08,2.09 7.44,2.21 7.74,2.45 8.05,2.68 8.26,3.00 8.47,3.32 8.57,3.69 8.67,4.06 8.64,4.44 8.62,4.83 8.47,5.18 8.33,5.53 8.08,5.82 7.83,6.11 7.50,6.31 7.17,6.50 6.79,6.58 6.42,6.66 6.04,6.61 5.66,6.57 5.31,6.41 4.97,6.24 4.97,6.24 4.97,6.24 3.25,4.98 1.53,3.72 0.13,2.81 -1.26,1.90 -1.47,1.72 -1.68,1.54 -1.84,1.31 -2.00,1.09 -2.10,0.83 -2.20,0.58 -2.24,0.30 -2.28,0.03 -2.25,-0.23 -2.22,-0.51 -2.13,-0.77 -2.03,-1.02 -1.88,-1.25 -1.73,-1.48 -1.53,-1.67 -1.32,-1.85 -1.08,-1.99 -0.84,-2.12 -0.57,-2.19 -0.31,-2.26 -0.03,-2.26 0.23,-2.27 0.50,-2.21 0.77,-2.14 1.02,-2.02 1.26,-1.90 1.26,-1.90 L 1.26,-1.90 Z"></path></g><g transform="translate(117.8371934017598 62.44129897360676) rotate(0 0.00004999999998744897 0.00004999999998744897)" stroke="none"><path fill="#868e96" d="M 1.57,-1.57 Q 1.57,-1.57 1.77,-1.27 1.98,-0.98 2.09,-0.64 2.20,-0.29 2.19,0.05 2.18,0.41 2.05,0.75 1.93,1.09 1.70,1.37 1.48,1.65 1.18,1.84 0.87,2.04 0.52,2.12 0.18,2.21 -0.17,2.18 -0.53,2.15 -0.86,2.01 -1.19,1.87 -1.46,1.63 -1.73,1.39 -1.90,1.07 -2.08,0.76 -2.15,0.41 -2.21,0.05 -2.17,-0.29 -2.12,-0.65 -1.96,-0.97 -1.80,-1.29 -1.54,-1.54 -1.29,-1.80 -0.97,-1.96 -0.65,-2.12 -0.29,-2.17 0.06,-2.21 0.41,-2.15 0.76,-2.08 1.07,-1.90 1.39,-1.73 1.63,-1.46 1.87,-1.19 2.01,-0.86 2.15,-0.53 2.18,-0.17 2.21,0.18 2.12,0.52 2.03,0.87 1.84,1.18 1.65,1.48 1.37,1.70 1.09,1.93 0.75,2.05 0.41,2.18 0.05,2.19 -0.30,2.20 -0.64,2.09 -0.98,1.98 -1.27,1.77 -1.57,1.56 -1.57,1.57 -1.57,1.57 -1.73,1.35 -1.90,1.14 -2.01,0.90 -2.12,0.66 -2.16,0.39 -2.21,0.13 -2.20,-0.13 -2.18,-0.40 -2.10,-0.65 -2.02,-0.91 -1.88,-1.14 -1.74,-1.36 -1.55,-1.55 -1.36,-1.74 -1.14,-1.88 -0.91,-2.02 -0.65,-2.10 -0.40,-2.18 -0.13,-2.20 0.13,-2.21 0.39,-2.16 0.66,-2.12 0.90,-2.01 1.14,-1.90 1.35,-1.73 1.57,-1.57 1.57,-1.57 L 1.57,-1.57 Z"></path></g><g transform="translate(133.32106436950176 76.95742800586527) rotate(0 0.00004999999998744897 0.00004999999998744897)" stroke="none"><path fill="#868e96" d="M 1.57,-1.57 Q 1.57,-1.57 1.77,-1.27 1.98,-0.98 2.09,-0.64 2.20,-0.29 2.19,0.05 2.18,0.41 2.05,0.75 1.93,1.09 1.70,1.37 1.48,1.65 1.18,1.84 0.87,2.04 0.52,2.12 0.18,2.21 -0.17,2.18 -0.53,2.15 -0.86,2.01 -1.19,1.87 -1.46,1.63 -1.73,1.39 -1.90,1.07 -2.08,0.76 -2.15,0.41 -2.21,0.05 -2.17,-0.29 -2.12,-0.65 -1.96,-0.97 -1.80,-1.29 -1.54,-1.54 -1.29,-1.80 -0.97,-1.96 -0.65,-2.12 -0.29,-2.17 0.06,-2.21 0.41,-2.15 0.76,-2.08 1.07,-1.90 1.39,-1.73 1.63,-1.46 1.87,-1.19 2.01,-0.86 2.15,-0.53 2.18,-0.17 2.21,0.18 2.12,0.52 2.03,0.87 1.84,1.18 1.65,1.48 1.37,1.70 1.09,1.93 0.75,2.05 0.41,2.18 0.05,2.19 -0.30,2.20 -0.64,2.09 -0.98,1.98 -1.27,1.77 -1.57,1.56 -1.57,1.57 -1.57,1.57 -1.73,1.35 -1.90,1.14 -2.01,0.90 -2.12,0.66 -2.16,0.39 -2.21,0.13 -2.20,-0.13 -2.18,-0.40 -2.10,-0.65 -2.02,-0.91 -1.88,-1.14 -1.74,-1.36 -1.55,-1.55 -1.36,-1.74 -1.14,-1.88 -0.91,-2.02 -0.65,-2.10 -0.40,-2.18 -0.13,-2.20 0.13,-2.21 0.39,-2.16 0.66,-2.12 0.90,-2.01 1.14,-1.90 1.35,-1.73 1.57,-1.57 1.57,-1.57 L 1.57,-1.57 Z"></path></g><g transform="translate(148.48235469208225 90.18323445747842) rotate(0 0.00004999999998744897 0.00004999999998744897)" stroke="none"><path fill="#868e96" d="M 1.57,-1.57 Q 1.57,-1.57 1.77,-1.27 1.98,-0.98 2.09,-0.64 2.20,-0.29 2.19,0.05 2.18,0.41 2.05,0.75 1.93,1.09 1.70,1.37 1.48,1.65 1.18,1.84 0.87,2.04 0.52,2.12 0.18,2.21 -0.17,2.18 -0.53,2.15 -0.86,2.01 -1.19,1.87 -1.46,1.63 -1.73,1.39 -1.90,1.07 -2.08,0.76 -2.15,0.41 -2.21,0.05 -2.17,-0.29 -2.12,-0.65 -1.96,-0.97 -1.80,-1.29 -1.54,-1.54 -1.29,-1.80 -0.97,-1.96 -0.65,-2.12 -0.29,-2.17 0.06,-2.21 0.41,-2.15 0.76,-2.08 1.07,-1.90 1.39,-1.73 1.63,-1.46 1.87,-1.19 2.01,-0.86 2.15,-0.53 2.18,-0.17 2.21,0.18 2.12,0.52 2.03,0.87 1.84,1.18 1.65,1.48 1.37,1.70 1.09,1.93 0.75,2.05 0.41,2.18 0.05,2.19 -0.30,2.20 -0.64,2.09 -0.98,1.98 -1.27,1.77 -1.57,1.56 -1.57,1.57 -1.57,1.57 -1.73,1.35 -1.90,1.14 -2.01,0.90 -2.12,0.66 -2.16,0.39 -2.21,0.13 -2.20,-0.13 -2.18,-0.40 -2.10,-0.65 -2.02,-0.91 -1.88,-1.14 -1.74,-1.36 -1.55,-1.55 -1.36,-1.74 -1.14,-1.88 -0.91,-2.02 -0.65,-2.10 -0.40,-2.18 -0.13,-2.20 0.13,-2.21 0.39,-2.16 0.66,-2.12 0.90,-2.01 1.14,-1.90 1.35,-1.73 1.57,-1.57 1.57,-1.57 L 1.57,-1.57 Z"></path></g><g transform="translate(137.51461275659835 80.18323445747797) rotate(0 3.2258064516129252 2.580645161290363)" stroke="none"><path fill="#868e96" d="M 1.35,-1.69 Q 1.35,-1.69 4.04,0.36 6.72,2.43 6.97,2.70 7.22,2.98 7.36,3.32 7.51,3.66 7.54,4.03 7.57,4.41 7.49,4.77 7.40,5.13 7.20,5.44 7.00,5.76 6.71,5.99 6.42,6.22 6.07,6.35 5.72,6.48 5.35,6.49 4.98,6.50 4.62,6.40 4.26,6.29 3.96,6.07 3.66,5.85 3.44,5.55 3.22,5.25 3.11,4.90 3.00,4.54 3.01,4.17 3.02,3.80 3.15,3.45 3.28,3.10 3.51,2.81 3.74,2.51 4.05,2.31 4.37,2.11 4.73,2.02 5.09,1.93 5.46,1.96 5.83,1.99 6.17,2.14 6.52,2.28 6.79,2.53 7.07,2.78 7.26,3.10 7.44,3.43 7.51,3.79 7.58,4.16 7.53,4.53 7.48,4.89 7.32,5.23 7.15,5.56 6.89,5.83 6.63,6.09 6.29,6.26 5.96,6.42 5.59,6.47 5.22,6.52 4.86,6.45 4.49,6.39 4.17,6.20 3.84,6.02 3.84,6.02 3.84,6.02 1.24,3.86 -1.35,1.69 -1.54,1.50 -1.72,1.32 -1.85,1.09 -1.98,0.87 -2.06,0.62 -2.14,0.36 -2.15,0.10 -2.16,-0.15 -2.11,-0.41 -2.06,-0.66 -1.95,-0.90 -1.84,-1.14 -1.68,-1.34 -1.52,-1.55 -1.31,-1.71 -1.10,-1.87 -0.86,-1.97 -0.62,-2.08 -0.36,-2.12 -0.10,-2.16 0.15,-2.15 0.41,-2.13 0.66,-2.05 0.91,-1.97 1.13,-1.83 1.35,-1.69 1.35,-1.69 L 1.35,-1.69 Z"></path></g><g transform="translate(122.03074178885686 67.28000865102626) rotate(0 3.5483870967741495 2.419354838709637)" stroke="none"><path fill="#868e96" d="M 1.26,-1.90 Q 1.26,-1.90 2.64,-0.95 4.02,-0.01 5.84,1.17 7.66,2.35 7.93,2.61 8.21,2.88 8.39,3.22 8.56,3.56 8.62,3.94 8.68,4.32 8.61,4.69 8.55,5.07 8.37,5.41 8.18,5.74 7.90,6.01 7.62,6.27 7.27,6.42 6.92,6.58 6.54,6.62 6.16,6.66 5.79,6.57 5.42,6.49 5.09,6.29 4.76,6.08 4.52,5.79 4.27,5.50 4.13,5.14 4.00,4.78 3.98,4.40 3.96,4.02 4.07,3.65 4.17,3.28 4.39,2.97 4.61,2.65 4.92,2.42 5.22,2.19 5.59,2.07 5.95,1.96 6.33,1.96 6.72,1.96 7.08,2.09 7.44,2.21 7.74,2.45 8.05,2.68 8.26,3.00 8.47,3.32 8.57,3.69 8.67,4.06 8.64,4.44 8.62,4.83 8.47,5.18 8.33,5.53 8.08,5.82 7.83,6.11 7.50,6.31 7.17,6.50 6.79,6.58 6.42,6.66 6.04,6.61 5.66,6.57 5.31,6.41 4.97,6.24 4.97,6.24 4.97,6.24 3.25,4.98 1.53,3.72 0.13,2.81 -1.26,1.90 -1.47,1.72 -1.68,1.54 -1.84,1.31 -2.00,1.09 -2.10,0.83 -2.20,0.58 -2.24,0.30 -2.28,0.03 -2.25,-0.23 -2.22,-0.51 -2.13,-0.77 -2.03,-1.02 -1.88,-1.25 -1.73,-1.48 -1.53,-1.67 -1.32,-1.85 -1.08,-1.99 -0.84,-2.12 -0.57,-2.19 -0.31,-2.26 -0.03,-2.26 0.23,-2.27 0.50,-2.21 0.77,-2.14 1.02,-2.02 1.26,-1.90 1.26,-1.90 L 1.26,-1.90 Z"></path></g><g transform="translate(145.74041920821196 31.957428005864813) rotate(90.0000000000004 0.00004999999998744897 0.00004999999998744897)" stroke="none"><path fill="#868e96" d="M 1.57,-1.57 Q 1.57,-1.57 1.77,-1.27 1.98,-0.98 2.09,-0.64 2.20,-0.29 2.19,0.05 2.18,0.41 2.05,0.75 1.93,1.09 1.70,1.37 1.48,1.65 1.18,1.84 0.87,2.04 0.52,2.12 0.18,2.21 -0.17,2.18 -0.53,2.15 -0.86,2.01 -1.19,1.87 -1.46,1.63 -1.73,1.39 -1.90,1.07 -2.08,0.76 -2.15,0.41 -2.21,0.05 -2.17,-0.29 -2.12,-0.65 -1.96,-0.97 -1.80,-1.29 -1.54,-1.54 -1.29,-1.80 -0.97,-1.96 -0.65,-2.12 -0.29,-2.17 0.06,-2.21 0.41,-2.15 0.76,-2.08 1.07,-1.90 1.39,-1.73 1.63,-1.46 1.87,-1.19 2.01,-0.86 2.15,-0.53 2.18,-0.17 2.21,0.18 2.12,0.52 2.03,0.87 1.84,1.18 1.65,1.48 1.37,1.70 1.09,1.93 0.75,2.05 0.41,2.18 0.05,2.19 -0.30,2.20 -0.64,2.09 -0.98,1.98 -1.27,1.77 -1.57,1.56 -1.57,1.57 -1.57,1.57 -1.73,1.35 -1.90,1.14 -2.01,0.90 -2.12,0.66 -2.16,0.39 -2.21,0.13 -2.20,-0.13 -2.18,-0.40 -2.10,-0.65 -2.02,-0.91 -1.88,-1.14 -1.74,-1.36 -1.55,-1.55 -1.36,-1.74 -1.14,-1.88 -0.91,-2.02 -0.65,-2.10 -0.40,-2.18 -0.13,-2.20 0.13,-2.21 0.39,-2.16 0.66,-2.12 0.90,-2.01 1.14,-1.90 1.35,-1.73 1.57,-1.57 1.57,-1.57 L 1.57,-1.57 Z"></path></g><g transform="translate(131.224290175953 47.44129897360631) rotate(90.0000000000004 0.00004999999998744897 0.00004999999998744897)" stroke="none"><path fill="#868e96" d="M 1.57,-1.57 Q 1.57,-1.57 1.77,-1.27 1.98,-0.98 2.09,-0.64 2.20,-0.29 2.19,0.05 2.18,0.41 2.05,0.75 1.93,1.09 1.70,1.37 1.48,1.65 1.18,1.84 0.87,2.04 0.52,2.12 0.18,2.21 -0.17,2.18 -0.53,2.15 -0.86,2.01 -1.19,1.87 -1.46,1.63 -1.73,1.39 -1.90,1.07 -2.08,0.76 -2.15,0.41 -2.21,0.05 -2.17,-0.29 -2.12,-0.65 -1.96,-0.97 -1.80,-1.29 -1.54,-1.54 -1.29,-1.80 -0.97,-1.96 -0.65,-2.12 -0.29,-2.17 0.06,-2.21 0.41,-2.15 0.76,-2.08 1.07,-1.90 1.39,-1.73 1.63,-1.46 1.87,-1.19 2.01,-0.86 2.15,-0.53 2.18,-0.17 2.21,0.18 2.12,0.52 2.03,0.87 1.84,1.18 1.65,1.48 1.37,1.70 1.09,1.93 0.75,2.05 0.41,2.18 0.05,2.19 -0.30,2.20 -0.64,2.09 -0.98,1.98 -1.27,1.77 -1.57,1.56 -1.57,1.57 -1.57,1.57 -1.73,1.35 -1.90,1.14 -2.01,0.90 -2.12,0.66 -2.16,0.39 -2.21,0.13 -2.20,-0.13 -2.18,-0.40 -2.10,-0.65 -2.02,-0.91 -1.88,-1.14 -1.74,-1.36 -1.55,-1.55 -1.36,-1.74 -1.14,-1.88 -0.91,-2.02 -0.65,-2.10 -0.40,-2.18 -0.13,-2.20 0.13,-2.21 0.39,-2.16 0.66,-2.12 0.90,-2.01 1.14,-1.90 1.35,-1.73 1.57,-1.57 1.57,-1.57 L 1.57,-1.57 Z"></path></g><g transform="translate(117.9984837243394 62.60258929618726) rotate(90.0000000000004 0.00004999999998744897 0.00004999999998744897)" stroke="none"><path fill="#868e96" d="M 1.57,-1.57 Q 1.57,-1.57 1.77,-1.27 1.98,-0.98 2.09,-0.64 2.20,-0.29 2.19,0.05 2.18,0.41 2.05,0.75 1.93,1.09 1.70,1.37 1.48,1.65 1.18,1.84 0.87,2.04 0.52,2.12 0.18,2.21 -0.17,2.18 -0.53,2.15 -0.86,2.01 -1.19,1.87 -1.46,1.63 -1.73,1.39 -1.90,1.07 -2.08,0.76 -2.15,0.41 -2.21,0.05 -2.17,-0.29 -2.12,-0.65 -1.96,-0.97 -1.80,-1.29 -1.54,-1.54 -1.29,-1.80 -0.97,-1.96 -0.65,-2.12 -0.29,-2.17 0.06,-2.21 0.41,-2.15 0.76,-2.08 1.07,-1.90 1.39,-1.73 1.63,-1.46 1.87,-1.19 2.01,-0.86 2.15,-0.53 2.18,-0.17 2.21,0.18 2.12,0.52 2.03,0.87 1.84,1.18 1.65,1.48 1.37,1.70 1.09,1.93 0.75,2.05 0.41,2.18 0.05,2.19 -0.30,2.20 -0.64,2.09 -0.98,1.98 -1.27,1.77 -1.57,1.56 -1.57,1.57 -1.57,1.57 -1.73,1.35 -1.90,1.14 -2.01,0.90 -2.12,0.66 -2.16,0.39 -2.21,0.13 -2.20,-0.13 -2.18,-0.40 -2.10,-0.65 -2.02,-0.91 -1.88,-1.14 -1.74,-1.36 -1.55,-1.55 -1.36,-1.74 -1.14,-1.88 -0.91,-2.02 -0.65,-2.10 -0.40,-2.18 -0.13,-2.20 0.13,-2.21 0.39,-2.16 0.66,-2.12 0.90,-2.01 1.14,-1.90 1.35,-1.73 1.57,-1.57 1.57,-1.57 L 1.57,-1.57 Z"></path></g><g transform="translate(122.19213211143665 52.280008651026264) rotate(90.0000000000004 3.2258064516129252 2.580645161290363)" stroke="none"><path fill="#868e96" d="M 1.35,-1.69 Q 1.35,-1.69 4.04,0.36 6.72,2.43 6.97,2.70 7.22,2.98 7.36,3.32 7.51,3.66 7.54,4.03 7.57,4.41 7.49,4.77 7.40,5.13 7.20,5.44 7.00,5.76 6.71,5.99 6.42,6.22 6.07,6.35 5.72,6.48 5.35,6.49 4.98,6.50 4.62,6.40 4.26,6.29 3.96,6.07 3.66,5.85 3.44,5.55 3.22,5.25 3.11,4.90 3.00,4.54 3.01,4.17 3.02,3.80 3.15,3.45 3.28,3.10 3.51,2.81 3.74,2.51 4.05,2.31 4.37,2.11 4.73,2.02 5.09,1.93 5.46,1.96 5.83,1.99 6.17,2.14 6.52,2.28 6.79,2.53 7.07,2.78 7.26,3.10 7.44,3.43 7.51,3.79 7.58,4.16 7.53,4.53 7.48,4.89 7.32,5.23 7.15,5.56 6.89,5.83 6.63,6.09 6.29,6.26 5.96,6.42 5.59,6.47 5.22,6.52 4.86,6.45 4.49,6.39 4.17,6.20 3.84,6.02 3.84,6.02 3.84,6.02 1.24,3.86 -1.35,1.69 -1.54,1.50 -1.72,1.32 -1.85,1.09 -1.98,0.87 -2.06,0.62 -2.14,0.36 -2.15,0.10 -2.16,-0.15 -2.11,-0.41 -2.06,-0.66 -1.95,-0.90 -1.84,-1.14 -1.68,-1.34 -1.52,-1.55 -1.31,-1.71 -1.10,-1.87 -0.86,-1.97 -0.62,-2.08 -0.36,-2.12 -0.10,-2.16 0.15,-2.15 0.41,-2.13 0.66,-2.05 0.91,-1.97 1.13,-1.83 1.35,-1.69 1.35,-1.69 L 1.35,-1.69 Z"></path></g><g transform="translate(134.9340675953074 37.280008651026264) rotate(90.0000000000004 3.5483870967741495 2.419354838709637)" stroke="none"><path fill="#868e96" d="M 1.26,-1.90 Q 1.26,-1.90 2.64,-0.95 4.02,-0.01 5.84,1.17 7.66,2.35 7.93,2.61 8.21,2.88 8.39,3.22 8.56,3.56 8.62,3.94 8.68,4.32 8.61,4.69 8.55,5.07 8.37,5.41 8.18,5.74 7.90,6.01 7.62,6.27 7.27,6.42 6.92,6.58 6.54,6.62 6.16,6.66 5.79,6.57 5.42,6.49 5.09,6.29 4.76,6.08 4.52,5.79 4.27,5.50 4.13,5.14 4.00,4.78 3.98,4.40 3.96,4.02 4.07,3.65 4.17,3.28 4.39,2.97 4.61,2.65 4.92,2.42 5.22,2.19 5.59,2.07 5.95,1.96 6.33,1.96 6.72,1.96 7.08,2.09 7.44,2.21 7.74,2.45 8.05,2.68 8.26,3.00 8.47,3.32 8.57,3.69 8.67,4.06 8.64,4.44 8.62,4.83 8.47,5.18 8.33,5.53 8.08,5.82 7.83,6.11 7.50,6.31 7.17,6.50 6.79,6.58 6.42,6.66 6.04,6.61 5.66,6.57 5.31,6.41 4.97,6.24 4.97,6.24 4.97,6.24 3.25,4.98 1.53,3.72 0.13,2.81 -1.26,1.90 -1.47,1.72 -1.68,1.54 -1.84,1.31 -2.00,1.09 -2.10,0.83 -2.20,0.58 -2.24,0.30 -2.28,0.03 -2.25,-0.23 -2.22,-0.51 -2.13,-0.77 -2.03,-1.02 -1.88,-1.25 -1.73,-1.48 -1.53,-1.67 -1.32,-1.85 -1.08,-1.99 -0.84,-2.12 -0.57,-2.19 -0.31,-2.26 -0.03,-2.26 0.23,-2.27 0.50,-2.21 0.77,-2.14 1.02,-2.02 1.26,-1.90 1.26,-1.90 L 1.26,-1.90 Z"></path></g><g transform="translate(176.3855804985344 59.05420219941357) rotate(90.0000000000004 0.00004999999998744897 0.00004999999998744897)" stroke="none"><path fill="#868e96" d="M 1.57,-1.57 Q 1.57,-1.57 1.77,-1.27 1.98,-0.98 2.09,-0.64 2.20,-0.29 2.19,0.05 2.18,0.41 2.05,0.75 1.93,1.09 1.70,1.37 1.48,1.65 1.18,1.84 0.87,2.04 0.52,2.12 0.18,2.21 -0.17,2.18 -0.53,2.15 -0.86,2.01 -1.19,1.87 -1.46,1.63 -1.73,1.39 -1.90,1.07 -2.08,0.76 -2.15,0.41 -2.21,0.05 -2.17,-0.29 -2.12,-0.65 -1.96,-0.97 -1.80,-1.29 -1.54,-1.54 -1.29,-1.80 -0.97,-1.96 -0.65,-2.12 -0.29,-2.17 0.06,-2.21 0.41,-2.15 0.76,-2.08 1.07,-1.90 1.39,-1.73 1.63,-1.46 1.87,-1.19 2.01,-0.86 2.15,-0.53 2.18,-0.17 2.21,0.18 2.12,0.52 2.03,0.87 1.84,1.18 1.65,1.48 1.37,1.70 1.09,1.93 0.75,2.05 0.41,2.18 0.05,2.19 -0.30,2.20 -0.64,2.09 -0.98,1.98 -1.27,1.77 -1.57,1.56 -1.57,1.57 -1.57,1.57 -1.73,1.35 -1.90,1.14 -2.01,0.90 -2.12,0.66 -2.16,0.39 -2.21,0.13 -2.20,-0.13 -2.18,-0.40 -2.10,-0.65 -2.02,-0.91 -1.88,-1.14 -1.74,-1.36 -1.55,-1.55 -1.36,-1.74 -1.14,-1.88 -0.91,-2.02 -0.65,-2.10 -0.40,-2.18 -0.13,-2.20 0.13,-2.21 0.39,-2.16 0.66,-2.12 0.90,-2.01 1.14,-1.90 1.35,-1.73 1.57,-1.57 1.57,-1.57 L 1.57,-1.57 Z"></path></g><g transform="translate(161.869451466275 74.53807316715506) rotate(90.0000000000004 0.00004999999998744897 0.00004999999998744897)" stroke="none"><path fill="#868e96" d="M 1.57,-1.57 Q 1.57,-1.57 1.77,-1.27 1.98,-0.98 2.09,-0.64 2.20,-0.29 2.19,0.05 2.18,0.41 2.05,0.75 1.93,1.09 1.70,1.37 1.48,1.65 1.18,1.84 0.87,2.04 0.52,2.12 0.18,2.21 -0.17,2.18 -0.53,2.15 -0.86,2.01 -1.19,1.87 -1.46,1.63 -1.73,1.39 -1.90,1.07 -2.08,0.76 -2.15,0.41 -2.21,0.05 -2.17,-0.29 -2.12,-0.65 -1.96,-0.97 -1.80,-1.29 -1.54,-1.54 -1.29,-1.80 -0.97,-1.96 -0.65,-2.12 -0.29,-2.17 0.06,-2.21 0.41,-2.15 0.76,-2.08 1.07,-1.90 1.39,-1.73 1.63,-1.46 1.87,-1.19 2.01,-0.86 2.15,-0.53 2.18,-0.17 2.21,0.18 2.12,0.52 2.03,0.87 1.84,1.18 1.65,1.48 1.37,1.70 1.09,1.93 0.75,2.05 0.41,2.18 0.05,2.19 -0.30,2.20 -0.64,2.09 -0.98,1.98 -1.27,1.77 -1.57,1.56 -1.57,1.57 -1.57,1.57 -1.73,1.35 -1.90,1.14 -2.01,0.90 -2.12,0.66 -2.16,0.39 -2.21,0.13 -2.20,-0.13 -2.18,-0.40 -2.10,-0.65 -2.02,-0.91 -1.88,-1.14 -1.74,-1.36 -1.55,-1.55 -1.36,-1.74 -1.14,-1.88 -0.91,-2.02 -0.65,-2.10 -0.40,-2.18 -0.13,-2.20 0.13,-2.21 0.39,-2.16 0.66,-2.12 0.90,-2.01 1.14,-1.90 1.35,-1.73 1.57,-1.57 1.57,-1.57 L 1.57,-1.57 Z"></path></g><g transform="translate(148.6436450146623 89.69936348973556) rotate(90.0000000000004 0.00004999999998744897 0.00004999999998744897)" stroke="none"><path fill="#868e96" d="M 1.57,-1.57 Q 1.57,-1.57 1.77,-1.27 1.98,-0.98 2.09,-0.64 2.20,-0.29 2.19,0.05 2.18,0.41 2.05,0.75 1.93,1.09 1.70,1.37 1.48,1.65 1.18,1.84 0.87,2.04 0.52,2.12 0.18,2.21 -0.17,2.18 -0.53,2.15 -0.86,2.01 -1.19,1.87 -1.46,1.63 -1.73,1.39 -1.90,1.07 -2.08,0.76 -2.15,0.41 -2.21,0.05 -2.17,-0.29 -2.12,-0.65 -1.96,-0.97 -1.80,-1.29 -1.54,-1.54 -1.29,-1.80 -0.97,-1.96 -0.65,-2.12 -0.29,-2.17 0.06,-2.21 0.41,-2.15 0.76,-2.08 1.07,-1.90 1.39,-1.73 1.63,-1.46 1.87,-1.19 2.01,-0.86 2.15,-0.53 2.18,-0.17 2.21,0.18 2.12,0.52 2.03,0.87 1.84,1.18 1.65,1.48 1.37,1.70 1.09,1.93 0.75,2.05 0.41,2.18 0.05,2.19 -0.30,2.20 -0.64,2.09 -0.98,1.98 -1.27,1.77 -1.57,1.56 -1.57,1.57 -1.57,1.57 -1.73,1.35 -1.90,1.14 -2.01,0.90 -2.12,0.66 -2.16,0.39 -2.21,0.13 -2.20,-0.13 -2.18,-0.40 -2.10,-0.65 -2.02,-0.91 -1.88,-1.14 -1.74,-1.36 -1.55,-1.55 -1.36,-1.74 -1.14,-1.88 -0.91,-2.02 -0.65,-2.10 -0.40,-2.18 -0.13,-2.20 0.13,-2.21 0.39,-2.16 0.66,-2.12 0.90,-2.01 1.14,-1.90 1.35,-1.73 1.57,-1.57 1.57,-1.57 L 1.57,-1.57 Z"></path></g><g transform="translate(152.8372934017591 79.37678284457456) rotate(90.0000000000004 3.2258064516129252 2.580645161290363)" stroke="none"><path fill="#868e96" d="M 1.35,-1.69 Q 1.35,-1.69 4.04,0.36 6.72,2.43 6.97,2.70 7.22,2.98 7.36,3.32 7.51,3.66 7.54,4.03 7.57,4.41 7.49,4.77 7.40,5.13 7.20,5.44 7.00,5.76 6.71,5.99 6.42,6.22 6.07,6.35 5.72,6.48 5.35,6.49 4.98,6.50 4.62,6.40 4.26,6.29 3.96,6.07 3.66,5.85 3.44,5.55 3.22,5.25 3.11,4.90 3.00,4.54 3.01,4.17 3.02,3.80 3.15,3.45 3.28,3.10 3.51,2.81 3.74,2.51 4.05,2.31 4.37,2.11 4.73,2.02 5.09,1.93 5.46,1.96 5.83,1.99 6.17,2.14 6.52,2.28 6.79,2.53 7.07,2.78 7.26,3.10 7.44,3.43 7.51,3.79 7.58,4.16 7.53,4.53 7.48,4.89 7.32,5.23 7.15,5.56 6.89,5.83 6.63,6.09 6.29,6.26 5.96,6.42 5.59,6.47 5.22,6.52 4.86,6.45 4.49,6.39 4.17,6.20 3.84,6.02 3.84,6.02 3.84,6.02 1.24,3.86 -1.35,1.69 -1.54,1.50 -1.72,1.32 -1.85,1.09 -1.98,0.87 -2.06,0.62 -2.14,0.36 -2.15,0.10 -2.16,-0.15 -2.11,-0.41 -2.06,-0.66 -1.95,-0.90 -1.84,-1.14 -1.68,-1.34 -1.52,-1.55 -1.31,-1.71 -1.10,-1.87 -0.86,-1.97 -0.62,-2.08 -0.36,-2.12 -0.10,-2.16 0.15,-2.15 0.41,-2.13 0.66,-2.05 0.91,-1.97 1.13,-1.83 1.35,-1.69 1.35,-1.69 L 1.35,-1.69 Z"></path></g><g transform="translate(165.5792288856303 64.37678284457456) rotate(90.0000000000004 3.5483870967741495 2.419354838709637)" stroke="none"><path fill="#868e96" d="M 1.26,-1.90 Q 1.26,-1.90 2.64,-0.95 4.02,-0.01 5.84,1.17 7.66,2.35 7.93,2.61 8.21,2.88 8.39,3.22 8.56,3.56 8.62,3.94 8.68,4.32 8.61,4.69 8.55,5.07 8.37,5.41 8.18,5.74 7.90,6.01 7.62,6.27 7.27,6.42 6.92,6.58 6.54,6.62 6.16,6.66 5.79,6.57 5.42,6.49 5.09,6.29 4.76,6.08 4.52,5.79 4.27,5.50 4.13,5.14 4.00,4.78 3.98,4.40 3.96,4.02 4.07,3.65 4.17,3.28 4.39,2.97 4.61,2.65 4.92,2.42 5.22,2.19 5.59,2.07 5.95,1.96 6.33,1.96 6.72,1.96 7.08,2.09 7.44,2.21 7.74,2.45 8.05,2.68 8.26,3.00 8.47,3.32 8.57,3.69 8.67,4.06 8.64,4.44 8.62,4.83 8.47,5.18 8.33,5.53 8.08,5.82 7.83,6.11 7.50,6.31 7.17,6.50 6.79,6.58 6.42,6.66 6.04,6.61 5.66,6.57 5.31,6.41 4.97,6.24 4.97,6.24 4.97,6.24 3.25,4.98 1.53,3.72 0.13,2.81 -1.26,1.90 -1.47,1.72 -1.68,1.54 -1.84,1.31 -2.00,1.09 -2.10,0.83 -2.20,0.58 -2.24,0.30 -2.28,0.03 -2.25,-0.23 -2.22,-0.51 -2.13,-0.77 -2.03,-1.02 -1.88,-1.25 -1.73,-1.48 -1.53,-1.67 -1.32,-1.85 -1.08,-1.99 -0.84,-2.12 -0.57,-2.19 -0.31,-2.26 -0.03,-2.26 0.23,-2.27 0.50,-2.21 0.77,-2.14 1.02,-2.02 1.26,-1.90 1.26,-1.90 L 1.26,-1.90 Z"></path></g><g transform="translate(135.74046920821115 51.47360703812342) rotate(0 10.9677419354839 9.677419354838662)" stroke="none"><path fill="#868e96" d="M 1.17,-1.52 Q 1.17,-1.52 3.53,0.39 5.89,2.31 8.48,4.56 11.07,6.81 14.32,9.93 17.56,13.06 19.87,15.10 22.17,17.13 22.34,17.36 22.51,17.59 22.61,17.86 22.70,18.13 22.70,18.42 22.70,18.71 22.60,18.98 22.51,19.25 22.34,19.48 22.16,19.70 21.93,19.86 21.69,20.02 21.41,20.10 21.14,20.18 20.85,20.16 20.56,20.14 20.30,20.04 20.03,19.93 19.82,19.75 19.60,19.56 19.45,19.31 19.30,19.07 19.24,18.79 19.18,18.51 19.21,18.22 19.24,17.94 19.37,17.68 19.49,17.42 19.68,17.21 19.88,17.00 20.13,16.87 20.39,16.74 20.67,16.69 20.95,16.65 21.24,16.69 21.52,16.74 21.77,16.87 22.02,17.01 22.22,17.22 22.42,17.43 22.54,17.69 22.66,17.95 22.69,18.23 22.72,18.52 22.65,18.80 22.59,19.08 22.44,19.32 22.30,19.57 22.08,19.75 21.86,19.94 21.59,20.04 21.33,20.15 21.04,20.16 20.75,20.18 20.48,20.10 20.20,20.02 19.97,19.86 19.73,19.70 19.73,19.70 19.73,19.70 17.58,17.50 15.43,15.31 12.20,12.31 8.97,9.32 6.36,7.21 3.75,5.10 1.29,3.31 -1.17,1.52 -1.33,1.35 -1.50,1.19 -1.62,1.00 -1.74,0.80 -1.81,0.58 -1.88,0.36 -1.90,0.13 -1.91,-0.09 -1.87,-0.32 -1.83,-0.55 -1.74,-0.76 -1.65,-0.97 -1.51,-1.16 -1.36,-1.34 -1.18,-1.48 -1.00,-1.63 -0.79,-1.73 -0.58,-1.82 -0.35,-1.87 -0.13,-1.91 0.09,-1.90 0.32,-1.89 0.55,-1.82 0.77,-1.75 0.97,-1.63 1.17,-1.52 1.17,-1.52 L 1.17,-1.52 Z"></path></g><g transform="translate(182.83724340175945 58.57038123167172) rotate(0 6.290322580645125 0)" stroke="none"><path fill="#868e96" d="M 0,-2.33 Q 0,-2.33 2.22,-2.20 4.45,-2.06 6.30,-2.20 8.15,-2.34 9.96,-2.39 11.78,-2.44 12.17,-2.38 12.56,-2.32 12.91,-2.13 13.26,-1.94 13.53,-1.66 13.80,-1.37 13.97,-1.01 14.14,-0.65 14.18,-0.26 14.22,0.13 14.14,0.51 14.05,0.90 13.85,1.24 13.64,1.58 13.34,1.84 13.04,2.09 12.67,2.24 12.30,2.39 11.91,2.41 11.51,2.43 11.13,2.32 10.75,2.22 10.42,2.00 10.09,1.77 9.85,1.46 9.61,1.14 9.49,0.77 9.36,0.39 9.36,-0.00 9.36,-0.39 9.49,-0.77 9.61,-1.14 9.85,-1.46 10.09,-1.77 10.42,-2.00 10.75,-2.22 11.13,-2.32 11.51,-2.43 11.91,-2.41 12.30,-2.39 12.67,-2.24 13.04,-2.09 13.34,-1.84 13.64,-1.58 13.85,-1.24 14.05,-0.90 14.14,-0.51 14.22,-0.13 14.18,0.26 14.14,0.65 13.97,1.01 13.80,1.37 13.53,1.66 13.26,1.94 12.91,2.13 12.56,2.32 12.17,2.38 11.78,2.44 11.78,2.44 11.78,2.44 9.96,2.39 8.15,2.34 6.30,2.20 4.45,2.06 2.22,2.20 0,2.33 -0.27,2.30 -0.55,2.26 -0.82,2.16 -1.08,2.06 -1.31,1.90 -1.54,1.74 -1.73,1.53 -1.92,1.32 -2.05,1.07 -2.18,0.82 -2.25,0.55 -2.31,0.28 -2.31,-0.00 -2.31,-0.28 -2.25,-0.55 -2.18,-0.82 -2.05,-1.07 -1.92,-1.32 -1.73,-1.53 -1.54,-1.74 -1.31,-1.90 -1.08,-2.06 -0.82,-2.16 -0.55,-2.26 -0.27,-2.30 0.00,-2.33 0.00,-2.33 L 0,-2.33 Z"></path></g><g transform="translate(144.77272727272725 24.699413489736116) rotate(0 -0.322580645161338 -5.645161290322676)" stroke="none"><path fill="#e03131" d="M -2.14,0.12 Q -2.14,0.12 -2.44,-4.50 -2.74,-9.12 -2.70,-9.48 -2.66,-9.83 -2.51,-10.16 -2.36,-10.49 -2.12,-10.75 -1.87,-11.01 -1.55,-11.18 -1.24,-11.35 -0.88,-11.41 -0.53,-11.46 -0.18,-11.41 0.17,-11.35 0.49,-11.18 0.80,-11.02 1.05,-10.76 1.30,-10.50 1.45,-10.17 1.60,-9.85 1.64,-9.49 1.68,-9.13 1.61,-8.78 1.53,-8.43 1.35,-8.12 1.16,-7.81 0.89,-7.58 0.62,-7.35 0.28,-7.21 -0.04,-7.08 -0.40,-7.06 -0.76,-7.04 -1.10,-7.13 -1.45,-7.23 -1.75,-7.43 -2.05,-7.63 -2.26,-7.92 -2.48,-8.20 -2.60,-8.54 -2.71,-8.88 -2.71,-9.24 -2.71,-9.60 -2.60,-9.94 -2.49,-10.28 -2.27,-10.57 -2.05,-10.85 -1.76,-11.05 -1.46,-11.26 -1.12,-11.35 -0.77,-11.45 -0.41,-11.43 -0.05,-11.41 0.27,-11.28 0.61,-11.15 0.88,-10.92 1.15,-10.69 1.34,-10.38 1.53,-10.07 1.60,-9.72 1.68,-9.37 1.68,-9.37 1.68,-9.37 1.91,-4.74 2.14,-0.12 2.12,0.13 2.10,0.39 2.02,0.63 1.95,0.88 1.81,1.10 1.68,1.32 1.49,1.50 1.31,1.69 1.09,1.82 0.87,1.95 0.62,2.03 0.37,2.10 0.12,2.12 -0.13,2.13 -0.39,2.09 -0.64,2.04 -0.87,1.93 -1.11,1.83 -1.31,1.67 -1.52,1.51 -1.67,1.30 -1.83,1.10 -1.94,0.86 -2.04,0.63 -2.09,0.37 -2.14,0.12 -2.14,0.12 L -2.14,0.12 Z"></path></g><g transform="translate(147.9985337243404 95.66715542521979) rotate(0 0.8064516129031745 8.225806451612925)" stroke="none"><path fill="#868e96" d="M 2.06,-0.14 Q 2.06,-0.14 2.24,3.85 2.42,7.84 2.93,11.25 3.45,14.66 3.43,14.99 3.42,15.32 3.30,15.63 3.18,15.94 2.97,16.20 2.76,16.45 2.48,16.63 2.20,16.80 1.88,16.88 1.56,16.95 1.23,16.92 0.90,16.89 0.60,16.76 0.30,16.63 0.05,16.40 -0.18,16.18 -0.34,15.89 -0.50,15.60 -0.56,15.27 -0.62,14.95 -0.57,14.62 -0.52,14.29 -0.37,14.00 -0.22,13.70 0.01,13.47 0.24,13.24 0.54,13.10 0.84,12.95 1.17,12.91 1.50,12.87 1.82,12.94 2.14,13.01 2.43,13.17 2.72,13.34 2.93,13.59 3.15,13.83 3.28,14.14 3.41,14.45 3.43,14.78 3.45,15.11 3.37,15.43 3.29,15.75 3.10,16.02 2.92,16.30 2.66,16.50 2.40,16.71 2.09,16.82 1.78,16.93 1.45,16.93 1.12,16.94 0.80,16.84 0.49,16.74 0.22,16.54 -0.04,16.34 -0.22,16.07 -0.41,15.80 -0.51,15.49 -0.60,15.17 -0.60,15.17 -0.60,15.17 -0.95,11.63 -1.31,8.10 -1.69,4.12 -2.06,0.14 -2.05,-0.10 -2.04,-0.35 -1.97,-0.59 -1.89,-0.83 -1.77,-1.04 -1.64,-1.26 -1.46,-1.44 -1.29,-1.62 -1.08,-1.75 -0.86,-1.88 -0.63,-1.96 -0.39,-2.03 -0.14,-2.05 0.10,-2.07 0.35,-2.02 0.59,-1.98 0.82,-1.88 1.05,-1.78 1.25,-1.63 1.45,-1.48 1.60,-1.28 1.76,-1.08 1.87,-0.86 1.97,-0.63 2.02,-0.38 2.06,-0.14 2.06,-0.14 L 2.06,-0.14 Z"></path></g><g transform="translate(243.62903225806463 42.2580645161288) rotate(0 0.00004999999998744897 0.00004999999998744897)" stroke="none"><path fill="#868e96" d="M 1.57,-1.57 Q 1.57,-1.57 1.77,-1.27 1.98,-0.98 2.09,-0.64 2.20,-0.29 2.19,0.05 2.18,0.41 2.05,0.75 1.93,1.09 1.70,1.37 1.48,1.65 1.18,1.84 0.87,2.04 0.52,2.12 0.18,2.21 -0.17,2.18 -0.53,2.15 -0.86,2.01 -1.19,1.87 -1.46,1.63 -1.73,1.39 -1.90,1.07 -2.08,0.76 -2.15,0.41 -2.21,0.05 -2.17,-0.29 -2.12,-0.65 -1.96,-0.97 -1.80,-1.29 -1.54,-1.54 -1.29,-1.80 -0.97,-1.96 -0.65,-2.12 -0.29,-2.17 0.06,-2.21 0.41,-2.15 0.76,-2.08 1.07,-1.90 1.39,-1.73 1.63,-1.46 1.87,-1.19 2.01,-0.86 2.15,-0.53 2.18,-0.17 2.21,0.18 2.12,0.52 2.03,0.87 1.84,1.18 1.65,1.48 1.37,1.70 1.09,1.93 0.75,2.05 0.41,2.18 0.05,2.19 -0.30,2.20 -0.64,2.09 -0.98,1.98 -1.27,1.77 -1.57,1.56 -1.57,1.57 -1.57,1.57 -1.73,1.35 -1.90,1.14 -2.01,0.90 -2.12,0.66 -2.16,0.39 -2.21,0.13 -2.20,-0.13 -2.18,-0.40 -2.10,-0.65 -2.02,-0.91 -1.88,-1.14 -1.74,-1.36 -1.55,-1.55 -1.36,-1.74 -1.14,-1.88 -0.91,-2.02 -0.65,-2.10 -0.40,-2.18 -0.13,-2.20 0.13,-2.21 0.39,-2.16 0.66,-2.12 0.90,-2.01 1.14,-1.90 1.35,-1.73 1.57,-1.57 1.57,-1.57 L 1.57,-1.57 Z"></path></g><g transform="translate(258.7903225806451 55.48387096774195) rotate(0 0.00004999999998744897 0.00004999999998744897)" stroke="none"><path fill="#868e96" d="M 1.57,-1.57 Q 1.57,-1.57 1.77,-1.27 1.98,-0.98 2.09,-0.64 2.20,-0.29 2.19,0.05 2.18,0.41 2.05,0.75 1.93,1.09 1.70,1.37 1.48,1.65 1.18,1.84 0.87,2.04 0.52,2.12 0.18,2.21 -0.17,2.18 -0.53,2.15 -0.86,2.01 -1.19,1.87 -1.46,1.63 -1.73,1.39 -1.90,1.07 -2.08,0.76 -2.15,0.41 -2.21,0.05 -2.17,-0.29 -2.12,-0.65 -1.96,-0.97 -1.80,-1.29 -1.54,-1.54 -1.29,-1.80 -0.97,-1.96 -0.65,-2.12 -0.29,-2.17 0.06,-2.21 0.41,-2.15 0.76,-2.08 1.07,-1.90 1.39,-1.73 1.63,-1.46 1.87,-1.19 2.01,-0.86 2.15,-0.53 2.18,-0.17 2.21,0.18 2.12,0.52 2.03,0.87 1.84,1.18 1.65,1.48 1.37,1.70 1.09,1.93 0.75,2.05 0.41,2.18 0.05,2.19 -0.30,2.20 -0.64,2.09 -0.98,1.98 -1.27,1.77 -1.57,1.56 -1.57,1.57 -1.57,1.57 -1.73,1.35 -1.90,1.14 -2.01,0.90 -2.12,0.66 -2.16,0.39 -2.21,0.13 -2.20,-0.13 -2.18,-0.40 -2.10,-0.65 -2.02,-0.91 -1.88,-1.14 -1.74,-1.36 -1.55,-1.55 -1.36,-1.74 -1.14,-1.88 -0.91,-2.02 -0.65,-2.10 -0.40,-2.18 -0.13,-2.20 0.13,-2.21 0.39,-2.16 0.66,-2.12 0.90,-2.01 1.14,-1.90 1.35,-1.73 1.57,-1.57 1.57,-1.57 L 1.57,-1.57 Z"></path></g><g transform="translate(247.82258064516122 45.48387096774195) rotate(0 3.2258064516129252 2.580645161290363)" stroke="none"><path fill="#868e96" d="M 1.35,-1.69 Q 1.35,-1.69 4.04,0.36 6.72,2.43 6.97,2.70 7.22,2.98 7.36,3.32 7.51,3.66 7.54,4.03 7.57,4.41 7.49,4.77 7.40,5.13 7.20,5.44 7.00,5.76 6.71,5.99 6.42,6.22 6.07,6.35 5.72,6.48 5.35,6.49 4.98,6.50 4.62,6.40 4.26,6.29 3.96,6.07 3.66,5.85 3.44,5.55 3.22,5.25 3.11,4.90 3.00,4.54 3.01,4.17 3.02,3.80 3.15,3.45 3.28,3.10 3.51,2.81 3.74,2.51 4.05,2.31 4.37,2.11 4.73,2.02 5.09,1.93 5.46,1.96 5.83,1.99 6.17,2.14 6.52,2.28 6.79,2.53 7.07,2.78 7.26,3.10 7.44,3.43 7.51,3.79 7.58,4.16 7.53,4.53 7.48,4.89 7.32,5.23 7.15,5.56 6.89,5.83 6.63,6.09 6.29,6.26 5.96,6.42 5.59,6.47 5.22,6.52 4.86,6.45 4.49,6.39 4.17,6.20 3.84,6.02 3.84,6.02 3.84,6.02 1.24,3.86 -1.35,1.69 -1.54,1.50 -1.72,1.32 -1.85,1.09 -1.98,0.87 -2.06,0.62 -2.14,0.36 -2.15,0.10 -2.16,-0.15 -2.11,-0.41 -2.06,-0.66 -1.95,-0.90 -1.84,-1.14 -1.68,-1.34 -1.52,-1.55 -1.31,-1.71 -1.10,-1.87 -0.86,-1.97 -0.62,-2.08 -0.36,-2.12 -0.10,-2.16 0.15,-2.15 0.41,-2.13 0.66,-2.05 0.91,-1.97 1.13,-1.83 1.35,-1.69 1.35,-1.69 L 1.35,-1.69 Z"></path></g><g transform="translate(232.33870967741927 32.58064516129025) rotate(0 3.5483870967741495 2.419354838709637)" stroke="none"><path fill="#868e96" d="M 1.26,-1.90 Q 1.26,-1.90 2.64,-0.95 4.02,-0.01 5.84,1.17 7.66,2.35 7.93,2.61 8.21,2.88 8.39,3.22 8.56,3.56 8.62,3.94 8.68,4.32 8.61,4.69 8.55,5.07 8.37,5.41 8.18,5.74 7.90,6.01 7.62,6.27 7.27,6.42 6.92,6.58 6.54,6.62 6.16,6.66 5.79,6.57 5.42,6.49 5.09,6.29 4.76,6.08 4.52,5.79 4.27,5.50 4.13,5.14 4.00,4.78 3.98,4.40 3.96,4.02 4.07,3.65 4.17,3.28 4.39,2.97 4.61,2.65 4.92,2.42 5.22,2.19 5.59,2.07 5.95,1.96 6.33,1.96 6.72,1.96 7.08,2.09 7.44,2.21 7.74,2.45 8.05,2.68 8.26,3.00 8.47,3.32 8.57,3.69 8.67,4.06 8.64,4.44 8.62,4.83 8.47,5.18 8.33,5.53 8.08,5.82 7.83,6.11 7.50,6.31 7.17,6.50 6.79,6.58 6.42,6.66 6.04,6.61 5.66,6.57 5.31,6.41 4.97,6.24 4.97,6.24 4.97,6.24 3.25,4.98 1.53,3.72 0.13,2.81 -1.26,1.90 -1.47,1.72 -1.68,1.54 -1.84,1.31 -2.00,1.09 -2.10,0.83 -2.20,0.58 -2.24,0.30 -2.28,0.03 -2.25,-0.23 -2.22,-0.51 -2.13,-0.77 -2.03,-1.02 -1.88,-1.25 -1.73,-1.48 -1.53,-1.67 -1.32,-1.85 -1.08,-1.99 -0.84,-2.12 -0.57,-2.19 -0.31,-2.26 -0.03,-2.26 0.23,-2.27 0.50,-2.21 0.77,-2.14 1.02,-2.02 1.26,-1.90 1.26,-1.90 L 1.26,-1.90 Z"></path></g><g transform="translate(200.56446612903233 59.032208064516) rotate(0 0.00004999999998744897 0.00004999999998744897)" stroke="none"><path fill="#868e96" d="M 1.57,-1.57 Q 1.57,-1.57 1.77,-1.27 1.98,-0.98 2.09,-0.64 2.20,-0.29 2.19,0.05 2.18,0.41 2.05,0.75 1.93,1.09 1.70,1.37 1.48,1.65 1.18,1.84 0.87,2.04 0.52,2.12 0.18,2.21 -0.17,2.18 -0.53,2.15 -0.86,2.01 -1.19,1.87 -1.46,1.63 -1.73,1.39 -1.90,1.07 -2.08,0.76 -2.15,0.41 -2.21,0.05 -2.17,-0.29 -2.12,-0.65 -1.96,-0.97 -1.80,-1.29 -1.54,-1.54 -1.29,-1.80 -0.97,-1.96 -0.65,-2.12 -0.29,-2.17 0.06,-2.21 0.41,-2.15 0.76,-2.08 1.07,-1.90 1.39,-1.73 1.63,-1.46 1.87,-1.19 2.01,-0.86 2.15,-0.53 2.18,-0.17 2.21,0.18 2.12,0.52 2.03,0.87 1.84,1.18 1.65,1.48 1.37,1.70 1.09,1.93 0.75,2.05 0.41,2.18 0.05,2.19 -0.30,2.20 -0.64,2.09 -0.98,1.98 -1.27,1.77 -1.57,1.56 -1.57,1.57 -1.57,1.57 -1.73,1.35 -1.90,1.14 -2.01,0.90 -2.12,0.66 -2.16,0.39 -2.21,0.13 -2.20,-0.13 -2.18,-0.40 -2.10,-0.65 -2.02,-0.91 -1.88,-1.14 -1.74,-1.36 -1.55,-1.55 -1.36,-1.74 -1.14,-1.88 -0.91,-2.02 -0.65,-2.10 -0.40,-2.18 -0.13,-2.20 0.13,-2.21 0.39,-2.16 0.66,-2.12 0.90,-2.01 1.14,-1.90 1.35,-1.73 1.57,-1.57 1.57,-1.57 L 1.57,-1.57 Z"></path></g><g transform="translate(216.04833709677428 73.54833709677405) rotate(0 0.00004999999998744897 0.00004999999998744897)" stroke="none"><path fill="#868e96" d="M 1.57,-1.57 Q 1.57,-1.57 1.77,-1.27 1.98,-0.98 2.09,-0.64 2.20,-0.29 2.19,0.05 2.18,0.41 2.05,0.75 1.93,1.09 1.70,1.37 1.48,1.65 1.18,1.84 0.87,2.04 0.52,2.12 0.18,2.21 -0.17,2.18 -0.53,2.15 -0.86,2.01 -1.19,1.87 -1.46,1.63 -1.73,1.39 -1.90,1.07 -2.08,0.76 -2.15,0.41 -2.21,0.05 -2.17,-0.29 -2.12,-0.65 -1.96,-0.97 -1.80,-1.29 -1.54,-1.54 -1.29,-1.80 -0.97,-1.96 -0.65,-2.12 -0.29,-2.17 0.06,-2.21 0.41,-2.15 0.76,-2.08 1.07,-1.90 1.39,-1.73 1.63,-1.46 1.87,-1.19 2.01,-0.86 2.15,-0.53 2.18,-0.17 2.21,0.18 2.12,0.52 2.03,0.87 1.84,1.18 1.65,1.48 1.37,1.70 1.09,1.93 0.75,2.05 0.41,2.18 0.05,2.19 -0.30,2.20 -0.64,2.09 -0.98,1.98 -1.27,1.77 -1.57,1.56 -1.57,1.57 -1.57,1.57 -1.73,1.35 -1.90,1.14 -2.01,0.90 -2.12,0.66 -2.16,0.39 -2.21,0.13 -2.20,-0.13 -2.18,-0.40 -2.10,-0.65 -2.02,-0.91 -1.88,-1.14 -1.74,-1.36 -1.55,-1.55 -1.36,-1.74 -1.14,-1.88 -0.91,-2.02 -0.65,-2.10 -0.40,-2.18 -0.13,-2.20 0.13,-2.21 0.39,-2.16 0.66,-2.12 0.90,-2.01 1.14,-1.90 1.35,-1.73 1.57,-1.57 1.57,-1.57 L 1.57,-1.57 Z"></path></g><g transform="translate(231.20962741935477 86.7741435483872) rotate(0 0.00004999999998744897 0.00004999999998744897)" stroke="none"><path fill="#868e96" d="M 1.57,-1.57 Q 1.57,-1.57 1.77,-1.27 1.98,-0.98 2.09,-0.64 2.20,-0.29 2.19,0.05 2.18,0.41 2.05,0.75 1.93,1.09 1.70,1.37 1.48,1.65 1.18,1.84 0.87,2.04 0.52,2.12 0.18,2.21 -0.17,2.18 -0.53,2.15 -0.86,2.01 -1.19,1.87 -1.46,1.63 -1.73,1.39 -1.90,1.07 -2.08,0.76 -2.15,0.41 -2.21,0.05 -2.17,-0.29 -2.12,-0.65 -1.96,-0.97 -1.80,-1.29 -1.54,-1.54 -1.29,-1.80 -0.97,-1.96 -0.65,-2.12 -0.29,-2.17 0.06,-2.21 0.41,-2.15 0.76,-2.08 1.07,-1.90 1.39,-1.73 1.63,-1.46 1.87,-1.19 2.01,-0.86 2.15,-0.53 2.18,-0.17 2.21,0.18 2.12,0.52 2.03,0.87 1.84,1.18 1.65,1.48 1.37,1.70 1.09,1.93 0.75,2.05 0.41,2.18 0.05,2.19 -0.30,2.20 -0.64,2.09 -0.98,1.98 -1.27,1.77 -1.57,1.56 -1.57,1.57 -1.57,1.57 -1.73,1.35 -1.90,1.14 -2.01,0.90 -2.12,0.66 -2.16,0.39 -2.21,0.13 -2.20,-0.13 -2.18,-0.40 -2.10,-0.65 -2.02,-0.91 -1.88,-1.14 -1.74,-1.36 -1.55,-1.55 -1.36,-1.74 -1.14,-1.88 -0.91,-2.02 -0.65,-2.10 -0.40,-2.18 -0.13,-2.20 0.13,-2.21 0.39,-2.16 0.66,-2.12 0.90,-2.01 1.14,-1.90 1.35,-1.73 1.57,-1.57 1.57,-1.57 L 1.57,-1.57 Z"></path></g><g transform="translate(220.24188548387087 76.7741435483872) rotate(0 3.2258064516129252 2.580645161290363)" stroke="none"><path fill="#868e96" d="M 1.35,-1.69 Q 1.35,-1.69 4.04,0.36 6.72,2.43 6.97,2.70 7.22,2.98 7.36,3.32 7.51,3.66 7.54,4.03 7.57,4.41 7.49,4.77 7.40,5.13 7.20,5.44 7.00,5.76 6.71,5.99 6.42,6.22 6.07,6.35 5.72,6.48 5.35,6.49 4.98,6.50 4.62,6.40 4.26,6.29 3.96,6.07 3.66,5.85 3.44,5.55 3.22,5.25 3.11,4.90 3.00,4.54 3.01,4.17 3.02,3.80 3.15,3.45 3.28,3.10 3.51,2.81 3.74,2.51 4.05,2.31 4.37,2.11 4.73,2.02 5.09,1.93 5.46,1.96 5.83,1.99 6.17,2.14 6.52,2.28 6.79,2.53 7.07,2.78 7.26,3.10 7.44,3.43 7.51,3.79 7.58,4.16 7.53,4.53 7.48,4.89 7.32,5.23 7.15,5.56 6.89,5.83 6.63,6.09 6.29,6.26 5.96,6.42 5.59,6.47 5.22,6.52 4.86,6.45 4.49,6.39 4.17,6.20 3.84,6.02 3.84,6.02 3.84,6.02 1.24,3.86 -1.35,1.69 -1.54,1.50 -1.72,1.32 -1.85,1.09 -1.98,0.87 -2.06,0.62 -2.14,0.36 -2.15,0.10 -2.16,-0.15 -2.11,-0.41 -2.06,-0.66 -1.95,-0.90 -1.84,-1.14 -1.68,-1.34 -1.52,-1.55 -1.31,-1.71 -1.10,-1.87 -0.86,-1.97 -0.62,-2.08 -0.36,-2.12 -0.10,-2.16 0.15,-2.15 0.41,-2.13 0.66,-2.05 0.91,-1.97 1.13,-1.83 1.35,-1.69 1.35,-1.69 L 1.35,-1.69 Z"></path></g><g transform="translate(204.75801451612938 63.8709177419355) rotate(0 3.5483870967741495 2.419354838709637)" stroke="none"><path fill="#868e96" d="M 1.26,-1.90 Q 1.26,-1.90 2.64,-0.95 4.02,-0.01 5.84,1.17 7.66,2.35 7.93,2.61 8.21,2.88 8.39,3.22 8.56,3.56 8.62,3.94 8.68,4.32 8.61,4.69 8.55,5.07 8.37,5.41 8.18,5.74 7.90,6.01 7.62,6.27 7.27,6.42 6.92,6.58 6.54,6.62 6.16,6.66 5.79,6.57 5.42,6.49 5.09,6.29 4.76,6.08 4.52,5.79 4.27,5.50 4.13,5.14 4.00,4.78 3.98,4.40 3.96,4.02 4.07,3.65 4.17,3.28 4.39,2.97 4.61,2.65 4.92,2.42 5.22,2.19 5.59,2.07 5.95,1.96 6.33,1.96 6.72,1.96 7.08,2.09 7.44,2.21 7.74,2.45 8.05,2.68 8.26,3.00 8.47,3.32 8.57,3.69 8.67,4.06 8.64,4.44 8.62,4.83 8.47,5.18 8.33,5.53 8.08,5.82 7.83,6.11 7.50,6.31 7.17,6.50 6.79,6.58 6.42,6.66 6.04,6.61 5.66,6.57 5.31,6.41 4.97,6.24 4.97,6.24 4.97,6.24 3.25,4.98 1.53,3.72 0.13,2.81 -1.26,1.90 -1.47,1.72 -1.68,1.54 -1.84,1.31 -2.00,1.09 -2.10,0.83 -2.20,0.58 -2.24,0.30 -2.28,0.03 -2.25,-0.23 -2.22,-0.51 -2.13,-0.77 -2.03,-1.02 -1.88,-1.25 -1.73,-1.48 -1.53,-1.67 -1.32,-1.85 -1.08,-1.99 -0.84,-2.12 -0.57,-2.19 -0.31,-2.26 -0.03,-2.26 0.23,-2.27 0.50,-2.21 0.77,-2.14 1.02,-2.02 1.26,-1.90 1.26,-1.90 L 1.26,-1.90 Z"></path></g><g transform="translate(228.46769193548448 28.548337096773594) rotate(90.0000000000004 0.00004999999998744897 0.00004999999998744897)" stroke="none"><path fill="#868e96" d="M 1.57,-1.57 Q 1.57,-1.57 1.77,-1.27 1.98,-0.98 2.09,-0.64 2.20,-0.29 2.19,0.05 2.18,0.41 2.05,0.75 1.93,1.09 1.70,1.37 1.48,1.65 1.18,1.84 0.87,2.04 0.52,2.12 0.18,2.21 -0.17,2.18 -0.53,2.15 -0.86,2.01 -1.19,1.87 -1.46,1.63 -1.73,1.39 -1.90,1.07 -2.08,0.76 -2.15,0.41 -2.21,0.05 -2.17,-0.29 -2.12,-0.65 -1.96,-0.97 -1.80,-1.29 -1.54,-1.54 -1.29,-1.80 -0.97,-1.96 -0.65,-2.12 -0.29,-2.17 0.06,-2.21 0.41,-2.15 0.76,-2.08 1.07,-1.90 1.39,-1.73 1.63,-1.46 1.87,-1.19 2.01,-0.86 2.15,-0.53 2.18,-0.17 2.21,0.18 2.12,0.52 2.03,0.87 1.84,1.18 1.65,1.48 1.37,1.70 1.09,1.93 0.75,2.05 0.41,2.18 0.05,2.19 -0.30,2.20 -0.64,2.09 -0.98,1.98 -1.27,1.77 -1.57,1.56 -1.57,1.57 -1.57,1.57 -1.73,1.35 -1.90,1.14 -2.01,0.90 -2.12,0.66 -2.16,0.39 -2.21,0.13 -2.20,-0.13 -2.18,-0.40 -2.10,-0.65 -2.02,-0.91 -1.88,-1.14 -1.74,-1.36 -1.55,-1.55 -1.36,-1.74 -1.14,-1.88 -0.91,-2.02 -0.65,-2.10 -0.40,-2.18 -0.13,-2.20 0.13,-2.21 0.39,-2.16 0.66,-2.12 0.90,-2.01 1.14,-1.90 1.35,-1.73 1.57,-1.57 1.57,-1.57 L 1.57,-1.57 Z"></path></g><g transform="translate(213.95156290322507 44.03220806451509) rotate(90.0000000000004 0.00004999999998744897 0.00004999999998744897)" stroke="none"><path fill="#868e96" d="M 1.57,-1.57 Q 1.57,-1.57 1.77,-1.27 1.98,-0.98 2.09,-0.64 2.20,-0.29 2.19,0.05 2.18,0.41 2.05,0.75 1.93,1.09 1.70,1.37 1.48,1.65 1.18,1.84 0.87,2.04 0.52,2.12 0.18,2.21 -0.17,2.18 -0.53,2.15 -0.86,2.01 -1.19,1.87 -1.46,1.63 -1.73,1.39 -1.90,1.07 -2.08,0.76 -2.15,0.41 -2.21,0.05 -2.17,-0.29 -2.12,-0.65 -1.96,-0.97 -1.80,-1.29 -1.54,-1.54 -1.29,-1.80 -0.97,-1.96 -0.65,-2.12 -0.29,-2.17 0.06,-2.21 0.41,-2.15 0.76,-2.08 1.07,-1.90 1.39,-1.73 1.63,-1.46 1.87,-1.19 2.01,-0.86 2.15,-0.53 2.18,-0.17 2.21,0.18 2.12,0.52 2.03,0.87 1.84,1.18 1.65,1.48 1.37,1.70 1.09,1.93 0.75,2.05 0.41,2.18 0.05,2.19 -0.30,2.20 -0.64,2.09 -0.98,1.98 -1.27,1.77 -1.57,1.56 -1.57,1.57 -1.57,1.57 -1.73,1.35 -1.90,1.14 -2.01,0.90 -2.12,0.66 -2.16,0.39 -2.21,0.13 -2.20,-0.13 -2.18,-0.40 -2.10,-0.65 -2.02,-0.91 -1.88,-1.14 -1.74,-1.36 -1.55,-1.55 -1.36,-1.74 -1.14,-1.88 -0.91,-2.02 -0.65,-2.10 -0.40,-2.18 -0.13,-2.20 0.13,-2.21 0.39,-2.16 0.66,-2.12 0.90,-2.01 1.14,-1.90 1.35,-1.73 1.57,-1.57 1.57,-1.57 L 1.57,-1.57 Z"></path></g><g transform="translate(200.72575645161237 59.1934983870965) rotate(90.0000000000004 0.00004999999998744897 0.00004999999998744897)" stroke="none"><path fill="#868e96" d="M 1.57,-1.57 Q 1.57,-1.57 1.77,-1.27 1.98,-0.98 2.09,-0.64 2.20,-0.29 2.19,0.05 2.18,0.41 2.05,0.75 1.93,1.09 1.70,1.37 1.48,1.65 1.18,1.84 0.87,2.04 0.52,2.12 0.18,2.21 -0.17,2.18 -0.53,2.15 -0.86,2.01 -1.19,1.87 -1.46,1.63 -1.73,1.39 -1.90,1.07 -2.08,0.76 -2.15,0.41 -2.21,0.05 -2.17,-0.29 -2.12,-0.65 -1.96,-0.97 -1.80,-1.29 -1.54,-1.54 -1.29,-1.80 -0.97,-1.96 -0.65,-2.12 -0.29,-2.17 0.06,-2.21 0.41,-2.15 0.76,-2.08 1.07,-1.90 1.39,-1.73 1.63,-1.46 1.87,-1.19 2.01,-0.86 2.15,-0.53 2.18,-0.17 2.21,0.18 2.12,0.52 2.03,0.87 1.84,1.18 1.65,1.48 1.37,1.70 1.09,1.93 0.75,2.05 0.41,2.18 0.05,2.19 -0.30,2.20 -0.64,2.09 -0.98,1.98 -1.27,1.77 -1.57,1.56 -1.57,1.57 -1.57,1.57 -1.73,1.35 -1.90,1.14 -2.01,0.90 -2.12,0.66 -2.16,0.39 -2.21,0.13 -2.20,-0.13 -2.18,-0.40 -2.10,-0.65 -2.02,-0.91 -1.88,-1.14 -1.74,-1.36 -1.55,-1.55 -1.36,-1.74 -1.14,-1.88 -0.91,-2.02 -0.65,-2.10 -0.40,-2.18 -0.13,-2.20 0.13,-2.21 0.39,-2.16 0.66,-2.12 0.90,-2.01 1.14,-1.90 1.35,-1.73 1.57,-1.57 1.57,-1.57 L 1.57,-1.57 Z"></path></g><g transform="translate(204.91940483870917 48.8709177419355) rotate(90.0000000000004 3.2258064516129252 2.580645161290363)" stroke="none"><path fill="#868e96" d="M 1.35,-1.69 Q 1.35,-1.69 4.04,0.36 6.72,2.43 6.97,2.70 7.22,2.98 7.36,3.32 7.51,3.66 7.54,4.03 7.57,4.41 7.49,4.77 7.40,5.13 7.20,5.44 7.00,5.76 6.71,5.99 6.42,6.22 6.07,6.35 5.72,6.48 5.35,6.49 4.98,6.50 4.62,6.40 4.26,6.29 3.96,6.07 3.66,5.85 3.44,5.55 3.22,5.25 3.11,4.90 3.00,4.54 3.01,4.17 3.02,3.80 3.15,3.45 3.28,3.10 3.51,2.81 3.74,2.51 4.05,2.31 4.37,2.11 4.73,2.02 5.09,1.93 5.46,1.96 5.83,1.99 6.17,2.14 6.52,2.28 6.79,2.53 7.07,2.78 7.26,3.10 7.44,3.43 7.51,3.79 7.58,4.16 7.53,4.53 7.48,4.89 7.32,5.23 7.15,5.56 6.89,5.83 6.63,6.09 6.29,6.26 5.96,6.42 5.59,6.47 5.22,6.52 4.86,6.45 4.49,6.39 4.17,6.20 3.84,6.02 3.84,6.02 3.84,6.02 1.24,3.86 -1.35,1.69 -1.54,1.50 -1.72,1.32 -1.85,1.09 -1.98,0.87 -2.06,0.62 -2.14,0.36 -2.15,0.10 -2.16,-0.15 -2.11,-0.41 -2.06,-0.66 -1.95,-0.90 -1.84,-1.14 -1.68,-1.34 -1.52,-1.55 -1.31,-1.71 -1.10,-1.87 -0.86,-1.97 -0.62,-2.08 -0.36,-2.12 -0.10,-2.16 0.15,-2.15 0.41,-2.13 0.66,-2.05 0.91,-1.97 1.13,-1.83 1.35,-1.69 1.35,-1.69 L 1.35,-1.69 Z"></path></g><g transform="translate(217.66134032258037 33.8709177419355) rotate(90.0000000000004 3.5483870967741495 2.419354838709637)" stroke="none"><path fill="#868e96" d="M 1.26,-1.90 Q 1.26,-1.90 2.64,-0.95 4.02,-0.01 5.84,1.17 7.66,2.35 7.93,2.61 8.21,2.88 8.39,3.22 8.56,3.56 8.62,3.94 8.68,4.32 8.61,4.69 8.55,5.07 8.37,5.41 8.18,5.74 7.90,6.01 7.62,6.27 7.27,6.42 6.92,6.58 6.54,6.62 6.16,6.66 5.79,6.57 5.42,6.49 5.09,6.29 4.76,6.08 4.52,5.79 4.27,5.50 4.13,5.14 4.00,4.78 3.98,4.40 3.96,4.02 4.07,3.65 4.17,3.28 4.39,2.97 4.61,2.65 4.92,2.42 5.22,2.19 5.59,2.07 5.95,1.96 6.33,1.96 6.72,1.96 7.08,2.09 7.44,2.21 7.74,2.45 8.05,2.68 8.26,3.00 8.47,3.32 8.57,3.69 8.67,4.06 8.64,4.44 8.62,4.83 8.47,5.18 8.33,5.53 8.08,5.82 7.83,6.11 7.50,6.31 7.17,6.50 6.79,6.58 6.42,6.66 6.04,6.61 5.66,6.57 5.31,6.41 4.97,6.24 4.97,6.24 4.97,6.24 3.25,4.98 1.53,3.72 0.13,2.81 -1.26,1.90 -1.47,1.72 -1.68,1.54 -1.84,1.31 -2.00,1.09 -2.10,0.83 -2.20,0.58 -2.24,0.30 -2.28,0.03 -2.25,-0.23 -2.22,-0.51 -2.13,-0.77 -2.03,-1.02 -1.88,-1.25 -1.73,-1.48 -1.53,-1.67 -1.32,-1.85 -1.08,-1.99 -0.84,-2.12 -0.57,-2.19 -0.31,-2.26 -0.03,-2.26 0.23,-2.27 0.50,-2.21 0.77,-2.14 1.02,-2.02 1.26,-1.90 1.26,-1.90 L 1.26,-1.90 Z"></path></g><g transform="translate(259.1128532258065 55.64511129032235) rotate(90.0000000000004 0.00004999999998744897 0.00004999999998744897)" stroke="none"><path fill="#868e96" d="M 1.57,-1.57 Q 1.57,-1.57 1.77,-1.27 1.98,-0.98 2.09,-0.64 2.20,-0.29 2.19,0.05 2.18,0.41 2.05,0.75 1.93,1.09 1.70,1.37 1.48,1.65 1.18,1.84 0.87,2.04 0.52,2.12 0.18,2.21 -0.17,2.18 -0.53,2.15 -0.86,2.01 -1.19,1.87 -1.46,1.63 -1.73,1.39 -1.90,1.07 -2.08,0.76 -2.15,0.41 -2.21,0.05 -2.17,-0.29 -2.12,-0.65 -1.96,-0.97 -1.80,-1.29 -1.54,-1.54 -1.29,-1.80 -0.97,-1.96 -0.65,-2.12 -0.29,-2.17 0.06,-2.21 0.41,-2.15 0.76,-2.08 1.07,-1.90 1.39,-1.73 1.63,-1.46 1.87,-1.19 2.01,-0.86 2.15,-0.53 2.18,-0.17 2.21,0.18 2.12,0.52 2.03,0.87 1.84,1.18 1.65,1.48 1.37,1.70 1.09,1.93 0.75,2.05 0.41,2.18 0.05,2.19 -0.30,2.20 -0.64,2.09 -0.98,1.98 -1.27,1.77 -1.57,1.56 -1.57,1.57 -1.57,1.57 -1.73,1.35 -1.90,1.14 -2.01,0.90 -2.12,0.66 -2.16,0.39 -2.21,0.13 -2.20,-0.13 -2.18,-0.40 -2.10,-0.65 -2.02,-0.91 -1.88,-1.14 -1.74,-1.36 -1.55,-1.55 -1.36,-1.74 -1.14,-1.88 -0.91,-2.02 -0.65,-2.10 -0.40,-2.18 -0.13,-2.20 0.13,-2.21 0.39,-2.16 0.66,-2.12 0.90,-2.01 1.14,-1.90 1.35,-1.73 1.57,-1.57 1.57,-1.57 L 1.57,-1.57 Z"></path></g><g transform="translate(244.59672419354797 71.12898225806384) rotate(90.0000000000004 0.00004999999998744897 0.00004999999998744897)" stroke="none"><path fill="#868e96" d="M 1.57,-1.57 Q 1.57,-1.57 1.77,-1.27 1.98,-0.98 2.09,-0.64 2.20,-0.29 2.19,0.05 2.18,0.41 2.05,0.75 1.93,1.09 1.70,1.37 1.48,1.65 1.18,1.84 0.87,2.04 0.52,2.12 0.18,2.21 -0.17,2.18 -0.53,2.15 -0.86,2.01 -1.19,1.87 -1.46,1.63 -1.73,1.39 -1.90,1.07 -2.08,0.76 -2.15,0.41 -2.21,0.05 -2.17,-0.29 -2.12,-0.65 -1.96,-0.97 -1.80,-1.29 -1.54,-1.54 -1.29,-1.80 -0.97,-1.96 -0.65,-2.12 -0.29,-2.17 0.06,-2.21 0.41,-2.15 0.76,-2.08 1.07,-1.90 1.39,-1.73 1.63,-1.46 1.87,-1.19 2.01,-0.86 2.15,-0.53 2.18,-0.17 2.21,0.18 2.12,0.52 2.03,0.87 1.84,1.18 1.65,1.48 1.37,1.70 1.09,1.93 0.75,2.05 0.41,2.18 0.05,2.19 -0.30,2.20 -0.64,2.09 -0.98,1.98 -1.27,1.77 -1.57,1.56 -1.57,1.57 -1.57,1.57 -1.73,1.35 -1.90,1.14 -2.01,0.90 -2.12,0.66 -2.16,0.39 -2.21,0.13 -2.20,-0.13 -2.18,-0.40 -2.10,-0.65 -2.02,-0.91 -1.88,-1.14 -1.74,-1.36 -1.55,-1.55 -1.36,-1.74 -1.14,-1.88 -0.91,-2.02 -0.65,-2.10 -0.40,-2.18 -0.13,-2.20 0.13,-2.21 0.39,-2.16 0.66,-2.12 0.90,-2.01 1.14,-1.90 1.35,-1.73 1.57,-1.57 1.57,-1.57 L 1.57,-1.57 Z"></path></g><g transform="translate(231.37091774193436 86.2902725806448) rotate(90.0000000000004 0.00004999999998744897 0.00004999999998744897)" stroke="none"><path fill="#868e96" d="M 1.57,-1.57 Q 1.57,-1.57 1.77,-1.27 1.98,-0.98 2.09,-0.64 2.20,-0.29 2.19,0.05 2.18,0.41 2.05,0.75 1.93,1.09 1.70,1.37 1.48,1.65 1.18,1.84 0.87,2.04 0.52,2.12 0.18,2.21 -0.17,2.18 -0.53,2.15 -0.86,2.01 -1.19,1.87 -1.46,1.63 -1.73,1.39 -1.90,1.07 -2.08,0.76 -2.15,0.41 -2.21,0.05 -2.17,-0.29 -2.12,-0.65 -1.96,-0.97 -1.80,-1.29 -1.54,-1.54 -1.29,-1.80 -0.97,-1.96 -0.65,-2.12 -0.29,-2.17 0.06,-2.21 0.41,-2.15 0.76,-2.08 1.07,-1.90 1.39,-1.73 1.63,-1.46 1.87,-1.19 2.01,-0.86 2.15,-0.53 2.18,-0.17 2.21,0.18 2.12,0.52 2.03,0.87 1.84,1.18 1.65,1.48 1.37,1.70 1.09,1.93 0.75,2.05 0.41,2.18 0.05,2.19 -0.30,2.20 -0.64,2.09 -0.98,1.98 -1.27,1.77 -1.57,1.56 -1.57,1.57 -1.57,1.57 -1.73,1.35 -1.90,1.14 -2.01,0.90 -2.12,0.66 -2.16,0.39 -2.21,0.13 -2.20,-0.13 -2.18,-0.40 -2.10,-0.65 -2.02,-0.91 -1.88,-1.14 -1.74,-1.36 -1.55,-1.55 -1.36,-1.74 -1.14,-1.88 -0.91,-2.02 -0.65,-2.10 -0.40,-2.18 -0.13,-2.20 0.13,-2.21 0.39,-2.16 0.66,-2.12 0.90,-2.01 1.14,-1.90 1.35,-1.73 1.57,-1.57 1.57,-1.57 L 1.57,-1.57 Z"></path></g><g transform="translate(235.56456612903116 75.9676919354838) rotate(90.0000000000004 3.2258064516129252 2.580645161290363)" stroke="none"><path fill="#868e96" d="M 1.35,-1.69 Q 1.35,-1.69 4.04,0.36 6.72,2.43 6.97,2.70 7.22,2.98 7.36,3.32 7.51,3.66 7.54,4.03 7.57,4.41 7.49,4.77 7.40,5.13 7.20,5.44 7.00,5.76 6.71,5.99 6.42,6.22 6.07,6.35 5.72,6.48 5.35,6.49 4.98,6.50 4.62,6.40 4.26,6.29 3.96,6.07 3.66,5.85 3.44,5.55 3.22,5.25 3.11,4.90 3.00,4.54 3.01,4.17 3.02,3.80 3.15,3.45 3.28,3.10 3.51,2.81 3.74,2.51 4.05,2.31 4.37,2.11 4.73,2.02 5.09,1.93 5.46,1.96 5.83,1.99 6.17,2.14 6.52,2.28 6.79,2.53 7.07,2.78 7.26,3.10 7.44,3.43 7.51,3.79 7.58,4.16 7.53,4.53 7.48,4.89 7.32,5.23 7.15,5.56 6.89,5.83 6.63,6.09 6.29,6.26 5.96,6.42 5.59,6.47 5.22,6.52 4.86,6.45 4.49,6.39 4.17,6.20 3.84,6.02 3.84,6.02 3.84,6.02 1.24,3.86 -1.35,1.69 -1.54,1.50 -1.72,1.32 -1.85,1.09 -1.98,0.87 -2.06,0.62 -2.14,0.36 -2.15,0.10 -2.16,-0.15 -2.11,-0.41 -2.06,-0.66 -1.95,-0.90 -1.84,-1.14 -1.68,-1.34 -1.52,-1.55 -1.31,-1.71 -1.10,-1.87 -0.86,-1.97 -0.62,-2.08 -0.36,-2.12 -0.10,-2.16 0.15,-2.15 0.41,-2.13 0.66,-2.05 0.91,-1.97 1.13,-1.83 1.35,-1.69 1.35,-1.69 L 1.35,-1.69 Z"></path></g><g transform="translate(248.30650161290237 60.9676919354838) rotate(90.0000000000004 3.5483870967741495 2.419354838709637)" stroke="none"><path fill="#868e96" d="M 1.26,-1.90 Q 1.26,-1.90 2.64,-0.95 4.02,-0.01 5.84,1.17 7.66,2.35 7.93,2.61 8.21,2.88 8.39,3.22 8.56,3.56 8.62,3.94 8.68,4.32 8.61,4.69 8.55,5.07 8.37,5.41 8.18,5.74 7.90,6.01 7.62,6.27 7.27,6.42 6.92,6.58 6.54,6.62 6.16,6.66 5.79,6.57 5.42,6.49 5.09,6.29 4.76,6.08 4.52,5.79 4.27,5.50 4.13,5.14 4.00,4.78 3.98,4.40 3.96,4.02 4.07,3.65 4.17,3.28 4.39,2.97 4.61,2.65 4.92,2.42 5.22,2.19 5.59,2.07 5.95,1.96 6.33,1.96 6.72,1.96 7.08,2.09 7.44,2.21 7.74,2.45 8.05,2.68 8.26,3.00 8.47,3.32 8.57,3.69 8.67,4.06 8.64,4.44 8.62,4.83 8.47,5.18 8.33,5.53 8.08,5.82 7.83,6.11 7.50,6.31 7.17,6.50 6.79,6.58 6.42,6.66 6.04,6.61 5.66,6.57 5.31,6.41 4.97,6.24 4.97,6.24 4.97,6.24 3.25,4.98 1.53,3.72 0.13,2.81 -1.26,1.90 -1.47,1.72 -1.68,1.54 -1.84,1.31 -2.00,1.09 -2.10,0.83 -2.20,0.58 -2.24,0.30 -2.28,0.03 -2.25,-0.23 -2.22,-0.51 -2.13,-0.77 -2.03,-1.02 -1.88,-1.25 -1.73,-1.48 -1.53,-1.67 -1.32,-1.85 -1.08,-1.99 -0.84,-2.12 -0.57,-2.19 -0.31,-2.26 -0.03,-2.26 0.23,-2.27 0.50,-2.21 0.77,-2.14 1.02,-2.02 1.26,-1.90 1.26,-1.90 L 1.26,-1.90 Z"></path></g><g transform="translate(218.46774193548413 48.0645161290322) rotate(0 10.9677419354839 9.677419354838662)" stroke="none"><path fill="#868e96" d="M 1.17,-1.52 Q 1.17,-1.52 3.53,0.39 5.89,2.31 8.48,4.56 11.07,6.81 14.32,9.93 17.56,13.06 19.87,15.10 22.17,17.13 22.34,17.36 22.51,17.59 22.61,17.86 22.70,18.13 22.70,18.42 22.70,18.71 22.60,18.98 22.51,19.25 22.34,19.48 22.16,19.70 21.93,19.86 21.69,20.02 21.41,20.10 21.14,20.18 20.85,20.16 20.56,20.14 20.30,20.04 20.03,19.93 19.82,19.75 19.60,19.56 19.45,19.31 19.30,19.07 19.24,18.79 19.18,18.51 19.21,18.22 19.24,17.94 19.37,17.68 19.49,17.42 19.68,17.21 19.88,17.00 20.13,16.87 20.39,16.74 20.67,16.69 20.95,16.65 21.24,16.69 21.52,16.74 21.77,16.87 22.02,17.01 22.22,17.22 22.42,17.43 22.54,17.69 22.66,17.95 22.69,18.23 22.72,18.52 22.65,18.80 22.59,19.08 22.44,19.32 22.30,19.57 22.08,19.75 21.86,19.94 21.59,20.04 21.33,20.15 21.04,20.16 20.75,20.18 20.48,20.10 20.20,20.02 19.97,19.86 19.73,19.70 19.73,19.70 19.73,19.70 17.58,17.50 15.43,15.31 12.20,12.31 8.97,9.32 6.36,7.21 3.75,5.10 1.29,3.31 -1.17,1.52 -1.33,1.35 -1.50,1.19 -1.62,1.00 -1.74,0.80 -1.81,0.58 -1.88,0.36 -1.90,0.13 -1.91,-0.09 -1.87,-0.32 -1.83,-0.55 -1.74,-0.76 -1.65,-0.97 -1.51,-1.16 -1.36,-1.34 -1.18,-1.48 -1.00,-1.63 -0.79,-1.73 -0.58,-1.82 -0.35,-1.87 -0.13,-1.91 0.09,-1.90 0.32,-1.89 0.55,-1.82 0.77,-1.75 0.97,-1.63 1.17,-1.52 1.17,-1.52 L 1.17,-1.52 Z"></path></g><g transform="translate(265.5645161290324 55.1612903225805) rotate(0 6.290322580645125 0)" stroke="none"><path fill="#868e96" d="M 0,-2.33 Q 0,-2.33 2.22,-2.20 4.45,-2.06 6.30,-2.20 8.15,-2.34 9.96,-2.39 11.78,-2.44 12.17,-2.38 12.56,-2.32 12.91,-2.13 13.26,-1.94 13.53,-1.66 13.80,-1.37 13.97,-1.01 14.14,-0.65 14.18,-0.26 14.22,0.13 14.14,0.51 14.05,0.90 13.85,1.24 13.64,1.58 13.34,1.84 13.04,2.09 12.67,2.24 12.30,2.39 11.91,2.41 11.51,2.43 11.13,2.32 10.75,2.22 10.42,2.00 10.09,1.77 9.85,1.46 9.61,1.14 9.49,0.77 9.36,0.39 9.36,-0.00 9.36,-0.39 9.49,-0.77 9.61,-1.14 9.85,-1.46 10.09,-1.77 10.42,-2.00 10.75,-2.22 11.13,-2.32 11.51,-2.43 11.91,-2.41 12.30,-2.39 12.67,-2.24 13.04,-2.09 13.34,-1.84 13.64,-1.58 13.85,-1.24 14.05,-0.90 14.14,-0.51 14.22,-0.13 14.18,0.26 14.14,0.65 13.97,1.01 13.80,1.37 13.53,1.66 13.26,1.94 12.91,2.13 12.56,2.32 12.17,2.38 11.78,2.44 11.78,2.44 11.78,2.44 9.96,2.39 8.15,2.34 6.30,2.20 4.45,2.06 2.22,2.20 0,2.33 -0.27,2.30 -0.55,2.26 -0.82,2.16 -1.08,2.06 -1.31,1.90 -1.54,1.74 -1.73,1.53 -1.92,1.32 -2.05,1.07 -2.18,0.82 -2.25,0.55 -2.31,0.28 -2.31,-0.00 -2.31,-0.28 -2.25,-0.55 -2.18,-0.82 -2.05,-1.07 -1.92,-1.32 -1.73,-1.53 -1.54,-1.74 -1.31,-1.90 -1.08,-2.06 -0.82,-2.16 -0.55,-2.26 -0.27,-2.30 0.00,-2.33 0.00,-2.33 L 0,-2.33 Z"></path></g><g transform="translate(227.50000000000023 21.290322580645352) rotate(0 -0.322580645161338 -5.645161290322676)" stroke="none"><path fill="#e03131" d="M -2.14,0.12 Q -2.14,0.12 -2.44,-4.50 -2.74,-9.12 -2.70,-9.48 -2.66,-9.83 -2.51,-10.16 -2.36,-10.49 -2.12,-10.75 -1.87,-11.01 -1.55,-11.18 -1.24,-11.35 -0.88,-11.41 -0.53,-11.46 -0.18,-11.41 0.17,-11.35 0.49,-11.18 0.80,-11.02 1.05,-10.76 1.30,-10.50 1.45,-10.17 1.60,-9.85 1.64,-9.49 1.68,-9.13 1.61,-8.78 1.53,-8.43 1.35,-8.12 1.16,-7.81 0.89,-7.58 0.62,-7.35 0.28,-7.21 -0.04,-7.08 -0.40,-7.06 -0.76,-7.04 -1.10,-7.13 -1.45,-7.23 -1.75,-7.43 -2.05,-7.63 -2.26,-7.92 -2.48,-8.20 -2.60,-8.54 -2.71,-8.88 -2.71,-9.24 -2.71,-9.60 -2.60,-9.94 -2.49,-10.28 -2.27,-10.57 -2.05,-10.85 -1.76,-11.05 -1.46,-11.26 -1.12,-11.35 -0.77,-11.45 -0.41,-11.43 -0.05,-11.41 0.27,-11.28 0.61,-11.15 0.88,-10.92 1.15,-10.69 1.34,-10.38 1.53,-10.07 1.60,-9.72 1.68,-9.37 1.68,-9.37 1.68,-9.37 1.91,-4.74 2.14,-0.12 2.12,0.13 2.10,0.39 2.02,0.63 1.95,0.88 1.81,1.10 1.68,1.32 1.49,1.50 1.31,1.69 1.09,1.82 0.87,1.95 0.62,2.03 0.37,2.10 0.12,2.12 -0.13,2.13 -0.39,2.09 -0.64,2.04 -0.87,1.93 -1.11,1.83 -1.31,1.67 -1.52,1.51 -1.67,1.30 -1.83,1.10 -1.94,0.86 -2.04,0.63 -2.09,0.37 -2.14,0.12 -2.14,0.12 L -2.14,0.12 Z"></path></g><g transform="translate(230.72580645161293 92.25806451612925) rotate(0 0.8064516129031745 8.225806451612925)" stroke="none"><path fill="#868e96" d="M 2.06,-0.14 Q 2.06,-0.14 2.24,3.85 2.42,7.84 2.93,11.25 3.45,14.66 3.43,14.99 3.42,15.32 3.30,15.63 3.18,15.94 2.97,16.20 2.76,16.45 2.48,16.63 2.20,16.80 1.88,16.88 1.56,16.95 1.23,16.92 0.90,16.89 0.60,16.76 0.30,16.63 0.05,16.40 -0.18,16.18 -0.34,15.89 -0.50,15.60 -0.56,15.27 -0.62,14.95 -0.57,14.62 -0.52,14.29 -0.37,14.00 -0.22,13.70 0.01,13.47 0.24,13.24 0.54,13.10 0.84,12.95 1.17,12.91 1.50,12.87 1.82,12.94 2.14,13.01 2.43,13.17 2.72,13.34 2.93,13.59 3.15,13.83 3.28,14.14 3.41,14.45 3.43,14.78 3.45,15.11 3.37,15.43 3.29,15.75 3.10,16.02 2.92,16.30 2.66,16.50 2.40,16.71 2.09,16.82 1.78,16.93 1.45,16.93 1.12,16.94 0.80,16.84 0.49,16.74 0.22,16.54 -0.04,16.34 -0.22,16.07 -0.41,15.80 -0.51,15.49 -0.60,15.17 -0.60,15.17 -0.60,15.17 -0.95,11.63 -1.31,8.10 -1.69,4.12 -2.06,0.14 -2.05,-0.10 -2.04,-0.35 -1.97,-0.59 -1.89,-0.83 -1.77,-1.04 -1.64,-1.26 -1.46,-1.44 -1.29,-1.62 -1.08,-1.75 -0.86,-1.88 -0.63,-1.96 -0.39,-2.03 -0.14,-2.05 0.10,-2.07 0.35,-2.02 0.59,-1.98 0.82,-1.88 1.05,-1.78 1.25,-1.63 1.45,-1.48 1.60,-1.28 1.76,-1.08 1.87,-0.86 1.97,-0.63 2.02,-0.38 2.06,-0.14 2.06,-0.14 L 2.06,-0.14 Z"></path></g><g transform="translate(59.77272727272725 115.03665689149557) rotate(0 5.909090909090878 -0.3409090909090082)" stroke="none"><path fill="#868e96" d="M 0,-2.56 Q 0,-2.56 1.62,-2.51 3.25,-2.47 4.90,-2.83 6.54,-3.19 9.17,-3.34 11.81,-3.50 12.26,-3.43 12.71,-3.35 13.12,-3.14 13.52,-2.93 13.83,-2.59 14.15,-2.26 14.34,-1.85 14.53,-1.43 14.58,-0.98 14.63,-0.53 14.53,-0.08 14.44,0.36 14.20,0.75 13.97,1.14 13.62,1.43 13.27,1.73 12.85,1.90 12.42,2.07 11.97,2.09 11.51,2.12 11.07,2.00 10.63,1.88 10.25,1.62 9.87,1.36 9.60,1.00 9.32,0.64 9.17,0.20 9.03,-0.22 9.03,-0.68 9.03,-1.13 9.17,-1.56 9.32,-2.00 9.59,-2.36 9.87,-2.72 10.25,-2.98 10.63,-3.24 11.07,-3.36 11.51,-3.48 11.96,-3.46 12.42,-3.43 12.84,-3.26 13.27,-3.10 13.62,-2.80 13.96,-2.51 14.20,-2.11 14.43,-1.72 14.53,-1.28 14.63,-0.83 14.58,-0.38 14.53,0.07 14.34,0.48 14.15,0.90 13.84,1.23 13.52,1.56 13.12,1.77 12.72,1.99 12.27,2.06 11.81,2.14 11.82,2.14 11.82,2.14 9.88,2.11 7.94,2.08 6.87,2.10 5.79,2.12 4.53,2.29 3.27,2.47 1.63,2.51 0,2.56 -0.30,2.52 -0.61,2.48 -0.90,2.37 -1.19,2.26 -1.44,2.09 -1.69,1.91 -1.90,1.68 -2.10,1.45 -2.25,1.18 -2.39,0.90 -2.46,0.60 -2.54,0.30 -2.54,-0.00 -2.54,-0.30 -2.46,-0.60 -2.39,-0.90 -2.25,-1.18 -2.10,-1.45 -1.90,-1.68 -1.69,-1.91 -1.44,-2.09 -1.19,-2.26 -0.90,-2.37 -0.61,-2.48 -0.30,-2.52 0.00,-2.56 0.00,-2.56 L 0,-2.56 Z"></path></g><g transform="translate(143.86363636363626 111.17302052785953) rotate(0 5.340909090909122 0)" stroke="none"><path fill="#868e96" d="M 0,-2.64 Q 0,-2.64 1.11,-2.66 2.22,-2.68 3.42,-2.75 4.62,-2.82 5.92,-2.88 7.22,-2.93 8.95,-2.95 10.68,-2.98 11.15,-2.90 11.63,-2.82 12.06,-2.60 12.48,-2.37 12.81,-2.02 13.15,-1.67 13.35,-1.23 13.55,-0.79 13.60,-0.31 13.66,0.16 13.55,0.63 13.45,1.10 13.20,1.51 12.95,1.93 12.58,2.24 12.21,2.55 11.77,2.73 11.32,2.91 10.84,2.93 10.35,2.96 9.89,2.83 9.42,2.70 9.02,2.43 8.62,2.16 8.33,1.78 8.04,1.39 7.89,0.93 7.73,0.48 7.73,-0.00 7.73,-0.48 7.89,-0.94 8.04,-1.39 8.33,-1.78 8.63,-2.16 9.03,-2.43 9.42,-2.70 9.89,-2.83 10.35,-2.96 10.84,-2.93 11.32,-2.91 11.77,-2.73 12.22,-2.55 12.58,-2.24 12.95,-1.93 13.20,-1.51 13.45,-1.10 13.55,-0.63 13.66,-0.16 13.60,0.31 13.55,0.79 13.35,1.23 13.15,1.67 12.81,2.02 12.48,2.37 12.06,2.60 11.63,2.82 11.15,2.90 10.68,2.98 10.68,2.98 10.68,2.98 8.95,2.95 7.22,2.93 5.92,2.88 4.62,2.82 3.42,2.75 2.22,2.68 1.11,2.66 0,2.64 -0.31,2.60 -0.63,2.56 -0.93,2.45 -1.22,2.34 -1.49,2.16 -1.75,1.97 -1.96,1.74 -2.17,1.50 -2.32,1.22 -2.47,0.93 -2.54,0.62 -2.62,0.31 -2.62,-0.00 -2.62,-0.31 -2.54,-0.62 -2.47,-0.93 -2.32,-1.22 -2.17,-1.50 -1.96,-1.74 -1.75,-1.97 -1.49,-2.16 -1.22,-2.34 -0.93,-2.45 -0.63,-2.56 -0.31,-2.60 0.00,-2.64 0.00,-2.64 L 0,-2.64 Z"></path></g><g transform="translate(227.95454545454527 107.76392961876854) rotate(0 4.31818181818187 0)" stroke="none"><path fill="#868e96" d="M 0,-2.47 Q 0,-2.47 1.50,-2.46 3.00,-2.45 5.82,-2.52 8.63,-2.60 9.05,-2.53 9.46,-2.46 9.83,-2.26 10.21,-2.07 10.49,-1.76 10.78,-1.45 10.96,-1.07 11.14,-0.69 11.18,-0.27 11.23,0.14 11.14,0.55 11.05,0.96 10.83,1.32 10.61,1.68 10.29,1.95 9.97,2.22 9.58,2.38 9.19,2.54 8.77,2.56 8.35,2.58 7.94,2.47 7.54,2.36 7.19,2.12 6.84,1.88 6.59,1.55 6.33,1.21 6.20,0.81 6.06,0.42 6.06,-0.00 6.06,-0.42 6.20,-0.81 6.33,-1.21 6.59,-1.55 6.84,-1.88 7.19,-2.12 7.54,-2.36 7.95,-2.47 8.35,-2.58 8.77,-2.56 9.19,-2.53 9.58,-2.38 9.97,-2.22 10.29,-1.95 10.61,-1.68 10.83,-1.32 11.05,-0.96 11.14,-0.55 11.23,-0.14 11.18,0.27 11.14,0.69 10.96,1.07 10.78,1.46 10.49,1.76 10.20,2.07 9.83,2.26 9.46,2.46 9.05,2.53 8.63,2.60 8.63,2.60 8.63,2.60 5.82,2.52 3.00,2.45 1.50,2.46 0,2.47 -0.29,2.44 -0.59,2.40 -0.87,2.30 -1.15,2.19 -1.39,2.02 -1.64,1.85 -1.84,1.63 -2.03,1.40 -2.17,1.14 -2.31,0.87 -2.38,0.58 -2.46,0.29 -2.46,-0.00 -2.46,-0.29 -2.38,-0.58 -2.31,-0.87 -2.17,-1.14 -2.03,-1.40 -1.84,-1.63 -1.64,-1.85 -1.39,-2.02 -1.15,-2.19 -0.87,-2.30 -0.59,-2.40 -0.29,-2.44 0.00,-2.47 0.00,-2.47 L 0,-2.47 Z"></path></g><g transform="translate(278.40909090909076 48.67302052785931) rotate(0 0.5681818181818699 6.477272727272748)" stroke="none"><path fill="#868e96" d="M 2.23,0 Q 2.23,0 2.12,2.09 2.01,4.18 2.01,6.14 2.01,8.11 2.57,10.35 3.13,12.60 3.14,12.92 3.14,13.25 3.04,13.57 2.94,13.88 2.74,14.14 2.55,14.41 2.28,14.60 2.01,14.78 1.69,14.88 1.38,14.97 1.05,14.95 0.72,14.94 0.41,14.82 0.10,14.71 -0.14,14.50 -0.39,14.29 -0.57,14.01 -0.74,13.73 -0.81,13.40 -0.89,13.08 -0.86,12.76 -0.82,12.43 -0.69,12.13 -0.56,11.83 -0.33,11.59 -0.11,11.35 0.17,11.19 0.46,11.03 0.78,10.97 1.11,10.92 1.43,10.97 1.76,11.01 2.05,11.16 2.34,11.32 2.57,11.55 2.80,11.79 2.94,12.08 3.08,12.38 3.12,12.71 3.16,13.04 3.10,13.36 3.03,13.68 2.86,13.96 2.70,14.25 2.45,14.46 2.20,14.68 1.90,14.81 1.59,14.93 1.26,14.95 0.94,14.97 0.62,14.89 0.30,14.81 0.02,14.62 -0.24,14.44 -0.44,14.18 -0.64,13.92 -0.75,13.61 -0.86,13.30 -0.86,13.30 -0.86,13.30 -1.31,10.77 -1.75,8.25 -1.88,6.21 -2.01,4.18 -2.12,2.09 -2.23,0 -2.20,-0.26 -2.16,-0.53 -2.07,-0.78 -1.97,-1.03 -1.82,-1.26 -1.67,-1.48 -1.47,-1.66 -1.26,-1.83 -1.03,-1.96 -0.79,-2.08 -0.53,-2.15 -0.26,-2.21 0.00,-2.21 0.26,-2.21 0.53,-2.15 0.79,-2.08 1.03,-1.96 1.26,-1.83 1.47,-1.66 1.67,-1.48 1.82,-1.25 1.97,-1.03 2.07,-0.78 2.16,-0.53 2.20,-0.26 2.23,0.00 2.23,0.00 L 2.23,0 Z"></path></g><g transform="translate(10 58.67302052785908) rotate(0 0 5.795454545454618)" stroke="none"><path fill="#868e96" d="M 2.63,0 Q 2.63,0 2.65,1.17 2.66,2.35 2.68,3.50 2.70,4.65 2.77,5.96 2.84,7.26 2.90,9.42 2.95,11.59 2.87,12.06 2.79,12.53 2.57,12.95 2.35,13.37 2.00,13.70 1.65,14.03 1.22,14.23 0.79,14.43 0.31,14.48 -0.16,14.54 -0.62,14.43 -1.09,14.33 -1.50,14.08 -1.91,13.84 -2.22,13.47 -2.53,13.11 -2.70,12.66 -2.88,12.22 -2.91,11.74 -2.93,11.27 -2.80,10.81 -2.68,10.35 -2.41,9.95 -2.14,9.55 -1.76,9.26 -1.38,8.98 -0.93,8.82 -0.47,8.67 0.00,8.67 0.47,8.67 0.93,8.82 1.38,8.98 1.76,9.27 2.14,9.55 2.41,9.95 2.68,10.35 2.80,10.81 2.93,11.27 2.91,11.74 2.88,12.22 2.70,12.67 2.53,13.11 2.22,13.47 1.91,13.84 1.50,14.08 1.09,14.33 0.62,14.43 0.15,14.54 -0.31,14.48 -0.79,14.43 -1.22,14.23 -1.65,14.03 -2.00,13.70 -2.35,13.37 -2.57,12.95 -2.79,12.53 -2.87,12.06 -2.95,11.59 -2.95,11.59 -2.95,11.59 -2.90,9.42 -2.84,7.26 -2.77,5.96 -2.70,4.65 -2.68,3.50 -2.66,2.35 -2.65,1.17 -2.63,0 -2.59,-0.31 -2.55,-0.63 -2.44,-0.92 -2.33,-1.22 -2.15,-1.48 -1.97,-1.74 -1.73,-1.95 -1.49,-2.16 -1.21,-2.31 -0.93,-2.46 -0.62,-2.54 -0.31,-2.61 0.00,-2.61 0.31,-2.61 0.62,-2.54 0.93,-2.46 1.21,-2.31 1.49,-2.16 1.73,-1.95 1.97,-1.74 2.15,-1.48 2.33,-1.22 2.44,-0.92 2.56,-0.63 2.59,-0.31 2.63,0.00 2.63,0.00 L 2.63,0 Z"></path></g></svg>