<svg version="1.1" xmlns="http://www.w3.org/2000/svg" viewBox="0 0 126.77419354838707 122.90322580645147" width="253.54838709677415" height="245.80645161290295">
  <!-- svg-source:excalidraw -->
  
  <defs>
    <style class="style-fonts">
      
    </style>
    
  </defs>
  <g transform="translate(78.38709677419365 45.1612903225805) rotate(0 0.00004999999998744897 0.00004999999998744897)" stroke="none"><path fill="#e03131" d="M 1.57,-1.57 Q 1.57,-1.57 1.77,-1.27 1.98,-0.98 2.09,-0.64 2.20,-0.29 2.19,0.05 2.18,0.41 2.05,0.75 1.93,1.09 1.70,1.37 1.48,1.65 1.18,1.84 0.87,2.04 0.52,2.12 0.18,2.21 -0.17,2.18 -0.53,2.15 -0.86,2.01 -1.19,1.87 -1.46,1.63 -1.73,1.39 -1.90,1.07 -2.08,0.76 -2.15,0.41 -2.21,0.05 -2.17,-0.29 -2.12,-0.65 -1.96,-0.97 -1.80,-1.29 -1.54,-1.54 -1.29,-1.80 -0.97,-1.96 -0.65,-2.12 -0.29,-2.17 0.06,-2.21 0.41,-2.15 0.76,-2.08 1.07,-1.90 1.39,-1.73 1.63,-1.46 1.87,-1.19 2.01,-0.86 2.15,-0.53 2.18,-0.17 2.21,0.18 2.12,0.52 2.03,0.87 1.84,1.18 1.65,1.48 1.37,1.70 1.09,1.93 0.75,2.05 0.41,2.18 0.05,2.19 -0.30,2.20 -0.64,2.09 -0.98,1.98 -1.27,1.77 -1.57,1.56 -1.57,1.57 -1.57,1.57 -1.73,1.35 -1.90,1.14 -2.01,0.90 -2.12,0.66 -2.16,0.39 -2.21,0.13 -2.20,-0.13 -2.18,-0.40 -2.10,-0.65 -2.02,-0.91 -1.88,-1.14 -1.74,-1.36 -1.55,-1.55 -1.36,-1.74 -1.14,-1.88 -0.91,-2.02 -0.65,-2.10 -0.40,-2.18 -0.13,-2.20 0.13,-2.21 0.39,-2.16 0.66,-2.12 0.90,-2.01 1.14,-1.90 1.35,-1.73 1.57,-1.57 1.57,-1.57 L 1.57,-1.57 Z"></path></g><g transform="translate(82.58064516129025 48.387096774193424) rotate(0 3.2258064516129252 2.580645161290363)" stroke="none"><path fill="#e03131" d="M 1.30,-1.62 Q 1.30,-1.62 3.09,-0.06 4.88,1.49 6.26,2.58 7.63,3.67 7.84,3.90 8.04,4.13 8.16,4.41 8.29,4.69 8.31,5.00 8.34,5.31 8.26,5.60 8.19,5.90 8.03,6.16 7.86,6.42 7.62,6.61 7.38,6.81 7.10,6.91 6.81,7.02 6.50,7.03 6.19,7.04 5.90,6.95 5.61,6.86 5.36,6.68 5.11,6.50 4.93,6.25 4.75,6.00 4.66,5.71 4.57,5.42 4.58,5.11 4.58,4.80 4.69,4.51 4.79,4.23 4.98,3.99 5.18,3.75 5.43,3.58 5.69,3.42 5.99,3.34 6.29,3.27 6.59,3.29 6.90,3.31 7.18,3.43 7.46,3.56 7.69,3.76 7.92,3.96 8.07,4.23 8.23,4.50 8.28,4.80 8.34,5.10 8.30,5.41 8.26,5.71 8.13,5.98 7.99,6.26 7.77,6.48 7.56,6.69 7.28,6.83 7.01,6.97 6.70,7.01 6.40,7.05 6.10,7.00 5.80,6.94 5.53,6.79 5.26,6.64 5.26,6.64 5.26,6.64 3.90,5.53 2.53,4.43 0.61,3.03 -1.30,1.62 -1.47,1.44 -1.65,1.26 -1.78,1.05 -1.91,0.83 -1.98,0.59 -2.05,0.35 -2.06,0.10 -2.08,-0.14 -2.03,-0.39 -1.98,-0.64 -1.87,-0.86 -1.77,-1.09 -1.61,-1.29 -1.45,-1.48 -1.26,-1.64 -1.06,-1.79 -0.83,-1.89 -0.60,-1.99 -0.35,-2.04 -0.10,-2.08 0.14,-2.06 0.39,-2.04 0.63,-1.97 0.87,-1.89 1.08,-1.76 1.30,-1.62 1.30,-1.62 L 1.30,-1.62 Z"></path></g><g transform="translate(67.0967741935483 35.48387096774195) rotate(0 3.5483870967741495 2.419354838709637)" stroke="none"><path fill="#e03131" d="M 1.26,-1.89 Q 1.26,-1.89 2.64,-0.95 4.02,-0.00 6.22,1.45 8.43,2.91 8.70,3.17 8.97,3.43 9.15,3.77 9.32,4.11 9.38,4.48 9.44,4.86 9.37,5.23 9.31,5.60 9.13,5.94 8.95,6.27 8.67,6.53 8.39,6.79 8.04,6.94 7.70,7.10 7.32,7.14 6.94,7.17 6.57,7.09 6.20,7.00 5.88,6.81 5.56,6.61 5.31,6.32 5.07,6.02 4.93,5.67 4.80,5.32 4.78,4.94 4.76,4.56 4.87,4.19 4.97,3.83 5.19,3.52 5.40,3.21 5.71,2.98 6.01,2.75 6.37,2.63 6.73,2.52 7.11,2.52 7.49,2.52 7.85,2.65 8.21,2.77 8.51,3.00 8.81,3.24 9.02,3.55 9.23,3.87 9.33,4.24 9.43,4.60 9.40,4.98 9.38,5.36 9.23,5.71 9.09,6.06 8.84,6.35 8.59,6.64 8.27,6.83 7.94,7.02 7.57,7.10 7.20,7.18 6.82,7.13 6.44,7.09 6.10,6.92 5.76,6.76 5.76,6.76 5.76,6.76 3.65,5.24 1.54,3.71 0.13,2.80 -1.26,1.89 -1.47,1.71 -1.67,1.53 -1.83,1.31 -1.99,1.09 -2.10,0.83 -2.20,0.58 -2.23,0.30 -2.27,0.03 -2.24,-0.23 -2.21,-0.50 -2.12,-0.76 -2.03,-1.02 -1.88,-1.25 -1.72,-1.48 -1.52,-1.66 -1.32,-1.85 -1.08,-1.98 -0.84,-2.11 -0.57,-2.18 -0.31,-2.25 -0.03,-2.26 0.23,-2.26 0.50,-2.20 0.77,-2.14 1.01,-2.01 1.26,-1.89 1.26,-1.89 L 1.26,-1.89 Z"></path></g><g transform="translate(50.8064016129033 76.45156290322575) rotate(0 0.00004999999998744897 0.00004999999998744897)" stroke="none"><path fill="#e03131" d="M 1.57,-1.57 Q 1.57,-1.57 1.77,-1.27 1.98,-0.98 2.09,-0.64 2.20,-0.29 2.19,0.05 2.18,0.41 2.05,0.75 1.93,1.09 1.70,1.37 1.48,1.65 1.18,1.84 0.87,2.04 0.52,2.12 0.18,2.21 -0.17,2.18 -0.53,2.15 -0.86,2.01 -1.19,1.87 -1.46,1.63 -1.73,1.39 -1.90,1.07 -2.08,0.76 -2.15,0.41 -2.21,0.05 -2.17,-0.29 -2.12,-0.65 -1.96,-0.97 -1.80,-1.29 -1.54,-1.54 -1.29,-1.80 -0.97,-1.96 -0.65,-2.12 -0.29,-2.17 0.06,-2.21 0.41,-2.15 0.76,-2.08 1.07,-1.90 1.39,-1.73 1.63,-1.46 1.87,-1.19 2.01,-0.86 2.15,-0.53 2.18,-0.17 2.21,0.18 2.12,0.52 2.03,0.87 1.84,1.18 1.65,1.48 1.37,1.70 1.09,1.93 0.75,2.05 0.41,2.18 0.05,2.19 -0.30,2.20 -0.64,2.09 -0.98,1.98 -1.27,1.77 -1.57,1.56 -1.57,1.57 -1.57,1.57 -1.73,1.35 -1.90,1.14 -2.01,0.90 -2.12,0.66 -2.16,0.39 -2.21,0.13 -2.20,-0.13 -2.18,-0.40 -2.10,-0.65 -2.02,-0.91 -1.88,-1.14 -1.74,-1.36 -1.55,-1.55 -1.36,-1.74 -1.14,-1.88 -0.91,-2.02 -0.65,-2.10 -0.40,-2.18 -0.13,-2.20 0.13,-2.21 0.39,-2.16 0.66,-2.12 0.90,-2.01 1.14,-1.90 1.35,-1.73 1.57,-1.57 1.57,-1.57 L 1.57,-1.57 Z"></path></g><g transform="translate(65.9676919354838 89.67736935483913) rotate(0 0.00004999999998744897 0.00005000000010113581)" stroke="none"><path fill="#e03131" d="M 1.57,-1.57 Q 1.57,-1.57 1.77,-1.27 1.98,-0.98 2.09,-0.64 2.20,-0.29 2.19,0.05 2.18,0.41 2.05,0.75 1.93,1.09 1.70,1.37 1.48,1.65 1.18,1.84 0.87,2.04 0.52,2.12 0.18,2.21 -0.17,2.18 -0.53,2.15 -0.86,2.01 -1.19,1.87 -1.46,1.63 -1.73,1.39 -1.90,1.07 -2.08,0.76 -2.15,0.41 -2.21,0.05 -2.17,-0.29 -2.12,-0.65 -1.96,-0.97 -1.80,-1.29 -1.54,-1.54 -1.29,-1.80 -0.97,-1.96 -0.65,-2.12 -0.29,-2.17 0.06,-2.21 0.41,-2.15 0.76,-2.08 1.07,-1.90 1.39,-1.73 1.63,-1.46 1.87,-1.19 2.01,-0.86 2.15,-0.53 2.18,-0.17 2.21,0.18 2.12,0.52 2.03,0.87 1.84,1.18 1.65,1.48 1.37,1.70 1.09,1.93 0.75,2.05 0.41,2.18 0.05,2.19 -0.30,2.20 -0.64,2.09 -0.98,1.98 -1.27,1.77 -1.57,1.56 -1.57,1.57 -1.57,1.57 -1.73,1.35 -1.90,1.14 -2.01,0.90 -2.12,0.66 -2.16,0.39 -2.21,0.13 -2.20,-0.13 -2.18,-0.40 -2.10,-0.65 -2.02,-0.91 -1.88,-1.14 -1.74,-1.36 -1.55,-1.55 -1.36,-1.74 -1.14,-1.88 -0.91,-2.02 -0.65,-2.10 -0.40,-2.18 -0.13,-2.20 0.13,-2.21 0.39,-2.16 0.66,-2.12 0.90,-2.01 1.14,-1.90 1.35,-1.73 1.57,-1.57 1.57,-1.57 L 1.57,-1.57 Z"></path></g><g transform="translate(54.9999499999999 79.6773693548389) rotate(0 3.2258064516129252 2.580645161290363)" stroke="none"><path fill="#e03131" d="M 1.35,-1.69 Q 1.35,-1.69 4.04,0.36 6.72,2.43 6.97,2.70 7.22,2.98 7.36,3.32 7.51,3.66 7.54,4.03 7.57,4.41 7.49,4.77 7.40,5.13 7.20,5.44 7.00,5.76 6.71,5.99 6.42,6.22 6.07,6.35 5.72,6.48 5.35,6.49 4.98,6.50 4.62,6.40 4.26,6.29 3.96,6.07 3.66,5.85 3.44,5.55 3.22,5.25 3.11,4.90 3.00,4.54 3.01,4.17 3.02,3.80 3.15,3.45 3.28,3.10 3.51,2.81 3.74,2.51 4.05,2.31 4.37,2.11 4.73,2.02 5.09,1.93 5.46,1.96 5.83,1.99 6.17,2.14 6.52,2.28 6.79,2.53 7.07,2.78 7.26,3.10 7.44,3.43 7.51,3.79 7.58,4.16 7.53,4.53 7.48,4.89 7.32,5.23 7.15,5.56 6.89,5.83 6.63,6.09 6.29,6.26 5.96,6.42 5.59,6.47 5.22,6.52 4.86,6.45 4.49,6.39 4.17,6.20 3.84,6.02 3.84,6.02 3.84,6.02 1.24,3.86 -1.35,1.69 -1.54,1.50 -1.72,1.32 -1.85,1.09 -1.98,0.87 -2.06,0.62 -2.14,0.36 -2.15,0.10 -2.16,-0.15 -2.11,-0.41 -2.06,-0.66 -1.95,-0.90 -1.84,-1.14 -1.68,-1.34 -1.52,-1.55 -1.31,-1.71 -1.10,-1.87 -0.86,-1.97 -0.62,-2.08 -0.36,-2.12 -0.10,-2.16 0.15,-2.15 0.41,-2.13 0.66,-2.05 0.91,-1.97 1.13,-1.83 1.35,-1.69 1.35,-1.69 L 1.35,-1.69 Z"></path></g><g transform="translate(39.5160790322584 66.7741435483872) rotate(0 3.5483870967741495 2.419354838709637)" stroke="none"><path fill="#e03131" d="M 1.26,-1.90 Q 1.26,-1.90 2.64,-0.95 4.02,-0.01 5.84,1.17 7.66,2.35 7.93,2.61 8.21,2.88 8.39,3.22 8.56,3.56 8.62,3.94 8.68,4.32 8.61,4.69 8.55,5.07 8.37,5.41 8.18,5.74 7.90,6.01 7.62,6.27 7.27,6.42 6.92,6.58 6.54,6.62 6.16,6.66 5.79,6.57 5.42,6.49 5.09,6.29 4.76,6.08 4.52,5.79 4.27,5.50 4.13,5.14 4.00,4.78 3.98,4.40 3.96,4.02 4.07,3.65 4.17,3.28 4.39,2.97 4.61,2.65 4.92,2.42 5.22,2.19 5.59,2.07 5.95,1.96 6.33,1.96 6.72,1.96 7.08,2.09 7.44,2.21 7.74,2.45 8.05,2.68 8.26,3.00 8.47,3.32 8.57,3.69 8.67,4.06 8.64,4.44 8.62,4.83 8.47,5.18 8.33,5.53 8.08,5.82 7.83,6.11 7.50,6.31 7.17,6.50 6.79,6.58 6.42,6.66 6.04,6.61 5.66,6.57 5.31,6.41 4.97,6.24 4.97,6.24 4.97,6.24 3.25,4.98 1.53,3.72 0.13,2.81 -1.26,1.90 -1.47,1.72 -1.68,1.54 -1.84,1.31 -2.00,1.09 -2.10,0.83 -2.20,0.58 -2.24,0.30 -2.28,0.03 -2.25,-0.23 -2.22,-0.51 -2.13,-0.77 -2.03,-1.02 -1.88,-1.25 -1.73,-1.48 -1.53,-1.67 -1.32,-1.85 -1.08,-1.99 -0.84,-2.12 -0.57,-2.19 -0.31,-2.26 -0.03,-2.26 0.23,-2.27 0.50,-2.21 0.77,-2.14 1.02,-2.02 1.26,-1.90 1.26,-1.90 L 1.26,-1.90 Z"></path></g><g transform="translate(63.225756451613506 31.451562903225522) rotate(90.0000000000004 0.00004999999998744897 0.00004999999998744897)" stroke="none"><path fill="#e03131" d="M 1.57,-1.57 Q 1.57,-1.57 1.77,-1.27 1.98,-0.98 2.09,-0.64 2.20,-0.29 2.19,0.05 2.18,0.41 2.05,0.75 1.93,1.09 1.70,1.37 1.48,1.65 1.18,1.84 0.87,2.04 0.52,2.12 0.18,2.21 -0.17,2.18 -0.53,2.15 -0.86,2.01 -1.19,1.87 -1.46,1.63 -1.73,1.39 -1.90,1.07 -2.08,0.76 -2.15,0.41 -2.21,0.05 -2.17,-0.29 -2.12,-0.65 -1.96,-0.97 -1.80,-1.29 -1.54,-1.54 -1.29,-1.80 -0.97,-1.96 -0.65,-2.12 -0.29,-2.17 0.06,-2.21 0.41,-2.15 0.76,-2.08 1.07,-1.90 1.39,-1.73 1.63,-1.46 1.87,-1.19 2.01,-0.86 2.15,-0.53 2.18,-0.17 2.21,0.18 2.12,0.52 2.03,0.87 1.84,1.18 1.65,1.48 1.37,1.70 1.09,1.93 0.75,2.05 0.41,2.18 0.05,2.19 -0.30,2.20 -0.64,2.09 -0.98,1.98 -1.27,1.77 -1.57,1.56 -1.57,1.57 -1.57,1.57 -1.73,1.35 -1.90,1.14 -2.01,0.90 -2.12,0.66 -2.16,0.39 -2.21,0.13 -2.20,-0.13 -2.18,-0.40 -2.10,-0.65 -2.02,-0.91 -1.88,-1.14 -1.74,-1.36 -1.55,-1.55 -1.36,-1.74 -1.14,-1.88 -0.91,-2.02 -0.65,-2.10 -0.40,-2.18 -0.13,-2.20 0.13,-2.21 0.39,-2.16 0.66,-2.12 0.90,-2.01 1.14,-1.90 1.35,-1.73 1.57,-1.57 1.57,-1.57 L 1.57,-1.57 Z"></path></g><g transform="translate(48.70962741935432 46.93543387096702) rotate(90.0000000000004 0.00004999999998744897 0.00004999999998744897)" stroke="none"><path fill="#e03131" d="M 1.57,-1.57 Q 1.57,-1.57 1.77,-1.27 1.98,-0.98 2.09,-0.64 2.20,-0.29 2.19,0.05 2.18,0.41 2.05,0.75 1.93,1.09 1.70,1.37 1.48,1.65 1.18,1.84 0.87,2.04 0.52,2.12 0.18,2.21 -0.17,2.18 -0.53,2.15 -0.86,2.01 -1.19,1.87 -1.46,1.63 -1.73,1.39 -1.90,1.07 -2.08,0.76 -2.15,0.41 -2.21,0.05 -2.17,-0.29 -2.12,-0.65 -1.96,-0.97 -1.80,-1.29 -1.54,-1.54 -1.29,-1.80 -0.97,-1.96 -0.65,-2.12 -0.29,-2.17 0.06,-2.21 0.41,-2.15 0.76,-2.08 1.07,-1.90 1.39,-1.73 1.63,-1.46 1.87,-1.19 2.01,-0.86 2.15,-0.53 2.18,-0.17 2.21,0.18 2.12,0.52 2.03,0.87 1.84,1.18 1.65,1.48 1.37,1.70 1.09,1.93 0.75,2.05 0.41,2.18 0.05,2.19 -0.30,2.20 -0.64,2.09 -0.98,1.98 -1.27,1.77 -1.57,1.56 -1.57,1.57 -1.57,1.57 -1.73,1.35 -1.90,1.14 -2.01,0.90 -2.12,0.66 -2.16,0.39 -2.21,0.13 -2.20,-0.13 -2.18,-0.40 -2.10,-0.65 -2.02,-0.91 -1.88,-1.14 -1.74,-1.36 -1.55,-1.55 -1.36,-1.74 -1.14,-1.88 -0.91,-2.02 -0.65,-2.10 -0.40,-2.18 -0.13,-2.20 0.13,-2.21 0.39,-2.16 0.66,-2.12 0.90,-2.01 1.14,-1.90 1.35,-1.73 1.57,-1.57 1.57,-1.57 L 1.57,-1.57 Z"></path></g><g transform="translate(35.48382096774117 62.0967241935482) rotate(90.0000000000004 0.00004999999998744897 0.00004999999998744897)" stroke="none"><path fill="#e03131" d="M 1.57,-1.57 Q 1.57,-1.57 1.77,-1.27 1.98,-0.98 2.09,-0.64 2.20,-0.29 2.19,0.05 2.18,0.41 2.05,0.75 1.93,1.09 1.70,1.37 1.48,1.65 1.18,1.84 0.87,2.04 0.52,2.12 0.18,2.21 -0.17,2.18 -0.53,2.15 -0.86,2.01 -1.19,1.87 -1.46,1.63 -1.73,1.39 -1.90,1.07 -2.08,0.76 -2.15,0.41 -2.21,0.05 -2.17,-0.29 -2.12,-0.65 -1.96,-0.97 -1.80,-1.29 -1.54,-1.54 -1.29,-1.80 -0.97,-1.96 -0.65,-2.12 -0.29,-2.17 0.06,-2.21 0.41,-2.15 0.76,-2.08 1.07,-1.90 1.39,-1.73 1.63,-1.46 1.87,-1.19 2.01,-0.86 2.15,-0.53 2.18,-0.17 2.21,0.18 2.12,0.52 2.03,0.87 1.84,1.18 1.65,1.48 1.37,1.70 1.09,1.93 0.75,2.05 0.41,2.18 0.05,2.19 -0.30,2.20 -0.64,2.09 -0.98,1.98 -1.27,1.77 -1.57,1.56 -1.57,1.57 -1.57,1.57 -1.73,1.35 -1.90,1.14 -2.01,0.90 -2.12,0.66 -2.16,0.39 -2.21,0.13 -2.20,-0.13 -2.18,-0.40 -2.10,-0.65 -2.02,-0.91 -1.88,-1.14 -1.74,-1.36 -1.55,-1.55 -1.36,-1.74 -1.14,-1.88 -0.91,-2.02 -0.65,-2.10 -0.40,-2.18 -0.13,-2.20 0.13,-2.21 0.39,-2.16 0.66,-2.12 0.90,-2.01 1.14,-1.90 1.35,-1.73 1.57,-1.57 1.57,-1.57 L 1.57,-1.57 Z"></path></g><g transform="translate(39.677469354838195 51.7741435483872) rotate(90.0000000000004 3.2258064516129252 2.580645161290363)" stroke="none"><path fill="#868e96" d="M 1.35,-1.69 Q 1.35,-1.69 4.04,0.36 6.72,2.43 6.97,2.70 7.22,2.98 7.36,3.32 7.51,3.66 7.54,4.03 7.57,4.41 7.49,4.77 7.40,5.13 7.20,5.44 7.00,5.76 6.71,5.99 6.42,6.22 6.07,6.35 5.72,6.48 5.35,6.49 4.98,6.50 4.62,6.40 4.26,6.29 3.96,6.07 3.66,5.85 3.44,5.55 3.22,5.25 3.11,4.90 3.00,4.54 3.01,4.17 3.02,3.80 3.15,3.45 3.28,3.10 3.51,2.81 3.74,2.51 4.05,2.31 4.37,2.11 4.73,2.02 5.09,1.93 5.46,1.96 5.83,1.99 6.17,2.14 6.52,2.28 6.79,2.53 7.07,2.78 7.26,3.10 7.44,3.43 7.51,3.79 7.58,4.16 7.53,4.53 7.48,4.89 7.32,5.23 7.15,5.56 6.89,5.83 6.63,6.09 6.29,6.26 5.96,6.42 5.59,6.47 5.22,6.52 4.86,6.45 4.49,6.39 4.17,6.20 3.84,6.02 3.84,6.02 3.84,6.02 1.24,3.86 -1.35,1.69 -1.54,1.50 -1.72,1.32 -1.85,1.09 -1.98,0.87 -2.06,0.62 -2.14,0.36 -2.15,0.10 -2.16,-0.15 -2.11,-0.41 -2.06,-0.66 -1.95,-0.90 -1.84,-1.14 -1.68,-1.34 -1.52,-1.55 -1.31,-1.71 -1.10,-1.87 -0.86,-1.97 -0.62,-2.08 -0.36,-2.12 -0.10,-2.16 0.15,-2.15 0.41,-2.13 0.66,-2.05 0.91,-1.97 1.13,-1.83 1.35,-1.69 1.35,-1.69 L 1.35,-1.69 Z"></path></g><g transform="translate(52.41940483870917 36.774143548386974) rotate(90.0000000000004 3.5483870967741495 2.419354838709637)" stroke="none"><path fill="#e03131" d="M 1.26,-1.90 Q 1.26,-1.90 2.64,-0.95 4.02,-0.01 5.84,1.17 7.66,2.35 7.93,2.61 8.21,2.88 8.39,3.22 8.56,3.56 8.62,3.94 8.68,4.32 8.61,4.69 8.55,5.07 8.37,5.41 8.18,5.74 7.90,6.01 7.62,6.27 7.27,6.42 6.92,6.58 6.54,6.62 6.16,6.66 5.79,6.57 5.42,6.49 5.09,6.29 4.76,6.08 4.52,5.79 4.27,5.50 4.13,5.14 4.00,4.78 3.98,4.40 3.96,4.02 4.07,3.65 4.17,3.28 4.39,2.97 4.61,2.65 4.92,2.42 5.22,2.19 5.59,2.07 5.95,1.96 6.33,1.96 6.72,1.96 7.08,2.09 7.44,2.21 7.74,2.45 8.05,2.68 8.26,3.00 8.47,3.32 8.57,3.69 8.67,4.06 8.64,4.44 8.62,4.83 8.47,5.18 8.33,5.53 8.08,5.82 7.83,6.11 7.50,6.31 7.17,6.50 6.79,6.58 6.42,6.66 6.04,6.61 5.66,6.57 5.31,6.41 4.97,6.24 4.97,6.24 4.97,6.24 3.25,4.98 1.53,3.72 0.13,2.81 -1.26,1.90 -1.47,1.72 -1.68,1.54 -1.84,1.31 -2.00,1.09 -2.10,0.83 -2.20,0.58 -2.24,0.30 -2.28,0.03 -2.25,-0.23 -2.22,-0.51 -2.13,-0.77 -2.03,-1.02 -1.88,-1.25 -1.73,-1.48 -1.53,-1.67 -1.32,-1.85 -1.08,-1.99 -0.84,-2.12 -0.57,-2.19 -0.31,-2.26 -0.03,-2.26 0.23,-2.27 0.50,-2.21 0.77,-2.14 1.02,-2.02 1.26,-1.90 1.26,-1.90 L 1.26,-1.90 Z"></path></g><g transform="translate(93.87091774193573 58.54833709677405) rotate(90.0000000000004 0.00004999999998744897 0.00004999999998744897)" stroke="none"><path fill="#e03131" d="M 1.57,-1.57 Q 1.57,-1.57 1.77,-1.27 1.98,-0.98 2.09,-0.64 2.20,-0.29 2.19,0.05 2.18,0.41 2.05,0.75 1.93,1.09 1.70,1.37 1.48,1.65 1.18,1.84 0.87,2.04 0.52,2.12 0.18,2.21 -0.17,2.18 -0.53,2.15 -0.86,2.01 -1.19,1.87 -1.46,1.63 -1.73,1.39 -1.90,1.07 -2.08,0.76 -2.15,0.41 -2.21,0.05 -2.17,-0.29 -2.12,-0.65 -1.96,-0.97 -1.80,-1.29 -1.54,-1.54 -1.29,-1.80 -0.97,-1.96 -0.65,-2.12 -0.29,-2.17 0.06,-2.21 0.41,-2.15 0.76,-2.08 1.07,-1.90 1.39,-1.73 1.63,-1.46 1.87,-1.19 2.01,-0.86 2.15,-0.53 2.18,-0.17 2.21,0.18 2.12,0.52 2.03,0.87 1.84,1.18 1.65,1.48 1.37,1.70 1.09,1.93 0.75,2.05 0.41,2.18 0.05,2.19 -0.30,2.20 -0.64,2.09 -0.98,1.98 -1.27,1.77 -1.57,1.56 -1.57,1.57 -1.57,1.57 -1.73,1.35 -1.90,1.14 -2.01,0.90 -2.12,0.66 -2.16,0.39 -2.21,0.13 -2.20,-0.13 -2.18,-0.40 -2.10,-0.65 -2.02,-0.91 -1.88,-1.14 -1.74,-1.36 -1.55,-1.55 -1.36,-1.74 -1.14,-1.88 -0.91,-2.02 -0.65,-2.10 -0.40,-2.18 -0.13,-2.20 0.13,-2.21 0.39,-2.16 0.66,-2.12 0.90,-2.01 1.14,-1.90 1.35,-1.73 1.57,-1.57 1.57,-1.57 L 1.57,-1.57 Z"></path></g><g transform="translate(79.35478870967677 74.03220806451554) rotate(90.0000000000004 0.00004999999998744897 0.00004999999998744897)" stroke="none"><path fill="#e03131" d="M 1.57,-1.57 Q 1.57,-1.57 1.77,-1.27 1.98,-0.98 2.09,-0.64 2.20,-0.29 2.19,0.05 2.18,0.41 2.05,0.75 1.93,1.09 1.70,1.37 1.48,1.65 1.18,1.84 0.87,2.04 0.52,2.12 0.18,2.21 -0.17,2.18 -0.53,2.15 -0.86,2.01 -1.19,1.87 -1.46,1.63 -1.73,1.39 -1.90,1.07 -2.08,0.76 -2.15,0.41 -2.21,0.05 -2.17,-0.29 -2.12,-0.65 -1.96,-0.97 -1.80,-1.29 -1.54,-1.54 -1.29,-1.80 -0.97,-1.96 -0.65,-2.12 -0.29,-2.17 0.06,-2.21 0.41,-2.15 0.76,-2.08 1.07,-1.90 1.39,-1.73 1.63,-1.46 1.87,-1.19 2.01,-0.86 2.15,-0.53 2.18,-0.17 2.21,0.18 2.12,0.52 2.03,0.87 1.84,1.18 1.65,1.48 1.37,1.70 1.09,1.93 0.75,2.05 0.41,2.18 0.05,2.19 -0.30,2.20 -0.64,2.09 -0.98,1.98 -1.27,1.77 -1.57,1.56 -1.57,1.57 -1.57,1.57 -1.73,1.35 -1.90,1.14 -2.01,0.90 -2.12,0.66 -2.16,0.39 -2.21,0.13 -2.20,-0.13 -2.18,-0.40 -2.10,-0.65 -2.02,-0.91 -1.88,-1.14 -1.74,-1.36 -1.55,-1.55 -1.36,-1.74 -1.14,-1.88 -0.91,-2.02 -0.65,-2.10 -0.40,-2.18 -0.13,-2.20 0.13,-2.21 0.39,-2.16 0.66,-2.12 0.90,-2.01 1.14,-1.90 1.35,-1.73 1.57,-1.57 1.57,-1.57 L 1.57,-1.57 Z"></path></g><g transform="translate(66.12898225806362 89.19349838709627) rotate(90.0000000000004 0.00004999999998744897 0.00005000000010113581)" stroke="none"><path fill="#e03131" d="M 1.57,-1.57 Q 1.57,-1.57 1.77,-1.27 1.98,-0.98 2.09,-0.64 2.20,-0.29 2.19,0.05 2.18,0.41 2.05,0.75 1.93,1.09 1.70,1.37 1.48,1.65 1.18,1.84 0.87,2.04 0.52,2.12 0.18,2.21 -0.17,2.18 -0.53,2.15 -0.86,2.01 -1.19,1.87 -1.46,1.63 -1.73,1.39 -1.90,1.07 -2.08,0.76 -2.15,0.41 -2.21,0.05 -2.17,-0.29 -2.12,-0.65 -1.96,-0.97 -1.80,-1.29 -1.54,-1.54 -1.29,-1.80 -0.97,-1.96 -0.65,-2.12 -0.29,-2.17 0.06,-2.21 0.41,-2.15 0.76,-2.08 1.07,-1.90 1.39,-1.73 1.63,-1.46 1.87,-1.19 2.01,-0.86 2.15,-0.53 2.18,-0.17 2.21,0.18 2.12,0.52 2.03,0.87 1.84,1.18 1.65,1.48 1.37,1.70 1.09,1.93 0.75,2.05 0.41,2.18 0.05,2.19 -0.30,2.20 -0.64,2.09 -0.98,1.98 -1.27,1.77 -1.57,1.56 -1.57,1.57 -1.57,1.57 -1.73,1.35 -1.90,1.14 -2.01,0.90 -2.12,0.66 -2.16,0.39 -2.21,0.13 -2.20,-0.13 -2.18,-0.40 -2.10,-0.65 -2.02,-0.91 -1.88,-1.14 -1.74,-1.36 -1.55,-1.55 -1.36,-1.74 -1.14,-1.88 -0.91,-2.02 -0.65,-2.10 -0.40,-2.18 -0.13,-2.20 0.13,-2.21 0.39,-2.16 0.66,-2.12 0.90,-2.01 1.14,-1.90 1.35,-1.73 1.57,-1.57 1.57,-1.57 L 1.57,-1.57 Z"></path></g><g transform="translate(70.32263064516042 78.8709177419355) rotate(90.0000000000004 3.2258064516129252 2.580645161290363)" stroke="none"><path fill="#e03131" d="M 1.35,-1.69 Q 1.35,-1.69 4.04,0.36 6.72,2.43 6.97,2.70 7.22,2.98 7.36,3.32 7.51,3.66 7.54,4.03 7.57,4.41 7.49,4.77 7.40,5.13 7.20,5.44 7.00,5.76 6.71,5.99 6.42,6.22 6.07,6.35 5.72,6.48 5.35,6.49 4.98,6.50 4.62,6.40 4.26,6.29 3.96,6.07 3.66,5.85 3.44,5.55 3.22,5.25 3.11,4.90 3.00,4.54 3.01,4.17 3.02,3.80 3.15,3.45 3.28,3.10 3.51,2.81 3.74,2.51 4.05,2.31 4.37,2.11 4.73,2.02 5.09,1.93 5.46,1.96 5.83,1.99 6.17,2.14 6.52,2.28 6.79,2.53 7.07,2.78 7.26,3.10 7.44,3.43 7.51,3.79 7.58,4.16 7.53,4.53 7.48,4.89 7.32,5.23 7.15,5.56 6.89,5.83 6.63,6.09 6.29,6.26 5.96,6.42 5.59,6.47 5.22,6.52 4.86,6.45 4.49,6.39 4.17,6.20 3.84,6.02 3.84,6.02 3.84,6.02 1.24,3.86 -1.35,1.69 -1.54,1.50 -1.72,1.32 -1.85,1.09 -1.98,0.87 -2.06,0.62 -2.14,0.36 -2.15,0.10 -2.16,-0.15 -2.11,-0.41 -2.06,-0.66 -1.95,-0.90 -1.84,-1.14 -1.68,-1.34 -1.52,-1.55 -1.31,-1.71 -1.10,-1.87 -0.86,-1.97 -0.62,-2.08 -0.36,-2.12 -0.10,-2.16 0.15,-2.15 0.41,-2.13 0.66,-2.05 0.91,-1.97 1.13,-1.83 1.35,-1.69 1.35,-1.69 L 1.35,-1.69 Z"></path></g><g transform="translate(83.06456612903162 63.8709177419355) rotate(90.0000000000004 3.5483870967741495 2.419354838709637)" stroke="none"><path fill="#868e96" d="M 1.26,-1.90 Q 1.26,-1.90 2.64,-0.95 4.02,-0.01 5.84,1.17 7.66,2.35 7.93,2.61 8.21,2.88 8.39,3.22 8.56,3.56 8.62,3.94 8.68,4.32 8.61,4.69 8.55,5.07 8.37,5.41 8.18,5.74 7.90,6.01 7.62,6.27 7.27,6.42 6.92,6.58 6.54,6.62 6.16,6.66 5.79,6.57 5.42,6.49 5.09,6.29 4.76,6.08 4.52,5.79 4.27,5.50 4.13,5.14 4.00,4.78 3.98,4.40 3.96,4.02 4.07,3.65 4.17,3.28 4.39,2.97 4.61,2.65 4.92,2.42 5.22,2.19 5.59,2.07 5.95,1.96 6.33,1.96 6.72,1.96 7.08,2.09 7.44,2.21 7.74,2.45 8.05,2.68 8.26,3.00 8.47,3.32 8.57,3.69 8.67,4.06 8.64,4.44 8.62,4.83 8.47,5.18 8.33,5.53 8.08,5.82 7.83,6.11 7.50,6.31 7.17,6.50 6.79,6.58 6.42,6.66 6.04,6.61 5.66,6.57 5.31,6.41 4.97,6.24 4.97,6.24 4.97,6.24 3.25,4.98 1.53,3.72 0.13,2.81 -1.26,1.90 -1.47,1.72 -1.68,1.54 -1.84,1.31 -2.00,1.09 -2.10,0.83 -2.20,0.58 -2.24,0.30 -2.28,0.03 -2.25,-0.23 -2.22,-0.51 -2.13,-0.77 -2.03,-1.02 -1.88,-1.25 -1.73,-1.48 -1.53,-1.67 -1.32,-1.85 -1.08,-1.99 -0.84,-2.12 -0.57,-2.19 -0.31,-2.26 -0.03,-2.26 0.23,-2.27 0.50,-2.21 0.77,-2.14 1.02,-2.02 1.26,-1.90 1.26,-1.90 L 1.26,-1.90 Z"></path></g><g transform="translate(53.225806451612925 50.9677419354839) rotate(0 10.9677419354839 9.677419354838662)" stroke="none"><path fill="#e03131" d="M 1.13,-1.48 Q 1.13,-1.48 3.50,0.43 5.87,2.34 8.46,4.59 11.05,6.83 14.30,9.95 17.55,13.07 19.09,14.58 20.63,16.09 21.84,17.13 23.05,18.17 23.21,18.38 23.37,18.59 23.46,18.84 23.54,19.09 23.54,19.35 23.54,19.62 23.45,19.87 23.37,20.12 23.21,20.33 23.05,20.54 22.83,20.68 22.61,20.83 22.36,20.90 22.10,20.97 21.84,20.96 21.58,20.94 21.33,20.84 21.09,20.75 20.89,20.57 20.69,20.40 20.55,20.18 20.41,19.95 20.36,19.69 20.30,19.43 20.33,19.17 20.36,18.91 20.47,18.67 20.58,18.43 20.76,18.24 20.95,18.05 21.18,17.93 21.41,17.80 21.67,17.76 21.93,17.72 22.19,17.76 22.45,17.81 22.69,17.93 22.92,18.05 23.10,18.25 23.28,18.44 23.39,18.68 23.50,18.92 23.53,19.18 23.56,19.44 23.50,19.70 23.44,19.96 23.31,20.18 23.17,20.41 22.97,20.58 22.77,20.75 22.52,20.85 22.28,20.94 22.01,20.96 21.75,20.97 21.50,20.90 21.24,20.83 21.02,20.68 20.81,20.53 20.81,20.53 20.81,20.53 19.71,19.38 18.61,18.22 17.03,16.76 15.45,15.29 12.22,12.30 8.99,9.30 6.38,7.18 3.77,5.07 1.31,3.27 -1.13,1.48 -1.30,1.32 -1.46,1.16 -1.57,0.97 -1.69,0.78 -1.76,0.56 -1.83,0.35 -1.85,0.12 -1.86,-0.09 -1.82,-0.31 -1.78,-0.54 -1.69,-0.74 -1.60,-0.95 -1.47,-1.13 -1.33,-1.31 -1.15,-1.45 -0.98,-1.59 -0.77,-1.68 -0.57,-1.77 -0.35,-1.82 -0.12,-1.86 0.09,-1.85 0.32,-1.84 0.53,-1.77 0.75,-1.71 0.94,-1.59 1.13,-1.48 1.13,-1.48 L 1.13,-1.48 Z"></path></g><g transform="translate(29.0322580645161 60.64516129032245) rotate(0 -8.709677419354875 0)" stroke="none"><path fill="#e03131" d="M 0,1.99 Q 0,1.99 -4.54,1.89 -9.08,1.80 -11.48,1.74 -13.87,1.67 -15.64,1.70 -17.41,1.73 -17.69,1.68 -17.97,1.64 -18.22,1.51 -18.46,1.38 -18.66,1.17 -18.85,0.97 -18.97,0.71 -19.09,0.46 -19.12,0.18 -19.15,-0.09 -19.09,-0.36 -19.03,-0.64 -18.88,-0.88 -18.74,-1.12 -18.52,-1.30 -18.31,-1.48 -18.05,-1.59 -17.79,-1.69 -17.51,-1.70 -17.23,-1.72 -16.96,-1.64 -16.69,-1.57 -16.45,-1.41 -16.22,-1.25 -16.05,-1.03 -15.88,-0.81 -15.79,-0.54 -15.70,-0.28 -15.70,0.00 -15.70,0.28 -15.79,0.54 -15.88,0.81 -16.05,1.03 -16.22,1.25 -16.45,1.41 -16.69,1.57 -16.96,1.64 -17.23,1.72 -17.51,1.70 -17.79,1.69 -18.05,1.58 -18.31,1.48 -18.52,1.30 -18.74,1.12 -18.88,0.88 -19.03,0.64 -19.09,0.36 -19.15,0.09 -19.12,-0.18 -19.09,-0.46 -18.97,-0.71 -18.85,-0.97 -18.66,-1.17 -18.46,-1.38 -18.22,-1.51 -17.97,-1.64 -17.69,-1.68 -17.41,-1.73 -17.41,-1.73 -17.41,-1.73 -15.64,-1.70 -13.87,-1.67 -11.48,-1.74 -9.08,-1.80 -4.54,-1.89 0,-1.99 0.23,-1.96 0.47,-1.93 0.70,-1.84 0.92,-1.76 1.12,-1.62 1.31,-1.48 1.47,-1.31 1.63,-1.13 1.74,-0.91 1.86,-0.70 1.91,-0.47 1.97,-0.23 1.97,0.00 1.97,0.24 1.91,0.47 1.86,0.70 1.74,0.91 1.63,1.13 1.47,1.31 1.31,1.48 1.12,1.62 0.92,1.76 0.70,1.84 0.47,1.93 0.23,1.96 -0.00,1.99 -0.00,1.99 L 0,1.99 Z"></path></g><g transform="translate(10 56.774193548387075) rotate(0 0 4.0322580645161)" stroke="none"><path fill="#e03131" d="M 2.09,0 Q 2.09,0 1.98,2.31 1.88,4.63 1.90,6.35 1.91,8.06 1.86,8.37 1.81,8.67 1.67,8.95 1.52,9.22 1.30,9.43 1.07,9.65 0.79,9.78 0.51,9.91 0.20,9.94 -0.10,9.97 -0.40,9.91 -0.70,9.84 -0.97,9.68 -1.24,9.52 -1.44,9.28 -1.64,9.05 -1.75,8.76 -1.87,8.47 -1.88,8.16 -1.90,7.85 -1.82,7.55 -1.73,7.25 -1.56,7.00 -1.39,6.74 -1.14,6.55 -0.89,6.37 -0.60,6.27 -0.30,6.17 0.00,6.17 0.31,6.17 0.60,6.27 0.89,6.37 1.14,6.55 1.39,6.74 1.56,7.00 1.74,7.25 1.82,7.55 1.90,7.85 1.88,8.16 1.87,8.47 1.75,8.76 1.64,9.05 1.44,9.28 1.24,9.52 0.97,9.68 0.70,9.84 0.40,9.91 0.10,9.97 -0.20,9.94 -0.51,9.91 -0.79,9.78 -1.07,9.65 -1.30,9.43 -1.52,9.22 -1.67,8.95 -1.81,8.67 -1.86,8.37 -1.91,8.06 -1.91,8.06 -1.91,8.06 -1.90,6.35 -1.88,4.63 -1.98,2.31 -2.09,0 -2.06,-0.25 -2.03,-0.50 -1.94,-0.73 -1.85,-0.97 -1.71,-1.18 -1.56,-1.38 -1.37,-1.55 -1.18,-1.72 -0.96,-1.84 -0.74,-1.95 -0.49,-2.01 -0.25,-2.07 0.00,-2.07 0.25,-2.07 0.49,-2.01 0.74,-1.95 0.96,-1.84 1.18,-1.72 1.37,-1.55 1.56,-1.38 1.71,-1.18 1.85,-0.97 1.94,-0.73 2.03,-0.50 2.06,-0.25 2.09,0.00 2.09,0.00 L 2.09,0 Z"></path></g><g transform="translate(61.612903225806576 24.193548387096826) rotate(0 -0.322580645161338 -5.645161290322676)" stroke="none"><path fill="#868e96" d="M -1.99,0.11 Q -1.99,0.11 -2.08,-3.13 -2.18,-6.38 -2.25,-8.79 -2.32,-11.19 -2.29,-11.46 -2.26,-11.73 -2.15,-11.98 -2.03,-12.22 -1.85,-12.42 -1.66,-12.62 -1.42,-12.75 -1.18,-12.88 -0.91,-12.92 -0.64,-12.96 -0.38,-12.92 -0.11,-12.88 0.12,-12.75 0.36,-12.63 0.55,-12.43 0.74,-12.23 0.85,-11.99 0.97,-11.74 1.00,-11.47 1.03,-11.20 0.97,-10.93 0.91,-10.67 0.77,-10.43 0.63,-10.20 0.43,-10.03 0.22,-9.85 -0.02,-9.75 -0.27,-9.65 -0.55,-9.63 -0.82,-9.62 -1.08,-9.69 -1.34,-9.76 -1.57,-9.91 -1.79,-10.06 -1.96,-10.28 -2.12,-10.49 -2.21,-10.75 -2.30,-11.01 -2.30,-11.28 -2.30,-11.55 -2.21,-11.81 -2.13,-12.07 -1.96,-12.28 -1.80,-12.50 -1.57,-12.65 -1.35,-12.81 -1.09,-12.88 -0.83,-12.95 -0.55,-12.94 -0.28,-12.93 -0.03,-12.83 0.21,-12.73 0.42,-12.55 0.63,-12.38 0.77,-12.14 0.91,-11.91 0.97,-11.65 1.03,-11.38 1.03,-11.38 1.03,-11.38 1.23,-8.99 1.44,-6.59 1.71,-3.35 1.99,-0.11 1.97,0.12 1.96,0.36 1.89,0.59 1.81,0.82 1.69,1.03 1.56,1.23 1.39,1.40 1.22,1.57 1.02,1.70 0.81,1.82 0.58,1.89 0.35,1.96 0.11,1.98 -0.12,1.99 -0.36,1.94 -0.60,1.90 -0.82,1.80 -1.03,1.70 -1.22,1.55 -1.41,1.40 -1.56,1.21 -1.71,1.02 -1.81,0.80 -1.90,0.58 -1.95,0.35 -1.99,0.11 -1.99,0.11 L -1.99,0.11 Z"></path></g><g transform="translate(58.387096774193424 10.645161290322449) rotate(0 3.3870967741935374 -0.3225806451612243)" stroke="none"><path fill="#868e96" d="M -0.22,-2.28 Q -0.22,-2.28 1.63,-2.41 3.49,-2.53 5.03,-2.73 6.56,-2.94 6.94,-2.91 7.31,-2.88 7.65,-2.74 8.00,-2.59 8.28,-2.35 8.56,-2.10 8.74,-1.78 8.93,-1.45 9.00,-1.09 9.07,-0.72 9.03,-0.35 8.98,0.01 8.82,0.35 8.65,0.68 8.39,0.95 8.13,1.21 7.80,1.38 7.46,1.55 7.09,1.60 6.72,1.66 6.36,1.59 5.99,1.52 5.66,1.34 5.34,1.16 5.09,0.88 4.84,0.61 4.69,0.27 4.54,-0.07 4.50,-0.44 4.47,-0.81 4.56,-1.17 4.64,-1.54 4.84,-1.85 5.04,-2.17 5.33,-2.40 5.62,-2.64 5.97,-2.77 6.32,-2.90 6.69,-2.92 7.06,-2.93 7.42,-2.82 7.78,-2.71 8.08,-2.50 8.39,-2.28 8.61,-1.98 8.83,-1.68 8.94,-1.33 9.05,-0.97 9.05,-0.60 9.04,-0.22 8.91,0.12 8.79,0.47 8.55,0.76 8.32,1.05 8.01,1.26 7.70,1.46 7.34,1.55 6.97,1.65 6.97,1.65 6.97,1.65 5.45,1.72 3.92,1.79 2.07,2.04 0.22,2.28 -0.04,2.28 -0.32,2.27 -0.59,2.20 -0.86,2.13 -1.10,1.99 -1.34,1.86 -1.54,1.67 -1.75,1.48 -1.90,1.25 -2.05,1.02 -2.15,0.76 -2.24,0.50 -2.27,0.22 -2.29,-0.04 -2.25,-0.32 -2.22,-0.59 -2.11,-0.85 -2.01,-1.11 -1.85,-1.33 -1.68,-1.56 -1.47,-1.74 -1.26,-1.91 -1.01,-2.04 -0.76,-2.16 -0.49,-2.22 -0.22,-2.28 -0.22,-2.28 L -0.22,-2.28 Z"></path></g><g transform="translate(100.32258064516122 58.0645161290322) rotate(0 6.290322580645125 0)" stroke="none"><path fill="#e03131" d="M 0,-2.33 Q 0,-2.33 2.22,-2.20 4.45,-2.07 6.30,-2.20 8.15,-2.34 10.36,-2.39 12.58,-2.45 12.97,-2.38 13.36,-2.32 13.71,-2.13 14.06,-1.95 14.33,-1.66 14.61,-1.37 14.77,-1.01 14.94,-0.65 14.98,-0.26 15.03,0.13 14.94,0.52 14.85,0.90 14.65,1.24 14.45,1.58 14.14,1.84 13.84,2.10 13.47,2.24 13.10,2.39 12.71,2.41 12.31,2.43 11.93,2.33 11.55,2.22 11.22,2.00 10.89,1.78 10.65,1.46 10.41,1.14 10.28,0.77 10.15,0.39 10.15,-0.00 10.15,-0.39 10.28,-0.77 10.41,-1.14 10.65,-1.46 10.89,-1.78 11.22,-2.00 11.55,-2.22 11.93,-2.33 12.31,-2.43 12.71,-2.41 13.10,-2.39 13.47,-2.24 13.84,-2.10 14.14,-1.84 14.45,-1.58 14.65,-1.24 14.85,-0.90 14.94,-0.51 15.03,-0.13 14.98,0.26 14.94,0.65 14.77,1.01 14.61,1.37 14.33,1.66 14.06,1.95 13.71,2.13 13.36,2.32 12.97,2.38 12.57,2.45 12.58,2.45 12.58,2.45 10.36,2.39 8.15,2.34 6.30,2.20 4.45,2.07 2.22,2.20 0,2.33 -0.27,2.30 -0.55,2.27 -0.82,2.17 -1.08,2.07 -1.31,1.91 -1.55,1.75 -1.73,1.54 -1.92,1.32 -2.05,1.07 -2.18,0.82 -2.25,0.55 -2.32,0.28 -2.32,-0.00 -2.32,-0.28 -2.25,-0.55 -2.18,-0.82 -2.05,-1.07 -1.92,-1.32 -1.73,-1.54 -1.55,-1.75 -1.31,-1.91 -1.08,-2.07 -0.82,-2.17 -0.55,-2.27 -0.27,-2.30 0.00,-2.33 0.00,-2.33 L 0,-2.33 Z"></path></g><g transform="translate(115.80645161290317 53.54838709677415) rotate(0 0.48387096774195015 5.48387096774195)" stroke="none"><path fill="#e03131" d="M 1.99,-0.17 Q 1.99,-0.17 2.17,2.98 2.36,6.14 2.50,8.48 2.64,10.82 2.62,11.09 2.60,11.36 2.49,11.61 2.38,11.86 2.20,12.06 2.02,12.26 1.79,12.40 1.55,12.54 1.29,12.59 1.02,12.64 0.75,12.61 0.48,12.57 0.24,12.45 -0.00,12.33 -0.19,12.14 -0.38,11.95 -0.51,11.71 -0.63,11.47 -0.67,11.20 -0.71,10.93 -0.66,10.66 -0.61,10.39 -0.48,10.16 -0.34,9.92 -0.14,9.74 0.05,9.55 0.30,9.44 0.55,9.34 0.82,9.31 1.09,9.29 1.35,9.35 1.62,9.42 1.85,9.56 2.08,9.71 2.25,9.92 2.42,10.13 2.51,10.38 2.61,10.64 2.62,10.91 2.63,11.18 2.55,11.44 2.47,11.70 2.32,11.92 2.16,12.14 1.94,12.30 1.72,12.46 1.46,12.54 1.20,12.63 0.93,12.62 0.66,12.61 0.40,12.52 0.15,12.43 -0.06,12.26 -0.27,12.09 -0.42,11.86 -0.57,11.64 -0.63,11.37 -0.70,11.11 -0.70,11.11 -0.70,11.11 -0.97,8.79 -1.25,6.46 -1.62,3.32 -1.99,0.17 -1.98,-0.06 -1.97,-0.30 -1.90,-0.53 -1.84,-0.76 -1.72,-0.97 -1.60,-1.18 -1.44,-1.36 -1.27,-1.53 -1.07,-1.66 -0.86,-1.79 -0.64,-1.87 -0.41,-1.95 -0.17,-1.97 0.06,-1.99 0.30,-1.96 0.54,-1.92 0.76,-1.83 0.98,-1.73 1.17,-1.59 1.37,-1.45 1.52,-1.26 1.68,-1.08 1.78,-0.86 1.89,-0.64 1.94,-0.41 1.99,-0.17 1.99,-0.17 L 1.99,-0.17 Z"></path></g><g transform="translate(64.8387096774195 95.16129032258073) rotate(0 0.8064516129031745 8.225806451612925)" stroke="none"><path fill="#868e96" d="M 1.97,-0.13 Q 1.97,-0.13 2.16,3.85 2.35,7.85 2.58,10.24 2.82,12.64 3.06,14.44 3.31,16.23 3.30,16.51 3.29,16.79 3.19,17.05 3.09,17.31 2.91,17.52 2.74,17.74 2.50,17.88 2.27,18.03 2.00,18.09 1.73,18.16 1.45,18.13 1.18,18.11 0.92,17.99 0.67,17.88 0.46,17.69 0.26,17.51 0.13,17.26 -0.00,17.02 -0.05,16.75 -0.10,16.47 -0.06,16.20 -0.01,15.92 0.10,15.68 0.23,15.43 0.43,15.24 0.62,15.04 0.87,14.92 1.12,14.80 1.40,14.77 1.67,14.73 1.95,14.79 2.22,14.84 2.46,14.98 2.70,15.12 2.88,15.33 3.06,15.54 3.17,15.80 3.28,16.05 3.30,16.33 3.31,16.61 3.24,16.87 3.17,17.14 3.02,17.37 2.87,17.61 2.65,17.78 2.43,17.95 2.17,18.04 1.91,18.13 1.63,18.14 1.36,18.14 1.09,18.06 0.83,17.97 0.61,17.81 0.38,17.64 0.22,17.42 0.06,17.19 -0.00,16.92 -0.08,16.66 -0.08,16.66 -0.08,16.66 -0.29,14.85 -0.49,13.05 -0.86,10.57 -1.24,8.10 -1.60,4.11 -1.97,0.13 -1.96,-0.10 -1.95,-0.33 -1.88,-0.56 -1.81,-0.79 -1.69,-1.00 -1.57,-1.20 -1.40,-1.37 -1.23,-1.54 -1.03,-1.67 -0.82,-1.79 -0.60,-1.87 -0.37,-1.94 -0.13,-1.96 0.10,-1.97 0.33,-1.93 0.57,-1.89 0.79,-1.80 1.00,-1.70 1.19,-1.55 1.38,-1.41 1.53,-1.22 1.68,-1.04 1.78,-0.82 1.88,-0.60 1.93,-0.37 1.97,-0.13 1.97,-0.13 L 1.97,-0.13 Z"></path></g><g transform="translate(60.322580645161224 112.25806451612902) rotate(0 6.451612903225737 0.3225806451612243)" stroke="none"><path fill="#868e96" d="M 0.21,-1.99 Q 0.21,-1.99 1.97,-1.80 3.73,-1.60 6.35,-1.44 8.96,-1.27 10.96,-1.18 12.95,-1.09 13.23,-1.04 13.50,-0.98 13.75,-0.84 13.99,-0.70 14.18,-0.49 14.37,-0.28 14.48,-0.03 14.59,0.22 14.61,0.50 14.63,0.79 14.56,1.06 14.50,1.33 14.34,1.57 14.19,1.81 13.97,1.98 13.75,2.16 13.49,2.25 13.22,2.35 12.94,2.36 12.66,2.37 12.39,2.28 12.12,2.20 11.89,2.03 11.66,1.87 11.50,1.64 11.34,1.41 11.25,1.14 11.17,0.87 11.18,0.59 11.19,0.31 11.29,0.04 11.38,-0.21 11.56,-0.43 11.74,-0.65 11.98,-0.80 12.21,-0.95 12.49,-1.02 12.76,-1.09 13.04,-1.06 13.32,-1.04 13.58,-0.93 13.84,-0.81 14.05,-0.63 14.26,-0.44 14.40,-0.19 14.53,0.04 14.59,0.32 14.64,0.60 14.60,0.88 14.56,1.16 14.44,1.41 14.31,1.66 14.11,1.86 13.91,2.06 13.66,2.18 13.41,2.31 13.13,2.34 12.85,2.38 12.85,2.38 12.85,2.38 10.85,2.36 8.86,2.33 6.09,2.34 3.31,2.34 1.55,2.17 -0.21,1.99 -0.44,1.94 -0.68,1.88 -0.89,1.77 -1.11,1.66 -1.29,1.51 -1.48,1.35 -1.62,1.15 -1.76,0.96 -1.85,0.73 -1.94,0.51 -1.97,0.27 -2.00,0.03 -1.98,-0.20 -1.95,-0.44 -1.87,-0.67 -1.79,-0.90 -1.65,-1.10 -1.52,-1.30 -1.34,-1.47 -1.16,-1.63 -0.95,-1.74 -0.74,-1.86 -0.50,-1.92 -0.27,-1.98 -0.03,-1.99 0.21,-1.99 0.21,-1.99 L 0.21,-1.99 Z"></path></g></svg>